<svg xmlns="http://www.w3.org/2000/svg" width="16.465" height="16.469" viewBox="0 0 16.465 16.469"><defs><style>.a{fill:#6c68fd;}</style></defs><path class="a" d="M11.173,13.047C10.691,10.082,9.556,8,8.234,8S5.777,10.082,5.3,13.047ZM5.047,16.234a20.811,20.811,0,0,0,.11,2.125h6.152a20.811,20.811,0,0,0,.11-2.125,20.811,20.811,0,0,0-.11-2.125H5.156A20.811,20.811,0,0,0,5.047,16.234Zm10.781-3.187a8.252,8.252,0,0,0-5.246-4.7,11.206,11.206,0,0,1,1.66,4.7Zm-9.944-4.7a8.246,8.246,0,0,0-5.243,4.7H4.227a11.161,11.161,0,0,1,1.657-4.7Zm10.3,5.764H12.375c.07.7.11,1.411.11,2.125s-.04,1.428-.11,2.125h3.8a8.163,8.163,0,0,0,.286-2.125,8.306,8.306,0,0,0-.282-2.125Zm-12.2,2.125c0-.714.04-1.428.11-2.125H.286a8.05,8.05,0,0,0,0,4.25h3.8C4.024,17.662,3.984,16.948,3.984,16.234ZM5.3,19.422c.481,2.965,1.617,5.047,2.938,5.047s2.457-2.082,2.938-5.047Zm5.289,4.7a8.259,8.259,0,0,0,5.246-4.7H12.245A11.206,11.206,0,0,1,10.585,24.123Zm-9.944-4.7a8.252,8.252,0,0,0,5.246,4.7,11.206,11.206,0,0,1-1.66-4.7H.641Z" transform="translate(0 -8)"/></svg>