<svg xmlns="http://www.w3.org/2000/svg" width="59.074" height="59.073" viewBox="0 0 59.074 59.073"><defs><style>.a{fill:#635ffc;}</style></defs><path class="a" d="M11.894,57.871a18.077,18.077,0,0,1,9.982-12.619,116.319,116.319,0,0,1,6.685,10.417A67.173,67.173,0,0,1,11.894,57.871Zm29.59-9.784a17.957,17.957,0,0,0-16.166-4.035A96.993,96.993,0,0,1,32.042,54.6C38.451,52.188,41.154,48.549,41.484,48.087ZM18.474,75.778a17.987,17.987,0,0,0,18.1,2.373,74.4,74.4,0,0,0-3.85-13.661c-7.266,2.479-12.369,7.437-14.254,11.287ZM31.5,61.51c-.448-1.029-.949-2.044-1.464-3.059a65.986,65.986,0,0,1-18.513,2.558c0,.185-.013.369-.013.554A17.988,17.988,0,0,0,16.14,73.615c2.927-5,8.848-10.272,15.362-12.1Zm4.6,2.149A77.056,77.056,0,0,1,39.6,76.5a18.04,18.04,0,0,0,7.727-12.078A26.293,26.293,0,0,0,36.1,63.66Zm-2.677-6.382c.633,1.292,1.094,2.347,1.582,3.534a42,42,0,0,1,12.553.58A17.849,17.849,0,0,0,43.488,50.17C43.105,50.685,40.086,54.548,33.427,57.278ZM59.074,38.329V84.744a6.331,6.331,0,0,1-6.329,6.329H6.329A6.331,6.331,0,0,1,0,84.744V38.329A6.331,6.331,0,0,1,6.329,32H52.745A6.331,6.331,0,0,1,59.074,38.329ZM50.635,61.537a21.1,21.1,0,1,0-21.1,21.1A21.126,21.126,0,0,0,50.635,61.537Z" transform="translate(0 -32)"/></svg>