
<svg xmlns="http://www.w3.org/2000/svg" xmlns:xlink="http://www.w3.org/1999/xlink" width="960" height="916" viewBox="0 0 960 916"><defs><style>.a,.k,.l{fill:#fff;}.a{stroke:#707070;}.b{fill:#6c68fd;}.c,.w{fill:none;}.d{clip-path:url(#a);}.e{fill:#f1f1f1;}.f{clip-path:url(#b);}.g{fill:#f8f8f8;}.h{clip-path:url(#e);}.i{fill:#e8eefe;}.j,.p{fill:#3c40c6;}.l{font-size:10px;font-family:GothamRounded-Book, Gotham Rounded;}.m{fill:#2c3e50;}.n{fill:#5c6573;}.o,.q{fill:#ffa801;}.p{opacity:0.06;}.q,.u{opacity:0.1;}.r,.t{fill:#ef5777;}.s,.u{fill:#1dd1a1;}.t{opacity:0.07;}.v{fill:url(#n);}.w{stroke:#fff;stroke-linecap:round;opacity:0.3;}.x{fill:#9b9b9b;}.y{filter:url(#o);}.z{filter:url(#l);}.aa{filter:url(#j);}.ab{filter:url(#h);}.ac{filter:url(#f);}.ad{filter:url(#c);}</style><clipPath id="a"><rect class="a" width="960" height="916" transform="translate(0 2670)"/></clipPath><clipPath id="b"><rect class="c" width="424.343" height="802.081"/></clipPath><filter id="c" x="296.188" y="92.226" width="424.343" height="802.081" filterUnits="userSpaceOnUse"><feOffset input="SourceAlpha"/><feGaussianBlur stdDeviation="8" result="d"/><feFlood flood-color="#004063" flood-opacity="0.149"/><feComposite operator="in" in2="d"/><feComposite in="SourceGraphic"/></filter><clipPath id="e"><rect class="b" width="338.417" height="715.651" rx="17" transform="translate(0 0)"/></clipPath><filter id="f" x="347.835" y="441.19" width="158.789" height="138.447" filterUnits="userSpaceOnUse"><feOffset input="SourceAlpha"/><feGaussianBlur stdDeviation="2" result="g"/><feFlood flood-color="#00264d" flood-opacity="0.161"/><feComposite operator="in" in2="g"/><feComposite in="SourceGraphic"/></filter><filter id="h" x="508.562" y="441.19" width="158.788" height="138.447" filterUnits="userSpaceOnUse"><feOffset input="SourceAlpha"/><feGaussianBlur stdDeviation="2" result="i"/><feFlood flood-color="#00264d" flood-opacity="0.161"/><feComposite operator="in" in2="i"/><feComposite in="SourceGraphic"/></filter><filter id="j" x="347.835" y="580.981" width="158.789" height="138.447" filterUnits="userSpaceOnUse"><feOffset input="SourceAlpha"/><feGaussianBlur stdDeviation="2" result="k"/><feFlood flood-color="#00264d" flood-opacity="0.161"/><feComposite operator="in" in2="k"/><feComposite in="SourceGraphic"/></filter><filter id="l" x="508.562" y="580.981" width="158.788" height="138.447" filterUnits="userSpaceOnUse"><feOffset input="SourceAlpha"/><feGaussianBlur stdDeviation="2" result="m"/><feFlood flood-color="#00264d" flood-opacity="0.161"/><feComposite operator="in" in2="m"/><feComposite in="SourceGraphic"/></filter><linearGradient id="n" x1="0.495" y1="0.053" x2="0.566" y2="0.899" gradientUnits="objectBoundingBox"><stop offset="0" stop-color="#00cbe4"/><stop offset="1" stop-color="#00e5a5"/></linearGradient><filter id="o" x="348.092" y="775.997" width="319.258" height="111.277" filterUnits="userSpaceOnUse"><feOffset input="SourceAlpha"/><feGaussianBlur stdDeviation="2" result="p"/><feFlood flood-opacity="0.161"/><feComposite operator="in" in2="p"/><feComposite in="SourceGraphic"/></filter></defs><g class="d" transform="translate(0 -2670)"><rect class="e" width="1432" height="532" rx="266" transform="matrix(0.899, 0.438, -0.438, 0.899, -302.93, 2517.047)"/><g class="f" transform="translate(296.188 2762.226)"><g class="ad" transform="matrix(1, 0, 0, 1, -296.19, -92.23)"><rect class="g" width="376.343" height="754.081" rx="54" transform="translate(320.19 116.23)"/></g><g class="h" transform="translate(42.963 42.308)"><g transform="translate(-0.51 -1.962)"><path class="i" d="M0,0H339.551V782.108H0Z" transform="translate(0.257)"/><rect class="c" width="338.974" height="653.938" transform="translate(0.546 51.713)"/><path class="j" d="M0,0H339.809V371.3c0,12.146-8.522,21.992-19.034,21.992H19.034C8.522,393.289,0,383.443,0,371.3Z" transform="translate(0 1.573)"/><path class="k" d="M266.171,1562.017h90.153a19.929,19.929,0,0,1,19.937,19.92h0a19.929,19.929,0,0,1-19.937,19.92H266.171a19.93,19.93,0,0,1-19.939-19.92h0A19.93,19.93,0,0,1,266.171,1562.017Z" transform="translate(-219.649 -1377.481)"/><g transform="translate(180.307 184.535)"><path class="c" d="M400.514,1562.017h90.153a19.93,19.93,0,0,1,19.938,19.92h0a19.93,19.93,0,0,1-19.938,19.92H400.514a19.929,19.929,0,0,1-19.937-19.92h0A19.929,19.929,0,0,1,400.514,1562.017Z" transform="translate(-380.577 -1562.017)"/><path class="k" d="M490.667,1601.857H400.514a19.92,19.92,0,1,1,0-39.84h90.153a19.92,19.92,0,1,1,0,39.84Zm-90.153-38.108a18.188,18.188,0,1,0,0,36.376h90.153a18.188,18.188,0,1,0,0-36.376Z" transform="translate(-380.577 -1562.017)"/></g><g transform="translate(26.584 144.771)"><text class="l" transform="translate(0 10)"><tspan x="0" y="0">Balance</tspan></text></g><g transform="translate(32.294 13.434)"><text class="l" transform="translate(0 10)"><tspan x="0" y="0">22:29</tspan></text></g><path class="k" d="M10.36-26.344v.444c-4.662.481-7.77,3.219-7.77,7.289,0,4.4,2.627,6.438,7.955,7.881v5.883A14.13,14.13,0,0,1,5.809-6.919,2.689,2.689,0,0,0,4.366-7.4,2.481,2.481,0,0,0,1.813-4.884a2.5,2.5,0,0,0,1.258,2.22A18.5,18.5,0,0,0,10.36-.074v2a1.924,1.924,0,0,0,3.848,0V-.037c4.662-.518,7.844-3.182,7.844-7.326s-2.4-6.438-8.029-7.955v-5.624a14.16,14.16,0,0,1,3.071,1.258,2.7,2.7,0,0,0,1.3.333,2.464,2.464,0,0,0,2.516-2.479,2.488,2.488,0,0,0-1.332-2.22,15.549,15.549,0,0,0-5.365-1.776v-.518a1.911,1.911,0,0,0-1.924-1.924A1.911,1.911,0,0,0,10.36-26.344ZM16.65-7.067c0,1.332-.888,2.146-2.627,2.405V-9.805C16.021-9.1,16.65-8.288,16.65-7.067ZM7.992-18.944c0-1.184.777-2.072,2.553-2.331v5C8.51-17.02,7.992-17.8,7.992-18.944ZM35.409.444c5.772,0,9.324-3.589,9.324-8.473V-8.1c0-4.81-3.441-6.66-6.956-7.252L42.846-20.2c1.036-1,1.7-1.776,1.7-3.182,0-1.554-1.221-2.516-2.886-2.516H29.045A2.464,2.464,0,0,0,26.6-23.458a2.464,2.464,0,0,0,2.442,2.442H37l-5.032,5.069a3.217,3.217,0,0,0-1.221,2.331,2.464,2.464,0,0,0,2.442,2.442h.888c3.182,0,5.069,1.184,5.069,3.293v.074c0,1.924-1.517,3.145-3.663,3.145a7.393,7.393,0,0,1-5.069-1.924,2.706,2.706,0,0,0-1.813-.7,2.78,2.78,0,0,0-2.738,2.738,2.81,2.81,0,0,0,.962,2.035A12.663,12.663,0,0,0,35.409.444ZM48.951-3v.074A3.114,3.114,0,0,0,52.17.222a3.114,3.114,0,0,0,3.219-3.145V-3A3.114,3.114,0,0,0,52.17-6.142,3.114,3.114,0,0,0,48.951-3ZM68.931.444c5.7,0,9.657-3.478,9.657-8.954v-.074c0-5.846-3.959-8.288-9.065-8.288a12.669,12.669,0,0,0-3.4.444l.3-4.477h8.732a2.511,2.511,0,0,0,2.516-2.479A2.543,2.543,0,0,0,75.147-25.9H63.9a2.528,2.528,0,0,0-2.516,2.442l-.518,8.769A2.416,2.416,0,0,0,61.9-12.4a4.386,4.386,0,0,0,2.59,1.147c.777,0,1.739-.666,3.922-.666,2.7,0,4.588,1.3,4.588,3.515v.074c0,2.294-1.776,3.589-4.181,3.589A7.984,7.984,0,0,1,63.9-6.4a2.384,2.384,0,0,0-1.554-.518,2.748,2.748,0,0,0-2.7,2.738A2.642,2.642,0,0,0,60.791-2,13.235,13.235,0,0,0,68.931.444Zm25.308,0c6.919,0,11.544-5.883,11.544-13.394v-.074c0-7.511-4.625-13.32-11.47-13.32-6.882,0-11.544,5.883-11.544,13.394v.074C82.769-5.365,87.32.444,94.239.444ZM94.313-4.7c-3.441,0-5.7-3.515-5.7-8.251v-.074c0-4.736,2.22-8.177,5.624-8.177s5.7,3.552,5.7,8.251v.074C99.937-8.177,97.754-4.7,94.313-4.7ZM121.249.444c6.919,0,11.544-5.883,11.544-13.394v-.074c0-7.511-4.625-13.32-11.47-13.32-6.882,0-11.544,5.883-11.544,13.394v.074C109.779-5.365,114.33.444,121.249.444Zm.074-5.143c-3.441,0-5.7-3.515-5.7-8.251v-.074c0-4.736,2.22-8.177,5.624-8.177s5.7,3.552,5.7,8.251v.074C126.947-8.177,124.764-4.7,121.323-4.7Zm14.8,1.7v.074A3.114,3.114,0,0,0,139.342.222a3.114,3.114,0,0,0,3.219-3.145V-3a3.114,3.114,0,0,0-3.219-3.145A3.114,3.114,0,0,0,136.123-3Z" transform="translate(26.584 130.964)"/><path class="k" d="M8.008.264c4.114,0,6.864-3.5,6.864-7.964v-.044c0-4.466-2.75-7.92-6.82-7.92-4.092,0-6.864,3.5-6.864,7.964v.044C1.188-3.19,3.894.264,8.008.264Zm.044-3.058c-2.046,0-3.388-2.09-3.388-4.906v-.044c0-2.816,1.32-4.862,3.344-4.862S11.4-10.494,11.4-7.7v.044C11.4-4.862,10.1-2.794,8.052-2.794ZM24.068.264c4.114,0,6.864-3.5,6.864-7.964v-.044c0-4.466-2.75-7.92-6.82-7.92-4.092,0-6.864,3.5-6.864,7.964v.044C17.248-3.19,19.954.264,24.068.264Zm.044-3.058c-2.046,0-3.388-2.09-3.388-4.906v-.044c0-2.816,1.32-4.862,3.344-4.862s3.388,2.112,3.388,4.906v.044C27.456-4.862,26.158-2.794,24.112-2.794Z" transform="translate(180.631 129.3)"/><path class="j" d="M1.26-.868A.855.855,0,0,0,2.128,0H4.914a4.906,4.906,0,0,0,5.208-4.9v-.028A4.885,4.885,0,0,0,4.914-9.8H2.128a.855.855,0,0,0-.868.868Zm1.722-.7V-8.232H4.914A3.216,3.216,0,0,1,8.316-4.9v.028a3.194,3.194,0,0,1-3.4,3.3Zm10.3-2.646A2,2,0,0,1,15.2-6.16,1.919,1.919,0,0,1,17.08-4.214Zm4.774,3.4a.74.74,0,0,0,.224-.518.667.667,0,0,0-.672-.686.631.631,0,0,0-.434.154,2.657,2.657,0,0,1-1.75.644A2.064,2.064,0,0,1,13.3-3.094h4.634a.792.792,0,0,0,.8-.812,3.5,3.5,0,0,0-3.514-3.64A3.669,3.669,0,0,0,11.606-3.7v.028A3.688,3.688,0,0,0,15.4.168,3.8,3.8,0,0,0,18.06-.812ZM20.468,1.47a.847.847,0,0,0,1.694,0V-1.148a3.019,3.019,0,0,0,2.52,1.3,3.536,3.536,0,0,0,3.43-3.836V-3.71a3.536,3.536,0,0,0-3.43-3.836,2.959,2.959,0,0,0-2.52,1.386v-.462a.848.848,0,0,0-.854-.854.837.837,0,0,0-.84.854Zm3.808-2.786A2.229,2.229,0,0,1,22.12-3.682V-3.71a2.229,2.229,0,0,1,2.156-2.366A2.189,2.189,0,0,1,26.39-3.71v.028A2.165,2.165,0,0,1,24.276-1.316Zm9.1,1.484a3.865,3.865,0,0,0,3.962-3.85V-3.71A3.829,3.829,0,0,0,33.4-7.546a3.864,3.864,0,0,0-3.948,3.864v.028A3.823,3.823,0,0,0,33.376.168ZM33.4-1.316A2.278,2.278,0,0,1,31.15-3.682V-3.71a2.219,2.219,0,0,1,2.226-2.352,2.285,2.285,0,0,1,2.268,2.38v.028A2.218,2.218,0,0,1,33.4-1.316ZM41.594.14c1.54,0,2.744-.77,2.744-2.324v-.028c0-1.33-1.218-1.82-2.3-2.156-.868-.28-1.666-.5-1.666-1.05v-.028c0-.42.378-.728,1.036-.728a4.032,4.032,0,0,1,1.736.5.665.665,0,0,0,.336.084.682.682,0,0,0,.7-.686.718.718,0,0,0-.406-.644,5.081,5.081,0,0,0-2.324-.6,2.358,2.358,0,0,0-2.632,2.254v.028c0,1.414,1.218,1.862,2.31,2.17C42-2.8,42.784-2.6,42.784-2.03V-2c0,.49-.42.8-1.148.8a3.9,3.9,0,0,1-2.128-.714.739.739,0,0,0-.364-.1.678.678,0,0,0-.686.686.649.649,0,0,0,.322.588A5.052,5.052,0,0,0,41.594.14ZM46.046-9.3a.877.877,0,0,0,.966.84.877.877,0,0,0,.966-.84V-9.38a.867.867,0,0,0-.966-.826.867.867,0,0,0-.966.826ZM46.172-.77a.834.834,0,0,0,.84.84.837.837,0,0,0,.854-.84V-6.622a.848.848,0,0,0-.854-.854.837.837,0,0,0-.84.854Zm6.384.9a3.37,3.37,0,0,0,1.162-.2.729.729,0,0,0,.448-.658.714.714,0,0,0-.714-.7,4,4,0,0,1-.42.042.807.807,0,0,1-.91-.924V-5.936h1.33a.735.735,0,0,0,.742-.728.735.735,0,0,0-.742-.728h-1.33v-1.26a.842.842,0,0,0-.84-.84.846.846,0,0,0-.854.84v1.26h-.28a.723.723,0,0,0-.728.728.723.723,0,0,0,.728.728h.28v3.892A1.9,1.9,0,0,0,52.556.126Z" transform="translate(58.368 206.741)"/><path class="k" d="M3.81-.615A1.024,1.024,0,0,0,4.77.15h.18a1.01,1.01,0,0,0,.96-.765L8.25-7.47,10.59-.615a.994.994,0,0,0,.945.765h.18a1.028,1.028,0,0,0,.96-.765l3.105-8.7a1.058,1.058,0,0,0,.09-.375.9.9,0,0,0-.915-.885.941.941,0,0,0-.9.66L11.64-2.685,9.27-9.87a.96.96,0,0,0-.93-.735H8.205a.973.973,0,0,0-.93.735L4.905-2.685,2.49-9.9a.941.941,0,0,0-.915-.675.922.922,0,0,0-.945.9.965.965,0,0,0,.075.36ZM17.37-9.96a.94.94,0,0,0,1.035.9.94.94,0,0,0,1.035-.9v-.09a.929.929,0,0,0-1.035-.885.929.929,0,0,0-1.035.885Zm.135,9.135a.893.893,0,0,0,.9.9.9.9,0,0,0,.915-.9V-7.1a.909.909,0,0,0-.915-.915.9.9,0,0,0-.9.915Zm6.84.96a3.611,3.611,0,0,0,1.245-.21.781.781,0,0,0,.48-.705.765.765,0,0,0-.765-.75,4.291,4.291,0,0,1-.45.045.864.864,0,0,1-.975-.99V-6.36h1.425a.787.787,0,0,0,.795-.78.787.787,0,0,0-.795-.78H23.88V-9.27a.9.9,0,0,0-.9-.9.906.906,0,0,0-.915.9v1.35h-.3a.775.775,0,0,0-.78.78.775.775,0,0,0,.78.78h.3v4.17A2.03,2.03,0,0,0,24.345.135Zm3.51-.96a.893.893,0,0,0,.9.9.9.9,0,0,0,.915-.9V-4.47a1.762,1.762,0,0,1,1.785-1.965c1.08,0,1.7.7,1.7,1.935V-.825a.9.9,0,0,0,.915.9.884.884,0,0,0,.9-.9v-4.23a2.715,2.715,0,0,0-2.82-3.03,2.871,2.871,0,0,0-2.475,1.38v-3.42a.906.906,0,0,0-.915-.9.893.893,0,0,0-.9.9Zm17.085-9.3a.9.9,0,0,0-.915-.9.893.893,0,0,0-.9.9V-6.69a3.24,3.24,0,0,0-2.7-1.4,3.78,3.78,0,0,0-3.675,4.11v.03A3.8,3.8,0,0,0,40.425.165a3.17,3.17,0,0,0,2.7-1.485v.5a.9.9,0,0,0,.915.9.893.893,0,0,0,.9-.9ZM40.86-6.51a2.377,2.377,0,0,1,2.295,2.535v.03A2.386,2.386,0,0,1,40.86-1.41a2.356,2.356,0,0,1-2.28-2.535v-.03A2.322,2.322,0,0,1,40.86-6.51ZM47.22-.825a.893.893,0,0,0,.9.9.906.906,0,0,0,.915-.9v-2.34c0-1.875.885-2.865,2.175-3.09a.852.852,0,0,0,.72-.87.842.842,0,0,0-.9-.9,2.518,2.518,0,0,0-1.995,1.74V-7.1a.909.909,0,0,0-.915-.915.9.9,0,0,0-.9.915Zm8.1.99A3.219,3.219,0,0,0,57.9-.99v.3a.82.82,0,0,0,.885.765A.865.865,0,0,0,59.67-.8V-4.7a3.287,3.287,0,0,0-.855-2.445,3.549,3.549,0,0,0-2.625-.885,6.789,6.789,0,0,0-2.55.465.792.792,0,0,0-.5.72.755.755,0,0,0,.765.75,1.019,1.019,0,0,0,.285-.045A4.7,4.7,0,0,1,55.95-6.45c1.275,0,1.965.6,1.965,1.725v.2a6.616,6.616,0,0,0-2.13-.33c-1.935,0-3.27.84-3.27,2.55v.03A2.53,2.53,0,0,0,55.32.165Zm.51-1.32c-.87,0-1.545-.435-1.545-1.2v-.03c0-.825.69-1.32,1.86-1.32a5.032,5.032,0,0,1,1.8.315v.54C57.945-1.845,57.03-1.155,55.83-1.155ZM64.305.135h.06a1,1,0,0,0,.975-.78l1.56-4.71,1.545,4.71a1.007,1.007,0,0,0,.99.78h.06A1.056,1.056,0,0,0,70.5-.675l2.16-6.09a1.5,1.5,0,0,0,.075-.4.842.842,0,0,0-.855-.84.905.905,0,0,0-.885.7L69.45-2.49l-1.56-4.8a.963.963,0,0,0-.93-.72h-.105a.963.963,0,0,0-.93.72L64.38-2.49l-1.53-4.8a.925.925,0,0,0-.885-.72.849.849,0,0,0-.885.84,1.507,1.507,0,0,0,.09.465L63.3-.675A1.031,1.031,0,0,0,64.305.135Z" transform="translate(209.169 207.741)"/><path class="k" d="M.99-.34a.382.382,0,0,0,.38.39.384.384,0,0,0,.39-.39V-5.56L3.99-2.28a.4.4,0,0,0,.34.2.387.387,0,0,0,.33-.2L6.9-5.57V-.35a.408.408,0,0,0,.4.4.4.4,0,0,0,.39-.4V-6.64a.4.4,0,0,0-.39-.39H7.21a.424.424,0,0,0-.37.21L4.34-3.06,1.84-6.82a.433.433,0,0,0-.37-.21H1.38a.4.4,0,0,0-.39.39Zm9.3,1.97c.78,0,1.28-.39,1.73-1.46l2.02-4.82a.646.646,0,0,0,.04-.19.38.38,0,0,0-.38-.38.387.387,0,0,0-.37.29L11.73-.86,9.93-4.92a.408.408,0,0,0-.39-.3.382.382,0,0,0-.39.38.537.537,0,0,0,.05.21L11.36-.05l-.04.08c-.28.63-.56.92-1.04.92A1.589,1.589,0,0,1,9.72.86.585.585,0,0,0,9.53.82a.333.333,0,0,0-.33.33.351.351,0,0,0,.24.33A2.434,2.434,0,0,0,10.29,1.63Zm8.12-8.29a.422.422,0,0,0,.45.41.425.425,0,0,0,.46-.41v-.13a.419.419,0,0,0-.46-.41.416.416,0,0,0-.45.41Zm.07,6.32a.384.384,0,0,0,.39.39.376.376,0,0,0,.38-.39V-4.83a.384.384,0,0,0-.39-.39.388.388,0,0,0-.38.39Zm2.56,0a.384.384,0,0,0,.39.39.376.376,0,0,0,.38-.39V-2.96a1.521,1.521,0,0,1,1.55-1.62,1.378,1.378,0,0,1,1.43,1.56V-.34a.384.384,0,0,0,.39.39.382.382,0,0,0,.38-.39V-3.21a1.889,1.889,0,0,0-1.98-2.07,1.958,1.958,0,0,0-1.77,1.01v-.56a.384.384,0,0,0-.39-.39.388.388,0,0,0-.38.39Zm8.5.09,1.95-4.4a.533.533,0,0,0,.04-.19.38.38,0,0,0-.38-.38.368.368,0,0,0-.36.28L29.09-.88,27.42-4.92a.391.391,0,0,0-.39-.3.389.389,0,0,0-.39.38.8.8,0,0,0,.05.21L28.63-.25a.478.478,0,0,0,.44.33h.04A.466.466,0,0,0,29.54-.25Zm3.52-2.62a1.782,1.782,0,0,1,1.68-1.76,1.7,1.7,0,0,1,1.65,1.76ZM36.81-.66a.332.332,0,0,0,.12-.25.335.335,0,0,0-.34-.33.337.337,0,0,0-.22.09,2.113,2.113,0,0,1-1.49.6A1.805,1.805,0,0,1,33.06-2.3H36.8a.358.358,0,0,0,.36-.36,2.434,2.434,0,0,0-2.4-2.62,2.55,2.55,0,0,0-2.48,2.69v.02A2.57,2.57,0,0,0,34.86.12,2.628,2.628,0,0,0,36.81-.66ZM40.23.1a1.628,1.628,0,0,0,1.84-1.55v-.02c0-.93-.86-1.24-1.66-1.48-.69-.21-1.33-.4-1.33-.89v-.02c0-.43.39-.75,1-.75a2.8,2.8,0,0,1,1.35.4.387.387,0,0,0,.17.04.335.335,0,0,0,.34-.33.374.374,0,0,0-.19-.32,3.6,3.6,0,0,0-1.65-.44,1.564,1.564,0,0,0-1.76,1.48v.02c0,.95.9,1.23,1.71,1.46.68.19,1.29.39,1.29.91v.02c0,.5-.45.82-1.07.82a2.9,2.9,0,0,1-1.64-.55.308.308,0,0,0-.19-.06.335.335,0,0,0-.34.33.348.348,0,0,0,.14.28A3.577,3.577,0,0,0,40.23.1Zm4.9-.01a1.945,1.945,0,0,0,.76-.14.321.321,0,0,0,.22-.3.333.333,0,0,0-.33-.33,2.179,2.179,0,0,1-.47.07.765.765,0,0,1-.87-.86V-4.49h1.34a.346.346,0,0,0,.35-.34.352.352,0,0,0-.35-.34H44.44V-6.39a.4.4,0,0,0-.39-.39.382.382,0,0,0-.38.39v1.22h-.42a.344.344,0,0,0-.34.34.35.35,0,0,0,.34.34h.42v3.12A1.316,1.316,0,0,0,45.13.09Zm2.31-.43a.384.384,0,0,0,.39.39.376.376,0,0,0,.38-.39V-2.95a1.5,1.5,0,0,1,1.44-1.63c.82,0,1.33.57,1.33,1.54v2.7a.382.382,0,0,0,.38.39.384.384,0,0,0,.39-.39V-2.98a1.441,1.441,0,0,1,1.42-1.6c.84,0,1.34.56,1.34,1.56V-.34a.384.384,0,0,0,.39.39.382.382,0,0,0,.38-.39V-3.2a1.858,1.858,0,0,0-1.92-2.08,2.06,2.06,0,0,0-1.82,1.03,1.756,1.756,0,0,0-1.66-1.03,1.889,1.889,0,0,0-1.67.98v-.53a.384.384,0,0,0-.39-.39.388.388,0,0,0-.38.39Zm9.97-2.53a1.782,1.782,0,0,1,1.68-1.76,1.7,1.7,0,0,1,1.65,1.76ZM61.16-.66a.332.332,0,0,0,.12-.25.335.335,0,0,0-.34-.33.337.337,0,0,0-.22.09,2.113,2.113,0,0,1-1.49.6A1.805,1.805,0,0,1,57.41-2.3h3.74a.358.358,0,0,0,.36-.36,2.434,2.434,0,0,0-2.4-2.62,2.55,2.55,0,0,0-2.48,2.69v.02A2.57,2.57,0,0,0,59.21.12,2.628,2.628,0,0,0,61.16-.66Zm1.71.32a.384.384,0,0,0,.39.39.376.376,0,0,0,.38-.39V-2.96a1.521,1.521,0,0,1,1.55-1.62,1.378,1.378,0,0,1,1.43,1.56V-.34a.384.384,0,0,0,.39.39.382.382,0,0,0,.38-.39V-3.21a1.889,1.889,0,0,0-1.98-2.07,1.958,1.958,0,0,0-1.77,1.01v-.56a.384.384,0,0,0-.39-.39.388.388,0,0,0-.38.39Zm7.89.43a1.945,1.945,0,0,0,.76-.14.321.321,0,0,0,.22-.3.333.333,0,0,0-.33-.33,2.179,2.179,0,0,1-.47.07.765.765,0,0,1-.87-.86V-4.49h1.34a.346.346,0,0,0,.35-.34.352.352,0,0,0-.35-.34H70.07V-6.39a.4.4,0,0,0-.39-.39.382.382,0,0,0-.38.39v1.22h-.42a.344.344,0,0,0-.34.34.35.35,0,0,0,.34.34h.42v3.12A1.316,1.316,0,0,0,70.76.09ZM74.78.1a1.628,1.628,0,0,0,1.84-1.55v-.02c0-.93-.86-1.24-1.66-1.48-.69-.21-1.33-.4-1.33-.89v-.02c0-.43.39-.75,1-.75a2.8,2.8,0,0,1,1.35.4.387.387,0,0,0,.17.04.335.335,0,0,0,.34-.33.374.374,0,0,0-.19-.32,3.6,3.6,0,0,0-1.65-.44,1.564,1.564,0,0,0-1.76,1.48v.02c0,.95.9,1.23,1.71,1.46.68.19,1.29.39,1.29.91v.02c0,.5-.45.82-1.07.82a2.9,2.9,0,0,1-1.64-.55.308.308,0,0,0-.19-.06.335.335,0,0,0-.34.33.348.348,0,0,0,.14.28A3.577,3.577,0,0,0,74.78.1Z" transform="translate(27.739 284.958)"/><path class="m" d="M.99-.35a.4.4,0,0,0,.39.4.4.4,0,0,0,.4-.4V-2.72H3.79L5.76-.16a.46.46,0,0,0,.37.21.413.413,0,0,0,.4-.39A.429.429,0,0,0,6.4-.63L4.66-2.87A2.035,2.035,0,0,0,6.53-4.9v-.02A1.933,1.933,0,0,0,5.99-6.3,2.76,2.76,0,0,0,4-7H1.38a.4.4,0,0,0-.39.4Zm.79-3.08V-6.27H3.94c1.13,0,1.79.52,1.79,1.38v.02c0,.9-.75,1.44-1.8,1.44Zm6.67.56a1.782,1.782,0,0,1,1.68-1.76,1.7,1.7,0,0,1,1.65,1.76ZM12.2-.66a.332.332,0,0,0,.12-.25.335.335,0,0,0-.34-.33.337.337,0,0,0-.22.09,2.113,2.113,0,0,1-1.49.6A1.805,1.805,0,0,1,8.45-2.3h3.74a.358.358,0,0,0,.36-.36,2.434,2.434,0,0,0-2.4-2.62A2.55,2.55,0,0,0,7.67-2.59v.02A2.57,2.57,0,0,0,10.25.12,2.628,2.628,0,0,0,12.2-.66Zm3.18.74h.02a.431.431,0,0,0,.42-.35l1.3-3.77L18.41-.27a.431.431,0,0,0,.42.35h.03a.456.456,0,0,0,.42-.35l1.58-4.38a.717.717,0,0,0,.05-.21.37.37,0,0,0-.38-.36.378.378,0,0,0-.37.3l-1.32,3.9-1.3-3.89a.408.408,0,0,0-.4-.31H17.1a.394.394,0,0,0-.38.31L15.41-1.02,14.11-4.9a.4.4,0,0,0-.39-.32.38.38,0,0,0-.39.37.717.717,0,0,0,.05.21L14.95-.27A.458.458,0,0,0,15.38.08Zm8.27.03a2.266,2.266,0,0,0,1.87-.89v.47a.355.355,0,0,0,.37.36.365.365,0,0,0,.37-.38V-3.16a2.041,2.041,0,0,0-.53-1.51,2.269,2.269,0,0,0-1.67-.57,4.077,4.077,0,0,0-1.69.35.353.353,0,0,0-.21.32.342.342,0,0,0,.34.33.393.393,0,0,0,.14-.03,3.228,3.228,0,0,1,1.34-.29c.97,0,1.54.48,1.54,1.41v.18a5.49,5.49,0,0,0-1.59-.22c-1.31,0-2.21.58-2.21,1.67v.02A1.741,1.741,0,0,0,23.65.11ZM23.8-.5c-.7,0-1.3-.38-1.3-1.03v-.02c0-.65.54-1.07,1.51-1.07a5.393,5.393,0,0,1,1.52.22v.5A1.563,1.563,0,0,1,23.8-.5Zm4.1.16a.384.384,0,0,0,.39.39.382.382,0,0,0,.38-.39V-2.1a2.105,2.105,0,0,1,1.82-2.36.382.382,0,0,0,.34-.39.37.37,0,0,0-.38-.39,2.141,2.141,0,0,0-1.78,1.38v-.97a.384.384,0,0,0-.39-.39.388.388,0,0,0-.38.39Zm8.76-6.62a.384.384,0,0,0-.39-.39.376.376,0,0,0-.38.39v2.78a2.332,2.332,0,0,0-1.98-1.1,2.537,2.537,0,0,0-2.47,2.69v.02A2.522,2.522,0,0,0,33.91.11a2.324,2.324,0,0,0,1.98-1.15v.7a.384.384,0,0,0,.39.39.382.382,0,0,0,.38-.39ZM34.05-4.59A1.921,1.921,0,0,1,35.92-2.6v.02a1.93,1.93,0,0,1-1.87,2,1.868,1.868,0,0,1-1.82-2V-2.6A1.824,1.824,0,0,1,34.05-4.59ZM40.09.1a1.628,1.628,0,0,0,1.84-1.55v-.02c0-.93-.86-1.24-1.66-1.48-.69-.21-1.33-.4-1.33-.89v-.02c0-.43.39-.75,1-.75a2.8,2.8,0,0,1,1.35.4.387.387,0,0,0,.17.04.335.335,0,0,0,.34-.33.374.374,0,0,0-.19-.32,3.6,3.6,0,0,0-1.65-.44A1.564,1.564,0,0,0,38.2-3.78v.02c0,.95.9,1.23,1.71,1.46.68.19,1.29.39,1.29.91v.02c0,.5-.45.82-1.07.82a2.9,2.9,0,0,1-1.64-.55.308.308,0,0,0-.19-.06.335.335,0,0,0-.34.33.348.348,0,0,0,.14.28A3.577,3.577,0,0,0,40.09.1Z" transform="translate(27.739 624.738)"/><g class="ac" transform="matrix(1, 0, 0, 1, -338.64, -132.57)"><rect class="k" width="146.788" height="126.447" rx="4" transform="translate(353.84 447.19)"/></g><g class="ab" transform="matrix(1, 0, 0, 1, -338.64, -132.57)"><rect class="k" width="146.788" height="126.447" rx="4" transform="translate(514.56 447.19)"/></g><path class="n" d="M-24.485-.52a.563.563,0,0,0,.57.57.592.592,0,0,0,.57-.39l.59-1.35h3.4l.57,1.31a.634.634,0,0,0,.6.43.576.576,0,0,0,.58-.59.536.536,0,0,0-.07-.26l-2.6-5.8a.767.767,0,0,0-.73-.5h-.06a.78.78,0,0,0-.74.5l-2.6,5.8A.63.63,0,0,0-24.485-.52Zm2.2-2.26,1.23-2.83,1.23,2.83Zm5.87,2.23a.6.6,0,0,0,.6.6.6.6,0,0,0,.61-.6V-2.98a1.153,1.153,0,0,1,1.13-1.31c.67,0,1.07.46,1.07,1.28V-.55a.6.6,0,0,0,.61.6.6.6,0,0,0,.6-.6V-2.98c0-.85.47-1.31,1.13-1.31.68,0,1.07.45,1.07,1.29V-.55a.6.6,0,0,0,.61.6.589.589,0,0,0,.6-.6V-3.37a1.775,1.775,0,0,0-1.85-2.02,2.124,2.124,0,0,0-1.78.93,1.676,1.676,0,0,0-1.58-.93,1.892,1.892,0,0,0-1.61.91v-.25a.606.606,0,0,0-.61-.61.6.6,0,0,0-.6.61Zm9.5,0a.6.6,0,0,0,.6.6.6.6,0,0,0,.61-.6V-2.98a1.153,1.153,0,0,1,1.13-1.31c.67,0,1.07.46,1.07,1.28V-.55a.6.6,0,0,0,.61.6.6.6,0,0,0,.6-.6V-2.98c0-.85.47-1.31,1.13-1.31C-.485-4.29-.1-3.84-.1-3V-.55a.6.6,0,0,0,.61.6.589.589,0,0,0,.6-.6V-3.37A1.775,1.775,0,0,0-.735-5.39a2.124,2.124,0,0,0-1.78.93A1.676,1.676,0,0,0-4.1-5.39a1.892,1.892,0,0,0-1.61.91v-.25a.606.606,0,0,0-.61-.61.6.6,0,0,0-.6.61ZM5.095.12a2.761,2.761,0,0,0,2.83-2.75v-.02a2.735,2.735,0,0,0-2.81-2.74,2.76,2.76,0,0,0-2.82,2.76v.02A2.731,2.731,0,0,0,5.095.12Zm.02-1.06A1.627,1.627,0,0,1,3.5-2.63v-.02a1.585,1.585,0,0,1,1.59-1.68,1.632,1.632,0,0,1,1.62,1.7v.02A1.584,1.584,0,0,1,5.115-.94Zm8.73-3.79a.612.612,0,0,0-.61-.61.606.606,0,0,0-.61.61V-2.3A1.166,1.166,0,0,1,11.435-1c-.72,0-1.13-.46-1.13-1.28V-4.73a.606.606,0,0,0-.61-.61.6.6,0,0,0-.6.61v2.81A1.813,1.813,0,0,0,10.975.11a1.9,1.9,0,0,0,1.65-.93v.27a.6.6,0,0,0,.61.6.6.6,0,0,0,.61-.6Zm1.51,4.18a.6.6,0,0,0,.6.6.6.6,0,0,0,.61-.6V-2.98a1.175,1.175,0,0,1,1.19-1.31c.72,0,1.13.47,1.13,1.29V-.55a.6.6,0,0,0,.61.6.589.589,0,0,0,.6-.6V-3.37a1.81,1.81,0,0,0-1.88-2.02,1.914,1.914,0,0,0-1.65.92v-.26a.606.606,0,0,0-.61-.61.6.6,0,0,0-.6.61Zm7.97.64a2.407,2.407,0,0,0,.83-.14.521.521,0,0,0,.32-.47.51.51,0,0,0-.51-.5,2.861,2.861,0,0,1-.3.03.576.576,0,0,1-.65-.66V-4.24h.95a.525.525,0,0,0,.53-.52.525.525,0,0,0-.53-.52h-.95v-.9a.6.6,0,0,0-.6-.6.6.6,0,0,0-.61.6v.9h-.2a.516.516,0,0,0-.52.52.516.516,0,0,0,.52.52h.2v2.78A1.353,1.353,0,0,0,23.325.09Z" transform="translate(83.841 397.249)"/><path class="n" d="M-26.925-.56a.608.608,0,0,0,.62.61.606.606,0,0,0,.61-.61V-6.44a.606.606,0,0,0-.61-.61.608.608,0,0,0-.62.61Zm2.96.01a.6.6,0,0,0,.6.6.6.6,0,0,0,.61-.6V-2.98a1.175,1.175,0,0,1,1.19-1.31c.72,0,1.13.47,1.13,1.29V-.55a.6.6,0,0,0,.61.6.589.589,0,0,0,.6-.6V-3.37A1.81,1.81,0,0,0-21.1-5.39a1.914,1.914,0,0,0-1.65.92v-.26a.606.606,0,0,0-.61-.61.6.6,0,0,0-.6.61Zm8.96.12,1.76-4.04a.725.725,0,0,0,.07-.29.576.576,0,0,0-.59-.58.6.6,0,0,0-.57.42l-1.38,3.52-1.36-3.5a.609.609,0,0,0-.6-.44.6.6,0,0,0-.6.58.942.942,0,0,0,.07.3l1.76,4.03a.751.751,0,0,0,.69.53h.06A.765.765,0,0,0-15.005-.43Zm3.66-2.58A1.429,1.429,0,0,1-9.975-4.4a1.371,1.371,0,0,1,1.34,1.39Zm3.41,2.43a.528.528,0,0,0,.16-.37.476.476,0,0,0-.48-.49.45.45,0,0,0-.31.11,1.9,1.9,0,0,1-1.25.46,1.474,1.474,0,0,1-1.52-1.34h3.31a.566.566,0,0,0,.57-.58,2.5,2.5,0,0,0-2.51-2.6,2.621,2.621,0,0,0-2.58,2.75v.02A2.634,2.634,0,0,0-9.835.12,2.711,2.711,0,0,0-7.935-.58Zm3.53.68c1.1,0,1.96-.55,1.96-1.66v-.02c0-.95-.87-1.3-1.64-1.54-.62-.2-1.19-.36-1.19-.75v-.02c0-.3.27-.52.74-.52a2.88,2.88,0,0,1,1.24.36.475.475,0,0,0,.24.06.487.487,0,0,0,.5-.49.513.513,0,0,0-.29-.46,3.63,3.63,0,0,0-1.66-.43,1.684,1.684,0,0,0-1.88,1.61v.02c0,1.01.87,1.33,1.65,1.55.62.19,1.18.33,1.18.74v.02c0,.35-.3.57-.82.57A2.787,2.787,0,0,1-5.9-1.37a.528.528,0,0,0-.26-.07.484.484,0,0,0-.49.49.464.464,0,0,0,.23.42A3.609,3.609,0,0,0-4.405.1ZM.465.09a2.407,2.407,0,0,0,.83-.14.521.521,0,0,0,.32-.47.51.51,0,0,0-.51-.5,2.861,2.861,0,0,1-.3.03.576.576,0,0,1-.65-.66V-4.24H1.1a.525.525,0,0,0,.53-.52.525.525,0,0,0-.53-.52H.155v-.9a.6.6,0,0,0-.6-.6.6.6,0,0,0-.61.6v.9h-.2a.516.516,0,0,0-.52.52.516.516,0,0,0,.52.52h.2v2.78A1.353,1.353,0,0,0,.465.09ZM2.8-.55a.6.6,0,0,0,.6.6.6.6,0,0,0,.61-.6V-2.98a1.153,1.153,0,0,1,1.13-1.31c.67,0,1.07.46,1.07,1.28V-.55a.6.6,0,0,0,.61.6.6.6,0,0,0,.6-.6V-2.98c0-.85.47-1.31,1.13-1.31.68,0,1.07.45,1.07,1.29V-.55a.6.6,0,0,0,.61.6.589.589,0,0,0,.6-.6V-3.37a1.775,1.775,0,0,0-1.85-2.02,2.124,2.124,0,0,0-1.78.93,1.676,1.676,0,0,0-1.58-.93,1.892,1.892,0,0,0-1.61.91v-.25a.606.606,0,0,0-.61-.61.6.6,0,0,0-.6.61Zm10.41-2.46a1.429,1.429,0,0,1,1.37-1.39,1.371,1.371,0,0,1,1.34,1.39Zm3.41,2.43a.528.528,0,0,0,.16-.37.476.476,0,0,0-.48-.49.45.45,0,0,0-.31.11,1.9,1.9,0,0,1-1.25.46,1.474,1.474,0,0,1-1.52-1.34h3.31a.566.566,0,0,0,.57-.58,2.5,2.5,0,0,0-2.51-2.6,2.621,2.621,0,0,0-2.58,2.75v.02A2.634,2.634,0,0,0,14.725.12,2.711,2.711,0,0,0,16.625-.58Zm1.72.03a.6.6,0,0,0,.6.6.6.6,0,0,0,.61-.6V-2.98a1.175,1.175,0,0,1,1.19-1.31c.72,0,1.13.47,1.13,1.29V-.55a.6.6,0,0,0,.61.6.589.589,0,0,0,.6-.6V-3.37A1.81,1.81,0,0,0,21.2-5.39a1.914,1.914,0,0,0-1.65.92v-.26a.606.606,0,0,0-.61-.61.6.6,0,0,0-.6.61Zm7.97.64a2.407,2.407,0,0,0,.83-.14.521.521,0,0,0,.32-.47.51.51,0,0,0-.51-.5,2.861,2.861,0,0,1-.3.03.576.576,0,0,1-.65-.66V-4.24h.95a.525.525,0,0,0,.53-.52.525.525,0,0,0-.53-.52h-.95v-.9a.6.6,0,0,0-.6-.6.6.6,0,0,0-.61.6v.9h-.2a.516.516,0,0,0-.52.52.516.516,0,0,0,.52.52h.2v2.78A1.353,1.353,0,0,0,26.315.09Z" transform="translate(245.531 397.249)"/><path class="j" d="M4.48-11.392v.192c-2.016.208-3.36,1.392-3.36,3.152,0,1.9,1.136,2.784,3.44,3.408V-2.1a6.11,6.11,0,0,1-2.048-.9A1.163,1.163,0,0,0,1.888-3.2a1.073,1.073,0,0,0-1.1,1.088,1.083,1.083,0,0,0,.544.96A8,8,0,0,0,4.48-.032V.832a.832.832,0,1,0,1.664,0V-.016C8.16-.24,9.536-1.392,9.536-3.184S8.5-5.968,6.064-6.624V-9.056a6.123,6.123,0,0,1,1.328.544,1.167,1.167,0,0,0,.56.144A1.066,1.066,0,0,0,9.04-9.44a1.076,1.076,0,0,0-.576-.96,6.724,6.724,0,0,0-2.32-.768v-.224a.826.826,0,0,0-.832-.832A.826.826,0,0,0,4.48-11.392ZM7.2-3.056c0,.576-.384.928-1.136,1.04V-4.24C6.928-3.936,7.2-3.584,7.2-3.056ZM3.456-8.192c0-.512.336-.9,1.1-1.008v2.16C3.68-7.36,3.456-7.7,3.456-8.192ZM13.184-1.12A1.215,1.215,0,0,0,14.4.1,1.215,1.215,0,0,0,15.616-1.12v-9.024A1.215,1.215,0,0,0,14.4-11.36h-.032a4.4,4.4,0,0,0-1.152.208l-1.584.464a1.091,1.091,0,0,0-.816,1.056,1.079,1.079,0,0,0,1.072,1.056,2.014,2.014,0,0,0,.432-.064l.864-.224Zm4.8-.176v.032A1.347,1.347,0,0,0,19.376.1a1.347,1.347,0,0,0,1.392-1.36V-1.3a1.347,1.347,0,0,0-1.392-1.36A1.347,1.347,0,0,0,17.984-1.3ZM26.624.192c2.464,0,4.176-1.5,4.176-3.872v-.032C30.8-6.24,29.088-7.3,26.88-7.3a5.479,5.479,0,0,0-1.472.192l.128-1.936h3.776A1.086,1.086,0,0,0,30.4-10.112,1.1,1.1,0,0,0,29.312-11.2H24.448a1.093,1.093,0,0,0-1.088,1.056l-.224,3.792a1.045,1.045,0,0,0,.448.992,1.9,1.9,0,0,0,1.12.5,9.051,9.051,0,0,1,1.7-.288c1.168,0,1.984.56,1.984,1.52V-3.6c0,.992-.768,1.552-1.808,1.552a3.453,3.453,0,0,1-2.128-.72,1.031,1.031,0,0,0-.672-.224,1.188,1.188,0,0,0-1.168,1.184,1.143,1.143,0,0,0,.5.944A5.723,5.723,0,0,0,26.624.192Zm10.944,0C40.56.192,42.56-2.352,42.56-5.6v-.032c0-3.248-2-5.76-4.96-5.76-2.976,0-4.992,2.544-4.992,5.792v.032C32.608-2.32,34.576.192,37.568.192ZM37.6-2.032c-1.488,0-2.464-1.52-2.464-3.568v-.032c0-2.048.96-3.536,2.432-3.536S40.032-7.632,40.032-5.6v.032C40.032-3.536,39.088-2.032,37.6-2.032ZM49.248.192C52.24.192,54.24-2.352,54.24-5.6v-.032c0-3.248-2-5.76-4.96-5.76-2.976,0-4.992,2.544-4.992,5.792v.032C44.288-2.32,46.256.192,49.248.192Zm.032-2.224c-1.488,0-2.464-1.52-2.464-3.568v-.032c0-2.048.96-3.536,2.432-3.536S51.712-7.632,51.712-5.6v.032C51.712-3.536,50.768-2.032,49.28-2.032Zm6.4.736v.032A1.347,1.347,0,0,0,57.072.1a1.347,1.347,0,0,0,1.392-1.36V-1.3a1.347,1.347,0,0,0-1.392-1.36A1.347,1.347,0,0,0,55.68-1.3ZM64.864.192c2.992,0,4.992-2.544,4.992-5.792v-.032c0-3.248-2-5.76-4.96-5.76C61.92-11.392,59.9-8.848,59.9-5.6v.032C59.9-2.32,61.872.192,64.864.192ZM64.9-2.032c-1.488,0-2.464-1.52-2.464-3.568v-.032c0-2.048.96-3.536,2.432-3.536S67.328-7.632,67.328-5.6v.032C67.328-3.536,66.384-2.032,64.9-2.032ZM76.544.192c2.992,0,4.992-2.544,4.992-5.792v-.032c0-3.248-2-5.76-4.96-5.76-2.976,0-4.992,2.544-4.992,5.792v.032C71.584-2.32,73.552.192,76.544.192Zm.032-2.224c-1.488,0-2.464-1.52-2.464-3.568v-.032c0-2.048.96-3.536,2.432-3.536S79.008-7.632,79.008-5.6v.032C79.008-3.536,78.064-2.032,76.576-2.032Z" transform="translate(42.866 421.359)"/><path class="o" d="M5.824.192c2.992,0,4.992-2.544,4.992-5.792v-.032c0-3.248-2-5.76-4.96-5.76C2.88-11.392.864-8.848.864-5.6v.032C.864-2.32,2.832.192,5.824.192Zm.032-2.224c-1.488,0-2.464-1.52-2.464-3.568v-.032c0-2.048.96-3.536,2.432-3.536S8.288-7.632,8.288-5.6v.032C8.288-3.536,7.344-2.032,5.856-2.032Zm8.592.912A1.215,1.215,0,0,0,15.664.1,1.215,1.215,0,0,0,16.88-1.12v-9.024a1.215,1.215,0,0,0-1.216-1.216h-.032a4.4,4.4,0,0,0-1.152.208l-1.584.464a1.091,1.091,0,0,0-.816,1.056,1.079,1.079,0,0,0,1.072,1.056,2.014,2.014,0,0,0,.432-.064l.864-.224Z" transform="translate(239.65 421.359)"/><ellipse class="p" cx="26.352" cy="26.329" rx="26.352" ry="26.329" transform="translate(60.341 325.074)"/><ellipse class="q" cx="26.523" cy="26.499" rx="26.523" ry="26.499" transform="translate(224.53 324.733)"/><g class="aa" transform="matrix(1, 0, 0, 1, -338.64, -132.57)"><rect class="k" width="146.788" height="126.447" rx="4" transform="translate(353.84 586.98)"/></g><g class="z" transform="matrix(1, 0, 0, 1, -338.64, -132.57)"><rect class="k" width="146.788" height="126.447" rx="4" transform="translate(514.56 586.98)"/></g><path class="n" d="M-13.68.12a3.577,3.577,0,0,0,2.54-.94.591.591,0,0,0,.2-.44.585.585,0,0,0-.58-.57.56.56,0,0,0-.37.14,2.509,2.509,0,0,1-1.75.67A2.359,2.359,0,0,1-15.95-3.5v-.02a2.356,2.356,0,0,1,2.31-2.47,2.539,2.539,0,0,1,1.67.63.6.6,0,0,0,.37.12.6.6,0,0,0,.61-.6.615.615,0,0,0-.24-.49,3.671,3.671,0,0,0-2.4-.79A3.542,3.542,0,0,0-17.24-3.5v.02A3.521,3.521,0,0,0-13.68.12ZM-8.17.11A2.146,2.146,0,0,0-6.45-.66v.2a.547.547,0,0,0,.59.51.576.576,0,0,0,.59-.58v-2.6a2.191,2.191,0,0,0-.57-1.63,2.366,2.366,0,0,0-1.75-.59,4.526,4.526,0,0,0-1.7.31.528.528,0,0,0-.33.48.5.5,0,0,0,.51.5.68.68,0,0,0,.19-.03A3.136,3.136,0,0,1-7.75-4.3c.85,0,1.31.4,1.31,1.15v.13a4.411,4.411,0,0,0-1.42-.22c-1.29,0-2.18.56-2.18,1.7v.02A1.687,1.687,0,0,0-8.17.11Zm.34-.88c-.58,0-1.03-.29-1.03-.8v-.02c0-.55.46-.88,1.24-.88a3.354,3.354,0,0,1,1.2.21v.36C-6.42-1.23-7.03-.77-7.83-.77Zm4.01,1.82a.6.6,0,0,0,.6.6.6.6,0,0,0,.61-.6V-.82A2.157,2.157,0,0,0-.81.11,2.526,2.526,0,0,0,1.64-2.63v-.02A2.526,2.526,0,0,0-.81-5.39a2.114,2.114,0,0,0-1.8.99v-.33a.606.606,0,0,0-.61-.61.6.6,0,0,0-.6.61ZM-1.1-.94A1.592,1.592,0,0,1-2.64-2.63v-.02A1.592,1.592,0,0,1-1.1-4.34,1.564,1.564,0,0,1,.41-2.65v.02A1.546,1.546,0,0,1-1.1-.94Zm3.97-5.7a.626.626,0,0,0,.69.6.626.626,0,0,0,.69-.6V-6.7a.619.619,0,0,0-.69-.59.619.619,0,0,0-.69.59ZM2.96-.55a.6.6,0,0,0,.6.6.6.6,0,0,0,.61-.6V-4.73a.606.606,0,0,0-.61-.61.6.6,0,0,0-.6.61ZM7.52.09a2.407,2.407,0,0,0,.83-.14.521.521,0,0,0,.32-.47.51.51,0,0,0-.51-.5,2.861,2.861,0,0,1-.3.03.576.576,0,0,1-.65-.66V-4.24h.95a.525.525,0,0,0,.53-.52.525.525,0,0,0-.53-.52H7.21v-.9a.6.6,0,0,0-.6-.6.6.6,0,0,0-.61.6v.9H5.8a.516.516,0,0,0-.52.52.516.516,0,0,0,.52.52H6v2.78A1.353,1.353,0,0,0,7.52.09Zm3.86.02A2.146,2.146,0,0,0,13.1-.66v.2a.547.547,0,0,0,.59.51.576.576,0,0,0,.59-.58v-2.6a2.191,2.191,0,0,0-.57-1.63,2.366,2.366,0,0,0-1.75-.59,4.526,4.526,0,0,0-1.7.31.528.528,0,0,0-.33.48.5.5,0,0,0,.51.5.68.68,0,0,0,.19-.03A3.136,3.136,0,0,1,11.8-4.3c.85,0,1.31.4,1.31,1.15v.13a4.411,4.411,0,0,0-1.42-.22c-1.29,0-2.18.56-2.18,1.7v.02A1.687,1.687,0,0,0,11.38.11Zm.34-.88c-.58,0-1.03-.29-1.03-.8v-.02c0-.55.46-.88,1.24-.88a3.354,3.354,0,0,1,1.2.21v.36C13.13-1.23,12.52-.77,11.72-.77Zm4.08.22a.6.6,0,0,0,.6.6.6.6,0,0,0,.61-.6v-6.2a.6.6,0,0,0-.61-.6.6.6,0,0,0-.6.6Z" transform="translate(84.693 537.04)"/><path class="n" d="M-34.66-.41a.682.682,0,0,0,.64.51h.12a.674.674,0,0,0,.64-.51l1.56-4.57,1.56,4.57a.663.663,0,0,0,.63.51h.12a.685.685,0,0,0,.64-.51l2.07-5.8a.705.705,0,0,0,.06-.25.6.6,0,0,0-.61-.59.627.627,0,0,0-.6.44l-1.61,4.82-1.58-4.79a.64.64,0,0,0-.62-.49h-.09a.649.649,0,0,0-.62.49l-1.58,4.79L-35.54-6.6a.627.627,0,0,0-.61-.45.615.615,0,0,0-.63.6.644.644,0,0,0,.05.24Zm9.04-6.23a.626.626,0,0,0,.69.6.626.626,0,0,0,.69-.6V-6.7a.619.619,0,0,0-.69-.59.619.619,0,0,0-.69.59Zm.09,6.09a.6.6,0,0,0,.6.6.6.6,0,0,0,.61-.6V-4.73a.606.606,0,0,0-.61-.61.6.6,0,0,0-.6.61Zm4.56.64a2.407,2.407,0,0,0,.83-.14.521.521,0,0,0,.32-.47.51.51,0,0,0-.51-.5,2.861,2.861,0,0,1-.3.03.576.576,0,0,1-.65-.66V-4.24h.95a.525.525,0,0,0,.53-.52.525.525,0,0,0-.53-.52h-.95v-.9a.6.6,0,0,0-.6-.6.6.6,0,0,0-.61.6v.9h-.2a.516.516,0,0,0-.52.52.516.516,0,0,0,.52.52h.2v2.78A1.353,1.353,0,0,0-20.97.09Zm2.34-.64a.6.6,0,0,0,.6.6.6.6,0,0,0,.61-.6V-2.98a1.175,1.175,0,0,1,1.19-1.31c.72,0,1.13.47,1.13,1.29V-.55a.6.6,0,0,0,.61.6.589.589,0,0,0,.6-.6V-3.37a1.81,1.81,0,0,0-1.88-2.02,1.914,1.914,0,0,0-1.65.92V-6.75a.6.6,0,0,0-.61-.6.6.6,0,0,0-.6.6Zm11.39-6.2a.6.6,0,0,0-.61-.6.6.6,0,0,0-.6.6v2.29a2.16,2.16,0,0,0-1.8-.93A2.52,2.52,0,0,0-12.7-2.65v.02A2.532,2.532,0,0,0-10.25.11a2.114,2.114,0,0,0,1.8-.99v.33a.6.6,0,0,0,.61.6.6.6,0,0,0,.6-.6ZM-9.96-4.34A1.584,1.584,0,0,1-8.43-2.65v.02A1.591,1.591,0,0,1-9.96-.94a1.571,1.571,0,0,1-1.52-1.69v-.02A1.548,1.548,0,0,1-9.96-4.34ZM-5.72-.55a.6.6,0,0,0,.6.6.6.6,0,0,0,.61-.6V-2.11c0-1.25.59-1.91,1.45-2.06a.568.568,0,0,0,.48-.58.562.562,0,0,0-.6-.6A1.678,1.678,0,0,0-4.51-4.19v-.54a.606.606,0,0,0-.61-.61.6.6,0,0,0-.6.61Zm5.4.66A2.146,2.146,0,0,0,1.4-.66v.2a.547.547,0,0,0,.59.51.576.576,0,0,0,.59-.58v-2.6a2.191,2.191,0,0,0-.57-1.63A2.366,2.366,0,0,0,.26-5.35a4.526,4.526,0,0,0-1.7.31.528.528,0,0,0-.33.48.5.5,0,0,0,.51.5.68.68,0,0,0,.19-.03A3.136,3.136,0,0,1,.1-4.3c.85,0,1.31.4,1.31,1.15v.13A4.411,4.411,0,0,0-.01-3.24c-1.29,0-2.18.56-2.18,1.7v.02A1.687,1.687,0,0,0-.32.11ZM.02-.77c-.58,0-1.03-.29-1.03-.8v-.02c0-.55.46-.88,1.24-.88a3.354,3.354,0,0,1,1.2.21v.36C1.43-1.23.82-.77.02-.77ZM5.67.09h.04a.669.669,0,0,0,.65-.52L7.4-3.57,8.43-.43a.671.671,0,0,0,.66.52h.04A.7.7,0,0,0,9.8-.45l1.44-4.06a1,1,0,0,0,.05-.27.561.561,0,0,0-.57-.56.6.6,0,0,0-.59.47L9.1-1.66,8.06-4.86a.642.642,0,0,0-.62-.48H7.37a.642.642,0,0,0-.62.48L5.72-1.66,4.7-4.86a.617.617,0,0,0-.59-.48.566.566,0,0,0-.59.56,1,1,0,0,0,.06.31L5-.45A.688.688,0,0,0,5.67.09ZM20.62-6.75a.6.6,0,0,0-.61-.6.6.6,0,0,0-.6.6v2.29a2.16,2.16,0,0,0-1.8-.93,2.52,2.52,0,0,0-2.45,2.74v.02A2.532,2.532,0,0,0,17.61.11a2.114,2.114,0,0,0,1.8-.99v.33a.6.6,0,0,0,.61.6.6.6,0,0,0,.6-.6ZM17.9-4.34a1.584,1.584,0,0,1,1.53,1.69v.02A1.591,1.591,0,0,1,17.9-.94a1.571,1.571,0,0,1-1.52-1.69v-.02A1.548,1.548,0,0,1,17.9-4.34ZM23.66.11a2.146,2.146,0,0,0,1.72-.77v.2a.547.547,0,0,0,.59.51.576.576,0,0,0,.59-.58v-2.6a2.191,2.191,0,0,0-.57-1.63,2.366,2.366,0,0,0-1.75-.59,4.526,4.526,0,0,0-1.7.31.528.528,0,0,0-.33.48.5.5,0,0,0,.51.5.68.68,0,0,0,.19-.03,3.136,3.136,0,0,1,1.17-.21c.85,0,1.31.4,1.31,1.15v.13a4.411,4.411,0,0,0-1.42-.22c-1.29,0-2.18.56-2.18,1.7v.02A1.687,1.687,0,0,0,23.66.11ZM24-.77c-.58,0-1.03-.29-1.03-.8v-.02c0-.55.46-.88,1.24-.88a3.354,3.354,0,0,1,1.2.21v.36C25.41-1.23,24.8-.77,24-.77Zm5.73.86a2.407,2.407,0,0,0,.83-.14.521.521,0,0,0,.32-.47.51.51,0,0,0-.51-.5,2.861,2.861,0,0,1-.3.03.576.576,0,0,1-.65-.66V-4.24h.95a.525.525,0,0,0,.53-.52.525.525,0,0,0-.53-.52h-.95v-.9a.6.6,0,0,0-.6-.6.6.6,0,0,0-.61.6v.9h-.2a.516.516,0,0,0-.52.52.516.516,0,0,0,.52.52h.2v2.78A1.353,1.353,0,0,0,29.73.09Zm3.1-3.1A1.429,1.429,0,0,1,34.2-4.4a1.371,1.371,0,0,1,1.34,1.39ZM36.24-.58a.528.528,0,0,0,.16-.37.476.476,0,0,0-.48-.49.45.45,0,0,0-.31.11,1.9,1.9,0,0,1-1.25.46,1.474,1.474,0,0,1-1.52-1.34h3.31a.566.566,0,0,0,.57-.58,2.5,2.5,0,0,0-2.51-2.6,2.621,2.621,0,0,0-2.58,2.75v.02A2.634,2.634,0,0,0,34.34.12,2.711,2.711,0,0,0,36.24-.58Z" transform="translate(244.399 537.04)"/><path class="r" d="M4.48-11.392v.192c-2.016.208-3.36,1.392-3.36,3.152,0,1.9,1.136,2.784,3.44,3.408V-2.1a6.11,6.11,0,0,1-2.048-.9A1.163,1.163,0,0,0,1.888-3.2a1.073,1.073,0,0,0-1.1,1.088,1.083,1.083,0,0,0,.544.96A8,8,0,0,0,4.48-.032V.832a.832.832,0,1,0,1.664,0V-.016C8.16-.24,9.536-1.392,9.536-3.184S8.5-5.968,6.064-6.624V-9.056a6.123,6.123,0,0,1,1.328.544,1.167,1.167,0,0,0,.56.144A1.066,1.066,0,0,0,9.04-9.44a1.076,1.076,0,0,0-.576-.96,6.724,6.724,0,0,0-2.32-.768v-.224a.826.826,0,0,0-.832-.832A.826.826,0,0,0,4.48-11.392ZM7.2-3.056c0,.576-.384.928-1.136,1.04V-4.24C6.928-3.936,7.2-3.584,7.2-3.056ZM3.456-8.192c0-.512.336-.9,1.1-1.008v2.16C3.68-7.36,3.456-7.7,3.456-8.192ZM13.184-1.12A1.215,1.215,0,0,0,14.4.1,1.215,1.215,0,0,0,15.616-1.12v-9.024A1.215,1.215,0,0,0,14.4-11.36h-.032a4.4,4.4,0,0,0-1.152.208l-1.584.464a1.091,1.091,0,0,0-.816,1.056,1.079,1.079,0,0,0,1.072,1.056,2.014,2.014,0,0,0,.432-.064l.864-.224Zm4.8-.176v.032A1.347,1.347,0,0,0,19.376.1a1.347,1.347,0,0,0,1.392-1.36V-1.3a1.347,1.347,0,0,0-1.392-1.36A1.347,1.347,0,0,0,17.984-1.3Zm9.1,1.488c2.432,0,4.272-1.584,4.272-3.872v-.032c0-2.336-1.712-3.568-3.936-3.568a3.874,3.874,0,0,0-2.32.72c.16-1.472.864-2.592,2.256-2.592a3.1,3.1,0,0,1,1.648.448,1.34,1.34,0,0,0,.608.176,1.147,1.147,0,0,0,1.168-1.136,1.17,1.17,0,0,0-.64-1.056,5.266,5.266,0,0,0-2.7-.672c-3.344,0-4.912,2.656-4.912,6.112v.032c0,2.224.512,3.424,1.328,4.24A4.248,4.248,0,0,0,27.088.192Zm-.1-2.112A1.729,1.729,0,0,1,25.04-3.584v-.032c0-.944.7-1.616,1.92-1.616s1.952.688,1.952,1.632v.032C28.912-2.608,28.208-1.92,26.992-1.92ZM36.928.192c3.184,0,4.9-2.48,4.9-6.112v-.032c0-2.208-.528-3.424-1.328-4.224a4.055,4.055,0,0,0-3.232-1.216,3.951,3.951,0,0,0-4.272,3.92v.032c0,2.272,1.568,3.616,4,3.616a3.405,3.405,0,0,0,2.272-.768c-.16,1.5-.9,2.544-2.272,2.544a3.286,3.286,0,0,1-1.792-.5,1.252,1.252,0,0,0-.64-.192,1.134,1.134,0,0,0-1.168,1.12,1.17,1.17,0,0,0,.576,1.008A5.29,5.29,0,0,0,36.928.192Zm.464-6.064c-1.216,0-1.952-.688-1.952-1.68v-.032a1.684,1.684,0,0,1,1.9-1.7,1.742,1.742,0,0,1,1.968,1.712v.032A1.692,1.692,0,0,1,37.392-5.872ZM47.568.192c2.464,0,4.176-1.5,4.176-3.872v-.032c0-2.528-1.712-3.584-3.92-3.584a5.479,5.479,0,0,0-1.472.192L46.48-9.04h3.776a1.086,1.086,0,0,0,1.088-1.072A1.1,1.1,0,0,0,50.256-11.2H45.392A1.093,1.093,0,0,0,44.3-10.144L44.08-6.352a1.045,1.045,0,0,0,.448.992,1.9,1.9,0,0,0,1.12.5,9.051,9.051,0,0,1,1.7-.288c1.168,0,1.984.56,1.984,1.52V-3.6c0,.992-.768,1.552-1.808,1.552a3.453,3.453,0,0,1-2.128-.72,1.031,1.031,0,0,0-.672-.224,1.188,1.188,0,0,0-1.168,1.184,1.143,1.143,0,0,0,.5.944A5.723,5.723,0,0,0,47.568.192ZM53.584-1.3v.032A1.347,1.347,0,0,0,54.976.1a1.347,1.347,0,0,0,1.392-1.36V-1.3a1.347,1.347,0,0,0-1.392-1.36A1.347,1.347,0,0,0,53.584-1.3ZM62.768.192C65.76.192,67.76-2.352,67.76-5.6v-.032c0-3.248-2-5.76-4.96-5.76-2.976,0-4.992,2.544-4.992,5.792v.032C57.808-2.32,59.776.192,62.768.192ZM62.8-2.032c-1.488,0-2.464-1.52-2.464-3.568v-.032c0-2.048.96-3.536,2.432-3.536S65.232-7.632,65.232-5.6v.032C65.232-3.536,64.288-2.032,62.8-2.032ZM74.448.192C77.44.192,79.44-2.352,79.44-5.6v-.032c0-3.248-2-5.76-4.96-5.76-2.976,0-4.992,2.544-4.992,5.792v.032C69.488-2.32,71.456.192,74.448.192Zm.032-2.224c-1.488,0-2.464-1.52-2.464-3.568v-.032c0-2.048.96-3.536,2.432-3.536S76.912-7.632,76.912-5.6v.032C76.912-3.536,75.968-2.032,74.48-2.032Z" transform="translate(44.002 563.054)"/><path class="s" d="M2.848-1.12A1.215,1.215,0,0,0,4.064.1,1.215,1.215,0,0,0,5.28-1.12v-9.024A1.215,1.215,0,0,0,4.064-11.36H4.032a4.4,4.4,0,0,0-1.152.208L1.3-10.688A1.091,1.091,0,0,0,.48-9.632,1.079,1.079,0,0,0,1.552-8.576a2.014,2.014,0,0,0,.432-.064l.864-.224ZM11.728.192c2.5,0,4.032-1.552,4.032-3.664V-3.5c0-2.08-1.488-2.88-3.008-3.136l2.192-2.1a1.786,1.786,0,0,0,.736-1.376A1.115,1.115,0,0,0,14.432-11.2H8.976A1.065,1.065,0,0,0,7.92-10.144,1.065,1.065,0,0,0,8.976-9.088h3.44L10.24-6.9a1.391,1.391,0,0,0-.528,1.008,1.065,1.065,0,0,0,1.056,1.056h.384c1.376,0,2.192.512,2.192,1.424v.032a1.4,1.4,0,0,1-1.584,1.36,3.2,3.2,0,0,1-2.192-.832,1.17,1.17,0,0,0-.784-.3A1.2,1.2,0,0,0,7.6-1.968a1.215,1.215,0,0,0,.416.88A5.476,5.476,0,0,0,11.728.192Zm4.848,1.04a.95.95,0,0,0,.944.912.9.9,0,0,0,.848-.56l6.256-13.072a1.235,1.235,0,0,0,.112-.464.95.95,0,0,0-.944-.912.9.9,0,0,0-.848.56L16.688.768A1.235,1.235,0,0,0,16.576,1.232Zm13.7-1.04c2.992,0,4.992-2.544,4.992-5.792v-.032c0-3.248-2-5.76-4.96-5.76-2.976,0-4.992,2.544-4.992,5.792v.032C25.312-2.32,27.28.192,30.272.192ZM30.3-2.032c-1.488,0-2.464-1.52-2.464-3.568v-.032c0-2.048.96-3.536,2.432-3.536S32.736-7.632,32.736-5.6v.032C32.736-3.536,31.792-2.032,30.3-2.032ZM40.96.192c3.184,0,4.9-2.48,4.9-6.112v-.032c0-2.208-.528-3.424-1.328-4.224A4.055,4.055,0,0,0,41.3-11.392a3.951,3.951,0,0,0-4.272,3.92v.032c0,2.272,1.568,3.616,4,3.616A3.405,3.405,0,0,0,43.3-4.592c-.16,1.5-.9,2.544-2.272,2.544a3.286,3.286,0,0,1-1.792-.5,1.252,1.252,0,0,0-.64-.192,1.134,1.134,0,0,0-1.168,1.12A1.17,1.17,0,0,0,38-.608,5.29,5.29,0,0,0,40.96.192Zm.464-6.064c-1.216,0-1.952-.688-1.952-1.68v-.032a1.684,1.684,0,0,1,1.9-1.7,1.742,1.742,0,0,1,1.968,1.712v.032A1.692,1.692,0,0,1,41.424-5.872Zm4.944,7.1a.95.95,0,0,0,.944.912.9.9,0,0,0,.848-.56l6.256-13.072a1.235,1.235,0,0,0,.112-.464.95.95,0,0,0-.944-.912.9.9,0,0,0-.848.56L46.48.768A1.235,1.235,0,0,0,46.368,1.232Zm8.8-2.4A1.181,1.181,0,0,0,56.5,0h6.08a1.059,1.059,0,0,0,1.072-1.056,1.072,1.072,0,0,0-1.072-1.072h-3.9L60.5-3.536C62.48-5.072,63.44-6,63.44-7.872V-7.9c0-2.1-1.536-3.456-3.856-3.456a4.41,4.41,0,0,0-3.648,1.648,1.233,1.233,0,0,0-.288.768,1.113,1.113,0,0,0,1.12,1.12,1.125,1.125,0,0,0,.832-.352,2.365,2.365,0,0,1,1.824-.976,1.374,1.374,0,0,1,1.5,1.456c0,.928-.544,1.552-1.936,2.688L55.808-2.4A1.555,1.555,0,0,0,55.168-1.168Zm15.1,1.36c2.992,0,4.992-2.544,4.992-5.792v-.032c0-3.248-2-5.76-4.96-5.76-2.976,0-4.992,2.544-4.992,5.792v.032C65.312-2.32,67.28.192,70.272.192ZM70.3-2.032c-1.488,0-2.464-1.52-2.464-3.568v-.032c0-2.048.96-3.536,2.432-3.536S72.736-7.632,72.736-5.6v.032C72.736-3.536,71.792-2.032,70.3-2.032Z" transform="translate(210.793 563.054)"/><ellipse class="t" cx="26.885" cy="26.86" rx="26.885" ry="26.86" transform="translate(60.927 464.865)"/><ellipse class="u" cx="26.885" cy="26.86" rx="26.885" ry="26.86" transform="translate(221.653 464.865)"/><g transform="translate(232.002 329.461)"><path class="o" d="M462.9,1724.109a1.905,1.905,0,0,0-.33.028,2.571,2.571,0,0,0-4.484,0,1.933,1.933,0,0,0-2.26,1.9,1.871,1.871,0,0,0,.118.643h-2.689v-3.856h3.217a.643.643,0,0,0,.644-.643v-25.708a.644.644,0,0,0-.644-.643h-19.3a.644.644,0,0,0-.643.643v30.854a.642.642,0,0,0,.643.641h25.734a1.928,1.928,0,1,0,0-3.856Zm-9.65-27h2.572v3.858h-2.572Zm0,5.143h2.572v3.856h-2.572Zm0,5.142h2.572v3.856h-2.572Zm0,5.142h2.572v3.857h-2.572Zm0,5.143h2.572v3.856h-2.572Zm-12.867,9h-2.574v-3.856h2.574Zm0-5.142h-2.574v-3.858h2.574Zm0-5.142h-2.574v-3.857h2.574Zm0-5.143h-2.574V1707.4h2.574Zm0-5.142h-2.574v-3.856h2.574Zm0-5.141h-2.574v-3.858h2.574Zm3.86,25.711h-2.573v-3.856h2.573Zm0-5.143h-2.573v-3.857h2.573Zm0-5.142h-2.573v-3.858h2.573Zm0-5.142h-2.573v-3.858h2.573Zm0-5.143h-2.573v-3.855h2.573Zm0-5.142h-2.573v-3.856h2.573Zm3.861,25.711h-2.574v-3.855H448.1Zm0-5.141h-2.574v-3.858H448.1Zm0-5.142h-2.574v-3.858H448.1Zm0-5.143h-2.574v-3.857H448.1Zm0-5.142h-2.574v-3.855H448.1Zm0-5.142h-2.574v-3.856H448.1Zm3.86,25.711h-2.573v-3.855h2.573Zm0-5.143h-2.573v-3.856h2.573Zm0-5.142h-2.573v-3.857h2.573Zm0-5.142h-2.573v-3.858h2.573Zm0-5.144h-2.573v-3.853h2.573Zm0-5.142h-2.573v-3.854h2.573Zm10.938,25.711h-5.148a.643.643,0,1,1,.349-1.181.643.643,0,0,0,.889-.192.6.6,0,0,0,.086-.2,1.282,1.282,0,0,1,2.5,0,.643.643,0,0,0,.771.482.651.651,0,0,0,.2-.086.657.657,0,0,1,.992.538.644.644,0,0,1-.643.646h0Z" transform="translate(-426.23 -1689.399)"/><path class="o" d="M443.721,1695.977v-1.928h4.5a.644.644,0,0,0,.644-.643h0v-.643h2.572v.643a.644.644,0,0,0,.643.643h4.5v1.286H445.652a.643.643,0,1,0,0,1.285h16.083v26.663a.643.643,0,0,0,1.287,0v-27.306a.643.643,0,0,0-.644-.642h-4.5v-1.929a.644.644,0,0,0-.644-.643h-4.5v-.642a.641.641,0,0,0-.642-.643h-3.861a.643.643,0,0,0-.643.643h0v.642h-4.5a.643.643,0,0,0-.643.643v1.929h-4.5a.643.643,0,0,0-.643.642h0v32.782h-3.861v-2.635a3.221,3.221,0,0,0,2.574-3.15c0-.084-.037-8.357-3.217-8.357s-3.216,8.274-3.216,8.357a3.22,3.22,0,0,0,2.573,3.15v2.635H430.21a.643.643,0,1,0,0,1.286h7.719a.643.643,0,0,0,.644-.644h0V1696.62h4.5a.644.644,0,0,0,.644-.643Zm-12.868,27c0-3.2.861-7.071,1.931-7.071s1.93,3.865,1.93,7.071a1.93,1.93,0,0,1-3.861,0Z" transform="translate(-429.567 -1691.479)"/></g><g transform="translate(63.481 336.938)"><path class="j" d="M326.8,1699.629h-5.74a.964.964,0,0,0-.966.963h0v.834H317.4a.965.965,0,0,0-.964.965h0v.277a6.859,6.859,0,0,1-3.527-1.264,58.461,58.461,0,0,0-5.8-2.959l-.043-.018a8.224,8.224,0,0,0-6.3.1l-3.888,1.391-3.276-3.275a.965.965,0,0,0-1.364,0h0l-10.751,10.745a.957.957,0,0,0-.012,1.353l.012.012,18.372,18.356a1.045,1.045,0,0,0,1.367,0l9.814-9.808c.256.022.52.036.8.036a7.729,7.729,0,0,0,6.031-3.614H326.8a.965.965,0,0,0,.966-.965h0v-12.162a.964.964,0,0,0-.964-.964Zm-33.88-.939,2.2,2.2a4.215,4.215,0,0,1-4.4,0Zm-7.186,11.576-2.2-2.2,2.2-2.2A4.205,4.205,0,0,1,285.733,1710.267Zm14.805,14.793-2.2-2.2a4.206,4.206,0,0,1,4.4,0Zm3.592-3.588a6.14,6.14,0,0,0-7.183,0l-9.824-9.815a6.129,6.129,0,0,0,0-7.178l2.2-2.2a6.141,6.141,0,0,0,7.184,0l2.087,2.087a3.824,3.824,0,0,0-2.872,2.1,5.5,5.5,0,1,0,6.327,6.806l3.26,1.1a6.151,6.151,0,0,0,1.023,4.89Zm-5.87-9.483.025.009,1.93.655a3.572,3.572,0,1,1-4.849-4.079A4.271,4.271,0,0,0,298.26,1711.989Zm9.465,5.89a4.217,4.217,0,0,1-.616-2,7.521,7.521,0,0,0,1.7.92Zm8.71-5.508c-.916,1.5-2.691,3.032-4.6,3.032a6.984,6.984,0,0,1-1.007-.073h0a5.532,5.532,0,0,1-3.576-1.956c-.021-.029-.1-.138-.116-.157a.967.967,0,0,0-.532-.445l-7.677-2.6a2.166,2.166,0,0,1-1.576-2.554h0a1.881,1.881,0,0,1,2.311-1.293l8.65,2.739a.965.965,0,1,0,.586-1.838h0l-6.88-2.178-.059-.06h0l-3.564-3.56,3.059-1.1.032-.012.01,0,.04-.018a6.266,6.266,0,0,1,4.808-.082,55.794,55.794,0,0,1,5.606,2.861,8.689,8.689,0,0,0,4.492,1.526Zm3.657-.58h-1.726v-8.434h1.727Zm5.741,0h-3.81v-10.232h3.81Z" transform="translate(-281.198 -1696.359)"/></g><g transform="translate(69.255 471.423)"><g transform="translate(0 34.322)"><path class="r" d="M319.718,1842.841H285.365a.746.746,0,1,0-.006,1.492h34.359a.746.746,0,1,0,.006-1.492Z" transform="translate(-284.615 -1842.841)"/></g><g transform="translate(1.496 25.368)"><path class="r" d="M290.84,1836.864H286.36a.746.746,0,0,0-.747.746v8.954a.747.747,0,0,0,.747.746h4.481a.747.747,0,0,0,.747-.746v-8.954a.746.746,0,0,0-.747-.746Zm-.747,8.954h-2.987v-7.463h2.987Z" transform="translate(-285.613 -1836.864)"/></g><g transform="translate(10.457 17.907)"><path class="r" d="M296.818,1831.884h-4.482a.748.748,0,0,0-.747.747v16.415a.749.749,0,0,0,.747.746h4.482a.749.749,0,0,0,.747-.746V1832.63A.748.748,0,0,0,296.818,1831.884Zm-.747,16.416h-2.987v-14.923h2.987Z" transform="translate(-291.589 -1831.884)"/></g><g transform="translate(19.42 20.891)"><path class="r" d="M302.793,1833.876h-4.48a.746.746,0,0,0-.747.745v13.428a.747.747,0,0,0,.747.746h4.48a.747.747,0,0,0,.747-.746v-13.431A.744.744,0,0,0,302.793,1833.876Zm-.747,13.43h-2.986v-11.939h2.986Z" transform="translate(-297.566 -1833.876)"/></g><g transform="translate(28.38 11.939)"><path class="r" d="M308.771,1827.9h-4.482a.747.747,0,0,0-.747.746v22.384a.748.748,0,0,0,.747.746h4.482a.746.746,0,0,0,.747-.746v-22.384A.747.747,0,0,0,308.771,1827.9Zm-.747,22.383h-2.987v-20.891h2.987Z" transform="translate(-303.542 -1827.9)"/></g><g transform="translate(1.496 13.431)"><path class="r" d="M288.6,1828.9a2.984,2.984,0,1,0,2.987,2.985A2.985,2.985,0,0,0,288.6,1828.9Zm0,4.477a1.492,1.492,0,1,1,1.494-1.492,1.493,1.493,0,0,1-1.494,1.492Z" transform="translate(-285.613 -1828.896)"/></g><g transform="translate(10.457 5.969)"><path class="r" d="M294.576,1823.915a2.984,2.984,0,1,0,2.987,2.984A2.986,2.986,0,0,0,294.576,1823.915Zm0,4.478a1.492,1.492,0,1,1,1.494-1.492A1.493,1.493,0,0,1,294.576,1828.393Z" transform="translate(-291.589 -1823.915)"/></g><g transform="translate(19.42 8.953)"><path class="r" d="M300.553,1825.907a2.984,2.984,0,1,0,2.987,2.984A2.986,2.986,0,0,0,300.553,1825.907Zm0,4.477a1.492,1.492,0,1,1,1.493-1.492h0a1.494,1.494,0,0,1-1.493,1.492Z" transform="translate(-297.566 -1825.907)"/></g><g transform="translate(28.38)"><path class="r" d="M306.529,1819.931a2.984,2.984,0,1,0,2.987,2.984A2.985,2.985,0,0,0,306.529,1819.931Zm0,4.476a1.492,1.492,0,1,1,1.494-1.492h0A1.493,1.493,0,0,1,306.529,1824.407Z" transform="translate(-303.542 -1819.931)"/></g><g transform="translate(23.258 3.822)"><path class="r" d="M307.182,1822.7a.749.749,0,0,0-1.056,0l-5.794,5.791a.746.746,0,0,0,1.056,1.055l5.794-5.79A.747.747,0,0,0,307.182,1822.7Z" transform="translate(-300.126 -1822.482)"/></g><g transform="translate(14.852 8.82)"><path class="r" d="M300.27,1827.214l-4.8-1.367a.747.747,0,1,0-.408,1.437l4.8,1.367a.747.747,0,0,0,.409-1.437Z" transform="translate(-294.52 -1825.819)"/></g><g transform="translate(5.319 9.603)"><path class="r" d="M295.122,1826.621a.748.748,0,0,0-1.048-.118l-5.63,4.485a.746.746,0,0,0,.93,1.168l5.63-4.484a.745.745,0,0,0,.12-1.047Z" transform="translate(-288.162 -1826.341)"/></g></g><g transform="translate(233.013 475.485)"><path class="s" d="M461.249,1825.594h-4.308v-1.985a.994.994,0,0,0-1.987,0v1.985H448.99v-1.985a.994.994,0,0,0-1.987,0v1.985h-5.965v-1.985a.995.995,0,0,0-1.988,0v1.985h-4.306a2.65,2.65,0,0,0-2.651,2.648v23.5a2.65,2.65,0,0,0,2.651,2.649h26.506a2.649,2.649,0,0,0,2.65-2.649v-23.5A2.648,2.648,0,0,0,461.249,1825.594Zm.663,26.151a.665.665,0,0,1-.663.663H434.743a.663.663,0,0,1-.663-.663v-23.5a.662.662,0,0,1,.663-.661h4.306v1.986a.995.995,0,0,0,1.988,0v-1.986H447v1.986a.994.994,0,0,0,1.987,0v-1.986h5.965v1.986a.994.994,0,0,0,1.987,0v-1.986h4.308a.663.663,0,0,1,.661.661Z" transform="translate(-432.092 -1822.642)"/><rect class="s" width="3.976" height="2.98" transform="translate(6.958 11.89)"/><rect class="s" width="3.976" height="2.98" transform="translate(6.958 16.855)"/><rect class="s" width="3.976" height="2.98" transform="translate(6.958 21.82)"/><rect class="s" width="3.976" height="2.98" transform="translate(13.916 21.82)"/><rect class="s" width="3.976" height="2.98" transform="translate(13.916 16.855)"/><rect class="s" width="3.976" height="2.98" transform="translate(13.916 11.89)"/><rect class="s" width="3.976" height="2.98" transform="translate(20.874 21.82)"/><rect class="s" width="3.976" height="2.98" transform="translate(20.874 16.855)"/><rect class="s" width="3.976" height="2.98" transform="translate(20.874 11.89)"/></g><path class="k" d="M482.492,1429.782a1.412,1.412,0,0,0-1.413-1.411h-.707a2.827,2.827,0,0,0-2.827,2.824v2.118a2.826,2.826,0,0,0,2.827,2.824h.707a1.411,1.411,0,0,0,1.413-1.412h0Zm7.776,6.356a2.826,2.826,0,0,0,2.827-2.824h0v-2.118a2.826,2.826,0,0,0-2.827-2.824h-.707a1.413,1.413,0,0,0-1.414,1.411v4.943a1.414,1.414,0,0,0,1.414,1.412Zm-4.948-15.536a11.518,11.518,0,0,0-11.309,11.3v.707a.707.707,0,0,0,.707.706h.707a.706.706,0,0,0,.707-.706h0v-.707a9.188,9.188,0,0,1,18.376,0h0c0,.107,0,7.314,0,7.314a1.866,1.866,0,0,1-1.867,1.866h-4.495a2.119,2.119,0,0,0-2.12-2.118h-1.413a2.119,2.119,0,0,0,0,4.238h8.028a3.986,3.986,0,0,0,3.987-3.984h0V1431.9A11.517,11.517,0,0,0,485.319,1420.6Z" transform="translate(-189.475 -1374.915)"/><path class="k" d="M262.106,1434.019c-1.268,0-1.877.707-3.958.707s-2.686-.707-3.957-.707a5.935,5.935,0,0,0-5.937,5.931v1.13a2.12,2.12,0,0,0,2.12,2.118h15.55a2.119,2.119,0,0,0,2.12-2.118v-1.13A5.935,5.935,0,0,0,262.106,1434.019Zm3.817,7.061h-15.55v-1.13a3.822,3.822,0,0,1,3.817-3.812c.645,0,1.691.706,3.957.706,2.284,0,3.309-.705,3.958-.705a3.823,3.823,0,0,1,3.817,3.813Zm-7.775-7.767a6.356,6.356,0,1,0-6.36-6.357h0A6.36,6.36,0,0,0,258.147,1433.313Zm0-10.592a4.237,4.237,0,1,1-4.24,4.236A4.239,4.239,0,0,1,258.147,1422.721Z" transform="translate(-221.261 -1374.915)"/><path class="k" d="M21.533,17.755c-.947-1.017-2.718-2.548-2.718-7.562a7.739,7.739,0,0,0-6.27-7.6V1.568a1.567,1.567,0,1,0-3.135,0V2.59a7.739,7.739,0,0,0-6.27,7.6c0,5.014-1.772,6.544-2.718,7.562A1.531,1.531,0,0,0,0,18.819a1.57,1.57,0,0,0,1.573,1.568H20.382a1.569,1.569,0,0,0,1.573-1.568A1.53,1.53,0,0,0,21.533,17.755Zm-18.224.28c1.04-1.371,2.177-3.643,2.182-7.813,0-.01,0-.019,0-.028a5.489,5.489,0,1,1,10.978,0c0,.01,0,.019,0,.028.005,4.171,1.142,6.443,2.182,7.813Zm7.668,7.057a3.136,3.136,0,0,0,3.135-3.137H7.842A3.136,3.136,0,0,0,10.977,25.092Z" transform="translate(241.963 45.687)"/><path class="k" d="M14.656,97.724v1.724h.862v1.724h-.862V102.9H1.724V97.724H14.656M15.087,96H1.293A1.293,1.293,0,0,0,0,97.293v6.035a1.293,1.293,0,0,0,1.293,1.293H15.087a1.293,1.293,0,0,0,1.293-1.293V102.9H16.6a.647.647,0,0,0,.647-.647v-3.88a.647.647,0,0,0-.647-.647H16.38v-.431A1.293,1.293,0,0,0,15.087,96Zm-1.293,2.586H2.586v3.448H13.794Z" transform="translate(304.773 -78.515)"/><path class="k" d="M28.4,6.605H27.3a.367.367,0,0,0-.367.367v4.4a.367.367,0,0,0,.367.367h1.1a.367.367,0,0,0,.367-.367v-4.4A.367.367,0,0,0,28.4,6.605Zm-2.936,2.2h-1.1A.367.367,0,0,0,24,9.174v2.2a.367.367,0,0,0,.367.367h1.1a.367.367,0,0,0,.367-.367v-2.2A.367.367,0,0,0,25.468,8.807Zm5.871-4.4h-1.1a.367.367,0,0,0-.367.367v6.605a.367.367,0,0,0,.367.367h1.1a.367.367,0,0,0,.367-.367V4.77A.367.367,0,0,0,31.339,4.4Zm2.936-2.2h-1.1a.367.367,0,0,0-.367.367v8.807a.367.367,0,0,0,.367.367h1.1a.367.367,0,0,0,.367-.367V2.569A.367.367,0,0,0,34.275,2.2ZM37.211,0h-1.1a.367.367,0,0,0-.367.367V11.376a.367.367,0,0,0,.367.367h1.1a.367.367,0,0,0,.367-.367V.367A.367.367,0,0,0,37.211,0Z" transform="translate(258.313 13.826)"/><path class="k" d="M16.9,35.27a12.373,12.373,0,0,0-16.76,0,.423.423,0,0,0-.009.612l.911.9a.432.432,0,0,0,.6.01,10.21,10.21,0,0,1,13.765,0,.432.432,0,0,0,.6-.01l.911-.9a.423.423,0,0,0-.01-.612Zm-8.38,5.246a1.7,1.7,0,1,0,1.7,1.7A1.7,1.7,0,0,0,8.516,40.516Zm5.393-2.224a8.17,8.17,0,0,0-10.787,0,.421.421,0,0,0-.015.616l.916.9a.434.434,0,0,0,.587.021,5.994,5.994,0,0,1,7.81,0,.434.434,0,0,0,.587-.021l.916-.9A.421.421,0,0,0,13.91,38.291Z" transform="translate(256.655 -18.174)"/><g class="y" transform="matrix(1, 0, 0, 1, -338.64, -132.57)"><rect class="v" width="307.258" height="99.277" rx="4" transform="translate(354.09 782)"/></g><path class="k" d="M6.842.264c3.212,0,5.39-2.046,5.39-4.884v-.044c0-2.838-2.2-4.026-4.532-4.312l3.63-3.762a1.968,1.968,0,0,0,.77-1.474A1.212,1.212,0,0,0,10.758-15.4H2.882a1.183,1.183,0,0,0-1.188,1.188,1.179,1.179,0,0,0,1.188,1.166H8.47L4.862-9.2A1.537,1.537,0,0,0,4.29-8.1,1.174,1.174,0,0,0,5.456-6.93h.55c2.156,0,3.542.858,3.542,2.376v.044A2.411,2.411,0,0,1,6.886-2.178a4.683,4.683,0,0,1-3.5-1.474A1.3,1.3,0,0,0,2.486-4a1.315,1.315,0,0,0-1.3,1.3,1.3,1.3,0,0,0,.44.968A7.217,7.217,0,0,0,6.842.264ZM15-1.628v.22A1.5,1.5,0,0,0,16.566.11a1.5,1.5,0,0,0,1.54-1.518v-.22a1.5,1.5,0,0,0-1.54-1.518A1.5,1.5,0,0,0,15-1.628Zm7.326.4A1.347,1.347,0,0,0,23.672.11a1.333,1.333,0,0,0,1.342-1.342V-14.256A1.32,1.32,0,0,0,23.672-15.6h-.044a4.69,4.69,0,0,0-1.32.242l-2.332.748a1.178,1.178,0,0,0-.9,1.166A1.189,1.189,0,0,0,20.262-12.3a1.962,1.962,0,0,0,.484-.066l1.584-.484ZM33.9.264c3.3,0,5.632-2.09,5.632-5.214v-.044c0-3.256-2.354-4.84-5.368-4.84a6.548,6.548,0,0,0-2.442.44L31.966-13h5.786a1.2,1.2,0,0,0,1.21-1.188,1.221,1.221,0,0,0-1.21-1.21H30.778a1.239,1.239,0,0,0-1.232,1.21l-.33,5.544a1.283,1.283,0,0,0,.528,1.188,2.116,2.116,0,0,0,1.276.528,10.485,10.485,0,0,1,2.64-.528c1.87,0,3.19.968,3.19,2.552v.044A2.7,2.7,0,0,1,33.858-2.2a5.168,5.168,0,0,1-3.344-1.3,1.187,1.187,0,0,0-.792-.264,1.315,1.315,0,0,0-1.3,1.3,1.334,1.334,0,0,0,.55,1.056A7.8,7.8,0,0,0,33.9.264Zm14.872,0c4.048,0,6.732-3.564,6.732-7.964v-.044c0-4.4-2.662-7.92-6.688-7.92-4.048,0-6.732,3.564-6.732,7.964v.044C42.086-3.256,44.726.264,48.774.264Zm.044-2.442c-2.4,0-3.938-2.486-3.938-5.522v-.044c0-3.058,1.518-5.478,3.894-5.478s3.938,2.486,3.938,5.522v.044C52.712-4.642,51.216-2.178,48.818-2.178Z" transform="translate(57.048 698.71)"/><path class="k" d="M2.358-.5a.553.553,0,0,0,.558.549A.553.553,0,0,0,3.474-.5v-4.77H5.013a.511.511,0,0,0,.5-.513.511.511,0,0,0-.5-.513H.828a.513.513,0,0,0-.513.513.513.513,0,0,0,.513.513h1.53ZM6.327-5.976a.564.564,0,0,0,.621.54.564.564,0,0,0,.621-.54V-6.03a.557.557,0,0,0-.621-.531.557.557,0,0,0-.621.531ZM6.408-.5a.536.536,0,0,0,.54.54A.538.538,0,0,0,7.5-.5V-4.257a.545.545,0,0,0-.549-.549.538.538,0,0,0-.54.549Zm2.511,0a.536.536,0,0,0,.54.54.538.538,0,0,0,.549-.54V-2.682a1.057,1.057,0,0,1,1.071-1.179c.648,0,1.017.423,1.017,1.161V-.5a.538.538,0,0,0,.549.54.53.53,0,0,0,.54-.54V-3.033a1.629,1.629,0,0,0-1.692-1.818,1.722,1.722,0,0,0-1.485.828v-.234a.545.545,0,0,0-.549-.549.538.538,0,0,0-.54.549Zm5.58,0a.536.536,0,0,0,.54.54.538.538,0,0,0,.549-.54v-.828l.72-.684L17.667-.2a.541.541,0,0,0,.477.243.492.492,0,0,0,.513-.5.578.578,0,0,0-.144-.36l-1.44-1.881,1.26-1.161a.618.618,0,0,0,.243-.459.478.478,0,0,0-.477-.495.64.64,0,0,0-.468.234L15.588-2.565v-3.51a.544.544,0,0,0-.549-.54.536.536,0,0,0-.54.54Zm5.9-2.214A1.286,1.286,0,0,1,21.636-3.96a1.234,1.234,0,0,1,1.206,1.251ZM23.472-.522a.475.475,0,0,0,.144-.333.429.429,0,0,0-.432-.441.405.405,0,0,0-.279.1,1.708,1.708,0,0,1-1.125.414,1.327,1.327,0,0,1-1.368-1.206h2.979a.509.509,0,0,0,.513-.522,2.248,2.248,0,0,0-2.259-2.34,2.358,2.358,0,0,0-2.322,2.475v.018A2.371,2.371,0,0,0,21.762.108,2.44,2.44,0,0,0,23.472-.522ZM25.02-.5a.536.536,0,0,0,.54.54.544.544,0,0,0,.549-.54V-1.9c0-1.125.531-1.719,1.3-1.854a.511.511,0,0,0,.432-.522.505.505,0,0,0-.54-.54,1.511,1.511,0,0,0-1.2,1.044v-.486a.545.545,0,0,0-.549-.549.538.538,0,0,0-.54.549ZM30.366.09c.99,0,1.764-.5,1.764-1.494v-.018c0-.855-.783-1.17-1.476-1.386-.558-.18-1.071-.324-1.071-.675V-3.5c0-.27.243-.468.666-.468a2.592,2.592,0,0,1,1.116.324.428.428,0,0,0,.216.054.438.438,0,0,0,.45-.441.462.462,0,0,0-.261-.414,3.267,3.267,0,0,0-1.494-.387,1.516,1.516,0,0,0-1.692,1.449v.018c0,.909.783,1.2,1.485,1.4.558.171,1.062.3,1.062.666v.018c0,.315-.27.513-.738.513a2.508,2.508,0,0,1-1.368-.459.475.475,0,0,0-.234-.063.436.436,0,0,0-.441.441.417.417,0,0,0,.207.378A3.248,3.248,0,0,0,30.366.09Z" transform="translate(72.023 717.213)"/><path class="k" d="M5.256-13.158v.558c-2.214.108-3.78,1.476-3.78,3.33,0,1.89,1.17,2.88,3.834,3.51v4.518A5.8,5.8,0,0,1,2.124-2.718a.668.668,0,0,0-.414-.144.661.661,0,0,0-.666.648.671.671,0,0,0,.306.576,7.158,7.158,0,0,0,3.906,1.6V1.278a.576.576,0,1,0,1.152,0V0c2.25-.144,3.834-1.476,3.834-3.4,0-1.818-1.152-2.88-3.888-3.492V-11.34A5.422,5.422,0,0,1,8.73-10.3a.6.6,0,0,0,.4.126.654.654,0,0,0,.684-.648.729.729,0,0,0-.36-.594,6.325,6.325,0,0,0-3.042-1.152v-.594a.592.592,0,0,0-.576-.576A.592.592,0,0,0,5.256-13.158Zm3.6,9.846c0,1.188-.954,2.034-2.5,2.124V-5.526C8.316-5.022,8.856-4.374,8.856-3.312ZM2.862-9.36c0-1.1.918-1.962,2.448-2.034v4.248C3.348-7.668,2.862-8.316,2.862-9.36ZM20.924-1.219A1.326,1.326,0,0,0,22.281.115a1.326,1.326,0,0,0,1.357-1.334V-3.611H24.88a1.144,1.144,0,0,0,1.173-1.15A1.163,1.163,0,0,0,24.88-5.934H23.638v-9.039a1.365,1.365,0,0,0-1.38-1.357,2,2,0,0,0-1.725.92L12.966-6.44a2.21,2.21,0,0,0-.621,1.495,1.331,1.331,0,0,0,1.38,1.334h7.2Zm-5.29-4.715,5.29-6.371v6.371ZM30.768-1.288a1.409,1.409,0,0,0,1.4,1.4,1.394,1.394,0,0,0,1.4-1.4V-14.9a1.38,1.38,0,0,0-1.4-1.4h-.046a4.9,4.9,0,0,0-1.38.253l-2.438.782a1.232,1.232,0,0,0-.943,1.219,1.243,1.243,0,0,0,1.242,1.2,2.051,2.051,0,0,0,.506-.069l1.656-.506ZM37.254-1.7v.23A1.573,1.573,0,0,0,38.887.115,1.567,1.567,0,0,0,40.5-1.472V-1.7a1.567,1.567,0,0,0-1.61-1.587A1.573,1.573,0,0,0,37.254-1.7Zm5.7.368A1.359,1.359,0,0,0,44.476,0h9.131a1.237,1.237,0,0,0,1.242-1.242,1.237,1.237,0,0,0-1.242-1.242H47.075l3.312-2.76c2.852-2.323,4.186-3.7,4.186-6.233v-.046c0-2.875-2.162-4.807-5.313-4.807a6.229,6.229,0,0,0-5.336,2.6,1.415,1.415,0,0,0-.322.874,1.286,1.286,0,0,0,1.288,1.288,1.3,1.3,0,0,0,.989-.437A3.936,3.936,0,0,1,49.053-13.8a2.414,2.414,0,0,1,2.6,2.507c0,1.449-.805,2.484-3.013,4.347L43.694-2.737A1.757,1.757,0,0,0,42.958-1.334ZM63.152.276c3.45,0,5.888-2.185,5.888-5.451v-.046c0-3.4-2.461-5.06-5.612-5.06a6.845,6.845,0,0,0-2.553.46l.253-3.772h6.049a1.257,1.257,0,0,0,1.265-1.242A1.276,1.276,0,0,0,67.177-16.1H59.886A1.3,1.3,0,0,0,58.6-14.835l-.345,5.8A1.342,1.342,0,0,0,58.8-7.8a2.212,2.212,0,0,0,1.334.552A10.961,10.961,0,0,1,62.9-7.8c1.955,0,3.335,1.012,3.335,2.668v.046A2.819,2.819,0,0,1,63.106-2.3a5.4,5.4,0,0,1-3.5-1.357,1.241,1.241,0,0,0-.828-.276,1.375,1.375,0,0,0-1.357,1.357A1.394,1.394,0,0,0,58-1.472,8.158,8.158,0,0,0,63.152.276Zm14.283,0c3.358,0,5.635-2.139,5.635-5.106v-.046c0-2.967-2.3-4.209-4.738-4.508l3.795-3.933a2.058,2.058,0,0,0,.805-1.541,1.268,1.268,0,0,0-1.4-1.242H73.295a1.237,1.237,0,0,0-1.242,1.242,1.232,1.232,0,0,0,1.242,1.219h5.842L75.365-9.614a1.607,1.607,0,0,0-.6,1.15,1.227,1.227,0,0,0,1.219,1.219h.575c2.254,0,3.7.9,3.7,2.484v.046a2.52,2.52,0,0,1-2.783,2.438,4.9,4.9,0,0,1-3.657-1.541,1.358,1.358,0,0,0-.943-.368,1.375,1.375,0,0,0-1.357,1.357,1.359,1.359,0,0,0,.46,1.012A7.545,7.545,0,0,0,77.435.276Z" transform="translate(199.03 698.045)"/><path class="k" d="M.873-.5a.548.548,0,0,0,.558.549A.545.545,0,0,0,1.98-.5V-5.8a.545.545,0,0,0-.549-.549A.548.548,0,0,0,.873-5.8ZM3.537-.5a.536.536,0,0,0,.54.54A.538.538,0,0,0,4.626-.5V-2.682A1.057,1.057,0,0,1,5.7-3.861c.648,0,1.017.423,1.017,1.161V-.5a.538.538,0,0,0,.549.54A.53.53,0,0,0,7.8-.5V-3.033A1.629,1.629,0,0,0,6.111-4.851a1.722,1.722,0,0,0-1.485.828v-.234a.545.545,0,0,0-.549-.549.538.538,0,0,0-.54.549Zm7.776.6a2.326,2.326,0,0,0,1.728-.675.424.424,0,0,0,.153-.342.472.472,0,0,0-.468-.477.473.473,0,0,0-.3.117,1.586,1.586,0,0,1-1.062.423A1.438,1.438,0,0,1,9.945-2.367v-.018A1.433,1.433,0,0,1,11.322-3.9a1.507,1.507,0,0,1,1.017.405.555.555,0,0,0,.324.108.5.5,0,0,0,.5-.5A.516.516,0,0,0,13-4.257a2.4,2.4,0,0,0-1.665-.594A2.453,2.453,0,0,0,8.856-2.367v.018A2.426,2.426,0,0,0,11.313.108Zm5.067,0a2.485,2.485,0,0,0,2.547-2.475v-.018A2.462,2.462,0,0,0,16.4-4.851,2.484,2.484,0,0,0,13.86-2.367v.018A2.458,2.458,0,0,0,16.38.108ZM16.4-.846a1.465,1.465,0,0,1-1.449-1.521v-.018A1.426,1.426,0,0,1,16.38-3.9a1.469,1.469,0,0,1,1.458,1.53v.018A1.426,1.426,0,0,1,16.4-.846ZM20.034-.5a.536.536,0,0,0,.54.54.538.538,0,0,0,.549-.54V-2.682A1.038,1.038,0,0,1,22.14-3.861c.6,0,.963.414.963,1.152V-.5a.538.538,0,0,0,.549.54.536.536,0,0,0,.54-.54V-2.682c0-.765.423-1.179,1.017-1.179.612,0,.963.4.963,1.161V-.5a.538.538,0,0,0,.549.54.53.53,0,0,0,.54-.54V-3.033A1.6,1.6,0,0,0,25.6-4.851a1.912,1.912,0,0,0-1.6.837,1.508,1.508,0,0,0-1.422-.837,1.7,1.7,0,0,0-1.449.819v-.225a.545.545,0,0,0-.549-.549.538.538,0,0,0-.54.549ZM29.4-2.709A1.286,1.286,0,0,1,30.636-3.96a1.234,1.234,0,0,1,1.206,1.251ZM32.472-.522a.475.475,0,0,0,.144-.333.429.429,0,0,0-.432-.441.405.405,0,0,0-.279.1,1.708,1.708,0,0,1-1.125.414,1.327,1.327,0,0,1-1.368-1.206h2.979a.509.509,0,0,0,.513-.522,2.248,2.248,0,0,0-2.259-2.34,2.358,2.358,0,0,0-2.322,2.475v.018A2.371,2.371,0,0,0,30.762.108,2.44,2.44,0,0,0,32.472-.522ZM35.649.09c.99,0,1.764-.5,1.764-1.494v-.018c0-.855-.783-1.17-1.476-1.386-.558-.18-1.071-.324-1.071-.675V-3.5c0-.27.243-.468.666-.468a2.592,2.592,0,0,1,1.116.324.428.428,0,0,0,.216.054.438.438,0,0,0,.45-.441.462.462,0,0,0-.261-.414,3.267,3.267,0,0,0-1.494-.387,1.516,1.516,0,0,0-1.692,1.449v.018c0,.909.783,1.2,1.485,1.4.558.171,1.062.3,1.062.666v.018c0,.315-.27.513-.738.513a2.508,2.508,0,0,1-1.368-.459.475.475,0,0,0-.234-.063.436.436,0,0,0-.441.441.417.417,0,0,0,.207.378A3.248,3.248,0,0,0,35.649.09Z" transform="translate(223.433 717.213)"/><path class="w" d="M7984.156,1336s-.354,65.66,0,64.341" transform="translate(-7814.896 -669.105)"/></g></g><g transform="translate(35.155 34.636)"><path class="g" d="M533.884,1377.3H253.395c-20.309,0-36.773,19.354-36.773,43.228V2071.8c0,23.874,16.463,43.229,36.773,43.229H533.884c20.308,0,36.772-19.354,36.772-43.229V1420.523C570.656,1396.649,554.192,1377.3,533.884,1377.3Zm28.978,685.552c0,20.964-14.456,37.959-32.288,37.959H256.7c-17.833,0-32.29-16.995-32.29-37.959V1424.9c0-20.963,14.456-37.959,32.29-37.959h56.6c2.671,0,4.836,2.545,4.836,5.685v10.335c0,4.852,3.346,8.786,7.473,8.786H461.66c4.127,0,7.473-3.934,7.473-8.786v-10.335c0-3.14,2.165-5.685,4.836-5.685h56.6c17.832,0,32.288,17,32.288,37.959Z" transform="translate(-216.622 -1377.295)"/></g><rect class="x" width="83.53" height="4.577" rx="2" transform="translate(166.031 51.462)"/><rect class="x" width="4.577" height="4.577" rx="2" transform="translate(254.138 51.462)"/></g></g></svg>