
<svg xmlns="http://www.w3.org/2000/svg" xmlns:xlink="http://www.w3.org/1999/xlink" width="960" height="916" viewBox="0 0 960 916"><defs><style>.a,.ae,.af,.ag,.k,.l,.m,.n,.p{fill:#fff;}.a{stroke:#707070;}.b{fill:#6c68fd;}.ai,.c{fill:none;}.d{clip-path:url(#a);}.e{fill:#f1f1f1;}.f{clip-path:url(#b);}.g{fill:#f8f8f8;}.h{clip-path:url(#e);}.i{fill:#e8eefe;}.j,.o,.s,.u{fill:#3c40c6;}.l,.q,.r{font-size:10px;}.ag,.l,.q{font-family:GothamRounded-Book, Gotham Rounded;}.m{font-size:37px;}.m,.n,.s,.t,.w,.x{font-family:GothamRounded-Bold, Gotham Rounded;font-weight:700;}.ae,.n{font-size:22px;}.o{font-size:14px;}.ae,.af,.ah,.o,.p,.r{font-family:GothamRounded-Medium, Gotham Rounded;font-weight:500;}.p{font-size:15px;}.q{fill:#2c3e50;}.r{fill:#5c6573;}.s,.t,.w,.x{font-size:16px;}.aa,.t,.v{fill:#ffa801;}.u{opacity:0.06;}.v,.z{opacity:0.1;}.ab,.w,.y{fill:#ef5777;}.ac,.x,.z{fill:#1dd1a1;}.y{opacity:0.07;}.ad{fill:url(#n);}.af{font-size:9px;}.ag{font-size:18px;}.ah{font-size:23px;}.ai{stroke:#fff;stroke-linecap:round;opacity:0.3;}.aj{fill:#9b9b9b;}.ak{filter:url(#o);}.al{filter:url(#l);}.am{filter:url(#j);}.an{filter:url(#h);}.ao{filter:url(#f);}.ap{filter:url(#c);}</style><clipPath id="a"><rect class="a" width="960" height="916" transform="translate(0 2670)"/></clipPath><clipPath id="b"><rect class="c" width="424.343" height="802.081"/></clipPath><filter id="c" x="296.188" y="92.226" width="424.343" height="802.081" filterUnits="userSpaceOnUse"><feOffset input="SourceAlpha"/><feGaussianBlur stdDeviation="8" result="d"/><feFlood flood-color="#004063" flood-opacity="0.149"/><feComposite operator="in" in2="d"/><feComposite in="SourceGraphic"/></filter><clipPath id="e"><rect class="b" width="338.417" height="715.651" rx="17" transform="translate(0 0)"/></clipPath><filter id="f" x="347.835" y="441.19" width="158.789" height="138.447" filterUnits="userSpaceOnUse"><feOffset input="SourceAlpha"/><feGaussianBlur stdDeviation="2" result="g"/><feFlood flood-color="#00264d" flood-opacity="0.161"/><feComposite operator="in" in2="g"/><feComposite in="SourceGraphic"/></filter><filter id="h" x="508.562" y="441.19" width="158.788" height="138.447" filterUnits="userSpaceOnUse"><feOffset input="SourceAlpha"/><feGaussianBlur stdDeviation="2" result="i"/><feFlood flood-color="#00264d" flood-opacity="0.161"/><feComposite operator="in" in2="i"/><feComposite in="SourceGraphic"/></filter><filter id="j" x="347.835" y="580.981" width="158.789" height="138.447" filterUnits="userSpaceOnUse"><feOffset input="SourceAlpha"/><feGaussianBlur stdDeviation="2" result="k"/><feFlood flood-color="#00264d" flood-opacity="0.161"/><feComposite operator="in" in2="k"/><feComposite in="SourceGraphic"/></filter><filter id="l" x="508.562" y="580.981" width="158.788" height="138.447" filterUnits="userSpaceOnUse"><feOffset input="SourceAlpha"/><feGaussianBlur stdDeviation="2" result="m"/><feFlood flood-color="#00264d" flood-opacity="0.161"/><feComposite operator="in" in2="m"/><feComposite in="SourceGraphic"/></filter><linearGradient id="n" x1="0.495" y1="0.053" x2="0.566" y2="0.899" gradientUnits="objectBoundingBox"><stop offset="0" stop-color="#00cbe4"/><stop offset="1" stop-color="#00e5a5"/></linearGradient><filter id="o" x="348.092" y="775.997" width="319.258" height="111.277" filterUnits="userSpaceOnUse"><feOffset input="SourceAlpha"/><feGaussianBlur stdDeviation="2" result="p"/><feFlood flood-opacity="0.161"/><feComposite operator="in" in2="p"/><feComposite in="SourceGraphic"/></filter></defs><g class="d" transform="translate(0 -2670)"><rect class="e" width="1432" height="532" rx="266" transform="matrix(0.899, 0.438, -0.438, 0.899, -302.93, 2517.047)"/><g class="f" transform="translate(296.188 2762.226)"><g class="ap" transform="matrix(1, 0, 0, 1, -296.19, -92.23)"><rect class="g" width="376.343" height="754.081" rx="54" transform="translate(320.19 116.23)"/></g><g class="h" transform="translate(42.963 42.308)"><g transform="translate(-0.51 -1.962)"><path class="i" d="M0,0H339.551V782.108H0Z" transform="translate(0.257)"/><rect class="c" width="338.974" height="653.938" transform="translate(0.546 51.713)"/><path class="j" d="M0,0H339.809V371.3c0,12.146-8.522,21.992-19.034,21.992H19.034C8.522,393.289,0,383.443,0,371.3Z" transform="translate(0 1.573)"/><path class="k" d="M266.171,1562.017h90.153a19.929,19.929,0,0,1,19.937,19.92h0a19.929,19.929,0,0,1-19.937,19.92H266.171a19.93,19.93,0,0,1-19.939-19.92h0A19.93,19.93,0,0,1,266.171,1562.017Z" transform="translate(-219.649 -1377.481)"/><g transform="translate(180.307 184.535)"><path class="c" d="M400.514,1562.017h90.153a19.93,19.93,0,0,1,19.938,19.92h0a19.93,19.93,0,0,1-19.938,19.92H400.514a19.929,19.929,0,0,1-19.937-19.92h0A19.929,19.929,0,0,1,400.514,1562.017Z" transform="translate(-380.577 -1562.017)"/><path class="k" d="M490.667,1601.857H400.514a19.92,19.92,0,1,1,0-39.84h90.153a19.92,19.92,0,1,1,0,39.84Zm-90.153-38.108a18.188,18.188,0,1,0,0,36.376h90.153a18.188,18.188,0,1,0,0-36.376Z" transform="translate(-380.577 -1562.017)"/></g><g transform="translate(26.584 144.771)"><text class="l" transform="translate(0 10)"><tspan x="0" y="0">Balance</tspan></text></g><g transform="translate(32.294 13.434)"><text class="l" transform="translate(0 10)"><tspan x="0" y="0">22:29</tspan></text></g><text class="m" transform="translate(26.584 130.964)"><tspan x="0" y="0">$3.500.</tspan></text><text class="n" transform="translate(180.631 129.3)"><tspan x="0" y="0">00</tspan></text><text class="o" transform="translate(58.368 206.741)"><tspan x="0" y="0">Deposit</tspan></text><text class="p" transform="translate(209.169 207.741)"><tspan x="0" y="0">Withdraw</tspan></text><text class="l" transform="translate(27.739 284.958)"><tspan x="0" y="0">My investments</tspan></text><text class="q" transform="translate(27.739 624.738)"><tspan x="0" y="0">Rewards</tspan></text><g class="ao" transform="matrix(1, 0, 0, 1, -338.64, -132.57)"><rect class="k" width="146.788" height="126.447" rx="4" transform="translate(353.84 447.19)"/></g><g class="an" transform="matrix(1, 0, 0, 1, -338.64, -132.57)"><rect class="k" width="146.788" height="126.447" rx="4" transform="translate(514.56 447.19)"/></g><text class="r" transform="translate(83.841 397.249)"><tspan x="-24.905" y="0">Ammount</tspan></text><text class="r" transform="translate(245.531 397.249)"><tspan x="-27.895" y="0">Investment</tspan></text><text class="s" transform="translate(42.866 421.359)"><tspan x="0" y="0">$1.500.00</tspan></text><text class="t" transform="translate(239.65 421.359)"><tspan x="0" y="0">01</tspan></text><ellipse class="u" cx="26.352" cy="26.329" rx="26.352" ry="26.329" transform="translate(60.341 325.074)"/><ellipse class="v" cx="26.523" cy="26.499" rx="26.523" ry="26.499" transform="translate(224.53 324.733)"/><g class="am" transform="matrix(1, 0, 0, 1, -338.64, -132.57)"><rect class="k" width="146.788" height="126.447" rx="4" transform="translate(353.84 586.98)"/></g><g class="al" transform="matrix(1, 0, 0, 1, -338.64, -132.57)"><rect class="k" width="146.788" height="126.447" rx="4" transform="translate(514.56 586.98)"/></g><text class="r" transform="translate(84.693 537.04)"><tspan x="-17.83" y="0">Capital</tspan></text><text class="r" transform="translate(244.399 537.04)"><tspan x="-37.2" y="0">Withdraw date</tspan></text><text class="w" transform="translate(44.002 563.054)"><tspan x="0" y="0">$1.695.00</tspan></text><text class="x" transform="translate(210.793 563.054)"><tspan x="0" y="0">13/09/20</tspan></text><ellipse class="y" cx="26.885" cy="26.86" rx="26.885" ry="26.86" transform="translate(60.927 464.865)"/><ellipse class="z" cx="26.885" cy="26.86" rx="26.885" ry="26.86" transform="translate(221.653 464.865)"/><g transform="translate(232.002 329.461)"><path class="aa" d="M462.9,1724.109a1.905,1.905,0,0,0-.33.028,2.571,2.571,0,0,0-4.484,0,1.933,1.933,0,0,0-2.26,1.9,1.871,1.871,0,0,0,.118.643h-2.689v-3.856h3.217a.643.643,0,0,0,.644-.643v-25.708a.644.644,0,0,0-.644-.643h-19.3a.644.644,0,0,0-.643.643v30.854a.642.642,0,0,0,.643.641h25.734a1.928,1.928,0,1,0,0-3.856Zm-9.65-27h2.572v3.858h-2.572Zm0,5.143h2.572v3.856h-2.572Zm0,5.142h2.572v3.856h-2.572Zm0,5.142h2.572v3.857h-2.572Zm0,5.143h2.572v3.856h-2.572Zm-12.867,9h-2.574v-3.856h2.574Zm0-5.142h-2.574v-3.858h2.574Zm0-5.142h-2.574v-3.857h2.574Zm0-5.143h-2.574V1707.4h2.574Zm0-5.142h-2.574v-3.856h2.574Zm0-5.141h-2.574v-3.858h2.574Zm3.86,25.711h-2.573v-3.856h2.573Zm0-5.143h-2.573v-3.857h2.573Zm0-5.142h-2.573v-3.858h2.573Zm0-5.142h-2.573v-3.858h2.573Zm0-5.143h-2.573v-3.855h2.573Zm0-5.142h-2.573v-3.856h2.573Zm3.861,25.711h-2.574v-3.855H448.1Zm0-5.141h-2.574v-3.858H448.1Zm0-5.142h-2.574v-3.858H448.1Zm0-5.143h-2.574v-3.857H448.1Zm0-5.142h-2.574v-3.855H448.1Zm0-5.142h-2.574v-3.856H448.1Zm3.86,25.711h-2.573v-3.855h2.573Zm0-5.143h-2.573v-3.856h2.573Zm0-5.142h-2.573v-3.857h2.573Zm0-5.142h-2.573v-3.858h2.573Zm0-5.144h-2.573v-3.853h2.573Zm0-5.142h-2.573v-3.854h2.573Zm10.938,25.711h-5.148a.643.643,0,1,1,.349-1.181.643.643,0,0,0,.889-.192.6.6,0,0,0,.086-.2,1.282,1.282,0,0,1,2.5,0,.643.643,0,0,0,.771.482.651.651,0,0,0,.2-.086.657.657,0,0,1,.992.538.644.644,0,0,1-.643.646h0Z" transform="translate(-426.23 -1689.399)"/><path class="aa" d="M443.721,1695.977v-1.928h4.5a.644.644,0,0,0,.644-.643h0v-.643h2.572v.643a.644.644,0,0,0,.643.643h4.5v1.286H445.652a.643.643,0,1,0,0,1.285h16.083v26.663a.643.643,0,0,0,1.287,0v-27.306a.643.643,0,0,0-.644-.642h-4.5v-1.929a.644.644,0,0,0-.644-.643h-4.5v-.642a.641.641,0,0,0-.642-.643h-3.861a.643.643,0,0,0-.643.643h0v.642h-4.5a.643.643,0,0,0-.643.643v1.929h-4.5a.643.643,0,0,0-.643.642h0v32.782h-3.861v-2.635a3.221,3.221,0,0,0,2.574-3.15c0-.084-.037-8.357-3.217-8.357s-3.216,8.274-3.216,8.357a3.22,3.22,0,0,0,2.573,3.15v2.635H430.21a.643.643,0,1,0,0,1.286h7.719a.643.643,0,0,0,.644-.644h0V1696.62h4.5a.644.644,0,0,0,.644-.643Zm-12.868,27c0-3.2.861-7.071,1.931-7.071s1.93,3.865,1.93,7.071a1.93,1.93,0,0,1-3.861,0Z" transform="translate(-429.567 -1691.479)"/></g><g transform="translate(63.481 336.938)"><path class="j" d="M326.8,1699.629h-5.74a.964.964,0,0,0-.966.963h0v.834H317.4a.965.965,0,0,0-.964.965h0v.277a6.859,6.859,0,0,1-3.527-1.264,58.461,58.461,0,0,0-5.8-2.959l-.043-.018a8.224,8.224,0,0,0-6.3.1l-3.888,1.391-3.276-3.275a.965.965,0,0,0-1.364,0h0l-10.751,10.745a.957.957,0,0,0-.012,1.353l.012.012,18.372,18.356a1.045,1.045,0,0,0,1.367,0l9.814-9.808c.256.022.52.036.8.036a7.729,7.729,0,0,0,6.031-3.614H326.8a.965.965,0,0,0,.966-.965h0v-12.162a.964.964,0,0,0-.964-.964Zm-33.88-.939,2.2,2.2a4.215,4.215,0,0,1-4.4,0Zm-7.186,11.576-2.2-2.2,2.2-2.2A4.205,4.205,0,0,1,285.733,1710.267Zm14.805,14.793-2.2-2.2a4.206,4.206,0,0,1,4.4,0Zm3.592-3.588a6.14,6.14,0,0,0-7.183,0l-9.824-9.815a6.129,6.129,0,0,0,0-7.178l2.2-2.2a6.141,6.141,0,0,0,7.184,0l2.087,2.087a3.824,3.824,0,0,0-2.872,2.1,5.5,5.5,0,1,0,6.327,6.806l3.26,1.1a6.151,6.151,0,0,0,1.023,4.89Zm-5.87-9.483.025.009,1.93.655a3.572,3.572,0,1,1-4.849-4.079A4.271,4.271,0,0,0,298.26,1711.989Zm9.465,5.89a4.217,4.217,0,0,1-.616-2,7.521,7.521,0,0,0,1.7.92Zm8.71-5.508c-.916,1.5-2.691,3.032-4.6,3.032a6.984,6.984,0,0,1-1.007-.073h0a5.532,5.532,0,0,1-3.576-1.956c-.021-.029-.1-.138-.116-.157a.967.967,0,0,0-.532-.445l-7.677-2.6a2.166,2.166,0,0,1-1.576-2.554h0a1.881,1.881,0,0,1,2.311-1.293l8.65,2.739a.965.965,0,1,0,.586-1.838h0l-6.88-2.178-.059-.06h0l-3.564-3.56,3.059-1.1.032-.012.01,0,.04-.018a6.266,6.266,0,0,1,4.808-.082,55.794,55.794,0,0,1,5.606,2.861,8.689,8.689,0,0,0,4.492,1.526Zm3.657-.58h-1.726v-8.434h1.727Zm5.741,0h-3.81v-10.232h3.81Z" transform="translate(-281.198 -1696.359)"/></g><g transform="translate(69.255 471.423)"><g transform="translate(0 34.322)"><path class="ab" d="M319.718,1842.841H285.365a.746.746,0,1,0-.006,1.492h34.359a.746.746,0,1,0,.006-1.492Z" transform="translate(-284.615 -1842.841)"/></g><g transform="translate(1.496 25.368)"><path class="ab" d="M290.84,1836.864H286.36a.746.746,0,0,0-.747.746v8.954a.747.747,0,0,0,.747.746h4.481a.747.747,0,0,0,.747-.746v-8.954a.746.746,0,0,0-.747-.746Zm-.747,8.954h-2.987v-7.463h2.987Z" transform="translate(-285.613 -1836.864)"/></g><g transform="translate(10.457 17.907)"><path class="ab" d="M296.818,1831.884h-4.482a.748.748,0,0,0-.747.747v16.415a.749.749,0,0,0,.747.746h4.482a.749.749,0,0,0,.747-.746V1832.63A.748.748,0,0,0,296.818,1831.884Zm-.747,16.416h-2.987v-14.923h2.987Z" transform="translate(-291.589 -1831.884)"/></g><g transform="translate(19.42 20.891)"><path class="ab" d="M302.793,1833.876h-4.48a.746.746,0,0,0-.747.745v13.428a.747.747,0,0,0,.747.746h4.48a.747.747,0,0,0,.747-.746v-13.431A.744.744,0,0,0,302.793,1833.876Zm-.747,13.43h-2.986v-11.939h2.986Z" transform="translate(-297.566 -1833.876)"/></g><g transform="translate(28.38 11.939)"><path class="ab" d="M308.771,1827.9h-4.482a.747.747,0,0,0-.747.746v22.384a.748.748,0,0,0,.747.746h4.482a.746.746,0,0,0,.747-.746v-22.384A.747.747,0,0,0,308.771,1827.9Zm-.747,22.383h-2.987v-20.891h2.987Z" transform="translate(-303.542 -1827.9)"/></g><g transform="translate(1.496 13.431)"><path class="ab" d="M288.6,1828.9a2.984,2.984,0,1,0,2.987,2.985A2.985,2.985,0,0,0,288.6,1828.9Zm0,4.477a1.492,1.492,0,1,1,1.494-1.492,1.493,1.493,0,0,1-1.494,1.492Z" transform="translate(-285.613 -1828.896)"/></g><g transform="translate(10.457 5.969)"><path class="ab" d="M294.576,1823.915a2.984,2.984,0,1,0,2.987,2.984A2.986,2.986,0,0,0,294.576,1823.915Zm0,4.478a1.492,1.492,0,1,1,1.494-1.492A1.493,1.493,0,0,1,294.576,1828.393Z" transform="translate(-291.589 -1823.915)"/></g><g transform="translate(19.42 8.953)"><path class="ab" d="M300.553,1825.907a2.984,2.984,0,1,0,2.987,2.984A2.986,2.986,0,0,0,300.553,1825.907Zm0,4.477a1.492,1.492,0,1,1,1.493-1.492h0a1.494,1.494,0,0,1-1.493,1.492Z" transform="translate(-297.566 -1825.907)"/></g><g transform="translate(28.38)"><path class="ab" d="M306.529,1819.931a2.984,2.984,0,1,0,2.987,2.984A2.985,2.985,0,0,0,306.529,1819.931Zm0,4.476a1.492,1.492,0,1,1,1.494-1.492h0A1.493,1.493,0,0,1,306.529,1824.407Z" transform="translate(-303.542 -1819.931)"/></g><g transform="translate(23.258 3.822)"><path class="ab" d="M307.182,1822.7a.749.749,0,0,0-1.056,0l-5.794,5.791a.746.746,0,0,0,1.056,1.055l5.794-5.79A.747.747,0,0,0,307.182,1822.7Z" transform="translate(-300.126 -1822.482)"/></g><g transform="translate(14.852 8.82)"><path class="ab" d="M300.27,1827.214l-4.8-1.367a.747.747,0,1,0-.408,1.437l4.8,1.367a.747.747,0,0,0,.409-1.437Z" transform="translate(-294.52 -1825.819)"/></g><g transform="translate(5.319 9.603)"><path class="ab" d="M295.122,1826.621a.748.748,0,0,0-1.048-.118l-5.63,4.485a.746.746,0,0,0,.93,1.168l5.63-4.484a.745.745,0,0,0,.12-1.047Z" transform="translate(-288.162 -1826.341)"/></g></g><g transform="translate(233.013 475.485)"><path class="ac" d="M461.249,1825.594h-4.308v-1.985a.994.994,0,0,0-1.987,0v1.985H448.99v-1.985a.994.994,0,0,0-1.987,0v1.985h-5.965v-1.985a.995.995,0,0,0-1.988,0v1.985h-4.306a2.65,2.65,0,0,0-2.651,2.648v23.5a2.65,2.65,0,0,0,2.651,2.649h26.506a2.649,2.649,0,0,0,2.65-2.649v-23.5A2.648,2.648,0,0,0,461.249,1825.594Zm.663,26.151a.665.665,0,0,1-.663.663H434.743a.663.663,0,0,1-.663-.663v-23.5a.662.662,0,0,1,.663-.661h4.306v1.986a.995.995,0,0,0,1.988,0v-1.986H447v1.986a.994.994,0,0,0,1.987,0v-1.986h5.965v1.986a.994.994,0,0,0,1.987,0v-1.986h4.308a.663.663,0,0,1,.661.661Z" transform="translate(-432.092 -1822.642)"/><rect class="ac" width="3.976" height="2.98" transform="translate(6.958 11.89)"/><rect class="ac" width="3.976" height="2.98" transform="translate(6.958 16.855)"/><rect class="ac" width="3.976" height="2.98" transform="translate(6.958 21.82)"/><rect class="ac" width="3.976" height="2.98" transform="translate(13.916 21.82)"/><rect class="ac" width="3.976" height="2.98" transform="translate(13.916 16.855)"/><rect class="ac" width="3.976" height="2.98" transform="translate(13.916 11.89)"/><rect class="ac" width="3.976" height="2.98" transform="translate(20.874 21.82)"/><rect class="ac" width="3.976" height="2.98" transform="translate(20.874 16.855)"/><rect class="ac" width="3.976" height="2.98" transform="translate(20.874 11.89)"/></g><path class="k" d="M482.492,1429.782a1.412,1.412,0,0,0-1.413-1.411h-.707a2.827,2.827,0,0,0-2.827,2.824v2.118a2.826,2.826,0,0,0,2.827,2.824h.707a1.411,1.411,0,0,0,1.413-1.412h0Zm7.776,6.356a2.826,2.826,0,0,0,2.827-2.824h0v-2.118a2.826,2.826,0,0,0-2.827-2.824h-.707a1.413,1.413,0,0,0-1.414,1.411v4.943a1.414,1.414,0,0,0,1.414,1.412Zm-4.948-15.536a11.518,11.518,0,0,0-11.309,11.3v.707a.707.707,0,0,0,.707.706h.707a.706.706,0,0,0,.707-.706h0v-.707a9.188,9.188,0,0,1,18.376,0h0c0,.107,0,7.314,0,7.314a1.866,1.866,0,0,1-1.867,1.866h-4.495a2.119,2.119,0,0,0-2.12-2.118h-1.413a2.119,2.119,0,0,0,0,4.238h8.028a3.986,3.986,0,0,0,3.987-3.984h0V1431.9A11.517,11.517,0,0,0,485.319,1420.6Z" transform="translate(-189.475 -1374.915)"/><path class="k" d="M262.106,1434.019c-1.268,0-1.877.707-3.958.707s-2.686-.707-3.957-.707a5.935,5.935,0,0,0-5.937,5.931v1.13a2.12,2.12,0,0,0,2.12,2.118h15.55a2.119,2.119,0,0,0,2.12-2.118v-1.13A5.935,5.935,0,0,0,262.106,1434.019Zm3.817,7.061h-15.55v-1.13a3.822,3.822,0,0,1,3.817-3.812c.645,0,1.691.706,3.957.706,2.284,0,3.309-.705,3.958-.705a3.823,3.823,0,0,1,3.817,3.813Zm-7.775-7.767a6.356,6.356,0,1,0-6.36-6.357h0A6.36,6.36,0,0,0,258.147,1433.313Zm0-10.592a4.237,4.237,0,1,1-4.24,4.236A4.239,4.239,0,0,1,258.147,1422.721Z" transform="translate(-221.261 -1374.915)"/><path class="k" d="M21.533,17.755c-.947-1.017-2.718-2.548-2.718-7.562a7.739,7.739,0,0,0-6.27-7.6V1.568a1.567,1.567,0,1,0-3.135,0V2.59a7.739,7.739,0,0,0-6.27,7.6c0,5.014-1.772,6.544-2.718,7.562A1.531,1.531,0,0,0,0,18.819a1.57,1.57,0,0,0,1.573,1.568H20.382a1.569,1.569,0,0,0,1.573-1.568A1.53,1.53,0,0,0,21.533,17.755Zm-18.224.28c1.04-1.371,2.177-3.643,2.182-7.813,0-.01,0-.019,0-.028a5.489,5.489,0,1,1,10.978,0c0,.01,0,.019,0,.028.005,4.171,1.142,6.443,2.182,7.813Zm7.668,7.057a3.136,3.136,0,0,0,3.135-3.137H7.842A3.136,3.136,0,0,0,10.977,25.092Z" transform="translate(241.963 45.687)"/><path class="k" d="M14.656,97.724v1.724h.862v1.724h-.862V102.9H1.724V97.724H14.656M15.087,96H1.293A1.293,1.293,0,0,0,0,97.293v6.035a1.293,1.293,0,0,0,1.293,1.293H15.087a1.293,1.293,0,0,0,1.293-1.293V102.9H16.6a.647.647,0,0,0,.647-.647v-3.88a.647.647,0,0,0-.647-.647H16.38v-.431A1.293,1.293,0,0,0,15.087,96Zm-1.293,2.586H2.586v3.448H13.794Z" transform="translate(304.773 -78.515)"/><path class="k" d="M28.4,6.605H27.3a.367.367,0,0,0-.367.367v4.4a.367.367,0,0,0,.367.367h1.1a.367.367,0,0,0,.367-.367v-4.4A.367.367,0,0,0,28.4,6.605Zm-2.936,2.2h-1.1A.367.367,0,0,0,24,9.174v2.2a.367.367,0,0,0,.367.367h1.1a.367.367,0,0,0,.367-.367v-2.2A.367.367,0,0,0,25.468,8.807Zm5.871-4.4h-1.1a.367.367,0,0,0-.367.367v6.605a.367.367,0,0,0,.367.367h1.1a.367.367,0,0,0,.367-.367V4.77A.367.367,0,0,0,31.339,4.4Zm2.936-2.2h-1.1a.367.367,0,0,0-.367.367v8.807a.367.367,0,0,0,.367.367h1.1a.367.367,0,0,0,.367-.367V2.569A.367.367,0,0,0,34.275,2.2ZM37.211,0h-1.1a.367.367,0,0,0-.367.367V11.376a.367.367,0,0,0,.367.367h1.1a.367.367,0,0,0,.367-.367V.367A.367.367,0,0,0,37.211,0Z" transform="translate(258.313 13.826)"/><path class="k" d="M16.9,35.27a12.373,12.373,0,0,0-16.76,0,.423.423,0,0,0-.009.612l.911.9a.432.432,0,0,0,.6.01,10.21,10.21,0,0,1,13.765,0,.432.432,0,0,0,.6-.01l.911-.9a.423.423,0,0,0-.01-.612Zm-8.38,5.246a1.7,1.7,0,1,0,1.7,1.7A1.7,1.7,0,0,0,8.516,40.516Zm5.393-2.224a8.17,8.17,0,0,0-10.787,0,.421.421,0,0,0-.015.616l.916.9a.434.434,0,0,0,.587.021,5.994,5.994,0,0,1,7.81,0,.434.434,0,0,0,.587-.021l.916-.9A.421.421,0,0,0,13.91,38.291Z" transform="translate(256.655 -18.174)"/><g class="ak" transform="matrix(1, 0, 0, 1, -338.64, -132.57)"><rect class="ad" width="307.258" height="99.277" rx="4" transform="translate(354.09 782)"/></g><text class="ae" transform="translate(57.048 698.71)"><tspan x="0" y="0">3.150</tspan></text><text class="af" transform="translate(72.023 717.213)"><tspan x="0" y="0">Tinkers</tspan></text><text class="ag" transform="translate(199.03 698.045)"><tspan x="0" y="0">$</tspan><tspan class="ah" y="0">41.253</tspan></text><text class="af" transform="translate(223.433 717.213)"><tspan x="0" y="0">Incomes</tspan></text><path class="ai" d="M7984.156,1336s-.354,65.66,0,64.341" transform="translate(-7814.896 -669.105)"/></g></g><g transform="translate(35.155 34.636)"><path class="g" d="M533.884,1377.3H253.395c-20.309,0-36.773,19.354-36.773,43.228V2071.8c0,23.874,16.463,43.229,36.773,43.229H533.884c20.308,0,36.772-19.354,36.772-43.229V1420.523C570.656,1396.649,554.192,1377.3,533.884,1377.3Zm28.978,685.552c0,20.964-14.456,37.959-32.288,37.959H256.7c-17.833,0-32.29-16.995-32.29-37.959V1424.9c0-20.963,14.456-37.959,32.29-37.959h56.6c2.671,0,4.836,2.545,4.836,5.685v10.335c0,4.852,3.346,8.786,7.473,8.786H461.66c4.127,0,7.473-3.934,7.473-8.786v-10.335c0-3.14,2.165-5.685,4.836-5.685h56.6c17.832,0,32.288,17,32.288,37.959Z" transform="translate(-216.622 -1377.295)"/></g><rect class="aj" width="83.53" height="4.577" rx="2" transform="translate(166.031 51.462)"/><rect class="aj" width="4.577" height="4.577" rx="2" transform="translate(254.138 51.462)"/></g></g></svg>