
<svg xmlns="http://www.w3.org/2000/svg" xmlns:xlink="http://www.w3.org/1999/xlink" width="960" height="916" viewBox="0 0 960 916"><defs><style>.a,.ak,.i{fill:#fff;}.a{stroke:#707070;}.b{fill:#6c68fd;}.c{fill:none;}.d{clip-path:url(#a);}.e{fill:#f1f1f1;}.f{clip-path:url(#b);}.g{fill:#f8f8f8;}.h{clip-path:url(#e);}.j{fill:#ff4a80;}.k{fill:#383838;}.l{fill:#333;}.m{fill:#efefef;}.n{fill:#f9ce8f;}.o{fill:#8e6f54;}.p{fill:#ffe94d;}.q{fill:#49658e;}.r{fill:#f4b350;}.s{fill:#474747;}.t{fill:#353535;}.u{fill:#cea165;}.v{fill:#95a5a6;}.w{fill:#2c3e50;}.x{fill:#b77544;}.y{fill:#6bb9f0;}.z{fill:#e26a6a;}.aa{fill:#eb974e;}.ab{fill:#b58054;}.ac{fill:#7a5336;}.ad{fill:#684931;}.ae{fill:#d1d1d1;}.af{fill:#b29d38;}.ag{fill:#c5eff7;}.ah{fill:#e08283;}.ai{fill:#e2ca3b;}.aj{fill:#e5e5e5;}.ak{font-size:10px;font-family:GothamRounded-Book, Gotham Rounded;}.al{fill:#9b9b9b;}.am{filter:url(#f);}.an{filter:url(#c);}</style><clipPath id="a"><rect class="a" width="960" height="916" transform="translate(0 4736)"/></clipPath><clipPath id="b"><rect class="c" width="424.344" height="813.503"/></clipPath><filter id="c" x="302.188" y="84.188" width="424.344" height="813.502" filterUnits="userSpaceOnUse"><feOffset dx="8" dy="5" input="SourceAlpha"/><feGaussianBlur stdDeviation="8" result="d"/><feFlood flood-color="#004063" flood-opacity="0.149"/><feComposite operator="in" in2="d"/><feComposite in="SourceGraphic"/></filter><clipPath id="e"><rect class="b" width="342.499" height="724.938" rx="40"/></clipPath><filter id="f" x="410.178" y="678.702" width="197.961" height="69.465" filterUnits="userSpaceOnUse"><feOffset dx="1" dy="1" input="SourceAlpha"/><feGaussianBlur stdDeviation="3" result="g"/><feFlood flood-opacity="0.22"/><feComposite operator="in" in2="g"/><feComposite in="SourceGraphic"/></filter></defs><g class="d" transform="translate(0 -4736)"><rect class="e" width="1432" height="532" rx="266" transform="matrix(0.899, 0.438, -0.438, 0.899, -374.93, 4576.047)"/><g class="f" transform="translate(302.188 4820.188)"><g class="an" transform="matrix(1, 0, 0, 1, -302.19, -84.19)"><rect class="g" width="376.344" height="765.503" rx="46" transform="translate(318.19 103.19)"/></g><g class="h" transform="translate(33.343 30.411)"><g transform="translate(0.254 -3.175)"><rect class="i" width="344.748" height="727.264" transform="translate(0 3.173)"/><rect class="j" width="344.748" height="215.58"/><g class="am" transform="matrix(1, 0, 0, 1, -335.78, -111.42)"><rect class="j" width="179.869" height="51.141" rx="25.57" transform="translate(418.18 687.03) rotate(-0.1)"/></g><g transform="translate(146.186 593.1)"><path class="i" d="M-3887.078,2283.136l.005,3.6,5.72-.01,0,1.861-5.72.011.008,4.534-2.2,0-.021-11.843,8.646-.016,0,1.845Z" transform="translate(3889.282 -2279.996)"/><path class="i" d="M-3874.54,2281.72a1.191,1.191,0,0,1-.39-.9,1.184,1.184,0,0,1,.387-.905,1.356,1.356,0,0,1,.963-.366,1.4,1.4,0,0,1,.966.345,1.12,1.12,0,0,1,.39.872,1.272,1.272,0,0,1-.378.939,1.321,1.321,0,0,1-.973.382A1.361,1.361,0,0,1-3874.54,2281.72Zm-.1,1.853,2.115,0,.016,9.036-2.115,0Z" transform="translate(3885.048 -2279.485)"/><path class="i" d="M-3859.709,2286.083a3.937,3.937,0,0,1,1.037,2.959l.01,5.178-2.115,0-.009-4.907a2.541,2.541,0,0,0-.562-1.785,2.066,2.066,0,0,0-1.591-.6,2.443,2.443,0,0,0-1.843.706,2.8,2.8,0,0,0-.673,2.022l.008,4.569-2.115,0-.017-9.036,2.014,0,0,1.167a3.3,3.3,0,0,1,1.318-.949,4.745,4.745,0,0,1,1.793-.325A3.771,3.771,0,0,1-3859.709,2286.083Z" transform="translate(3882.88 -2281.12)"/><path class="i" d="M-3842.483,2280.2l.021,12.556-2.029,0,0-1.168a3.252,3.252,0,0,1-1.292.966,4.372,4.372,0,0,1-1.7.326,4.761,4.761,0,0,1-2.346-.572,4.125,4.125,0,0,1-1.636-1.629,4.892,4.892,0,0,1-.6-2.427,4.841,4.841,0,0,1,.589-2.421,4.132,4.132,0,0,1,1.629-1.626,4.757,4.757,0,0,1,2.343-.581,4.309,4.309,0,0,1,1.642.3,3.311,3.311,0,0,1,1.271.911l-.008-4.635Zm-3.382,10.522a2.507,2.507,0,0,0,.962-.992,3.017,3.017,0,0,0,.353-1.49,3.016,3.016,0,0,0-.358-1.488,2.514,2.514,0,0,0-.965-.988,2.733,2.733,0,0,0-1.372-.346,2.728,2.728,0,0,0-1.37.35,2.507,2.507,0,0,0-.963.992,3.032,3.032,0,0,0-.353,1.49,3.04,3.04,0,0,0,.358,1.488,2.5,2.5,0,0,0,.967.989,2.718,2.718,0,0,0,1.371.344A2.713,2.713,0,0,0-3845.865,2290.725Z" transform="translate(3878.304 -2279.679)"/><path class="i" d="M-3827.932,2281.636a1.189,1.189,0,0,1-.39-.9,1.187,1.187,0,0,1,.387-.906,1.368,1.368,0,0,1,.965-.366,1.4,1.4,0,0,1,.964.346,1.116,1.116,0,0,1,.391.871,1.275,1.275,0,0,1-.379.94,1.322,1.322,0,0,1-.972.382A1.361,1.361,0,0,1-3827.932,2281.636Zm-.1,1.853,2.115,0,.017,9.035-2.115,0Z" transform="translate(3871.301 -2279.46)"/><path class="i" d="M-3816.028,2292.86a2.5,2.5,0,0,1-.9.459,4.086,4.086,0,0,1-1.125.154,3.194,3.194,0,0,1-2.3-.774,2.99,2.99,0,0,1-.816-2.266l-.007-4.349-1.49,0,0-1.691h1.488l0-2.066,2.115,0,0,2.065,2.42,0,0,1.691-2.419,0,.007,4.3a1.433,1.433,0,0,0,.323,1.006,1.209,1.209,0,0,0,.931.346,1.868,1.868,0,0,0,1.185-.375Z" transform="translate(3869.636 -2280.305)"/></g><g transform="translate(129.399 653.867)"><path class="j" d="M-3902.565,2366.814l.021,11.845-1.811,0-6.546-8.008.015,8.021-2.183,0-.022-11.845,1.812,0,6.545,8.007-.014-8.02Z" transform="translate(3913.091 -2365.993)"/><path class="j" d="M-3892.632,2379.3a4.3,4.3,0,0,1-1.72-1.646,4.653,4.653,0,0,1-.623-2.394,4.613,4.613,0,0,1,.613-2.388,4.356,4.356,0,0,1,1.715-1.644,5.142,5.142,0,0,1,2.469-.6,5.162,5.162,0,0,1,2.489.588,4.337,4.337,0,0,1,1.72,1.637,4.6,4.6,0,0,1,.621,2.385,4.669,4.669,0,0,1-.612,2.4,4.323,4.323,0,0,1-1.714,1.653,5.163,5.163,0,0,1-2.487.6A5.112,5.112,0,0,1-3892.632,2379.3Zm4.4-2a2.808,2.808,0,0,0,.759-2.049,2.8,2.8,0,0,0-.766-2.045,2.587,2.587,0,0,0-1.93-.776,2.559,2.559,0,0,0-1.92.783,2.816,2.816,0,0,0-.749,2.048,2.818,2.818,0,0,0,.756,2.046,2.555,2.555,0,0,0,1.922.775A2.583,2.583,0,0,0-3888.237,2377.3Z" transform="translate(3907.747 -2367.12)"/><path class="j" d="M-3866.883,2378.448a2.5,2.5,0,0,1-.9.458,4.115,4.115,0,0,1-1.125.155,3.193,3.193,0,0,1-2.3-.774,2.994,2.994,0,0,1-.816-2.266l-.008-4.349-1.489,0,0-1.693,1.488,0,0-2.063,2.115,0,0,2.065,2.42,0,0,1.691-2.42,0,.008,4.3a1.426,1.426,0,0,0,.323,1.006,1.2,1.2,0,0,0,.932.346,1.853,1.853,0,0,0,1.184-.375Z" transform="translate(3901.422 -2366.316)"/><path class="j" d="M-3853.784,2370.141a3.936,3.936,0,0,1,1.038,2.958l.009,5.178-2.116,0-.009-4.907a2.54,2.54,0,0,0-.562-1.785,2.064,2.064,0,0,0-1.591-.6,2.434,2.434,0,0,0-1.843.706,2.8,2.8,0,0,0-.674,2.022l.009,4.57-2.115,0-.023-12.555,2.116,0,.008,4.569a3.429,3.429,0,0,1,1.293-.857,4.756,4.756,0,0,1,1.717-.3A3.776,3.776,0,0,1-3853.784,2370.141Z" transform="translate(3897.921 -2365.674)"/><path class="j" d="M-3838.968,2371.5a3.7,3.7,0,0,1,1.063,2.883l.01,5.3-2,0v-1.1a2.456,2.456,0,0,1-1.106.906,4.314,4.314,0,0,1-1.734.317,4.26,4.26,0,0,1-1.777-.343,2.75,2.75,0,0,1-1.179-.962,2.458,2.458,0,0,1-.416-1.4,2.4,2.4,0,0,1,.9-1.957,4.5,4.5,0,0,1,2.85-.741l2.335,0v-.134a1.852,1.852,0,0,0-.569-1.455,2.456,2.456,0,0,0-1.685-.5,4.847,4.847,0,0,0-1.5.24,3.69,3.69,0,0,0-1.241.661l-.833-1.538a5.125,5.125,0,0,1,1.707-.831,7.557,7.557,0,0,1,2.114-.292A4.406,4.406,0,0,1-3838.968,2371.5Zm-1.917,6.4a1.975,1.975,0,0,0,.87-1.042l0-1.048-2.183,0q-1.827.005-1.825,1.206a1.08,1.08,0,0,0,.458.913,2.1,2.1,0,0,0,1.271.337A2.724,2.724,0,0,0-3840.885,2377.9Z" transform="translate(3893.333 -2367.094)"/><path class="j" d="M-3822.774,2371.512a3.939,3.939,0,0,1,1.037,2.96l.01,5.178-2.116,0-.008-4.908a2.542,2.542,0,0,0-.562-1.783,2.069,2.069,0,0,0-1.593-.6,2.438,2.438,0,0,0-1.842.705,2.8,2.8,0,0,0-.674,2.023l.008,4.569-2.115,0-.017-9.036,2.014,0,0,1.167a3.3,3.3,0,0,1,1.317-.951,4.771,4.771,0,0,1,1.794-.324A3.774,3.774,0,0,1-3822.774,2371.512Z" transform="translate(3888.773 -2367.085)"/><path class="j" d="M-3810.509,2374.327l-1.57,1.491,0,2.385-2.115,0-.022-12.556,2.115,0,.014,7.581,4.375-4.068,2.538,0-3.766,3.8,4.138,5.238-2.572,0Z" transform="translate(3883.926 -2365.649)"/><path class="j" d="M-3799.115,2379.44a5.393,5.393,0,0,1-1.676-.726l.81-1.607a5.185,5.185,0,0,0,1.465.647,6.036,6.036,0,0,0,1.685.242q1.893,0,1.893-1a.666.666,0,0,0-.484-.659,8.32,8.32,0,0,0-1.548-.353,12.292,12.292,0,0,1-1.82-.386,2.777,2.777,0,0,1-1.22-.768,2.155,2.155,0,0,1-.519-1.53,2.407,2.407,0,0,1,1.071-2.058,4.885,4.885,0,0,1,2.9-.774,8.376,8.376,0,0,1,1.862.206,5.258,5.258,0,0,1,1.524.565l-.809,1.609a5.008,5.008,0,0,0-2.591-.673,2.868,2.868,0,0,0-1.412.283.831.831,0,0,0-.481.737.734.734,0,0,0,.518.718,8.2,8.2,0,0,0,1.6.4,12.362,12.362,0,0,1,1.777.386,2.779,2.779,0,0,1,1.194.742,2.076,2.076,0,0,1,.5,1.489,2.354,2.354,0,0,1-1.1,2.032,5.179,5.179,0,0,1-2.994.767A8.074,8.074,0,0,1-3799.115,2379.44Z" transform="translate(3879.967 -2367.071)"/></g><g transform="translate(43.93 344.338)"><path class="k" d="M-4012.847,1920.3l-7.946,15.309v7.622h-5.579v-7.622l-7.945-15.309h6.356l4.411,9.341,4.411-9.341Z" transform="translate(4034.317 -1917.125)"/><path class="k" d="M-3987.941,1927.955a8.2,8.2,0,0,1,3.339,3.227,9.69,9.69,0,0,1,1.217,4.929,9.686,9.686,0,0,1-1.217,4.929,8.2,8.2,0,0,1-3.339,3.228,10.183,10.183,0,0,1-4.815,1.118,10.275,10.275,0,0,1-4.833-1.118,8.175,8.175,0,0,1-3.357-3.228,9.686,9.686,0,0,1-1.216-4.929,9.689,9.689,0,0,1,1.216-4.929,8.172,8.172,0,0,1,3.357-3.227,10.27,10.27,0,0,1,4.833-1.119A10.177,10.177,0,0,1-3987.941,1927.955Zm-7.493,4.832a4.665,4.665,0,0,0-1.086,3.324,4.6,4.6,0,0,0,1.086,3.308,3.559,3.559,0,0,0,2.677,1.135,3.508,3.508,0,0,0,2.659-1.135,4.648,4.648,0,0,0,1.069-3.308,4.709,4.709,0,0,0-1.069-3.324,3.488,3.488,0,0,0-2.659-1.151A3.539,3.539,0,0,0-3995.434,1932.787Z" transform="translate(4024.833 -1919.052)"/><path class="k" d="M-3953.544,1927.158v18.1h-5.578v-3.276a6.021,6.021,0,0,1-2.319,2.531,6.74,6.74,0,0,1-3.584.94,6.264,6.264,0,0,1-4.946-2.076,8.321,8.321,0,0,1-1.833-5.708v-10.508h5.514v9.826a4.035,4.035,0,0,0,.957,2.871,3.359,3.359,0,0,0,2.577,1.021,3.416,3.416,0,0,0,2.661-1.07,4.38,4.38,0,0,0,.973-3.048v-9.6Z" transform="translate(4015.878 -1919.147)"/><path class="k" d="M-3921.229,1927.776a5.66,5.66,0,0,1,2.206,2.562v-3.275h5.513v18.1h-5.513v-3.276a5.653,5.653,0,0,1-2.206,2.563,6.542,6.542,0,0,1-3.567.94,7.332,7.332,0,0,1-4.005-1.118,7.648,7.648,0,0,1-2.789-3.228,11.179,11.179,0,0,1-1.021-4.929,11.159,11.159,0,0,1,1.021-4.946,7.664,7.664,0,0,1,2.789-3.211,7.328,7.328,0,0,1,4.005-1.119A6.551,6.551,0,0,1-3921.229,1927.776Zm-4.653,5.092a4.575,4.575,0,0,0-1.087,3.243,4.574,4.574,0,0,0,1.087,3.243,3.735,3.735,0,0,0,2.87,1.167,3.753,3.753,0,0,0,2.871-1.2,4.52,4.52,0,0,0,1.119-3.211,4.508,4.508,0,0,0-1.119-3.227,3.777,3.777,0,0,0-2.871-1.184A3.735,3.735,0,0,0-3925.882,1932.868Z" transform="translate(4004.317 -1919.052)"/><path class="k" d="M-3891.869,1927.855a6.827,6.827,0,0,1,3.551-.973v5.936h-1.589a5.481,5.481,0,0,0-3.421.94,3.775,3.775,0,0,0-1.216,3.178v8.238h-5.546v-18.1h5.546v3.406A7.862,7.862,0,0,1-3891.869,1927.855Z" transform="translate(3994.725 -1919.066)"/><path class="k" d="M-3863.448,1937.117H-3876a4.186,4.186,0,0,0,1.038,2.935,3.341,3.341,0,0,0,2.4.891,3.282,3.282,0,0,0,2.042-.615,2.882,2.882,0,0,0,1.071-1.589h5.871a7.684,7.684,0,0,1-1.557,3.421,8.28,8.28,0,0,1-3.05,2.367,9.632,9.632,0,0,1-4.118.86,9.732,9.732,0,0,1-4.72-1.118,7.993,7.993,0,0,1-3.226-3.228,10.01,10.01,0,0,1-1.168-4.929,10.1,10.1,0,0,1,1.152-4.946,7.879,7.879,0,0,1,3.226-3.211,9.82,9.82,0,0,1,4.736-1.119,9.821,9.821,0,0,1,4.734,1.1,7.783,7.783,0,0,1,3.162,3.1,9.22,9.22,0,0,1,1.12,4.589A7.664,7.664,0,0,1-3863.448,1937.117Zm-6.406-5.011a3.52,3.52,0,0,0-2.448-.892,3.63,3.63,0,0,0-2.53.908,3.8,3.8,0,0,0-1.135,2.659h7.071A3.339,3.339,0,0,0-3869.854,1932.106Z" transform="translate(3989.217 -1919.052)"/><path class="k" d="M-3836.862,1918.786v24h-5.545v-24Z" transform="translate(3977.711 -1916.678)"/><path class="k" d="M-3816.228,1927.955a8.2,8.2,0,0,1,3.34,3.227,9.689,9.689,0,0,1,1.216,4.929,9.686,9.686,0,0,1-1.216,4.929,8.2,8.2,0,0,1-3.34,3.228,10.183,10.183,0,0,1-4.816,1.118,10.277,10.277,0,0,1-4.832-1.118,8.179,8.179,0,0,1-3.357-3.228,9.69,9.69,0,0,1-1.216-4.929,9.694,9.694,0,0,1,1.216-4.929,8.177,8.177,0,0,1,3.357-3.227,10.271,10.271,0,0,1,4.832-1.119A10.177,10.177,0,0,1-3816.228,1927.955Zm-7.492,4.832a4.665,4.665,0,0,0-1.086,3.324,4.6,4.6,0,0,0,1.086,3.308,3.555,3.555,0,0,0,2.675,1.135,3.506,3.506,0,0,0,2.66-1.135,4.648,4.648,0,0,0,1.07-3.308,4.71,4.71,0,0,0-1.07-3.324,3.487,3.487,0,0,0-2.66-1.151A3.535,3.535,0,0,0-3823.719,1932.787Z" transform="translate(3974.184 -1919.052)"/><path class="k" d="M-3786.833,1927.955a8.2,8.2,0,0,1,3.34,3.227,9.694,9.694,0,0,1,1.216,4.929,9.69,9.69,0,0,1-1.216,4.929,8.205,8.205,0,0,1-3.34,3.228,10.186,10.186,0,0,1-4.817,1.118,10.277,10.277,0,0,1-4.832-1.118,8.176,8.176,0,0,1-3.357-3.228,9.69,9.69,0,0,1-1.216-4.929,9.694,9.694,0,0,1,1.216-4.929,8.174,8.174,0,0,1,3.357-3.227,10.271,10.271,0,0,1,4.832-1.119A10.18,10.18,0,0,1-3786.833,1927.955Zm-7.493,4.832a4.663,4.663,0,0,0-1.086,3.324,4.6,4.6,0,0,0,1.086,3.308,3.558,3.558,0,0,0,2.676,1.135,3.5,3.5,0,0,0,2.659-1.135,4.646,4.646,0,0,0,1.07-3.308,4.707,4.707,0,0,0-1.07-3.324,3.483,3.483,0,0,0-2.659-1.151A3.538,3.538,0,0,0-3794.325,1932.787Z" transform="translate(3965.514 -1919.052)"/><path class="k" d="M-3759.366,1942.786l-5.416-7.687v7.687h-5.545v-24h5.545v13.168l5.416-7.265h6.52l-7.3,9.048,7.46,9.049Z" transform="translate(3956.45 -1916.678)"/><path class="k" d="M-3742.279,1916.623a3.422,3.422,0,0,1,2.4-.827,3.425,3.425,0,0,1,2.4.827,2.707,2.707,0,0,1,.909,2.092,2.672,2.672,0,0,1-.909,2.059,3.426,3.426,0,0,1-2.4.827,3.423,3.423,0,0,1-2.4-.827,2.671,2.671,0,0,1-.909-2.059A2.705,2.705,0,0,1-3742.279,1916.623Zm5.156,7.183v18.1h-5.545v-18.1Z" transform="translate(3948.446 -1915.796)"/><path class="k" d="M-3712.732,1928.958a8.33,8.33,0,0,1,1.833,5.708v10.508h-5.546v-9.859a3.993,3.993,0,0,0-.957-2.838,3.322,3.322,0,0,0-2.546-1.022,3.465,3.465,0,0,0-2.675,1.07,4.329,4.329,0,0,0-.99,3.049v9.6h-5.545v-18.1h5.545v3.308a5.98,5.98,0,0,1,2.319-2.562,6.8,6.8,0,0,1,3.617-.941A6.265,6.265,0,0,1-3712.732,1928.958Z" transform="translate(3944.307 -1919.066)"/><path class="k" d="M-3688.013,1927.776a5.662,5.662,0,0,1,2.206,2.562v-3.275h5.514v18a10.388,10.388,0,0,1-.974,4.557,7.46,7.46,0,0,1-2.983,3.227,9.6,9.6,0,0,1-4.995,1.2,10.268,10.268,0,0,1-6.535-1.929,7.852,7.852,0,0,1-2.936-5.238h5.481a2.748,2.748,0,0,0,1.183,1.719,4.288,4.288,0,0,0,2.417.616,3.893,3.893,0,0,0,2.774-.989,4.167,4.167,0,0,0,1.053-3.162v-3.179a5.655,5.655,0,0,1-2.206,2.563,6.548,6.548,0,0,1-3.567.94,7.329,7.329,0,0,1-4-1.118,7.649,7.649,0,0,1-2.79-3.228,11.179,11.179,0,0,1-1.021-4.929,11.159,11.159,0,0,1,1.021-4.946,7.665,7.665,0,0,1,2.79-3.211,7.325,7.325,0,0,1,4-1.119A6.556,6.556,0,0,1-3688.013,1927.776Zm-4.654,5.092a4.577,4.577,0,0,0-1.086,3.243,4.576,4.576,0,0,0,1.086,3.243,3.733,3.733,0,0,0,2.87,1.167,3.751,3.751,0,0,0,2.871-1.2,4.52,4.52,0,0,0,1.119-3.211,4.508,4.508,0,0,0-1.119-3.227,3.775,3.775,0,0,0-2.871-1.184A3.733,3.733,0,0,0-3692.667,1932.868Z" transform="translate(3935.529 -1919.052)"/><path class="k" d="M-3989.44,1981.667a2.808,2.808,0,0,0-1.978.584,2.685,2.685,0,0,0-.682,1.881h3.275v4.67h-3.275v13.427h-5.545V1988.8h-2.174v-4.67h2.174v-.195a6.77,6.77,0,0,1,1.962-5.2,8.036,8.036,0,0,1,5.691-1.833q.78,0,1.167.032v4.767Z" transform="translate(4024.141 -1933.819)"/><path class="k" d="M-3967.887,1987.954a8.215,8.215,0,0,1,3.341,3.228,9.7,9.7,0,0,1,1.215,4.929,9.7,9.7,0,0,1-1.215,4.929,8.213,8.213,0,0,1-3.341,3.227,10.178,10.178,0,0,1-4.816,1.119,10.27,10.27,0,0,1-4.832-1.119,8.171,8.171,0,0,1-3.357-3.227,9.7,9.7,0,0,1-1.217-4.929,9.7,9.7,0,0,1,1.217-4.929,8.173,8.173,0,0,1,3.357-3.228,10.273,10.273,0,0,1,4.832-1.118A10.181,10.181,0,0,1-3967.887,1987.954Zm-7.492,4.833a4.661,4.661,0,0,0-1.087,3.324,4.6,4.6,0,0,0,1.087,3.308,3.557,3.557,0,0,0,2.676,1.135,3.506,3.506,0,0,0,2.659-1.135,4.65,4.65,0,0,0,1.069-3.308,4.712,4.712,0,0,0-1.069-3.324,3.486,3.486,0,0,0-2.659-1.151A3.537,3.537,0,0,0-3975.379,1992.787Z" transform="translate(4018.918 -1936.75)"/><path class="k" d="M-3943.159,1987.855a6.824,6.824,0,0,1,3.551-.973v5.935h-1.589a5.482,5.482,0,0,0-3.421.94,3.779,3.779,0,0,0-1.216,3.179v8.237h-5.546v-18.1h5.546v3.405A7.861,7.861,0,0,1-3943.159,1987.855Z" transform="translate(4009.854 -1936.763)"/><path class="k" d="M-3910.375,1988.555a7.475,7.475,0,0,1,2.578,4.541h-5.189a2.872,2.872,0,0,0-1.021-1.735,3.1,3.1,0,0,0-1.995-.633,2.182,2.182,0,0,0-1.427.406,1.414,1.414,0,0,0-.487,1.152,1.35,1.35,0,0,0,.892,1.265,14.191,14.191,0,0,0,2.806.843,27.968,27.968,0,0,1,3.406.99,5.624,5.624,0,0,1,2.3,1.638,4.527,4.527,0,0,1,.973,3.049,4.676,4.676,0,0,1-.843,2.756,5.563,5.563,0,0,1-2.433,1.882,9.509,9.509,0,0,1-3.762.681,9.689,9.689,0,0,1-5.871-1.621,6.847,6.847,0,0,1-2.691-4.638h5.351a2.406,2.406,0,0,0,.99,1.784,3.724,3.724,0,0,0,2.221.616,2.07,2.07,0,0,0,1.427-.438,1.475,1.475,0,0,0,.486-1.151,1.383,1.383,0,0,0-.892-1.346,16.411,16.411,0,0,0-2.9-.86,23.143,23.143,0,0,1-3.308-.908,5.453,5.453,0,0,1-2.238-1.573,4.38,4.38,0,0,1-.941-2.968,4.84,4.84,0,0,1,1.85-3.94,8.048,8.048,0,0,1,5.22-1.508A8.308,8.308,0,0,1-3910.375,1988.555Z" transform="translate(4001.524 -1936.75)"/><path class="k" d="M-3883.755,1987.954a8.211,8.211,0,0,1,3.341,3.228,9.688,9.688,0,0,1,1.216,4.929,9.688,9.688,0,0,1-1.216,4.929,8.208,8.208,0,0,1-3.341,3.227,10.173,10.173,0,0,1-4.814,1.119,10.272,10.272,0,0,1-4.833-1.119,8.176,8.176,0,0,1-3.357-3.227,9.693,9.693,0,0,1-1.216-4.929,9.693,9.693,0,0,1,1.216-4.929,8.178,8.178,0,0,1,3.357-3.228,10.275,10.275,0,0,1,4.833-1.118A10.176,10.176,0,0,1-3883.755,1987.954Zm-7.491,4.833a4.664,4.664,0,0,0-1.086,3.324,4.6,4.6,0,0,0,1.086,3.308,3.557,3.557,0,0,0,2.677,1.135,3.507,3.507,0,0,0,2.659-1.135,4.652,4.652,0,0,0,1.069-3.308,4.715,4.715,0,0,0-1.069-3.324,3.487,3.487,0,0,0-2.659-1.151A3.537,3.537,0,0,0-3891.246,1992.787Z" transform="translate(3994.102 -1936.75)"/><path class="k" d="M-3838.545,1988.941a8.09,8.09,0,0,1,1.914,5.724v10.508h-5.514v-9.859a3.692,3.692,0,0,0-.924-2.676,3.332,3.332,0,0,0-2.514-.957,3.4,3.4,0,0,0-2.61,1.021,4.037,4.037,0,0,0-.957,2.871v9.6h-5.546v-9.859a3.736,3.736,0,0,0-.908-2.676,3.278,3.278,0,0,0-2.5-.957,3.488,3.488,0,0,0-2.627,1.005,3.987,3.987,0,0,0-.973,2.887v9.6h-5.546v-18.1h5.546v3.081a5.4,5.4,0,0,1,2.189-2.4,6.639,6.639,0,0,1,3.454-.876,6.968,6.968,0,0,1,3.665.957,6.02,6.02,0,0,1,2.4,2.74,7.236,7.236,0,0,1,2.578-2.691,6.777,6.777,0,0,1,3.616-1.006A6.821,6.821,0,0,1-3838.545,1988.941Z" transform="translate(3985.038 -1936.763)"/><path class="k" d="M-3801.947,1997.117H-3814.5a4.191,4.191,0,0,0,1.039,2.935,3.341,3.341,0,0,0,2.4.891,3.284,3.284,0,0,0,2.043-.615,2.891,2.891,0,0,0,1.07-1.589h5.87a7.678,7.678,0,0,1-1.557,3.421,8.285,8.285,0,0,1-3.049,2.367,9.634,9.634,0,0,1-4.119.86,9.72,9.72,0,0,1-4.718-1.119,7.987,7.987,0,0,1-3.228-3.227,10.007,10.007,0,0,1-1.167-4.929,10.107,10.107,0,0,1,1.151-4.946,7.881,7.881,0,0,1,3.227-3.211,9.82,9.82,0,0,1,4.735-1.118,9.825,9.825,0,0,1,4.735,1.1,7.794,7.794,0,0,1,3.163,3.1,9.214,9.214,0,0,1,1.118,4.589A7.662,7.662,0,0,1-3801.947,1997.117Zm-6.4-5.011a3.524,3.524,0,0,0-2.449-.892,3.627,3.627,0,0,0-2.529.908,3.8,3.8,0,0,0-1.136,2.659h7.071A3.337,3.337,0,0,0-3808.352,1992.106Z" transform="translate(3971.076 -1936.75)"/><path class="k" d="M-3777.219,1987.954a8.209,8.209,0,0,1,3.342,3.228,9.7,9.7,0,0,1,1.216,4.929,9.7,9.7,0,0,1-1.216,4.929,8.207,8.207,0,0,1-3.342,3.227,10.174,10.174,0,0,1-4.815,1.119,10.277,10.277,0,0,1-4.833-1.119,8.179,8.179,0,0,1-3.357-3.227,9.7,9.7,0,0,1-1.216-4.929,9.7,9.7,0,0,1,1.216-4.929,8.181,8.181,0,0,1,3.357-3.228,10.279,10.279,0,0,1,4.833-1.118A10.177,10.177,0,0,1-3777.219,1987.954Zm-7.491,4.833a4.661,4.661,0,0,0-1.087,3.324,4.6,4.6,0,0,0,1.087,3.308,3.557,3.557,0,0,0,2.676,1.135,3.507,3.507,0,0,0,2.659-1.135,4.65,4.65,0,0,0,1.07-3.308,4.712,4.712,0,0,0-1.07-3.324,3.487,3.487,0,0,0-2.659-1.151A3.536,3.536,0,0,0-3784.71,1992.787Z" transform="translate(3962.678 -1936.75)"/><path class="k" d="M-3744.286,1988.958a8.332,8.332,0,0,1,1.833,5.708v10.508H-3748v-9.859a3.992,3.992,0,0,0-.957-2.838,3.326,3.326,0,0,0-2.546-1.022,3.465,3.465,0,0,0-2.675,1.07,4.33,4.33,0,0,0-.989,3.049v9.6h-5.546v-18.1h5.546v3.308a5.971,5.971,0,0,1,2.318-2.562,6.8,6.8,0,0,1,3.616-.941A6.265,6.265,0,0,1-3744.286,1988.958Z" transform="translate(3953.615 -1936.763)"/><path class="k" d="M-3712.984,1997.117h-12.551a4.189,4.189,0,0,0,1.038,2.935,3.343,3.343,0,0,0,2.4.891,3.284,3.284,0,0,0,2.043-.615,2.881,2.881,0,0,0,1.07-1.589h5.871a7.678,7.678,0,0,1-1.557,3.421,8.287,8.287,0,0,1-3.049,2.367,9.634,9.634,0,0,1-4.118.86,9.723,9.723,0,0,1-4.719-1.119,7.99,7.99,0,0,1-3.228-3.227,10.012,10.012,0,0,1-1.167-4.929,10.107,10.107,0,0,1,1.151-4.946,7.887,7.887,0,0,1,3.227-3.211,9.82,9.82,0,0,1,4.736-1.118,9.821,9.821,0,0,1,4.734,1.1,7.8,7.8,0,0,1,3.163,3.1,9.219,9.219,0,0,1,1.118,4.589A7.621,7.621,0,0,1-3712.984,1997.117Zm-6.405-5.011a3.521,3.521,0,0,0-2.448-.892,3.63,3.63,0,0,0-2.531.908,3.8,3.8,0,0,0-1.135,2.659h7.07A3.337,3.337,0,0,0-3719.389,1992.106Z" transform="translate(3944.836 -1936.75)"/></g><g transform="translate(45.21 453.256)"><path class="l" d="M-4025.019,2071.072v10.92h-.309v-10.92Z" transform="translate(4030.385 -2070.513)"/><path class="l" d="M-4015.131,2075.332a3.677,3.677,0,0,1,.946,2.761v4.885h-.294v-4.917a3.491,3.491,0,0,0-.822-2.505,2.966,2.966,0,0,0-2.249-.861,3.107,3.107,0,0,0-2.389.969,4.078,4.078,0,0,0-.9,2.862v4.451h-.311V2074.6h.311v2.358a3.07,3.07,0,0,1,1.2-1.908,3.553,3.553,0,0,1,2.086-.635A3.336,3.336,0,0,1-4015.131,2075.332Z" transform="translate(4029.153 -2071.5)"/><path class="l" d="M-4000.952,2077.076v4.917h-.31v-10.92h2.76a3.772,3.772,0,0,1,2.645.791,2.89,2.89,0,0,1,.846,2.219,2.77,2.77,0,0,1-.885,2.248,3.952,3.952,0,0,1-2.606.746Zm4.879-1.024a2.556,2.556,0,0,0,.752-1.969,2.6,2.6,0,0,0-.745-2.018,3.554,3.554,0,0,0-2.436-.682h-2.451v5.367h2.451A3.5,3.5,0,0,0-3996.073,2076.052Z" transform="translate(4023.286 -2070.513)"/><path class="l" d="M-3989.881,2070.572a.389.389,0,0,1,.287-.115.394.394,0,0,1,.287.115.417.417,0,0,1,.116.3.414.414,0,0,1-.116.3.391.391,0,0,1-.287.116.386.386,0,0,1-.287-.116.408.408,0,0,1-.117-.3A.412.412,0,0,1-3989.881,2070.572Zm.442,2.862v8.376h-.311v-8.376Z" transform="translate(4019.965 -2070.332)"/><path class="l" d="M-3979.262,2075.045a3.583,3.583,0,0,1,1.443,1.49,4.838,4.838,0,0,1,.512,2.287,4.839,4.839,0,0,1-.512,2.288,3.577,3.577,0,0,1-1.443,1.489,4.274,4.274,0,0,1-2.124.52,3.865,3.865,0,0,1-2.443-.776,3.73,3.73,0,0,1-1.342-2.031v6.638h-.294v-12.316h.294v2.7a3.735,3.735,0,0,1,1.342-2.032,3.865,3.865,0,0,1,2.443-.776A4.289,4.289,0,0,1-3979.262,2075.045Zm-4.07.264a3.541,3.541,0,0,0-1.35,1.412,4.36,4.36,0,0,0-.489,2.1,4.359,4.359,0,0,0,.489,2.1,3.527,3.527,0,0,0,1.35,1.412,3.773,3.773,0,0,0,1.946.5,3.959,3.959,0,0,0,1.993-.48,3.271,3.271,0,0,0,1.311-1.388,4.65,4.65,0,0,0,.465-2.149,4.649,4.649,0,0,0-.465-2.148,3.273,3.273,0,0,0-1.311-1.388,3.968,3.968,0,0,0-1.993-.479A3.779,3.779,0,0,0-3983.333,2075.309Z" transform="translate(4018.627 -2071.532)"/><path class="l" d="M-3970.393,2070.28v11.478h-.311V2070.28Z" transform="translate(4014.273 -2070.28)"/><path class="l" d="M-3965.753,2071.11a2.3,2.3,0,0,0-.526,1.684v.588h2.4v.326h-2.4v8.05h-.311v-8.05h-1.365v-.326h1.365v-.588a2.575,2.575,0,0,1,.621-1.893,2.9,2.9,0,0,1,2.093-.621v.31A2.661,2.661,0,0,0-3965.753,2071.11Z" transform="translate(4013.462 -2070.28)"/><path class="l" d="M-3960.617,2074.68l3.382,7.927,3.117-7.927h.342l-4.778,12.316h-.388l1.536-3.923-3.552-8.393Z" transform="translate(4011.398 -2071.578)"/><path class="l" d="M-3931.678,2074.68l-2.637,8.376h-.233l-3.056-7.8-3.041,7.8h-.232l-2.637-8.376h.34l2.437,7.74,3.009-7.74h.264l3.009,7.74,2.436-7.74Z" transform="translate(4006.253 -2071.578)"/><path class="l" d="M-3918.562,2082.126a2.917,2.917,0,0,0,1.165-1.955h.31a3.341,3.341,0,0,1-1.233,2.133,4.048,4.048,0,0,1-2.613.815,4.186,4.186,0,0,1-2.079-.513,3.576,3.576,0,0,1-1.434-1.488,4.818,4.818,0,0,1-.52-2.3,4.813,4.813,0,0,1,.52-2.3,3.58,3.58,0,0,1,1.434-1.489,4.181,4.181,0,0,1,2.079-.512,4.007,4.007,0,0,1,2.092.519,3.468,3.468,0,0,1,1.312,1.343,3.613,3.613,0,0,1,.442,1.738,5.2,5.2,0,0,1-.062.836h-7.508a4.233,4.233,0,0,0,.536,2.157,3.331,3.331,0,0,0,1.356,1.3,3.987,3.987,0,0,0,1.831.426A3.869,3.869,0,0,0-3918.562,2082.126Zm-4.2-6.894a3.323,3.323,0,0,0-1.356,1.295,4.234,4.234,0,0,0-.536,2.156h7.291a3.857,3.857,0,0,0-.411-2.156,3.118,3.118,0,0,0-1.334-1.295,3.98,3.98,0,0,0-1.822-.426A3.972,3.972,0,0,0-3922.765,2075.232Z" transform="translate(4000.782 -2071.532)"/><path class="l" d="M-3898.2,2074.111a3.678,3.678,0,0,1,.946,2.762v4.884h-.294v-4.916a3.494,3.494,0,0,0-.822-2.506,2.967,2.967,0,0,0-2.249-.86,3.108,3.108,0,0,0-2.39.969,4.074,4.074,0,0,0-.9,2.862v4.451h-.31V2070.28h.31v5.46a3.065,3.065,0,0,1,1.2-1.908,3.551,3.551,0,0,1,2.086-.636A3.336,3.336,0,0,1-3898.2,2074.111Z" transform="translate(3994.664 -2070.28)"/><path class="l" d="M-3884.741,2075.3a3.737,3.737,0,0,1,1.342,2.032v-2.7h.294v8.376h-.294v-2.7a3.732,3.732,0,0,1-1.342,2.031,3.867,3.867,0,0,1-2.443.776,4.279,4.279,0,0,1-2.125-.52,3.577,3.577,0,0,1-1.442-1.489,4.839,4.839,0,0,1-.512-2.288,4.838,4.838,0,0,1,.512-2.287,3.584,3.584,0,0,1,1.442-1.49,4.294,4.294,0,0,1,2.125-.519A3.866,3.866,0,0,1-3884.741,2075.3Zm-4.436-.016a3.283,3.283,0,0,0-1.311,1.388,4.649,4.649,0,0,0-.466,2.148,4.65,4.65,0,0,0,.466,2.149,3.28,3.28,0,0,0,1.311,1.388,3.957,3.957,0,0,0,1.993.48,3.769,3.769,0,0,0,1.946-.5,3.537,3.537,0,0,0,1.35-1.412,4.359,4.359,0,0,0,.489-2.1,4.36,4.36,0,0,0-.489-2.1,3.551,3.551,0,0,0-1.35-1.412,3.775,3.775,0,0,0-1.946-.5A3.967,3.967,0,0,0-3889.177,2075.285Z" transform="translate(3990.842 -2071.532)"/><path class="l" d="M-3873.69,2082.514l3.334-7.834h.341l-3.568,8.376h-.232l-3.567-8.376h.341Z" transform="translate(3986.747 -2071.578)"/><path class="l" d="M-3858.766,2082.126a2.915,2.915,0,0,0,1.164-1.955h.309a3.327,3.327,0,0,1-1.232,2.133,4.05,4.05,0,0,1-2.613.815,4.183,4.183,0,0,1-2.079-.513,3.584,3.584,0,0,1-1.435-1.488,4.83,4.83,0,0,1-.519-2.3,4.824,4.824,0,0,1,.519-2.3,3.588,3.588,0,0,1,1.435-1.489,4.178,4.178,0,0,1,2.079-.512,4.015,4.015,0,0,1,2.094.519,3.477,3.477,0,0,1,1.311,1.343,3.612,3.612,0,0,1,.441,1.738,5.148,5.148,0,0,1-.062.836h-7.507a4.232,4.232,0,0,0,.535,2.157,3.341,3.341,0,0,0,1.357,1.3,3.985,3.985,0,0,0,1.831.426A3.869,3.869,0,0,0-3858.766,2082.126Zm-4.2-6.894a3.333,3.333,0,0,0-1.357,1.295,4.234,4.234,0,0,0-.535,2.156h7.29a3.861,3.861,0,0,0-.411-2.156,3.122,3.122,0,0,0-1.334-1.295,3.985,3.985,0,0,0-1.822-.426A3.97,3.97,0,0,0-3862.97,2075.232Z" transform="translate(3983.145 -2071.532)"/><path class="l" d="M-3844.181,2074.095v5.863a3.109,3.109,0,0,0,.17,1.164,1.024,1.024,0,0,0,.543.565,2.657,2.657,0,0,0,1.04.163h.884v.31h-.915a2.079,2.079,0,0,1-1.559-.5,2.448,2.448,0,0,1-.473-1.706v-5.863h-1.365v-.311h1.365v-2.141h.31v2.141h2.637v.311Z" transform="translate(3977.448 -2070.682)"/><path class="l" d="M-3830.971,2074.111a3.68,3.68,0,0,1,.946,2.762v4.884h-.295v-4.916a3.494,3.494,0,0,0-.822-2.506,2.967,2.967,0,0,0-2.249-.86,3.106,3.106,0,0,0-2.389.969,4.07,4.07,0,0,0-.9,2.862v4.451h-.311V2070.28h.311v5.46a3.063,3.063,0,0,1,1.2-1.908,3.55,3.55,0,0,1,2.086-.636A3.338,3.338,0,0,1-3830.971,2074.111Z" transform="translate(3974.833 -2070.28)"/><path class="l" d="M-3817.626,2082.126a2.919,2.919,0,0,0,1.165-1.955h.31a3.34,3.34,0,0,1-1.233,2.133,4.049,4.049,0,0,1-2.614.815,4.18,4.18,0,0,1-2.078-.513,3.571,3.571,0,0,1-1.435-1.488,4.818,4.818,0,0,1-.52-2.3,4.813,4.813,0,0,1,.52-2.3,3.575,3.575,0,0,1,1.435-1.489,4.175,4.175,0,0,1,2.078-.512,4.017,4.017,0,0,1,2.094.519,3.477,3.477,0,0,1,1.311,1.343,3.612,3.612,0,0,1,.442,1.738,5.145,5.145,0,0,1-.062.836h-7.507a4.228,4.228,0,0,0,.536,2.157,3.328,3.328,0,0,0,1.356,1.3,3.985,3.985,0,0,0,1.831.426A3.87,3.87,0,0,0-3817.626,2082.126Zm-4.2-6.894a3.32,3.32,0,0,0-1.356,1.295,4.229,4.229,0,0,0-.536,2.156h7.29a3.861,3.861,0,0,0-.411-2.156,3.126,3.126,0,0,0-1.334-1.295,3.982,3.982,0,0,0-1.822-.426A3.97,3.97,0,0,0-3821.829,2075.232Z" transform="translate(3971.01 -2071.532)"/><path class="l" d="M-3799.672,2074.417v.34h-.141a3.386,3.386,0,0,0-2.241.768,3.044,3.044,0,0,0-.923,2.475v4.978h-.309V2074.6h.309v2.032Q-3802.48,2074.416-3799.672,2074.417Z" transform="translate(3964.891 -2071.5)"/><path class="l" d="M-3796.086,2070.572a.392.392,0,0,1,.287-.115.393.393,0,0,1,.288.115.412.412,0,0,1,.116.3.408.408,0,0,1-.116.3.39.39,0,0,1-.288.116.389.389,0,0,1-.287-.116.41.41,0,0,1-.116-.3A.413.413,0,0,1-3796.086,2070.572Zm.442,2.862v8.376h-.31v-8.376Z" transform="translate(3962.802 -2070.332)"/><path class="l" d="M-3785.7,2075.3a3.739,3.739,0,0,1,1.342,2.032v-2.7h.294v8.687a3.886,3.886,0,0,1-.511,2.023,3.449,3.449,0,0,1-1.357,1.311,3.851,3.851,0,0,1-1.838.45,4.139,4.139,0,0,1-2.521-.737,3.709,3.709,0,0,1-1.373-1.993h.311a3.407,3.407,0,0,0,1.264,1.792,3.841,3.841,0,0,0,2.319.659,3.494,3.494,0,0,0,1.737-.435,3.167,3.167,0,0,0,1.226-1.225,3.675,3.675,0,0,0,.45-1.845v-3.01a3.734,3.734,0,0,1-1.342,2.031,3.868,3.868,0,0,1-2.443.776,4.277,4.277,0,0,1-2.125-.52,3.576,3.576,0,0,1-1.442-1.489,4.834,4.834,0,0,1-.512-2.288,4.832,4.832,0,0,1,.512-2.287,3.583,3.583,0,0,1,1.442-1.49,4.292,4.292,0,0,1,2.125-.519A3.867,3.867,0,0,1-3785.7,2075.3Zm-4.436-.016a3.277,3.277,0,0,0-1.311,1.388,4.649,4.649,0,0,0-.466,2.148,4.65,4.65,0,0,0,.466,2.149,3.275,3.275,0,0,0,1.311,1.388,3.957,3.957,0,0,0,1.993.48,3.777,3.777,0,0,0,1.947-.5,3.537,3.537,0,0,0,1.35-1.412,4.365,4.365,0,0,0,.489-2.1,4.365,4.365,0,0,0-.489-2.1,3.551,3.551,0,0,0-1.35-1.412,3.784,3.784,0,0,0-1.947-.5A3.967,3.967,0,0,0-3790.134,2075.285Z" transform="translate(3961.628 -2071.532)"/><path class="l" d="M-3770.891,2074.111a3.682,3.682,0,0,1,.947,2.762v4.884h-.3v-4.916a3.493,3.493,0,0,0-.822-2.506,2.967,2.967,0,0,0-2.249-.86,3.1,3.1,0,0,0-2.388.969,4.065,4.065,0,0,0-.9,2.862v4.451h-.31V2070.28h.31v5.46a3.069,3.069,0,0,1,1.2-1.908,3.553,3.553,0,0,1,2.086-.636A3.335,3.335,0,0,1-3770.891,2074.111Z" transform="translate(3957.112 -2070.28)"/><path class="l" d="M-3763.156,2074.095v5.863a3.086,3.086,0,0,0,.171,1.164,1.021,1.021,0,0,0,.543.565,2.651,2.651,0,0,0,1.039.163h.884v.31h-.915a2.08,2.08,0,0,1-1.559-.5,2.448,2.448,0,0,1-.473-1.706v-5.863h-1.365v-.311h1.365v-2.141h.31v2.141h2.637v.311Z" transform="translate(3953.549 -2070.682)"/><path class="l" d="M-3743.38,2075.045a3.581,3.581,0,0,1,1.442,1.49,4.826,4.826,0,0,1,.513,2.287,4.828,4.828,0,0,1-.513,2.288,3.574,3.574,0,0,1-1.442,1.489,4.276,4.276,0,0,1-2.125.52,3.868,3.868,0,0,1-2.443-.776,3.731,3.731,0,0,1-1.341-2.031v6.638h-.295v-12.316h.295v2.7a3.736,3.736,0,0,1,1.341-2.032,3.868,3.868,0,0,1,2.443-.776A4.291,4.291,0,0,1-3743.38,2075.045Zm-4.071.264a3.553,3.553,0,0,0-1.349,1.412,4.365,4.365,0,0,0-.489,2.1,4.365,4.365,0,0,0,.489,2.1,3.539,3.539,0,0,0,1.349,1.412,3.773,3.773,0,0,0,1.946.5,3.962,3.962,0,0,0,1.994-.48,3.283,3.283,0,0,0,1.311-1.388,4.656,4.656,0,0,0,.465-2.149,4.655,4.655,0,0,0-.465-2.148,3.286,3.286,0,0,0-1.311-1.388,3.972,3.972,0,0,0-1.994-.479A3.779,3.779,0,0,0-3747.452,2075.309Z" transform="translate(3949.052 -2071.532)"/><path class="l" d="M-3728.968,2082.126a2.915,2.915,0,0,0,1.165-1.955h.31a3.341,3.341,0,0,1-1.233,2.133,4.048,4.048,0,0,1-2.614.815,4.183,4.183,0,0,1-2.079-.513,3.579,3.579,0,0,1-1.434-1.488,4.824,4.824,0,0,1-.52-2.3,4.818,4.818,0,0,1,.52-2.3,3.583,3.583,0,0,1,1.434-1.489,4.178,4.178,0,0,1,2.079-.512,4.013,4.013,0,0,1,2.094.519,3.472,3.472,0,0,1,1.311,1.343,3.613,3.613,0,0,1,.442,1.738,5.2,5.2,0,0,1-.062.836h-7.508a4.242,4.242,0,0,0,.535,2.157,3.339,3.339,0,0,0,1.357,1.3,3.985,3.985,0,0,0,1.831.426A3.867,3.867,0,0,0-3728.968,2082.126Zm-4.2-6.894a3.332,3.332,0,0,0-1.357,1.295,4.244,4.244,0,0,0-.535,2.156h7.291a3.865,3.865,0,0,0-.411-2.156,3.115,3.115,0,0,0-1.334-1.295,3.979,3.979,0,0,0-1.822-.426A3.97,3.97,0,0,0-3733.171,2075.232Z" transform="translate(3944.86 -2071.532)"/><path class="l" d="M-3717.394,2074.417v.34h-.14a3.389,3.389,0,0,0-2.241.768,3.046,3.046,0,0,0-.923,2.475v4.978h-.311V2074.6h.311v2.032Q-3720.2,2074.416-3717.394,2074.417Z" transform="translate(3940.623 -2071.5)"/><path class="l" d="M-3709.468,2075.208a2.834,2.834,0,0,1,.915,1.877h-.31a2.626,2.626,0,0,0-.775-1.621,2.511,2.511,0,0,0-1.846-.658,2.409,2.409,0,0,0-1.636.519,1.732,1.732,0,0,0-.6,1.373,1.424,1.424,0,0,0,.334,1,2.063,2.063,0,0,0,.814.544,12.225,12.225,0,0,0,1.319.38,11.726,11.726,0,0,1,1.458.426,2.219,2.219,0,0,1,.923.668,1.868,1.868,0,0,1,.38,1.233,2.006,2.006,0,0,1-.675,1.565,2.538,2.538,0,0,1-1.761.606,3.4,3.4,0,0,1-2.194-.691,2.7,2.7,0,0,1-1-1.868h.311a2.38,2.38,0,0,0,.845,1.627,3.031,3.031,0,0,0,2.055.652,2.168,2.168,0,0,0,1.552-.528,1.793,1.793,0,0,0,.559-1.364,1.571,1.571,0,0,0-.342-1.062,2.074,2.074,0,0,0-.854-.59,9.947,9.947,0,0,0-1.349-.38,10.451,10.451,0,0,1-1.419-.411,2.233,2.233,0,0,1-.9-.636,1.738,1.738,0,0,1-.365-1.172,1.969,1.969,0,0,1,.7-1.582,2.771,2.771,0,0,1,1.846-.589A2.943,2.943,0,0,1-3709.468,2075.208Z" transform="translate(3938.593 -2071.532)"/><path class="l" d="M-3697.307,2075.045a3.684,3.684,0,0,1,1.458,1.49,4.727,4.727,0,0,1,.527,2.287,4.729,4.729,0,0,1-.527,2.288,3.677,3.677,0,0,1-1.458,1.489,4.214,4.214,0,0,1-2.094.52,4.21,4.21,0,0,1-2.093-.52,3.733,3.733,0,0,1-1.466-1.489,4.67,4.67,0,0,1-.535-2.288,4.669,4.669,0,0,1,.535-2.287,3.74,3.74,0,0,1,1.466-1.49,4.225,4.225,0,0,1,2.093-.519A4.229,4.229,0,0,1-3697.307,2075.045Zm-3.962.2a3.376,3.376,0,0,0-1.389,1.35,4.365,4.365,0,0,0-.527,2.225,4.369,4.369,0,0,0,.527,2.226,3.375,3.375,0,0,0,1.389,1.349,4.029,4.029,0,0,0,1.868.442,3.984,3.984,0,0,0,1.861-.442,3.408,3.408,0,0,0,1.381-1.341,4.365,4.365,0,0,0,.527-2.234,4.365,4.365,0,0,0-.527-2.233,3.415,3.415,0,0,0-1.381-1.341,3.989,3.989,0,0,0-1.861-.441A4.034,4.034,0,0,0-3701.27,2075.247Z" transform="translate(3935.458 -2071.532)"/><path class="l" d="M-3682.693,2075.332a3.681,3.681,0,0,1,.946,2.761v4.885h-.295v-4.917a3.5,3.5,0,0,0-.822-2.505,2.97,2.97,0,0,0-2.25-.861,3.1,3.1,0,0,0-2.389.969,4.066,4.066,0,0,0-.9,2.862v4.451h-.31V2074.6h.31v2.358a3.065,3.065,0,0,1,1.2-1.908,3.553,3.553,0,0,1,2.086-.635A3.337,3.337,0,0,1-3682.693,2075.332Z" transform="translate(3931.097 -2071.5)"/><path class="l" d="M-4030.3,2108.111a2.285,2.285,0,0,0-.528,1.683v.588h2.4v.326h-2.4v8.05h-.309v-8.05h-1.366v-.326h1.366v-.588a2.57,2.57,0,0,1,.621-1.893,2.89,2.89,0,0,1,2.093-.621v.311A2.652,2.652,0,0,0-4030.3,2108.111Z" transform="translate(4032.501 -2081.193)"/><path class="l" d="M-4018.435,2112.045a3.692,3.692,0,0,1,1.458,1.49,4.718,4.718,0,0,1,.528,2.287,4.713,4.713,0,0,1-.528,2.288,3.677,3.677,0,0,1-1.458,1.49,4.224,4.224,0,0,1-2.095.52,4.221,4.221,0,0,1-2.094-.52,3.72,3.72,0,0,1-1.465-1.49,4.655,4.655,0,0,1-.535-2.288,4.66,4.66,0,0,1,.535-2.287,3.735,3.735,0,0,1,1.465-1.49,4.225,4.225,0,0,1,2.094-.52A4.229,4.229,0,0,1-4018.435,2112.045Zm-3.963.2a3.364,3.364,0,0,0-1.389,1.349,4.36,4.36,0,0,0-.527,2.225,4.364,4.364,0,0,0,.527,2.226,3.379,3.379,0,0,0,1.389,1.35,4.03,4.03,0,0,0,1.869.442,3.993,3.993,0,0,0,1.862-.442,3.42,3.42,0,0,0,1.38-1.342,4.358,4.358,0,0,0,.526-2.234,4.362,4.362,0,0,0-.526-2.234,3.417,3.417,0,0,0-1.38-1.34,3.984,3.984,0,0,0-1.862-.442A4.02,4.02,0,0,0-4022.4,2112.248Z" transform="translate(4030.177 -2082.446)"/><path class="l" d="M-4006.226,2111.417v.341h-.14a3.386,3.386,0,0,0-2.242.768,3.045,3.045,0,0,0-.923,2.475v4.978h-.311V2111.6h.311v2.032Q-4009.034,2111.417-4006.226,2111.417Z" transform="translate(4025.817 -2082.413)"/><path class="l" d="M-3997.114,2111.68l3.381,7.927,3.118-7.927h.341l-4.777,12.316h-.388l1.536-3.923-3.552-8.393Z" transform="translate(4022.163 -2082.491)"/><path class="l" d="M-3979.32,2112.045a3.684,3.684,0,0,1,1.458,1.49,4.723,4.723,0,0,1,.527,2.287,4.718,4.718,0,0,1-.527,2.288,3.669,3.669,0,0,1-1.458,1.49,4.22,4.22,0,0,1-2.094.52,4.221,4.221,0,0,1-2.094-.52,3.722,3.722,0,0,1-1.466-1.49,4.665,4.665,0,0,1-.534-2.288,4.67,4.67,0,0,1,.534-2.287,3.737,3.737,0,0,1,1.466-1.49,4.225,4.225,0,0,1,2.094-.52A4.225,4.225,0,0,1-3979.32,2112.045Zm-3.963.2a3.37,3.37,0,0,0-1.389,1.349,4.369,4.369,0,0,0-.528,2.225,4.374,4.374,0,0,0,.528,2.226,3.385,3.385,0,0,0,1.389,1.35,4.036,4.036,0,0,0,1.87.442,3.989,3.989,0,0,0,1.861-.442,3.408,3.408,0,0,0,1.38-1.342,4.353,4.353,0,0,0,.527-2.234,4.357,4.357,0,0,0-.527-2.234,3.4,3.4,0,0,0-1.38-1.34,3.98,3.98,0,0,0-1.861-.442A4.027,4.027,0,0,0-3983.283,2112.248Z" transform="translate(4018.64 -2082.446)"/><path class="l" d="M-3964.2,2111.68v8.376h-.311V2117.7a3.072,3.072,0,0,1-1.2,1.908,3.544,3.544,0,0,1-2.086.635,3.333,3.333,0,0,1-2.419-.915,3.676,3.676,0,0,1-.946-2.761v-4.886h.294v4.917a3.49,3.49,0,0,0,.822,2.505,2.965,2.965,0,0,0,2.249.86,3.1,3.1,0,0,0,2.388-.969,4.065,4.065,0,0,0,.9-2.862v-4.452Z" transform="translate(4014.409 -2082.491)"/><path class="l" d="M-3953.934,2111.417v.341h-.14a3.39,3.39,0,0,0-2.242.768,3.044,3.044,0,0,0-.922,2.475v4.978h-.311V2111.6h.311v2.032Q-3956.741,2111.417-3953.934,2111.417Z" transform="translate(4010.392 -2082.413)"/><path class="l" d="M-3946.152,2122.441h.559a1.384,1.384,0,0,0,.993-.3,1.457,1.457,0,0,0,.311-1.063v-10.64h.309v10.734a1.687,1.687,0,0,1-.372,1.171,1.606,1.606,0,0,1-1.241.411h-.559Zm1.729-14.264a.408.408,0,0,1-.117-.3.41.41,0,0,1,.117-.3.392.392,0,0,1,.287-.116.393.393,0,0,1,.287.116.41.41,0,0,1,.117.3.408.408,0,0,1-.117.3.387.387,0,0,1-.287.117A.387.387,0,0,1-3944.422,2108.177Z" transform="translate(4007.031 -2081.245)"/><path class="l" d="M-3933.693,2112.045a3.684,3.684,0,0,1,1.458,1.49,4.712,4.712,0,0,1,.527,2.287,4.707,4.707,0,0,1-.527,2.288,3.669,3.669,0,0,1-1.458,1.49,4.22,4.22,0,0,1-2.094.52,4.214,4.214,0,0,1-2.093-.52,3.716,3.716,0,0,1-1.466-1.49,4.655,4.655,0,0,1-.535-2.288,4.66,4.66,0,0,1,.535-2.287,3.731,3.731,0,0,1,1.466-1.49,4.219,4.219,0,0,1,2.093-.52A4.225,4.225,0,0,1-3933.693,2112.045Zm-3.962.2a3.364,3.364,0,0,0-1.389,1.349,4.35,4.35,0,0,0-.527,2.225,4.354,4.354,0,0,0,.527,2.226,3.379,3.379,0,0,0,1.389,1.35,4.032,4.032,0,0,0,1.869.442,3.993,3.993,0,0,0,1.862-.442,3.412,3.412,0,0,0,1.379-1.342,4.339,4.339,0,0,0,.527-2.234,4.342,4.342,0,0,0-.527-2.234,3.408,3.408,0,0,0-1.379-1.34,3.984,3.984,0,0,0-1.862-.442A4.023,4.023,0,0,0-3937.656,2112.248Z" transform="translate(4005.182 -2082.446)"/><path class="l" d="M-3918.894,2110.793a3.582,3.582,0,0,1,1.443,1.489,4.825,4.825,0,0,1,.512,2.287,4.827,4.827,0,0,1-.512,2.288,3.573,3.573,0,0,1-1.443,1.489,4.284,4.284,0,0,1-2.125.52,3.867,3.867,0,0,1-2.443-.776,3.727,3.727,0,0,1-1.341-2.031v2.7h-.3V2107.28h.3v5.8a3.729,3.729,0,0,1,1.341-2.032,3.867,3.867,0,0,1,2.443-.776A4.279,4.279,0,0,1-3918.894,2110.793Zm-4.071.263a3.56,3.56,0,0,0-1.35,1.412,4.366,4.366,0,0,0-.488,2.1,4.367,4.367,0,0,0,.488,2.1,3.543,3.543,0,0,0,1.35,1.411,3.773,3.773,0,0,0,1.946.5,3.955,3.955,0,0,0,1.993-.48,3.286,3.286,0,0,0,1.311-1.388,4.657,4.657,0,0,0,.464-2.149,4.649,4.649,0,0,0-.464-2.147,3.288,3.288,0,0,0-1.311-1.389,3.975,3.975,0,0,0-1.993-.48A3.787,3.787,0,0,0-3922.964,2111.057Z" transform="translate(4000.821 -2081.193)"/><path class="l" d="M-3910.748,2122.482v.76h-.775v-.76Z" transform="translate(3996.818 -2085.677)"/><path class="l" d="M-3897.779,2108.072v8.7a2.322,2.322,0,0,1-.627,1.667,2.3,2.3,0,0,1-1.746.659,2.364,2.364,0,0,1-1.869-.745,2.977,2.977,0,0,1-.659-2.047h.31a2.942,2.942,0,0,0,.527,1.8,1.961,1.961,0,0,0,1.691.714,1.89,1.89,0,0,0,1.582-.613,2.256,2.256,0,0,0,.481-1.435v-8.7Z" transform="translate(3994.209 -2081.427)"/><path class="l" d="M-3885.573,2111.68v8.376h-.311V2117.7a3.064,3.064,0,0,1-1.2,1.908,3.543,3.543,0,0,1-2.085.635,3.338,3.338,0,0,1-2.421-.915,3.683,3.683,0,0,1-.945-2.761v-4.886h.295v4.917a3.494,3.494,0,0,0,.822,2.505,2.967,2.967,0,0,0,2.25.86,3.1,3.1,0,0,0,2.387-.969,4.063,4.063,0,0,0,.9-2.862v-4.452Z" transform="translate(3991.217 -2082.491)"/><path class="l" d="M-3874.817,2112.208a2.836,2.836,0,0,1,.916,1.877h-.311a2.62,2.62,0,0,0-.775-1.621,2.511,2.511,0,0,0-1.846-.658,2.409,2.409,0,0,0-1.637.518,1.734,1.734,0,0,0-.6,1.373,1.428,1.428,0,0,0,.333,1,2.064,2.064,0,0,0,.814.544,12.393,12.393,0,0,0,1.318.38,11.7,11.7,0,0,1,1.458.426,2.227,2.227,0,0,1,.923.668,1.871,1.871,0,0,1,.38,1.233,2,2,0,0,1-.675,1.566,2.539,2.539,0,0,1-1.761.605,3.4,3.4,0,0,1-2.195-.691,2.693,2.693,0,0,1-1-1.868h.31a2.382,2.382,0,0,0,.845,1.628,3.033,3.033,0,0,0,2.055.652,2.169,2.169,0,0,0,1.551-.528,1.788,1.788,0,0,0,.558-1.364,1.567,1.567,0,0,0-.34-1.062,2.083,2.083,0,0,0-.854-.59,9.947,9.947,0,0,0-1.349-.38,10.4,10.4,0,0,1-1.42-.411,2.241,2.241,0,0,1-.9-.636,1.751,1.751,0,0,1-.364-1.172,1.968,1.968,0,0,1,.7-1.582,2.765,2.765,0,0,1,1.846-.59A2.942,2.942,0,0,1-3874.817,2112.208Z" transform="translate(3987.363 -2082.446)"/><path class="l" d="M-3868.05,2111.095v5.863a3.081,3.081,0,0,0,.171,1.164,1.025,1.025,0,0,0,.543.566,2.646,2.646,0,0,0,1.039.163h.885v.31h-.916a2.08,2.08,0,0,1-1.559-.5,2.446,2.446,0,0,1-.473-1.706v-5.863h-1.365v-.311h1.365v-2.141h.31v2.141h2.638v.311Z" transform="translate(3984.488 -2081.595)"/><path class="l" d="M-3848.507,2112.3a3.736,3.736,0,0,1,1.342,2.031v-2.7h.294v8.688a3.884,3.884,0,0,1-.511,2.023,3.452,3.452,0,0,1-1.357,1.311,3.855,3.855,0,0,1-1.839.449,4.142,4.142,0,0,1-2.521-.737,3.709,3.709,0,0,1-1.373-1.993h.31a3.416,3.416,0,0,0,1.265,1.792,3.846,3.846,0,0,0,2.318.659,3.5,3.5,0,0,0,1.738-.435,3.187,3.187,0,0,0,1.226-1.225,3.666,3.666,0,0,0,.449-1.844v-3.011a3.735,3.735,0,0,1-1.342,2.032,3.866,3.866,0,0,1-2.442.776,4.286,4.286,0,0,1-2.126-.52,3.575,3.575,0,0,1-1.442-1.49,4.828,4.828,0,0,1-.512-2.288,4.834,4.834,0,0,1,.512-2.287,3.589,3.589,0,0,1,1.442-1.49,4.291,4.291,0,0,1,2.126-.52A3.864,3.864,0,0,1-3848.507,2112.3Zm-4.437-.016a3.283,3.283,0,0,0-1.31,1.388,4.658,4.658,0,0,0-.466,2.148,4.656,4.656,0,0,0,.466,2.149,3.279,3.279,0,0,0,1.31,1.388,3.957,3.957,0,0,0,1.995.481,3.777,3.777,0,0,0,1.946-.5,3.537,3.537,0,0,0,1.349-1.411,4.356,4.356,0,0,0,.489-2.1,4.353,4.353,0,0,0-.489-2.1,3.545,3.545,0,0,0-1.349-1.412,3.778,3.778,0,0,0-1.946-.5A3.972,3.972,0,0,0-3852.944,2112.286Z" transform="translate(3980.154 -2082.446)"/><path class="l" d="M-3839.954,2107.573a.393.393,0,0,1,.287-.116.389.389,0,0,1,.287.116.408.408,0,0,1,.117.3.407.407,0,0,1-.117.3.384.384,0,0,1-.287.117.388.388,0,0,1-.287-.117.411.411,0,0,1-.116-.3A.413.413,0,0,1-3839.954,2107.573Zm.442,2.861v8.375h-.309v-8.375Z" transform="translate(3975.741 -2081.245)"/><path class="l" d="M-3833.276,2119.513l3.335-7.833h.341l-3.567,8.376h-.232l-3.568-8.376h.342Z" transform="translate(3974.826 -2082.491)"/><path class="l" d="M-3818.352,2119.126a2.913,2.913,0,0,0,1.164-1.954h.31a3.329,3.329,0,0,1-1.233,2.132,4.048,4.048,0,0,1-2.614.815,4.183,4.183,0,0,1-2.079-.513,3.58,3.58,0,0,1-1.435-1.488,4.835,4.835,0,0,1-.52-2.3,4.831,4.831,0,0,1,.52-2.3,3.58,3.58,0,0,1,1.435-1.488,4.175,4.175,0,0,1,2.079-.513,4.011,4.011,0,0,1,2.094.52,3.48,3.48,0,0,1,1.311,1.342,3.613,3.613,0,0,1,.442,1.738,5.158,5.158,0,0,1-.062.837h-7.507a4.245,4.245,0,0,0,.535,2.156,3.333,3.333,0,0,0,1.358,1.3,3.973,3.973,0,0,0,1.83.427A3.869,3.869,0,0,0-3818.352,2119.126Zm-4.2-6.895a3.331,3.331,0,0,0-1.358,1.3,4.249,4.249,0,0,0-.535,2.157h7.291a3.866,3.866,0,0,0-.412-2.157,3.129,3.129,0,0,0-1.334-1.3,3.992,3.992,0,0,0-1.822-.425A3.975,3.975,0,0,0-3822.555,2112.231Z" transform="translate(3971.225 -2082.446)"/><path class="l" d="M-3797.487,2111.68v8.376h-.311V2117.7a3.068,3.068,0,0,1-1.2,1.908,3.544,3.544,0,0,1-2.086.635,3.334,3.334,0,0,1-2.42-.915,3.676,3.676,0,0,1-.946-2.761v-4.886h.295v4.917a3.487,3.487,0,0,0,.822,2.505,2.963,2.963,0,0,0,2.249.86,3.1,3.1,0,0,0,2.389-.969,4.067,4.067,0,0,0,.9-2.862v-4.452Z" transform="translate(3965.235 -2082.491)"/><path class="l" d="M-3786.73,2112.208a2.834,2.834,0,0,1,.916,1.877h-.311a2.628,2.628,0,0,0-.775-1.621,2.51,2.51,0,0,0-1.846-.658,2.408,2.408,0,0,0-1.637.518,1.732,1.732,0,0,0-.6,1.373,1.421,1.421,0,0,0,.333,1,2.058,2.058,0,0,0,.814.544,12.373,12.373,0,0,0,1.319.38,11.8,11.8,0,0,1,1.458.426,2.235,2.235,0,0,1,.923.668,1.869,1.869,0,0,1,.38,1.233,2.007,2.007,0,0,1-.675,1.566,2.538,2.538,0,0,1-1.761.605,3.4,3.4,0,0,1-2.195-.691,2.694,2.694,0,0,1-1-1.868h.31a2.383,2.383,0,0,0,.845,1.628,3.037,3.037,0,0,0,2.055.652,2.169,2.169,0,0,0,1.552-.528,1.791,1.791,0,0,0,.559-1.364,1.568,1.568,0,0,0-.341-1.062,2.087,2.087,0,0,0-.854-.59,9.9,9.9,0,0,0-1.35-.38,10.413,10.413,0,0,1-1.418-.411,2.246,2.246,0,0,1-.9-.636,1.751,1.751,0,0,1-.364-1.172,1.965,1.965,0,0,1,.7-1.582,2.763,2.763,0,0,1,1.846-.59A2.942,2.942,0,0,1-3786.73,2112.208Z" transform="translate(3961.381 -2082.446)"/><path class="l" d="M-3767.856,2112.3a3.737,3.737,0,0,1,1.342,2.031v-2.7h.295v8.376h-.295v-2.7a3.736,3.736,0,0,1-1.342,2.032,3.866,3.866,0,0,1-2.442.776,4.284,4.284,0,0,1-2.126-.52,3.574,3.574,0,0,1-1.443-1.49,4.84,4.84,0,0,1-.512-2.288,4.845,4.845,0,0,1,.512-2.287,3.588,3.588,0,0,1,1.443-1.49,4.289,4.289,0,0,1,2.126-.52A3.864,3.864,0,0,1-3767.856,2112.3Zm-4.437-.016a3.288,3.288,0,0,0-1.311,1.388,4.664,4.664,0,0,0-.465,2.148,4.662,4.662,0,0,0,.465,2.149,3.284,3.284,0,0,0,1.311,1.388,3.959,3.959,0,0,0,1.994.481,3.776,3.776,0,0,0,1.946-.5,3.543,3.543,0,0,0,1.349-1.411,4.357,4.357,0,0,0,.49-2.1,4.353,4.353,0,0,0-.49-2.1,3.55,3.55,0,0,0-1.349-1.412,3.777,3.777,0,0,0-1.946-.5A3.974,3.974,0,0,0-3772.292,2112.286Z" transform="translate(3956.366 -2082.446)"/><path class="l" d="M-3746.59,2112.34a3.334,3.334,0,0,1,1.234,2.134h-.311a2.916,2.916,0,0,0-1.164-1.955,3.877,3.877,0,0,0-2.374-.712,3.936,3.936,0,0,0-1.853.442,3.316,3.316,0,0,0-1.357,1.34,4.462,4.462,0,0,0-.512,2.234,4.459,4.459,0,0,0,.512,2.234,3.32,3.32,0,0,0,1.357,1.342,3.945,3.945,0,0,0,1.853.442,3.872,3.872,0,0,0,2.374-.714,2.913,2.913,0,0,0,1.164-1.954h.311a3.332,3.332,0,0,1-1.234,2.132,4.049,4.049,0,0,1-2.614.815,4.181,4.181,0,0,1-2.078-.513,3.583,3.583,0,0,1-1.435-1.488,4.824,4.824,0,0,1-.52-2.3,4.82,4.82,0,0,1,.52-2.3,3.583,3.583,0,0,1,1.435-1.488,4.173,4.173,0,0,1,2.078-.513A4.054,4.054,0,0,1-3746.59,2112.34Z" transform="translate(3950.129 -2082.446)"/><path class="l" d="M-3732.852,2111.112a3.679,3.679,0,0,1,.946,2.761v4.885h-.295v-4.916a3.494,3.494,0,0,0-.822-2.506,2.967,2.967,0,0,0-2.25-.86,3.1,3.1,0,0,0-2.388.969,4.066,4.066,0,0,0-.9,2.861v4.452h-.31V2107.28h.31v5.46a3.071,3.071,0,0,1,1.2-1.908,3.553,3.553,0,0,1,2.086-.635A3.337,3.337,0,0,1-3732.852,2111.112Z" transform="translate(3945.893 -2081.193)"/><path class="l" d="M-3719.39,2112.3a3.742,3.742,0,0,1,1.342,2.031v-2.7h.294v8.376h-.294v-2.7a3.741,3.741,0,0,1-1.342,2.032,3.869,3.869,0,0,1-2.443.776,4.278,4.278,0,0,1-2.125-.52,3.561,3.561,0,0,1-1.442-1.49,4.828,4.828,0,0,1-.512-2.288,4.834,4.834,0,0,1,.512-2.287,3.575,3.575,0,0,1,1.442-1.49,4.283,4.283,0,0,1,2.125-.52A3.866,3.866,0,0,1-3719.39,2112.3Zm-4.436-.016a3.279,3.279,0,0,0-1.311,1.388,4.652,4.652,0,0,0-.466,2.148,4.65,4.65,0,0,0,.466,2.149,3.275,3.275,0,0,0,1.311,1.388,3.953,3.953,0,0,0,1.993.481,3.774,3.774,0,0,0,1.946-.5,3.54,3.54,0,0,0,1.35-1.411,4.362,4.362,0,0,0,.489-2.1,4.359,4.359,0,0,0-.489-2.1,3.547,3.547,0,0,0-1.35-1.412,3.775,3.775,0,0,0-1.946-.5A3.968,3.968,0,0,0-3723.826,2112.286Z" transform="translate(3942.07 -2082.446)"/><path class="l" d="M-3704.583,2112.332a3.675,3.675,0,0,1,.947,2.761v4.885h-.3v-4.917a3.493,3.493,0,0,0-.821-2.505,2.969,2.969,0,0,0-2.25-.861,3.105,3.105,0,0,0-2.388.969,4.067,4.067,0,0,0-.9,2.862v4.452h-.31V2111.6h.31v2.358a3.069,3.069,0,0,1,1.2-1.908,3.551,3.551,0,0,1,2.086-.635A3.336,3.336,0,0,1-3704.583,2112.332Z" transform="translate(3937.553 -2082.413)"/><path class="l" d="M-3691,2112.34a3.333,3.333,0,0,1,1.233,2.134h-.31a2.918,2.918,0,0,0-1.165-1.955,3.874,3.874,0,0,0-2.373-.712,3.93,3.93,0,0,0-1.853.442,3.318,3.318,0,0,0-1.358,1.34,4.457,4.457,0,0,0-.512,2.234,4.453,4.453,0,0,0,.512,2.234,3.322,3.322,0,0,0,1.358,1.342,3.939,3.939,0,0,0,1.853.442,3.868,3.868,0,0,0,2.373-.714,2.914,2.914,0,0,0,1.165-1.954h.31A3.331,3.331,0,0,1-3691,2119.3a4.047,4.047,0,0,1-2.614.815,4.184,4.184,0,0,1-2.079-.513,3.59,3.59,0,0,1-1.434-1.488,4.83,4.83,0,0,1-.52-2.3,4.826,4.826,0,0,1,.52-2.3,3.59,3.59,0,0,1,1.434-1.488,4.176,4.176,0,0,1,2.079-.513A4.052,4.052,0,0,1-3691,2112.34Z" transform="translate(3933.732 -2082.446)"/><path class="l" d="M-3677.422,2119.126a2.913,2.913,0,0,0,1.163-1.954h.311a3.325,3.325,0,0,1-1.233,2.132,4.046,4.046,0,0,1-2.614.815,4.183,4.183,0,0,1-2.078-.513,3.585,3.585,0,0,1-1.434-1.488,4.824,4.824,0,0,1-.52-2.3,4.82,4.82,0,0,1,.52-2.3,3.585,3.585,0,0,1,1.434-1.488,4.175,4.175,0,0,1,2.078-.513,4.011,4.011,0,0,1,2.095.52,3.481,3.481,0,0,1,1.311,1.342,3.624,3.624,0,0,1,.441,1.738,5.164,5.164,0,0,1-.061.837h-7.508a4.245,4.245,0,0,0,.536,2.156,3.331,3.331,0,0,0,1.357,1.3,3.975,3.975,0,0,0,1.83.427A3.87,3.87,0,0,0-3677.422,2119.126Zm-4.2-6.895a3.329,3.329,0,0,0-1.357,1.3,4.249,4.249,0,0,0-.536,2.157h7.291a3.862,3.862,0,0,0-.412-2.157,3.121,3.121,0,0,0-1.334-1.3,3.992,3.992,0,0,0-1.823-.425A3.977,3.977,0,0,0-3681.625,2112.231Z" transform="translate(3929.656 -2082.446)"/><path class="l" d="M-3933.961,2148.095v5.862a3.083,3.083,0,0,0,.171,1.164,1.021,1.021,0,0,0,.543.566,2.644,2.644,0,0,0,1.039.163h.885v.311h-.917a2.081,2.081,0,0,1-1.559-.5,2.45,2.45,0,0,1-.473-1.707v-5.862h-1.364v-.311h1.364v-2.141h.311v2.141h2.637v.311Z" transform="translate(4003.93 -2092.509)"/><path class="l" d="M-3921.132,2149.045a3.687,3.687,0,0,1,1.458,1.49,4.72,4.72,0,0,1,.527,2.287,4.722,4.722,0,0,1-.527,2.288,3.668,3.668,0,0,1-1.458,1.489,4.213,4.213,0,0,1-2.094.521,4.21,4.21,0,0,1-2.094-.521,3.705,3.705,0,0,1-1.465-1.489,4.659,4.659,0,0,1-.536-2.288,4.657,4.657,0,0,1,.536-2.287,3.724,3.724,0,0,1,1.465-1.49,4.219,4.219,0,0,1,2.094-.519A4.222,4.222,0,0,1-3921.132,2149.045Zm-3.963.2a3.383,3.383,0,0,0-1.389,1.35,4.36,4.36,0,0,0-.528,2.225,4.366,4.366,0,0,0,.528,2.227,3.385,3.385,0,0,0,1.389,1.349,4.035,4.035,0,0,0,1.869.442,3.993,3.993,0,0,0,1.862-.442,3.406,3.406,0,0,0,1.38-1.342,4.353,4.353,0,0,0,.527-2.234,4.356,4.356,0,0,0-.527-2.233,3.41,3.41,0,0,0-1.38-1.341,3.987,3.987,0,0,0-1.862-.442A4.029,4.029,0,0,0-3925.094,2149.248Z" transform="translate(4001.477 -2093.359)"/><path class="l" d="M-3905.383,2145.11a2.286,2.286,0,0,0-.528,1.683v.588h2.4v.326h-2.4v8.05h-.31v-8.05h-1.366v-.326h1.366v-.588a2.578,2.578,0,0,1,.62-1.893,2.9,2.9,0,0,1,2.095-.621v.31A2.656,2.656,0,0,0-3905.383,2145.11Z" transform="translate(3995.656 -2092.107)"/><path class="l" d="M-3899.4,2144.572a.393.393,0,0,1,.288-.115.393.393,0,0,1,.287.115.411.411,0,0,1,.117.3.408.408,0,0,1-.117.3.387.387,0,0,1-.287.116.387.387,0,0,1-.288-.116.407.407,0,0,1-.116-.3A.41.41,0,0,1-3899.4,2144.572Zm.443,2.862v8.376h-.311v-8.376Z" transform="translate(3993.275 -2092.159)"/><path class="l" d="M-3888.963,2149.332a3.673,3.673,0,0,1,.947,2.76v4.885h-.295v-4.916a3.5,3.5,0,0,0-.822-2.505,2.969,2.969,0,0,0-2.25-.86,3.1,3.1,0,0,0-2.388.968,4.069,4.069,0,0,0-.9,2.863v4.451h-.311V2148.6h.311v2.357a3.072,3.072,0,0,1,1.2-1.908,3.546,3.546,0,0,1,2.086-.635A3.328,3.328,0,0,1-3888.963,2149.332Z" transform="translate(3991.938 -2093.327)"/><path class="l" d="M-3875.5,2148.05a3.733,3.733,0,0,1,1.342,2.032v-5.8h.295v11.478h-.295v-2.7a3.733,3.733,0,0,1-1.342,2.032,3.868,3.868,0,0,1-2.443.776,4.283,4.283,0,0,1-2.125-.521,3.569,3.569,0,0,1-1.442-1.489,4.837,4.837,0,0,1-.512-2.288,4.834,4.834,0,0,1,.512-2.287,3.58,3.58,0,0,1,1.442-1.49,4.288,4.288,0,0,1,2.125-.52A3.865,3.865,0,0,1-3875.5,2148.05Zm-4.436-.016a3.279,3.279,0,0,0-1.311,1.388,4.661,4.661,0,0,0-.465,2.148,4.668,4.668,0,0,0,.465,2.15,3.279,3.279,0,0,0,1.311,1.387,3.953,3.953,0,0,0,1.993.48,3.776,3.776,0,0,0,1.947-.5,3.547,3.547,0,0,0,1.35-1.411,4.363,4.363,0,0,0,.489-2.1,4.357,4.357,0,0,0-.489-2.1,3.553,3.553,0,0,0-1.35-1.412,3.775,3.775,0,0,0-1.947-.5A3.968,3.968,0,0,0-3879.937,2148.034Z" transform="translate(3988.116 -2092.107)"/><path class="l" d="M-3860.567,2144.572a.388.388,0,0,1,.287-.115.392.392,0,0,1,.287.115.411.411,0,0,1,.117.3.408.408,0,0,1-.117.3.385.385,0,0,1-.287.116.381.381,0,0,1-.287-.116.406.406,0,0,1-.117-.3A.41.41,0,0,1-3860.567,2144.572Zm.441,2.862v8.376h-.311v-8.376Z" transform="translate(3981.822 -2092.159)"/><path class="l" d="M-3855.907,2148.095v5.862a3.081,3.081,0,0,0,.171,1.164,1.022,1.022,0,0,0,.543.566,2.642,2.642,0,0,0,1.039.163h.885v.311h-.916a2.08,2.08,0,0,1-1.559-.5,2.448,2.448,0,0,1-.473-1.707v-5.862h-1.365v-.311h1.365v-2.141h.31v2.141h2.638v.311Z" transform="translate(3980.907 -2092.509)"/><path class="l" d="M-3841.563,2145.11a2.286,2.286,0,0,0-.527,1.683v.588h2.4v.326h-2.4v8.05h-.31v-8.05h-1.365v-.326h1.365v-.588a2.572,2.572,0,0,1,.621-1.893,2.9,2.9,0,0,1,2.094-.621v.31A2.655,2.655,0,0,0-3841.563,2145.11Z" transform="translate(3976.832 -2092.107)"/><path class="l" d="M-3829.7,2149.045a3.693,3.693,0,0,1,1.458,1.49,4.715,4.715,0,0,1,.527,2.287,4.717,4.717,0,0,1-.527,2.288,3.674,3.674,0,0,1-1.458,1.489,4.211,4.211,0,0,1-2.094.521,4.211,4.211,0,0,1-2.094-.521,3.72,3.72,0,0,1-1.466-1.489,4.675,4.675,0,0,1-.535-2.288,4.673,4.673,0,0,1,.535-2.287,3.739,3.739,0,0,1,1.466-1.49,4.221,4.221,0,0,1,2.094-.519A4.221,4.221,0,0,1-3829.7,2149.045Zm-3.963.2a3.379,3.379,0,0,0-1.388,1.35,4.365,4.365,0,0,0-.527,2.225,4.371,4.371,0,0,0,.527,2.227,3.381,3.381,0,0,0,1.388,1.349,4.035,4.035,0,0,0,1.869.442,3.988,3.988,0,0,0,1.861-.442,3.41,3.41,0,0,0,1.38-1.342,4.348,4.348,0,0,0,.528-2.234,4.351,4.351,0,0,0-.528-2.233,3.414,3.414,0,0,0-1.38-1.341,3.982,3.982,0,0,0-1.861-.442A4.029,4.029,0,0,0-3833.665,2149.248Z" transform="translate(3974.508 -2093.359)"/><path class="l" d="M-3817.492,2148.417v.34h-.14a3.384,3.384,0,0,0-2.241.768,3.043,3.043,0,0,0-.923,2.475v4.978h-.31V2148.6h.31v2.031Q-3820.3,2148.417-3817.492,2148.417Z" transform="translate(3970.148 -2093.327)"/><path class="l" d="M-3808.38,2148.68l3.381,7.927,3.118-7.927h.341l-4.778,12.315h-.387l1.535-3.923-3.551-8.392Z" transform="translate(3966.495 -2093.404)"/><path class="l" d="M-3790.586,2149.045a3.7,3.7,0,0,1,1.459,1.49,4.726,4.726,0,0,1,.526,2.287,4.727,4.727,0,0,1-.526,2.288,3.681,3.681,0,0,1-1.459,1.489,4.213,4.213,0,0,1-2.094.521,4.214,4.214,0,0,1-2.094-.521,3.726,3.726,0,0,1-1.466-1.489,4.659,4.659,0,0,1-.534-2.288,4.657,4.657,0,0,1,.534-2.287,3.745,3.745,0,0,1,1.466-1.49,4.223,4.223,0,0,1,2.094-.519A4.222,4.222,0,0,1-3790.586,2149.045Zm-3.962.2a3.375,3.375,0,0,0-1.389,1.35,4.365,4.365,0,0,0-.527,2.225,4.371,4.371,0,0,0,.527,2.227,3.377,3.377,0,0,0,1.389,1.349,4.029,4.029,0,0,0,1.868.442,3.992,3.992,0,0,0,1.862-.442,3.419,3.419,0,0,0,1.38-1.342,4.358,4.358,0,0,0,.527-2.234,4.361,4.361,0,0,0-.527-2.233,3.423,3.423,0,0,0-1.38-1.341,3.986,3.986,0,0,0-1.862-.442A4.023,4.023,0,0,0-3794.548,2149.248Z" transform="translate(3962.971 -2093.359)"/><path class="l" d="M-3775.467,2148.68v8.376h-.31V2154.7a3.072,3.072,0,0,1-1.2,1.908,3.554,3.554,0,0,1-2.086.635,3.337,3.337,0,0,1-2.42-.915,3.678,3.678,0,0,1-.945-2.761v-4.886h.294v4.917a3.49,3.49,0,0,0,.822,2.505,2.963,2.963,0,0,0,2.249.86,3.1,3.1,0,0,0,2.389-.969,4.072,4.072,0,0,0,.9-2.862v-4.452Z" transform="translate(3958.741 -2093.404)"/><path class="l" d="M-3769.225,2159.482v.76H-3770v-.76Z" transform="translate(3955.074 -2096.59)"/></g><g transform="translate(29.046 148)"><rect class="m" width="54.053" height="14.101" rx="7.05" transform="translate(146.383 114.364)"/><rect class="m" width="54.053" height="14.101" rx="7.05" transform="translate(222.528 116.244)"/><rect class="m" width="54.053" height="14.101" rx="7.05" transform="translate(104.081 119.534)"/><rect class="m" width="54.053" height="14.101" rx="7.05" transform="translate(57.078 118.594)"/><rect class="m" width="54.053" height="14.101" rx="7.05" transform="translate(181.165 120.944)"/><rect class="m" width="54.053" height="14.101" rx="7.05" transform="translate(16.185 116.714)"/><g transform="translate(115.112 8.138)"><path class="n" d="M-3810.658,1699.187a8.359,8.359,0,0,1-8.358-8.359v-27.583a8.359,8.359,0,0,1,8.358-8.359,8.359,8.359,0,0,1,8.36,8.359v27.583A8.36,8.36,0,0,1-3810.658,1699.187Z" transform="translate(3870.584 -1650.638)"/><path class="o" d="M-3802.3,1663.7v-.455a8.359,8.359,0,0,0-8.36-8.359,8.359,8.359,0,0,0-8.358,8.359v1.176c.144-1.593,1.293-5.245,8.692-6.023C-3805.648,1657.9-3803.389,1660.71-3802.3,1663.7Z" transform="translate(3870.584 -1650.638)"/><g transform="translate(47.89)"><path class="p" d="M-3810.813,1648.861a8.684,8.684,0,0,0-8.685,8.684h17.369A8.684,8.684,0,0,0-3810.813,1648.861Z" transform="translate(3822.836 -1648.861)"/><rect class="p" width="22.401" height="2.118" rx="1.059" transform="translate(0 8.049)"/></g><path class="o" d="M-3809.014,1675.346a10.989,10.989,0,0,1-4.812-1.235.293.293,0,0,1-.116-.4.293.293,0,0,1,.4-.116c.047.025,4.731,2.551,8.211.02a.3.3,0,0,1,.411.065.294.294,0,0,1-.065.41A6.712,6.712,0,0,1-3809.014,1675.346Z" transform="translate(3869.098 -1656.146)"/><g transform="translate(52.709 13.748)"><circle class="i" cx="1.254" cy="1.254" r="1.254" transform="translate(0.196 0.196)"/><path class="o" d="M-3815.947,1671.259a1.452,1.452,0,0,1-1.451-1.45,1.451,1.451,0,0,1,1.451-1.449,1.45,1.45,0,0,1,1.449,1.449A1.451,1.451,0,0,1-3815.947,1671.259Zm0-2.507a1.059,1.059,0,0,0-1.058,1.057,1.059,1.059,0,0,0,1.058,1.057,1.058,1.058,0,0,0,1.057-1.057A1.058,1.058,0,0,0-3815.947,1668.752Z" transform="translate(3817.398 -1668.36)"/></g><g transform="translate(63.91 13.748)"><circle class="i" cx="1.254" cy="1.254" r="1.254" transform="translate(0.196 0.196)"/><path class="o" d="M-3800.061,1671.259a1.451,1.451,0,0,1-1.45-1.45,1.451,1.451,0,0,1,1.45-1.449,1.451,1.451,0,0,1,1.45,1.449A1.451,1.451,0,0,1-3800.061,1671.259Zm0-2.507a1.059,1.059,0,0,0-1.058,1.057,1.058,1.058,0,0,0,1.058,1.057,1.058,1.058,0,0,0,1.058-1.057A1.059,1.059,0,0,0-3800.061,1668.752Z" transform="translate(3801.51 -1668.36)"/></g><path class="q" d="M-3804.51,1687.8H-3829.8a9.439,9.439,0,0,0-9.412,9.412v30.982a3.736,3.736,0,0,0,3.725,3.725h36.668a3.736,3.736,0,0,0,3.726-3.725v-30.982A9.44,9.44,0,0,0-3804.51,1687.8Z" transform="translate(3876.542 -1660.345)"/><path class="q" d="M-3832.805,1790.016a1.961,1.961,0,0,1-1.961-1.961v-48.236a1.961,1.961,0,0,1,1.961-1.961,1.96,1.96,0,0,1,1.96,1.961v48.236A1.961,1.961,0,0,1-3832.805,1790.016Z" transform="translate(3875.23 -1675.111)"/><path class="q" d="M-3785.249,1790.016a1.961,1.961,0,0,1-1.961-1.961v-48.236a1.961,1.961,0,0,1,1.961-1.961,1.961,1.961,0,0,1,1.961,1.961v48.236A1.961,1.961,0,0,1-3785.249,1790.016Z" transform="translate(3861.203 -1675.111)"/><path class="n" d="M-3891.76,1698.388a4.019,4.019,0,0,1,1.795-5.32,60.857,60.857,0,0,1,45.907-3.744,4.019,4.019,0,0,1,2.366,5.168,4.019,4.019,0,0,1-5.159,2.371,47.787,47.787,0,0,0-12.24-2.216,52.172,52.172,0,0,0-27.217,5.58,4.02,4.02,0,0,1-5.408-1.752C-3891.731,1698.446-3891.746,1698.417-3891.76,1698.388Z" transform="translate(3892.157 -1659.959)"/><path class="r" d="M-3804.51,1687.8H-3829.8a9.439,9.439,0,0,0-9.412,9.412v21.765h44.119v-21.765A9.44,9.44,0,0,0-3804.51,1687.8Z" transform="translate(3876.542 -1660.345)"/><path class="r" d="M-3834.843,1696.864a4.02,4.02,0,0,0,5.159-2.371,4.02,4.02,0,0,0-2.366-5.169,57.189,57.189,0,0,0-19.054-2.83l-.342,8.06q2.162-.037,4.362.094A47.764,47.764,0,0,1-3834.843,1696.864Z" transform="translate(3880.148 -1659.96)"/><path class="n" d="M-3745.28,1700.692a4.019,4.019,0,0,0-1.44-5.427,60.863,60.863,0,0,0-45.559-6.769,4.02,4.02,0,0,0-2.7,5,4.021,4.021,0,0,0,4.992,2.707,47.779,47.779,0,0,1,12.36-1.4,52.17,52.17,0,0,1,26.789,7.365,4.019,4.019,0,0,0,5.512-1.39C-3745.312,1700.748-3745.3,1700.72-3745.28,1700.692Z" transform="translate(3863.544 -1660.034)"/><path class="r" d="M-3789.99,1696.2a4.021,4.021,0,0,1-4.992-2.707,4.02,4.02,0,0,1,2.7-5,57.169,57.169,0,0,1,19.2-1.564l-.19,8.064q-2.155-.179-4.359-.194A47.817,47.817,0,0,0-3789.99,1696.2Z" transform="translate(3863.544 -1660.035)"/><path class="s" d="M-3787.21,1795.427v9.608a1.962,1.962,0,0,0,1.961,1.961,1.961,1.961,0,0,0,1.961-1.961v-9.608Z" transform="translate(3861.203 -1692.092)"/><path class="s" d="M-3834.767,1795.427v9.608a1.961,1.961,0,0,0,1.961,1.961,1.961,1.961,0,0,0,1.96-1.961v-9.608Z" transform="translate(3875.23 -1692.092)"/><path class="n" d="M-3819.016,1687.1s.661,5.588,8.307,5.588,8.411-5.686,8.411-5.686S-3812.028,1682.693-3819.016,1687.1Z" transform="translate(3870.584 -1659.555)"/><path class="q" d="M-3828.371,1687.966v31.008h3.726V1687.8h-1.961A9.389,9.389,0,0,0-3828.371,1687.966Z" transform="translate(3873.343 -1660.345)"/><path class="q" d="M-3791.659,1687.8v31.177h3.725v-30.821a9.321,9.321,0,0,0-2.549-.356Z" transform="translate(3862.514 -1660.345)"/><circle class="i" cx="0.98" cy="0.98" r="0.98" transform="translate(45.953 57.648)"/><circle class="i" cx="0.98" cy="0.98" r="0.98" transform="translate(71.64 57.648)"/></g><g transform="translate(93.89 14.162)"><path class="t" d="M-3887.226,1670.687s-7.212,0-5.363-5.178,2.034-1.48,7.952-4.994,11.282-5.177,11.828,1.21a3.325,3.325,0,0,1,4.447,2.49c.925,3.7-.369,11.219-.369,11.219Z" transform="translate(3913.595 -1657.405)"/><path class="n" d="M-3874.346,1707.807a8.358,8.358,0,0,1-8.359-8.358v-27.584a8.359,8.359,0,0,1,8.359-8.358,8.359,8.359,0,0,1,8.358,8.358v27.584A8.358,8.358,0,0,1-3874.346,1707.807Z" transform="translate(3910.591 -1659.205)"/><path class="o" d="M-3872.7,1683.968a11,11,0,0,1-4.813-1.235.3.3,0,0,1-.116-.4.3.3,0,0,1,.4-.115c.048.026,4.731,2.551,8.211.019a.3.3,0,0,1,.411.065.3.3,0,0,1-.064.411A6.716,6.716,0,0,1-3872.7,1683.968Z" transform="translate(3909.105 -1664.713)"/><g transform="translate(29.028 13.802)"><circle class="i" cx="1.254" cy="1.254" r="1.254" transform="translate(0.196 0.196)"/><path class="o" d="M-3879.635,1679.881a1.452,1.452,0,0,1-1.45-1.45,1.452,1.452,0,0,1,1.45-1.45,1.452,1.452,0,0,1,1.45,1.45A1.452,1.452,0,0,1-3879.635,1679.881Zm0-2.508a1.059,1.059,0,0,0-1.058,1.058,1.059,1.059,0,0,0,1.058,1.058,1.059,1.059,0,0,0,1.057-1.058A1.059,1.059,0,0,0-3879.635,1677.373Z" transform="translate(3881.086 -1676.981)"/></g><g transform="translate(40.228 13.802)"><circle class="i" cx="1.254" cy="1.254" r="1.254" transform="translate(0.196 0.196)"/><path class="o" d="M-3863.749,1679.881a1.452,1.452,0,0,1-1.45-1.45,1.453,1.453,0,0,1,1.45-1.45,1.452,1.452,0,0,1,1.45,1.45A1.452,1.452,0,0,1-3863.749,1679.881Zm0-2.508a1.059,1.059,0,0,0-1.057,1.058,1.058,1.058,0,0,0,1.057,1.058,1.058,1.058,0,0,0,1.057-1.058A1.059,1.059,0,0,0-3863.749,1677.373Z" transform="translate(3865.199 -1676.981)"/></g><path class="u" d="M-3868.2,1696.418h-25.295a9.441,9.441,0,0,0-9.413,9.412v30.981a3.737,3.737,0,0,0,3.726,3.726h36.667a3.736,3.736,0,0,0,3.725-3.726V1705.83A9.44,9.44,0,0,0-3868.2,1696.418Z" transform="translate(3916.549 -1668.912)"/><path class="u" d="M-3896.495,1798.637a1.961,1.961,0,0,1-1.961-1.961V1748.44a1.961,1.961,0,0,1,1.961-1.961,1.96,1.96,0,0,1,1.96,1.961v48.236A1.96,1.96,0,0,1-3896.495,1798.637Z" transform="translate(3915.237 -1683.678)"/><path class="u" d="M-3848.937,1798.637a1.961,1.961,0,0,1-1.961-1.961V1748.44a1.96,1.96,0,0,1,1.961-1.961,1.961,1.961,0,0,1,1.961,1.961v48.236A1.961,1.961,0,0,1-3848.937,1798.637Z" transform="translate(3901.209 -1683.678)"/><path class="n" d="M-3918.224,1744.6a4.02,4.02,0,0,1-4.016-3.924,60.857,60.857,0,0,1,16.524-42.992,4.021,4.021,0,0,1,5.685.107,4.02,4.02,0,0,1-.1,5.677,47.861,47.861,0,0,0-7.3,10.071,52.179,52.179,0,0,0-6.77,26.946,4.019,4.019,0,0,1-3.923,4.114Z" transform="translate(3922.257 -1668.953)"/><path class="v" d="M-3868.2,1696.418h-25.295a9.441,9.441,0,0,0-9.413,9.412V1727.6h44.119V1705.83A9.44,9.44,0,0,0-3868.2,1696.418Z" transform="translate(3916.549 -1668.912)"/><path class="w" d="M-3897.733,1703.466a4.02,4.02,0,0,0,.1-5.677,4.02,4.02,0,0,0-5.684-.107,57.151,57.151,0,0,0-10.808,15.943l7.114,3.8q.9-1.965,1.976-3.891A47.871,47.871,0,0,1-3897.733,1703.466Z" transform="translate(3919.858 -1668.953)"/><path class="n" d="M-3835.08,1744.6a4.019,4.019,0,0,0,4.016-3.924,60.859,60.859,0,0,0-16.525-42.992,4.02,4.02,0,0,0-5.684.107,4.02,4.02,0,0,0,.1,5.677,47.812,47.812,0,0,1,7.3,10.071,52.174,52.174,0,0,1,6.769,26.946,4.018,4.018,0,0,0,3.922,4.114Z" transform="translate(3902.241 -1668.953)"/><path class="w" d="M-3853.173,1703.466a4.02,4.02,0,0,1-.1-5.677,4.02,4.02,0,0,1,5.684-.107,57.2,57.2,0,0,1,10.809,15.943l-7.115,3.8q-.9-1.965-1.975-3.891A47.812,47.812,0,0,0-3853.173,1703.466Z" transform="translate(3902.241 -1668.953)"/><path class="s" d="M-3850.9,1804.049v9.609a1.96,1.96,0,0,0,1.961,1.961,1.961,1.961,0,0,0,1.961-1.961v-9.609Z" transform="translate(3901.209 -1700.659)"/><path class="s" d="M-3898.456,1804.049v9.609a1.961,1.961,0,0,0,1.961,1.961,1.96,1.96,0,0,0,1.96-1.961v-9.609Z" transform="translate(3915.237 -1700.659)"/><rect class="s" width="44.119" height="5.49" transform="translate(13.644 55.546)"/><path class="w" d="M-3899.18,1740.536h11.764v-44.119h-6.078a9.441,9.441,0,0,0-9.413,9.412v30.981A3.737,3.737,0,0,0-3899.18,1740.536Z" transform="translate(3916.549 -1668.912)"/><path class="w" d="M-3856.222,1696.418h-6.079v44.119h11.765a3.737,3.737,0,0,0,3.726-3.726V1705.83A9.44,9.44,0,0,0-3856.222,1696.418Z" transform="translate(3904.573 -1668.912)"/><rect class="w" width="10.588" height="18.236" transform="translate(13.644 57.507)"/><rect class="w" width="10.588" height="18.236" transform="translate(47.174 57.507)"/><rect class="w" width="15.491" height="17.647" rx="7.745" transform="translate(13.644 58.095)"/><rect class="w" width="15.491" height="17.647" rx="7.745" transform="translate(42.272 58.095)"/><path class="n" d="M-3882.7,1695.726s.66,5.589,8.308,5.589,8.41-5.687,8.41-5.687S-3875.717,1691.314-3882.7,1695.726Z" transform="translate(3910.591 -1668.122)"/><path class="t" d="M-3867.153,1671.04v-.5a9.247,9.247,0,0,0-9.248-9.246,9.247,9.247,0,0,0-9.247,9.246s-4.253,1.123,0,1.3,11.651-6.664,11.651-6.664S-3872.516,1667.579-3867.153,1671.04Z" transform="translate(3912.016 -1658.552)"/></g><g transform="translate(0 9.902)"><path class="x" d="M-3979.538,1683.215s5.877-2.086,10.428,2.085,0,8.531,2.844,11.755,10.618,2.085,10.618,2.085-8.346,5.647-16.495.759c-5.688-3.413-4.535-6.824-4.361-8.911C-3976.314,1688.713-3974.8,1686.248-3979.538,1683.215Z" transform="translate(4033.043 -1660.605)"/><path class="x" d="M-4005.249,1668.29s-6.363,10.951,5.919,13.615c8.445,1.831,13.6-2,14.462-7.224a11.423,11.423,0,0,0-1.586-7.576C-3991.191,1658.966-4005.249,1668.29-4005.249,1668.29Z" transform="translate(4041.112 -1655.024)"/><path class="n" d="M-3995.219,1707.085A8.082,8.082,0,0,1-4003.3,1699v-26.671a8.082,8.082,0,0,1,8.082-8.082,8.082,8.082,0,0,1,8.083,8.082V1699A8.082,8.082,0,0,1-3995.219,1707.085Z" transform="translate(4040.052 -1655.165)"/><path class="o" d="M-3993.63,1684.033a10.633,10.633,0,0,1-4.653-1.194.286.286,0,0,1-.113-.386.285.285,0,0,1,.387-.112c.046.025,4.575,2.467,7.94.02a.284.284,0,0,1,.4.062.284.284,0,0,1-.063.4A6.488,6.488,0,0,1-3993.63,1684.033Z" transform="translate(4038.615 -1660.49)"/><g transform="translate(37.848 18.264)"><circle class="i" cx="1.212" cy="1.212" r="1.212" transform="translate(0.196 0.196)"/><path class="o" d="M-4000.335,1680.085a1.41,1.41,0,0,1-1.409-1.408,1.41,1.41,0,0,1,1.409-1.408,1.409,1.409,0,0,1,1.407,1.408A1.409,1.409,0,0,1-4000.335,1680.085Zm0-2.425a1.019,1.019,0,0,0-1.017,1.016,1.019,1.019,0,0,0,1.017,1.017,1.018,1.018,0,0,0,1.016-1.017A1.018,1.018,0,0,0-4000.335,1677.661Z" transform="translate(4001.745 -1677.269)"/></g><g transform="translate(48.678 18.264)"><circle class="i" cx="1.212" cy="1.212" r="1.212" transform="translate(0.196 0.196)"/><path class="o" d="M-3984.975,1680.085a1.41,1.41,0,0,1-1.409-1.408,1.41,1.41,0,0,1,1.409-1.408,1.41,1.41,0,0,1,1.408,1.408A1.41,1.41,0,0,1-3984.975,1680.085Zm0-2.425a1.018,1.018,0,0,0-1.016,1.016,1.018,1.018,0,0,0,1.016,1.017,1.017,1.017,0,0,0,1.016-1.017A1.017,1.017,0,0,0-3984.975,1677.661Z" transform="translate(3986.384 -1677.269)"/></g><path class="y" d="M-3989.274,1696.072h-24.458a9.127,9.127,0,0,0-9.1,9.1v29.956a3.612,3.612,0,0,0,3.6,3.6h35.454a3.611,3.611,0,0,0,3.6-3.6v-29.956A9.126,9.126,0,0,0-3989.274,1696.072Z" transform="translate(4045.813 -1664.551)"/><path class="y" d="M-4016.634,1794.909a1.9,1.9,0,0,1-1.9-1.9v-46.641a1.9,1.9,0,0,1,1.9-1.9,1.9,1.9,0,0,1,1.9,1.9v46.641A1.9,1.9,0,0,1-4016.634,1794.909Z" transform="translate(4044.544 -1678.828)"/><path class="y" d="M-3970.65,1794.909a1.9,1.9,0,0,1-1.9-1.9v-46.641a1.9,1.9,0,0,1,1.9-1.9,1.9,1.9,0,0,1,1.9,1.9v46.641A1.9,1.9,0,0,1-3970.65,1794.909Z" transform="translate(4030.98 -1678.828)"/><path class="n" d="M-4052.413,1651.464a3.887,3.887,0,0,0-2.934,4.569,58.85,58.85,0,0,0,24.9,36.921,3.888,3.888,0,0,0,5.333-1.335,3.887,3.887,0,0,0-1.327-5.327,46.218,46.218,0,0,1-9.067-7.9,50.443,50.443,0,0,1-12.228-23.919,3.886,3.886,0,0,0-4.589-3.024Z" transform="translate(4055.427 -1651.364)"/><path class="z" d="M-3989.274,1696.072h-24.458a9.127,9.127,0,0,0-9.1,9.1v21.045h42.658v-21.045A9.126,9.126,0,0,0-3989.274,1696.072Z" transform="translate(4045.813 -1664.551)"/><path class="n" d="M-3957.252,1742.658a3.887,3.887,0,0,0,3.883-3.794,58.853,58.853,0,0,0-15.978-41.57,3.888,3.888,0,0,0-5.5.1,3.887,3.887,0,0,0,.1,5.489,46.181,46.181,0,0,1,7.061,9.738,50.435,50.435,0,0,1,6.544,26.054,3.887,3.887,0,0,0,3.793,3.978Z" transform="translate(4031.979 -1664.59)"/><path class="s" d="M-3972.546,1800.142v9.291a1.9,1.9,0,0,0,1.9,1.9,1.9,1.9,0,0,0,1.9-1.9v-9.291Z" transform="translate(4030.98 -1695.247)"/><path class="s" d="M-4018.53,1800.142v9.291a1.9,1.9,0,0,0,1.9,1.9,1.9,1.9,0,0,0,1.9-1.9v-9.291Z" transform="translate(4044.544 -1695.247)"/><path class="n" d="M-4003.3,1695.4s.638,5.4,8.033,5.4,8.132-5.5,8.132-5.5S-3996.544,1691.137-4003.3,1695.4Z" transform="translate(4040.052 -1663.787)"/><path class="z" d="M-4025.249,1690.24a3.887,3.887,0,0,1,1.328,5.327,3.888,3.888,0,0,1-5.333,1.335,58.736,58.736,0,0,1-22.143-27.559l6.589-4.6a50.928,50.928,0,0,0,10.494,17.587A46.232,46.232,0,0,0-4025.249,1690.24Z" transform="translate(4054.238 -1655.312)"/><path class="z" d="M-3969.346,1697.293a3.888,3.888,0,0,0-5.5.1,3.887,3.887,0,0,0,.1,5.489,46.181,46.181,0,0,1,7.061,9.738,51.034,51.034,0,0,1,6.195,18.789l7.558-2.12A58.739,58.739,0,0,0-3969.346,1697.293Z" transform="translate(4031.979 -1664.59)"/><path class="aa" d="M-3995.593,1664.784s.739,6.216-10.064,6.216-2.811-13.911,7.992-10.211c0,0,2.959-4.292,8.436-.592s1.184,8.14,1.184,8.14S-3990.414,1671.148-3995.593,1664.784Z" transform="translate(4042.26 -1653.526)"/><path class="aa" d="M-3981.088,1671.406s-.593,5.032.444,6.068a13.756,13.756,0,0,0,2.261-10.8Z" transform="translate(4033.55 -1655.879)"/><path class="o" d="M-3983.695,1675.95a.279.279,0,0,1-.219-.1,1.848,1.848,0,0,0-1.406-.822,2.065,2.065,0,0,0-1.368.81.285.285,0,0,1-.4.062.283.283,0,0,1-.062-.4,2.607,2.607,0,0,1,1.808-1.043,2.353,2.353,0,0,1,1.865,1.03.284.284,0,0,1-.041.4A.282.282,0,0,1-3983.695,1675.95Z" transform="translate(4035.303 -1658.175)"/></g><g transform="translate(213.304)"><ellipse class="ab" cx="1.569" cy="2.549" rx="1.569" ry="2.549" transform="translate(25.801 24.804)"/><ellipse class="ab" cx="1.569" cy="2.549" rx="1.569" ry="2.549" transform="translate(43.841 24.804)"/><path class="ab" d="M-3704.974,1704.192a8.359,8.359,0,0,1-8.359-8.359V1668.25a8.36,8.36,0,0,1,8.359-8.359,8.359,8.359,0,0,1,8.359,8.359v27.583A8.358,8.358,0,0,1-3704.974,1704.192Z" transform="translate(3741.219 -1643.977)"/><path class="ac" d="M-3703.331,1680.352a11.006,11.006,0,0,1-4.813-1.234.294.294,0,0,1-.115-.4.293.293,0,0,1,.4-.116c.047.026,4.731,2.551,8.211.02a.293.293,0,0,1,.41.065.3.3,0,0,1-.064.411A6.714,6.714,0,0,1-3703.331,1680.352Z" transform="translate(3739.733 -1649.485)"/><g transform="translate(29.028 25.415)"><circle class="i" cx="1.254" cy="1.254" r="1.254" transform="translate(0.196 0.196)"/><path class="ad" d="M-3710.263,1676.266a1.453,1.453,0,0,1-1.451-1.45,1.452,1.452,0,0,1,1.451-1.45,1.451,1.451,0,0,1,1.449,1.45A1.451,1.451,0,0,1-3710.263,1676.266Zm0-2.508a1.059,1.059,0,0,0-1.059,1.058,1.059,1.059,0,0,0,1.059,1.057,1.059,1.059,0,0,0,1.057-1.057A1.059,1.059,0,0,0-3710.263,1673.758Z" transform="translate(3711.714 -1673.366)"/></g><g transform="translate(40.229 25.415)"><circle class="i" cx="1.254" cy="1.254" r="1.254" transform="translate(0.196 0.196)"/><path class="ad" d="M-3694.377,1676.266a1.451,1.451,0,0,1-1.45-1.45,1.451,1.451,0,0,1,1.45-1.45,1.451,1.451,0,0,1,1.45,1.45A1.451,1.451,0,0,1-3694.377,1676.266Zm0-2.508a1.059,1.059,0,0,0-1.058,1.058,1.059,1.059,0,0,0,1.058,1.057,1.058,1.058,0,0,0,1.057-1.057A1.059,1.059,0,0,0-3694.377,1673.758Z" transform="translate(3695.827 -1673.366)"/></g><path class="q" d="M-3698.826,1692.8h-25.3a9.439,9.439,0,0,0-9.412,9.412V1733.2a3.737,3.737,0,0,0,3.726,3.725h36.667a3.736,3.736,0,0,0,3.725-3.725v-30.982A9.44,9.44,0,0,0-3698.826,1692.8Z" transform="translate(3747.177 -1653.684)"/><path class="q" d="M-3727.123,1795.021a1.961,1.961,0,0,1-1.961-1.961v-48.236a1.961,1.961,0,0,1,1.961-1.961,1.96,1.96,0,0,1,1.96,1.961v48.236A1.96,1.96,0,0,1-3727.123,1795.021Z" transform="translate(3745.865 -1668.45)"/><path class="q" d="M-3679.566,1795.021a1.96,1.96,0,0,1-1.96-1.961v-48.236a1.96,1.96,0,0,1,1.96-1.961,1.961,1.961,0,0,1,1.962,1.961v48.236A1.961,1.961,0,0,1-3679.566,1795.021Z" transform="translate(3731.837 -1668.45)"/><path class="ab" d="M-3748.851,1740.982a4.02,4.02,0,0,1-4.017-3.923,60.862,60.862,0,0,1,16.525-42.993,4.02,4.02,0,0,1,5.684.108,4.02,4.02,0,0,1-.1,5.676,47.827,47.827,0,0,0-7.3,10.072,52.163,52.163,0,0,0-6.769,26.945,4.02,4.02,0,0,1-3.923,4.115Z" transform="translate(3752.885 -1653.725)"/><path class="s" d="M-3698.826,1692.8h-25.3a9.439,9.439,0,0,0-9.412,9.412v21.765h44.118v-21.765A9.44,9.44,0,0,0-3698.826,1692.8Z" transform="translate(3747.177 -1653.684)"/><path class="s" d="M-3728.36,1699.85a4.02,4.02,0,0,0,.1-5.676,4.02,4.02,0,0,0-5.684-.108,57.192,57.192,0,0,0-10.809,15.944l7.115,3.8q.905-1.965,1.976-3.89A47.856,47.856,0,0,1-3728.36,1699.85Z" transform="translate(3750.487 -1653.725)"/><path class="ab" d="M-3662.649,1637.319a4.018,4.018,0,0,1,4.016,3.924,60.855,60.855,0,0,1-16.524,42.993,4.019,4.019,0,0,1-5.684-.108,4.02,4.02,0,0,1,.1-5.676,47.834,47.834,0,0,0,7.3-10.072,52.17,52.17,0,0,0,6.77-26.945,4.019,4.019,0,0,1,3.922-4.115Z" transform="translate(3731.966 -1637.319)"/><path class="s" d="M-3680.741,1689.818a4.02,4.02,0,0,0-.1,5.676,4.019,4.019,0,0,0,5.684.108,57.169,57.169,0,0,0,10.809-15.944l-7.115-3.8q-.9,1.965-1.975,3.891A47.869,47.869,0,0,1-3680.741,1689.818Z" transform="translate(3731.966 -1648.686)"/><path class="s" d="M-3681.526,1800.434v9.608a1.96,1.96,0,0,0,1.96,1.961,1.961,1.961,0,0,0,1.962-1.961v-9.608Z" transform="translate(3731.837 -1685.431)"/><path class="s" d="M-3729.084,1800.434v9.608a1.961,1.961,0,0,0,1.961,1.961,1.96,1.96,0,0,0,1.96-1.961v-9.608Z" transform="translate(3745.865 -1685.431)"/><rect class="s" width="44.119" height="8.432" transform="translate(13.644 69.707)"/><path class="ab" d="M-3713.333,1692.111s.66,5.588,8.308,5.588,8.41-5.686,8.41-5.686S-3706.345,1687.7-3713.333,1692.111Z" transform="translate(3741.219 -1652.894)"/><path class="ac" d="M-3696.615,1674.709l-1.351,2.365s-1.568,2.942-7.059,2.942-7.059-2.942-7.059-2.942l-1.249-2.184v2.3c.072,7.725,8.308,7.137,8.308,7.137s8.627.392,8.41-7.708Z" transform="translate(3741.219 -1648.347)"/><path class="ac" d="M-3692.774,1672.138a.232.232,0,0,1-.221-.159,1.673,1.673,0,0,0-1.643-1.239c-1.062,0-1.482,1.226-1.488,1.239a.231.231,0,0,1-.293.147.234.234,0,0,1-.148-.295,2.234,2.234,0,0,1,1.929-1.556,2.139,2.139,0,0,1,2.083,1.556.231.231,0,0,1-.146.295A.236.236,0,0,1-3692.774,1672.138Z" transform="translate(3736.277 -1647.04)"/><path class="ac" d="M-3711.746,1672.138a.233.233,0,0,0,.221-.159,1.671,1.671,0,0,1,1.642-1.239c1.062,0,1.483,1.226,1.487,1.239a.232.232,0,0,0,.294.147.233.233,0,0,0,.147-.295,2.232,2.232,0,0,0-1.928-1.556,2.14,2.14,0,0,0-2.083,1.556.232.232,0,0,0,.146.295A.241.241,0,0,0-3711.746,1672.138Z" transform="translate(3740.82 -1647.04)"/><path class="ae" d="M-3704.545,1709.491h-.069c-4.068.033-5.808,2.957-4.833,5.881.905,2.715,4.314,6.1,4.833,6.6v.066l.035-.033.035.033v-.066c.52-.5,3.928-3.886,4.833-6.6C-3698.737,1712.448-3700.478,1709.524-3704.545,1709.491Z" transform="translate(3740.151 -1658.606)"/><path class="s" d="M-3704.613,1719.988s-.392-3.53-3.334-1.569C-3707.947,1718.42-3707.555,1721.753-3704.613,1719.988Z" transform="translate(3739.63 -1661.065)"/><path class="s" d="M-3701.827,1719.988s.392-3.53,3.333-1.569C-3698.494,1718.42-3698.886,1721.753-3701.827,1719.988Z" transform="translate(3737.825 -1661.065)"/><circle class="s" cx="0.392" cy="0.392" r="0.392" transform="translate(35.213 60.295)"/></g><g transform="translate(51.134 20.883)"><path class="af" d="M-3942.342,1691.834s-5.9.937-9.18-2.49,1.418-4.29,2.228-5.9.241-6.321.241-6.321l8.425-6.331,9.425,6.759-.284,3.114s.1-.009,0,2.028.893,1.428,1.892,4,.29,4.039-2.138,4.324S-3942.342,1691.834-3942.342,1691.834Z" transform="translate(3973.985 -1668.075)"/><path class="n" d="M-3938.173,1714.176a7.8,7.8,0,0,1-7.8-7.8v-25.751a7.8,7.8,0,0,1,7.8-7.8,7.8,7.8,0,0,1,7.8,7.8v25.751A7.8,7.8,0,0,1-3938.173,1714.176Z" transform="translate(3972.009 -1668.672)"/><path class="o" d="M-3936.639,1691.92a10.282,10.282,0,0,1-4.493-1.152.275.275,0,0,1-.107-.373.275.275,0,0,1,.373-.109c.044.025,4.417,2.382,7.666.02a.274.274,0,0,1,.383.06.275.275,0,0,1-.062.384A6.264,6.264,0,0,1-3936.639,1691.92Z" transform="translate(3970.622 -1673.814)"/><g transform="translate(27.086 13.002)"><circle class="i" cx="1.171" cy="1.171" r="1.171" transform="translate(0.196 0.196)"/><path class="o" d="M-3943.117,1688.112a1.367,1.367,0,0,1-1.366-1.366,1.367,1.367,0,0,1,1.366-1.366,1.368,1.368,0,0,1,1.367,1.366A1.368,1.368,0,0,1-3943.117,1688.112Zm0-2.341a.976.976,0,0,0-.975.974.976.976,0,0,0,.975.974.974.974,0,0,0,.974-.974A.974.974,0,0,0-3943.117,1685.771Z" transform="translate(3944.482 -1685.379)"/></g><g transform="translate(37.543 13.002)"><circle class="i" cx="1.171" cy="1.171" r="1.171" transform="translate(0.196 0.196)"/><path class="o" d="M-3928.285,1688.112a1.368,1.368,0,0,1-1.367-1.366,1.368,1.368,0,0,1,1.367-1.366,1.368,1.368,0,0,1,1.366,1.366A1.367,1.367,0,0,1-3928.285,1688.112Zm0-2.341a.974.974,0,0,0-.973.974.974.974,0,0,0,.973.974.975.975,0,0,0,.975-.974A.975.975,0,0,0-3928.285,1685.771Z" transform="translate(3929.652 -1685.379)"/></g><path class="ag" d="M-3932.433,1703.543h-23.615a8.814,8.814,0,0,0-8.787,8.787v28.923a3.488,3.488,0,0,0,3.479,3.478h34.232a3.488,3.488,0,0,0,3.479-3.478V1712.33A8.814,8.814,0,0,0-3932.433,1703.543Z" transform="translate(3977.572 -1677.735)"/><path class="ag" d="M-3958.849,1798.972a1.83,1.83,0,0,1-1.831-1.83v-45.032a1.83,1.83,0,0,1,1.831-1.83,1.831,1.831,0,0,1,1.831,1.83v45.032A1.831,1.831,0,0,1-3958.849,1798.972Z" transform="translate(3976.346 -1691.52)"/><path class="ag" d="M-3914.451,1798.972a1.83,1.83,0,0,1-1.831-1.83v-45.032a1.83,1.83,0,0,1,1.831-1.83,1.83,1.83,0,0,1,1.831,1.83v45.032A1.83,1.83,0,0,1-3914.451,1798.972Z" transform="translate(3963.251 -1691.52)"/><path class="n" d="M-3979.134,1748.522a3.754,3.754,0,0,1-3.75-3.663,56.812,56.812,0,0,1,15.427-40.136,3.753,3.753,0,0,1,5.307.1,3.753,3.753,0,0,1-.094,5.3,44.674,44.674,0,0,0-6.817,9.4,48.7,48.7,0,0,0-6.319,25.156,3.752,3.752,0,0,1-3.662,3.841Z" transform="translate(3982.9 -1677.773)"/><path class="ah" d="M-3932.433,1703.543h-23.615a8.814,8.814,0,0,0-8.787,8.787v20.32h41.189v-20.32A8.814,8.814,0,0,0-3932.433,1703.543Z" transform="translate(3977.572 -1677.735)"/><path class="n" d="M-3901.515,1748.522a3.752,3.752,0,0,0,3.75-3.663,56.815,56.815,0,0,0-15.427-40.136,3.753,3.753,0,0,0-5.306.1,3.752,3.752,0,0,0,.094,5.3,44.591,44.591,0,0,1,6.816,9.4,48.708,48.708,0,0,1,6.321,25.156,3.751,3.751,0,0,0,3.661,3.841Z" transform="translate(3964.214 -1677.773)"/><path class="s" d="M-3916.282,1804.024v8.97a1.83,1.83,0,0,0,1.831,1.83,1.83,1.83,0,0,0,1.831-1.83v-8.97Z" transform="translate(3963.251 -1707.372)"/><path class="s" d="M-3960.68,1804.024v8.97a1.83,1.83,0,0,0,1.831,1.83,1.831,1.831,0,0,0,1.831-1.83v-8.97Z" transform="translate(3976.346 -1707.372)"/><path class="i" d="M-3961.356,1744.731h10.983v-41.188h-5.674a8.814,8.814,0,0,0-8.787,8.787v28.923A3.488,3.488,0,0,0-3961.356,1744.731Z" transform="translate(3977.572 -1677.735)"/><path class="i" d="M-3921.252,1703.543h-5.674v41.188h10.982a3.488,3.488,0,0,0,3.479-3.478V1712.33A8.813,8.813,0,0,0-3921.252,1703.543Z" transform="translate(3966.39 -1677.735)"/><rect class="i" width="9.885" height="17.024" transform="translate(12.738 59.674)"/><rect class="i" width="9.885" height="17.024" transform="translate(44.04 59.674)"/><rect class="i" width="14.462" height="16.475" rx="7.231" transform="translate(12.738 60.223)"/><rect class="i" width="14.462" height="16.475" rx="7.231" transform="translate(39.464 60.223)"/><path class="n" d="M-3945.975,1702.9s.615,5.218,7.755,5.218,7.851-5.309,7.851-5.309S-3939.452,1698.778-3945.975,1702.9Z" transform="translate(3972.009 -1676.997)"/><path class="i" d="M-3962,1710.123a3.753,3.753,0,0,0,.094-5.3,3.753,3.753,0,0,0-5.307-.1,56.709,56.709,0,0,0-14.86,30.729l7.2,2.9a49.181,49.181,0,0,1,6.06-18.823A44.582,44.582,0,0,1-3962,1710.123Z" transform="translate(3982.657 -1677.773)"/><path class="i" d="M-3913.192,1704.723a3.753,3.753,0,0,0-5.306.1,3.752,3.752,0,0,0,.094,5.3,44.591,44.591,0,0,1,6.816,9.4,49.26,49.26,0,0,1,5.982,18.141l7.3-2.046A56.7,56.7,0,0,0-3913.192,1704.723Z" transform="translate(3964.214 -1677.773)"/><path class="ai" d="M-3939.877,1672.59a7.739,7.739,0,0,0,5.578,4.648c2.928.775,2.789,4.25,2.789,4.25s2.921-7.836-.8-12.484-8.5,0-8.5,0a7.1,7.1,0,0,0-7.3,1.992c-3.187,3.453-1.813,8.633,1.111,12.483v-5.445S-3942.269,1675.379-3939.877,1672.59Z" transform="translate(3973.178 -1666.938)"/></g><g transform="translate(174.137 20.225)"><path class="q" d="M-3784.742,1799.716a1.864,1.864,0,0,1-1.865-1.864V1752a1.864,1.864,0,0,1,1.865-1.864,1.863,1.863,0,0,1,1.862,1.864v45.852A1.863,1.863,0,0,1-3784.742,1799.716Z" transform="translate(3802 -1690.82)"/><path class="s" d="M-3786.607,1804.86v9.133a1.864,1.864,0,0,0,1.865,1.864,1.863,1.863,0,0,0,1.862-1.864v-9.133Z" transform="translate(3802 -1706.961)"/><path class="q" d="M-3739.536,1799.716a1.864,1.864,0,0,1-1.864-1.864V1752a1.864,1.864,0,0,1,1.864-1.864,1.863,1.863,0,0,1,1.863,1.864v45.852A1.863,1.863,0,0,1-3739.536,1799.716Z" transform="translate(3788.665 -1690.82)"/><path class="s" d="M-3741.4,1804.86v9.133a1.864,1.864,0,0,0,1.864,1.864,1.863,1.863,0,0,0,1.863-1.864v-9.133Z" transform="translate(3788.665 -1706.961)"/><path class="n" d="M-3726.629,1749.669a3.822,3.822,0,0,0,3.818-3.73,57.847,57.847,0,0,0-15.708-40.867,3.821,3.821,0,0,0-5.4.1,3.821,3.821,0,0,0,.1,5.4,45.4,45.4,0,0,1,6.941,9.573,49.6,49.6,0,0,1,6.435,25.614,3.821,3.821,0,0,0,3.729,3.911Z" transform="translate(3789.725 -1677.213)"/><path class="aj" d="M-3738.519,1705.072a3.821,3.821,0,0,0-5.4.1,3.821,3.821,0,0,0,.1,5.4,45.4,45.4,0,0,1,6.941,9.573,50,50,0,0,1,6.228,19.74h7.669A57.834,57.834,0,0,0-3738.519,1705.072Z" transform="translate(3789.725 -1677.213)"/><path class="n" d="M-3804.6,1749.669a3.821,3.821,0,0,1-3.818-3.73,57.842,57.842,0,0,1,15.708-40.867,3.82,3.82,0,0,1,5.4.1,3.821,3.821,0,0,1-.1,5.4,45.461,45.461,0,0,0-6.939,9.573,49.59,49.59,0,0,0-6.436,25.614,3.821,3.821,0,0,1-3.729,3.911Z" transform="translate(3808.439 -1677.213)"/><path class="aj" d="M-3787.326,1710.57a3.821,3.821,0,0,0,.1-5.4,3.82,3.82,0,0,0-5.4-.1,57.817,57.817,0,0,0-15.531,34.811h7.668a50.036,50.036,0,0,1,6.23-19.74A45.481,45.481,0,0,1-3787.326,1710.57Z" transform="translate(3808.358 -1677.213)"/><path class="ac" d="M-3758.242,1674.469s1.8-1.064,2.728.427,1.3,5.032.373,7.828-4.659,6.151-4.659,6.151l-11.557-1.491a13.678,13.678,0,0,1-3.355-9.133c.186-5.4,5.778-6.9,5.778-6.9Z" transform="translate(3798.493 -1667.582)"/><ellipse class="n" cx="1.491" cy="2.423" rx="1.491" ry="2.423" transform="translate(23.967 12.159)"/><ellipse class="n" cx="1.491" cy="2.423" rx="1.491" ry="2.423" transform="translate(41.114 12.159)"/><path class="n" d="M-3763.689,1713.376a7.946,7.946,0,0,1-7.946-7.945v-26.22a7.946,7.946,0,0,1,7.946-7.946,7.945,7.945,0,0,1,7.945,7.946v26.22A7.944,7.944,0,0,1-3763.689,1713.376Z" transform="translate(3797.583 -1667.556)"/><path class="ac" d="M-3762.127,1690.715a10.447,10.447,0,0,1-4.575-1.174.282.282,0,0,1-.11-.38.281.281,0,0,1,.38-.11c.045.025,4.5,2.425,7.805.019a.28.28,0,0,1,.391.061.28.28,0,0,1-.062.391A6.384,6.384,0,0,1-3762.127,1690.715Z" transform="translate(3796.171 -1672.792)"/><path class="ac" d="M-3762,1674.389s-7.136,1.223-11.825,0a8.772,8.772,0,0,1-5.913-5.912,4.259,4.259,0,0,0,4.281.407c2.65-1.02,6.116-3.67,11.213-2.65s6.729,4.893,6.117,6.32S-3762,1674.389-3762,1674.389Z" transform="translate(3799.972 -1666.005)"/><path class="q" d="M-3757.845,1702.549h-24.044a8.973,8.973,0,0,0-8.947,8.947v29.45a3.551,3.551,0,0,0,3.541,3.541h34.855a3.551,3.551,0,0,0,3.541-3.541V1711.5A8.973,8.973,0,0,0-3757.845,1702.549Z" transform="translate(3803.247 -1676.784)"/><path class="aj" d="M-3757.845,1702.549h-24.044a8.973,8.973,0,0,0-8.947,8.947v27.958h41.938V1711.5A8.973,8.973,0,0,0-3757.845,1702.549Z" transform="translate(3803.247 -1676.784)"/><path class="n" d="M-3771.635,1701.891s.627,5.312,7.9,5.312,7.994-5.406,7.994-5.406S-3764.993,1697.7-3771.635,1701.891Z" transform="translate(3797.583 -1676.033)"/><path class="ae" d="M-3772.36,1701.4a11.236,11.236,0,0,0,6.778,6.4l-2.237,3.169a12.961,12.961,0,0,1-6.275-8.2Z" transform="translate(3798.308 -1676.446)"/><path class="ae" d="M-3751.718,1701.4a11.234,11.234,0,0,1-6.777,6.4l2.237,3.169a12.96,12.96,0,0,0,6.274-8.2Z" transform="translate(3793.707 -1676.446)"/><path class="z" d="M-3758.6,1710.237c-.358-.716-3.128-.572-3.34-.56-.213-.012-2.982-.156-3.34.56-.372.744-.743,4.27,3.326,4.842v0l.015,0,.014,0v0C-3757.858,1714.507-3758.229,1710.981-3758.6,1710.237Z" transform="translate(3795.772 -1678.88)"/><path class="aj" d="M-3772.36,1700.611a11.236,11.236,0,0,0,6.778,6.4l-2.237,3.169a12.962,12.962,0,0,1-6.275-8.2Z" transform="translate(3798.308 -1676.212)"/><path class="aj" d="M-3751.718,1700.611a11.234,11.234,0,0,1-6.777,6.4l2.237,3.169a12.961,12.961,0,0,0,6.274-8.2Z" transform="translate(3793.707 -1676.212)"/><path class="z" d="M-3758.443,1732.82c-.443-2.8-2.069-18.639-2.069-18.639h-2.912s-1.625,15.843-2.069,18.639c-.437,2.758,2.431,6.6,3.5,6.706v0l.022,0,.022,0v0C-3760.874,1739.421-3758.005,1735.579-3758.443,1732.82Z" transform="translate(3795.785 -1680.215)"/><g transform="translate(27.024 12.729)"><circle class="i" cx="1.192" cy="1.192" r="1.192" transform="translate(0.196 0.196)"/><path class="ad" d="M-3768.722,1686.835a1.389,1.389,0,0,1-1.388-1.387,1.389,1.389,0,0,1,1.388-1.388,1.39,1.39,0,0,1,1.388,1.388A1.389,1.389,0,0,1-3768.722,1686.835Zm0-2.384a1,1,0,0,0-1,1,1,1,0,0,0,1,1,1,1,0,0,0,1-1A1,1,0,0,0-3768.722,1684.451Z" transform="translate(3770.11 -1684.059)"/></g><g transform="translate(37.671 12.729)"><circle class="i" cx="1.192" cy="1.192" r="1.192" transform="translate(0.196 0.196)"/><path class="ad" d="M-3753.62,1686.835a1.39,1.39,0,0,1-1.388-1.387,1.39,1.39,0,0,1,1.388-1.388,1.39,1.39,0,0,1,1.388,1.388A1.39,1.39,0,0,1-3753.62,1686.835Zm0-2.384a1,1,0,0,0-1,1,1,1,0,0,0,1,1,1,1,0,0,0,1-1A1,1,0,0,0-3753.62,1684.451Z" transform="translate(3755.008 -1684.059)"/></g><path class="ac" d="M-3752.093,1682.906a.222.222,0,0,1-.21-.152,1.587,1.587,0,0,0-1.561-1.177c-1.009,0-1.409,1.165-1.413,1.177a.221.221,0,0,1-.28.14.222.222,0,0,1-.141-.28,2.124,2.124,0,0,1,1.834-1.48,2.036,2.036,0,0,1,1.98,1.48.22.22,0,0,1-.14.28A.211.211,0,0,1-3752.093,1682.906Z" transform="translate(3792.886 -1670.467)"/><path class="ac" d="M-3770.126,1682.906a.22.22,0,0,0,.209-.152,1.59,1.59,0,0,1,1.562-1.177c1.009,0,1.41,1.165,1.413,1.177a.221.221,0,0,0,.28.14.222.222,0,0,0,.14-.28,2.122,2.122,0,0,0-1.833-1.48,2.037,2.037,0,0,0-1.981,1.48.222.222,0,0,0,.14.28A.217.217,0,0,0-3770.126,1682.906Z" transform="translate(3797.204 -1670.467)"/></g></g><g transform="translate(29.479 22.663)"><text class="ak" transform="translate(0 10)"><tspan x="0" y="0">22:29</tspan></text></g><path class="i" d="M14.7,97.729v1.729h.865v1.729H14.7v1.729H1.729V97.729H14.7M15.131,96H1.3A1.3,1.3,0,0,0,0,97.3v6.052a1.3,1.3,0,0,0,1.3,1.3H15.131a1.3,1.3,0,0,0,1.3-1.3v-.432h.216a.648.648,0,0,0,.648-.648V98.378a.648.648,0,0,0-.648-.648h-.216V97.3A1.3,1.3,0,0,0,15.131,96Zm-1.3,2.594H2.594v3.459h11.24Z" transform="translate(302.75 -69.275)"/><path class="i" d="M28.416,6.624h-1.1a.368.368,0,0,0-.368.368v4.416a.368.368,0,0,0,.368.368h1.1a.368.368,0,0,0,.368-.368V6.992A.368.368,0,0,0,28.416,6.624ZM25.472,8.833h-1.1A.368.368,0,0,0,24,9.2v2.208a.368.368,0,0,0,.368.368h1.1a.368.368,0,0,0,.368-.368V9.2A.368.368,0,0,0,25.472,8.833Zm5.888-4.416h-1.1a.368.368,0,0,0-.368.368v6.624a.368.368,0,0,0,.368.368h1.1a.368.368,0,0,0,.368-.368V4.784A.368.368,0,0,0,31.361,4.416ZM34.3,2.208H33.2a.368.368,0,0,0-.368.368v8.833a.368.368,0,0,0,.368.368h1.1a.368.368,0,0,0,.368-.368V2.576A.368.368,0,0,0,34.3,2.208ZM37.249,0h-1.1a.368.368,0,0,0-.368.368V11.409a.368.368,0,0,0,.368.368h1.1a.368.368,0,0,0,.368-.368V.368A.368.368,0,0,0,37.249,0Z" transform="translate(256.225 23.056)"/><path class="i" d="M16.946,35.28a12.409,12.409,0,0,0-16.809,0,.424.424,0,0,0-.009.613l.914.907a.433.433,0,0,0,.6.01,10.24,10.24,0,0,1,13.8,0,.434.434,0,0,0,.6-.01l.914-.907a.424.424,0,0,0-.01-.613Zm-8.4,5.261a1.708,1.708,0,1,0,1.708,1.708A1.708,1.708,0,0,0,8.541,40.54Zm5.409-2.231a8.193,8.193,0,0,0-10.818,0,.422.422,0,0,0-.015.618l.919.907a.436.436,0,0,0,.588.021,6.011,6.011,0,0,1,7.833,0,.435.435,0,0,0,.588-.021l.919-.907A.422.422,0,0,0,13.95,38.309Z" transform="translate(254.493 -8.944)"/></g></g><g transform="translate(27.155 29.635)"><path class="g" d="M2514.244,659.407H2233.755c-20.31,0-36.772,19.354-36.772,43.229v651.249c0,23.873,16.462,43.227,36.772,43.227h280.489c20.311,0,36.774-19.354,36.774-43.227V702.635C2551.018,678.761,2534.555,659.407,2514.244,659.407Zm28.979,693.575c0,21.212-14.456,38.41-32.288,38.41h-273.87c-17.833,0-32.289-17.2-32.289-38.41V707.464c0-21.212,14.456-38.41,32.289-38.41h56.606c2.67,0,4.834,2.576,4.834,5.753v10.459c0,4.91,3.346,8.89,7.474,8.89h136.042c4.126,0,7.473-3.98,7.473-8.89V674.807c0-3.177,2.164-5.753,4.834-5.753h56.606c17.833,0,32.288,17.2,32.288,38.41Z" transform="translate(-2196.983 -659.407)"/></g><rect class="al" width="83.53" height="4.577" rx="1.038" transform="translate(158.031 46.462)"/><rect class="al" width="4.577" height="4.577" rx="1.038" transform="translate(246.139 46.462)"/><rect class="al" width="83.53" height="3.623" rx="0.822" transform="translate(164.897 741.674)"/></g></g></svg>