
<svg xmlns="http://www.w3.org/2000/svg" xmlns:xlink="http://www.w3.org/1999/xlink" width="414" height="500" viewBox="0 0 414 500"><defs><style>.a,.j,.k,.l{fill:#fff;}.a{stroke:#707070;}.b{fill:#6c68fd;}.c,.w{fill:none;}.d{clip-path:url(#a);}.e{clip-path:url(#b);}.f{fill:#f8f8f8;}.g{clip-path:url(#e);}.h{fill:#e8eefe;}.i,.p{fill:#3c40c6;}.k{font-size:6px;font-family:GothamRounded-Book, Gotham Rounded;}.l{font-size:12px;font-family:GothamRounded-Bold, Gotham Rounded;font-weight:700;}.m{fill:#2c3e50;}.n{fill:#5c6573;}.o,.q{fill:#ffa801;}.p{opacity:0.06;}.q,.u{opacity:0.1;}.r,.t{fill:#ef5777;}.s,.u{fill:#1dd1a1;}.t{opacity:0.07;}.v{fill:url(#n);}.w{stroke:#fff;stroke-linecap:round;opacity:0.3;}.x{fill:#9b9b9b;}.y{filter:url(#o);}.z{filter:url(#l);}.aa{filter:url(#j);}.ab{filter:url(#h);}.ac{filter:url(#f);}.ad{filter:url(#c);}</style><clipPath id="a"><rect class="a" width="414" height="500" transform="translate(0 2029)"/></clipPath><clipPath id="b"><rect class="c" width="245.718" height="444.17"/></clipPath><filter id="c" x="84.188" y="73.226" width="245.718" height="444.17" filterUnits="userSpaceOnUse"><feOffset input="SourceAlpha"/><feGaussianBlur stdDeviation="8" result="d"/><feFlood flood-color="#004063" flood-opacity="0.149"/><feComposite operator="in" in2="d"/><feComposite in="SourceGraphic"/></filter><clipPath id="e"><rect class="b" width="177.793" height="375.98" rx="17" transform="translate(458.15 2002.844)"/></clipPath><filter id="f" x="119.865" y="265.104" width="89.118" height="78.431" filterUnits="userSpaceOnUse"><feOffset input="SourceAlpha"/><feGaussianBlur stdDeviation="2" result="g"/><feFlood flood-color="#00264d" flood-opacity="0.161"/><feComposite operator="in" in2="g"/><feComposite in="SourceGraphic"/></filter><filter id="h" x="204.306" y="265.104" width="89.118" height="78.431" filterUnits="userSpaceOnUse"><feOffset input="SourceAlpha"/><feGaussianBlur stdDeviation="2" result="i"/><feFlood flood-color="#00264d" flood-opacity="0.161"/><feComposite operator="in" in2="i"/><feComposite in="SourceGraphic"/></filter><filter id="j" x="119.865" y="338.545" width="89.118" height="78.431" filterUnits="userSpaceOnUse"><feOffset input="SourceAlpha"/><feGaussianBlur stdDeviation="2" result="k"/><feFlood flood-color="#00264d" flood-opacity="0.161"/><feComposite operator="in" in2="k"/><feComposite in="SourceGraphic"/></filter><filter id="l" x="204.306" y="338.545" width="89.118" height="78.431" filterUnits="userSpaceOnUse"><feOffset input="SourceAlpha"/><feGaussianBlur stdDeviation="2" result="m"/><feFlood flood-color="#00264d" flood-opacity="0.161"/><feComposite operator="in" in2="m"/><feComposite in="SourceGraphic"/></filter><linearGradient id="n" x1="0.495" y1="0.053" x2="0.566" y2="0.899" gradientUnits="objectBoundingBox"><stop offset="0" stop-color="#00cbe4"/><stop offset="1" stop-color="#00e5a5"/></linearGradient><filter id="o" x="120" y="441" width="173.423" height="64.157" filterUnits="userSpaceOnUse"><feOffset input="SourceAlpha"/><feGaussianBlur stdDeviation="2" result="p"/><feFlood flood-opacity="0.161"/><feComposite operator="in" in2="p"/><feComposite in="SourceGraphic"/></filter></defs><g class="d" transform="translate(0 -2029)"><rect class="b" width="927.124" height="344.434" rx="172.217" transform="matrix(0.899, 0.438, -0.438, 0.899, -367.152, 1857)"/><g class="e" transform="translate(84.188 2102.226)"><g class="ad" transform="matrix(1, 0, 0, 1, -84.19, -73.23)"><rect class="f" width="197.718" height="396.17" rx="26" transform="translate(108.19 97.23)"/></g><g class="g" transform="translate(-424.188 -1969.226)"><path class="h" d="M0,0H178.389V410.894H0Z" transform="translate(458.017 2001.814)"/><rect class="c" width="178.086" height="343.558" transform="translate(458.169 2028.982)"/><path class="i" d="M0,0H178.524V195.067c0,6.381-4.477,11.554-10,11.554H10c-5.523,0-10-5.173-10-11.554Z" transform="translate(457.882 2002.64)"/><path class="j" d="M256.707,1562.017H304.07a10.47,10.47,0,0,1,10.474,10.465h0a10.47,10.47,0,0,1-10.474,10.466H256.707a10.471,10.471,0,0,1-10.475-10.466h0A10.47,10.47,0,0,1,256.707,1562.017Z" transform="translate(225.616 536.746)"/><g transform="translate(552.61 2098.763)"><path class="c" d="M391.051,1562.017h47.363a10.47,10.47,0,0,1,10.475,10.465h0a10.471,10.471,0,0,1-10.475,10.466H391.051a10.47,10.47,0,0,1-10.474-10.466h0A10.47,10.47,0,0,1,391.051,1562.017Z" transform="translate(-380.577 -1562.017)"/><path class="j" d="M438.415,1582.948H391.051a10.465,10.465,0,1,1,0-20.931h47.363a10.465,10.465,0,1,1,0,20.931Zm-47.363-20.021a9.555,9.555,0,1,0,0,19.111h47.363a9.555,9.555,0,1,0,0-19.111Z" transform="translate(-380.577 -1562.017)"/></g><g transform="translate(471.848 2077.872)"><text class="k" transform="translate(0 6)"><tspan x="0" y="0">Balance</tspan></text></g><g transform="translate(474.848 2008.872)"><text class="k" transform="translate(0 6)"><tspan x="0" y="0">22:29</tspan></text></g><path class="j" d="M5.6-14.24V-14c-2.52.26-4.2,1.74-4.2,3.94,0,2.38,1.42,3.48,4.3,4.26v3.18A7.638,7.638,0,0,1,3.14-3.74,1.454,1.454,0,0,0,2.36-4,1.341,1.341,0,0,0,.98-2.64a1.354,1.354,0,0,0,.68,1.2A10,10,0,0,0,5.6-.04V1.04a1.04,1.04,0,0,0,2.08,0V-.02c2.52-.28,4.24-1.72,4.24-3.96s-1.3-3.48-4.34-4.3v-3.04a7.654,7.654,0,0,1,1.66.68,1.459,1.459,0,0,0,.7.18A1.332,1.332,0,0,0,11.3-11.8a1.345,1.345,0,0,0-.72-1.2,8.4,8.4,0,0,0-2.9-.96v-.28a1.033,1.033,0,0,0-1.04-1.04A1.033,1.033,0,0,0,5.6-14.24ZM9-3.82c0,.72-.48,1.16-1.42,1.3V-5.3C8.66-4.92,9-4.48,9-3.82ZM4.32-10.24c0-.64.42-1.12,1.38-1.26v2.7C4.6-9.2,4.32-9.62,4.32-10.24ZM19.14.24c3.12,0,5.04-1.94,5.04-4.58v-.04c0-2.6-1.86-3.6-3.76-3.92l2.74-2.62a2.233,2.233,0,0,0,.92-1.72A1.394,1.394,0,0,0,22.52-14H15.7a1.332,1.332,0,0,0-1.32,1.32,1.332,1.332,0,0,0,1.32,1.32H20L17.28-8.62a1.739,1.739,0,0,0-.66,1.26,1.332,1.332,0,0,0,1.32,1.32h.48c1.72,0,2.74.64,2.74,1.78v.04a1.756,1.756,0,0,1-1.98,1.7,4,4,0,0,1-2.74-1.04,1.463,1.463,0,0,0-.98-.38,1.5,1.5,0,0,0-1.48,1.48,1.519,1.519,0,0,0,.52,1.1A6.845,6.845,0,0,0,19.14.24Zm7.32-1.86v.04A1.683,1.683,0,0,0,28.2.12a1.683,1.683,0,0,0,1.74-1.7v-.04a1.683,1.683,0,0,0-1.74-1.7A1.683,1.683,0,0,0,26.46-1.62ZM37.26.24c3.08,0,5.22-1.88,5.22-4.84v-.04c0-3.16-2.14-4.48-4.9-4.48a6.848,6.848,0,0,0-1.84.24l.16-2.42h4.72a1.357,1.357,0,0,0,1.36-1.34A1.374,1.374,0,0,0,40.62-14H34.54a1.366,1.366,0,0,0-1.36,1.32L32.9-7.94a1.306,1.306,0,0,0,.56,1.24,2.371,2.371,0,0,0,1.4.62,11.314,11.314,0,0,1,2.12-.36c1.46,0,2.48.7,2.48,1.9v.04c0,1.24-.96,1.94-2.26,1.94a4.316,4.316,0,0,1-2.66-.9,1.289,1.289,0,0,0-.84-.28,1.486,1.486,0,0,0-1.46,1.48,1.428,1.428,0,0,0,.62,1.18A7.154,7.154,0,0,0,37.26.24Zm13.68,0c3.74,0,6.24-3.18,6.24-7.24v-.04c0-4.06-2.5-7.2-6.2-7.2-3.72,0-6.24,3.18-6.24,7.24v.04C44.74-2.9,47.2.24,50.94.24Zm.04-2.78c-1.86,0-3.08-1.9-3.08-4.46v-.04c0-2.56,1.2-4.42,3.04-4.42S54.02-9.54,54.02-7v.04C54.02-4.42,52.84-2.54,50.98-2.54ZM65.54.24c3.74,0,6.24-3.18,6.24-7.24v-.04c0-4.06-2.5-7.2-6.2-7.2-3.72,0-6.24,3.18-6.24,7.24v.04C59.34-2.9,61.8.24,65.54.24Zm.04-2.78c-1.86,0-3.08-1.9-3.08-4.46v-.04c0-2.56,1.2-4.42,3.04-4.42S68.62-9.54,68.62-7v.04C68.62-4.42,67.44-2.54,65.58-2.54Zm8,.92v.04A1.683,1.683,0,0,0,75.32.12a1.683,1.683,0,0,0,1.74-1.7v-.04a1.683,1.683,0,0,0-1.74-1.7A1.683,1.683,0,0,0,73.58-1.62Z" transform="translate(471.848 2070.705)"/><text class="l" transform="translate(552.78 2070.711)"><tspan x="0" y="0">00</tspan></text><path class="i" d="M.72-.5a.488.488,0,0,0,.5.5H2.808A2.8,2.8,0,0,0,5.784-2.8v-.016A2.791,2.791,0,0,0,2.808-5.6H1.216a.488.488,0,0,0-.5.5ZM1.7-.9V-4.7h1.1A1.838,1.838,0,0,1,4.752-2.8v.016A1.825,1.825,0,0,1,2.808-.9ZM7.592-2.408a1.143,1.143,0,0,1,1.1-1.112A1.1,1.1,0,0,1,9.76-2.408ZM10.32-.464a.423.423,0,0,0,.128-.3.381.381,0,0,0-.384-.392.36.36,0,0,0-.248.088,1.518,1.518,0,0,1-1,.368A1.179,1.179,0,0,1,7.6-1.768h2.648a.453.453,0,0,0,.456-.464A2,2,0,0,0,8.7-4.312a2.1,2.1,0,0,0-2.064,2.2V-2.1A2.108,2.108,0,0,0,8.8.1,2.169,2.169,0,0,0,10.32-.464ZM11.7.84a.484.484,0,0,0,.968,0v-1.5A1.725,1.725,0,0,0,14.1.088,2.021,2.021,0,0,0,16.064-2.1V-2.12A2.021,2.021,0,0,0,14.1-4.312a1.691,1.691,0,0,0-1.44.792v-.264a.485.485,0,0,0-.488-.488.478.478,0,0,0-.48.488ZM13.872-.752A1.274,1.274,0,0,1,12.64-2.1V-2.12a1.274,1.274,0,0,1,1.232-1.352A1.251,1.251,0,0,1,15.08-2.12V-2.1A1.237,1.237,0,0,1,13.872-.752Zm5.2.848a2.208,2.208,0,0,0,2.264-2.2V-2.12a2.188,2.188,0,0,0-2.248-2.192A2.208,2.208,0,0,0,16.832-2.1v.016A2.185,2.185,0,0,0,19.072.1Zm.016-.848A1.3,1.3,0,0,1,17.8-2.1V-2.12a1.268,1.268,0,0,1,1.272-1.344,1.306,1.306,0,0,1,1.3,1.36v.016A1.267,1.267,0,0,1,19.088-.752Zm4.68.832c.88,0,1.568-.44,1.568-1.328v-.016c0-.76-.7-1.04-1.312-1.232-.5-.16-.952-.288-.952-.6v-.016c0-.24.216-.416.592-.416a2.3,2.3,0,0,1,.992.288.38.38,0,0,0,.192.048.389.389,0,0,0,.4-.392.411.411,0,0,0-.232-.368A2.9,2.9,0,0,0,23.688-4.3a1.347,1.347,0,0,0-1.5,1.288v.016c0,.808.7,1.064,1.32,1.24.5.152.944.264.944.592v.016c0,.28-.24.456-.656.456A2.23,2.23,0,0,1,22.576-1.1a.422.422,0,0,0-.208-.056.388.388,0,0,0-.392.392.371.371,0,0,0,.184.336A2.887,2.887,0,0,0,23.768.08Zm2.544-5.392a.5.5,0,0,0,.552.48.5.5,0,0,0,.552-.48V-5.36a.5.5,0,0,0-.552-.472.5.5,0,0,0-.552.472ZM26.384-.44a.476.476,0,0,0,.48.48.478.478,0,0,0,.488-.48V-3.784a.485.485,0,0,0-.488-.488.478.478,0,0,0-.48.488Zm3.648.512A1.926,1.926,0,0,0,30.7-.04a.417.417,0,0,0,.256-.376.408.408,0,0,0-.408-.4,2.288,2.288,0,0,1-.24.024.461.461,0,0,1-.52-.528V-3.392h.76a.42.42,0,0,0,.424-.416.42.42,0,0,0-.424-.416h-.76v-.72a.481.481,0,0,0-.48-.48.483.483,0,0,0-.488.48v.72h-.16a.413.413,0,0,0-.416.416.413.413,0,0,0,.416.416h.16v2.224A1.083,1.083,0,0,0,30.032.072Z" transform="translate(488.547 2111.599)"/><path class="j" d="M2.032-.328A.546.546,0,0,0,2.544.08h.1a.539.539,0,0,0,.512-.408L4.4-3.984,5.648-.328a.53.53,0,0,0,.5.408h.1A.548.548,0,0,0,6.76-.328l1.656-4.64a.564.564,0,0,0,.048-.2.482.482,0,0,0-.488-.472.5.5,0,0,0-.48.352L6.208-1.432,4.944-5.264a.512.512,0,0,0-.5-.392H4.376a.519.519,0,0,0-.5.392L2.616-1.432,1.328-5.28A.5.5,0,0,0,.84-5.64a.492.492,0,0,0-.5.48.515.515,0,0,0,.04.192ZM9.264-5.312a.5.5,0,0,0,.552.48.5.5,0,0,0,.552-.48V-5.36a.5.5,0,0,0-.552-.472.5.5,0,0,0-.552.472ZM9.336-.44a.476.476,0,0,0,.48.48A.478.478,0,0,0,10.3-.44V-3.784a.485.485,0,0,0-.488-.488.478.478,0,0,0-.48.488Zm3.648.512a1.926,1.926,0,0,0,.664-.112A.417.417,0,0,0,13.9-.416a.408.408,0,0,0-.408-.4,2.289,2.289,0,0,1-.24.024.461.461,0,0,1-.52-.528V-3.392h.76a.42.42,0,0,0,.424-.416.42.42,0,0,0-.424-.416h-.76v-.72a.481.481,0,0,0-.48-.48.483.483,0,0,0-.488.48v.72h-.16a.413.413,0,0,0-.416.416.413.413,0,0,0,.416.416h.16v2.224A1.083,1.083,0,0,0,12.984.072ZM14.856-.44a.476.476,0,0,0,.48.48.478.478,0,0,0,.488-.48V-2.384a.94.94,0,0,1,.952-1.048c.576,0,.9.376.9,1.032V-.44a.478.478,0,0,0,.488.48.471.471,0,0,0,.48-.48V-2.7a1.448,1.448,0,0,0-1.5-1.616,1.531,1.531,0,0,0-1.32.736V-5.4a.483.483,0,0,0-.488-.48.476.476,0,0,0-.48.48ZM23.968-5.4a.478.478,0,0,0-.488-.48A.476.476,0,0,0,23-5.4v1.832a1.728,1.728,0,0,0-1.44-.744A2.016,2.016,0,0,0,19.6-2.12V-2.1A2.025,2.025,0,0,0,21.56.088,1.691,1.691,0,0,0,23-.7V-.44a.478.478,0,0,0,.488.48.476.476,0,0,0,.48-.48ZM21.792-3.472A1.268,1.268,0,0,1,23.016-2.12V-2.1A1.272,1.272,0,0,1,21.792-.752,1.257,1.257,0,0,1,20.576-2.1V-2.12A1.238,1.238,0,0,1,21.792-3.472ZM25.184-.44a.476.476,0,0,0,.48.48.483.483,0,0,0,.488-.48V-1.688c0-1,.472-1.528,1.16-1.648A.454.454,0,0,0,27.7-3.8a.449.449,0,0,0-.48-.48,1.343,1.343,0,0,0-1.064.928v-.432a.485.485,0,0,0-.488-.488.478.478,0,0,0-.48.488ZM29.5.088A1.717,1.717,0,0,0,30.88-.528v.16a.438.438,0,0,0,.472.408.461.461,0,0,0,.472-.464V-2.5a1.753,1.753,0,0,0-.456-1.3,1.893,1.893,0,0,0-1.4-.472,3.621,3.621,0,0,0-1.36.248.423.423,0,0,0-.264.384.4.4,0,0,0,.408.4.544.544,0,0,0,.152-.024,2.509,2.509,0,0,1,.936-.168c.68,0,1.048.32,1.048.92v.1a3.529,3.529,0,0,0-1.136-.176c-1.032,0-1.744.448-1.744,1.36v.016A1.349,1.349,0,0,0,29.5.088Zm.272-.7c-.464,0-.824-.232-.824-.64v-.016c0-.44.368-.7.992-.7a2.684,2.684,0,0,1,.96.168v.288C30.9-.984,30.416-.616,29.776-.616ZM34.3.072h.032a.535.535,0,0,0,.52-.416l.832-2.512L36.5-.344a.537.537,0,0,0,.528.416h.032A.563.563,0,0,0,37.6-.36l1.152-3.248a.8.8,0,0,0,.04-.216.449.449,0,0,0-.456-.448.483.483,0,0,0-.472.376L37.04-1.328l-.832-2.56a.514.514,0,0,0-.5-.384h-.056a.514.514,0,0,0-.5.384l-.824,2.56-.816-2.56a.494.494,0,0,0-.472-.384.453.453,0,0,0-.472.448.8.8,0,0,0,.048.248L33.76-.36A.55.55,0,0,0,34.3.072Z" transform="translate(567.773 2111.599)"/><path class="j" d="M.594-.2A.229.229,0,0,0,.822.03.231.231,0,0,0,1.056-.2V-3.336L2.394-1.368a.242.242,0,0,0,.2.12.232.232,0,0,0,.2-.12L4.14-3.342V-.21a.245.245,0,0,0,.24.24.24.24,0,0,0,.234-.24V-3.984a.238.238,0,0,0-.234-.234H4.326a.254.254,0,0,0-.222.126L2.6-1.836,1.1-4.092a.26.26,0,0,0-.222-.126H.828a.238.238,0,0,0-.234.234ZM6.174.978C6.642.978,6.942.744,7.212.1L8.424-2.79A.387.387,0,0,0,8.448-2.9a.228.228,0,0,0-.228-.228A.232.232,0,0,0,8-2.958L7.038-.516,5.958-2.952a.245.245,0,0,0-.234-.18A.229.229,0,0,0,5.49-2.9a.322.322,0,0,0,.03.126L6.816-.03,6.792.018C6.624.4,6.456.57,6.168.57A.954.954,0,0,1,5.832.516.351.351,0,0,0,5.718.492a.2.2,0,0,0-.2.2.211.211,0,0,0,.144.2A1.46,1.46,0,0,0,6.174.978ZM11.046-4a.253.253,0,0,0,.27.246A.255.255,0,0,0,11.592-4v-.078a.251.251,0,0,0-.276-.246.25.25,0,0,0-.27.246ZM11.088-.2a.231.231,0,0,0,.234.234A.226.226,0,0,0,11.55-.2V-2.9a.231.231,0,0,0-.234-.234.233.233,0,0,0-.228.234Zm1.536,0a.231.231,0,0,0,.234.234A.226.226,0,0,0,13.086-.2V-1.776a.913.913,0,0,1,.93-.972.827.827,0,0,1,.858.936V-.2a.231.231,0,0,0,.234.234A.229.229,0,0,0,15.336-.2V-1.926a1.133,1.133,0,0,0-1.188-1.242,1.175,1.175,0,0,0-1.062.606V-2.9a.231.231,0,0,0-.234-.234.233.233,0,0,0-.228.234Zm5.1.054,1.17-2.64a.32.32,0,0,0,.024-.114.228.228,0,0,0-.228-.228.221.221,0,0,0-.216.168L17.454-.528l-1-2.424a.234.234,0,0,0-.234-.18.233.233,0,0,0-.234.228.481.481,0,0,0,.03.126L17.178-.15a.287.287,0,0,0,.264.2h.024A.279.279,0,0,0,17.724-.15Zm2.112-1.572a1.069,1.069,0,0,1,1.008-1.056,1.022,1.022,0,0,1,.99,1.056ZM22.086-.4a.2.2,0,0,0,.072-.15.2.2,0,0,0-.2-.2.2.2,0,0,0-.132.054,1.268,1.268,0,0,1-.894.36,1.083,1.083,0,0,1-1.092-1.05H22.08A.215.215,0,0,0,22.3-1.6a1.461,1.461,0,0,0-1.44-1.572,1.53,1.53,0,0,0-1.488,1.614v.012A1.542,1.542,0,0,0,20.916.072,1.577,1.577,0,0,0,22.086-.4ZM24.138.06a.977.977,0,0,0,1.1-.93V-.882c0-.558-.516-.744-1-.888-.414-.126-.8-.24-.8-.534v-.012c0-.258.234-.45.6-.45a1.679,1.679,0,0,1,.81.24.232.232,0,0,0,.1.024.2.2,0,0,0,.2-.2.224.224,0,0,0-.114-.192,2.161,2.161,0,0,0-.99-.264A.939.939,0,0,0,23-2.268v.012c0,.57.54.738,1.026.876.408.114.774.234.774.546v.012c0,.3-.27.492-.642.492a1.743,1.743,0,0,1-.984-.33A.185.185,0,0,0,23.064-.7a.2.2,0,0,0-.2.2.209.209,0,0,0,.084.168A2.146,2.146,0,0,0,24.138.06Zm2.94-.006a1.167,1.167,0,0,0,.456-.084.193.193,0,0,0,.132-.18.2.2,0,0,0-.2-.2,1.307,1.307,0,0,1-.282.042.459.459,0,0,1-.522-.516V-2.694h.8a.207.207,0,0,0,.21-.2.211.211,0,0,0-.21-.2h-.8v-.732a.238.238,0,0,0-.234-.234.229.229,0,0,0-.228.234V-3.1H25.95a.206.206,0,0,0-.2.2.21.21,0,0,0,.2.2H26.2V-.822A.79.79,0,0,0,27.078.054ZM28.464-.2A.231.231,0,0,0,28.7.03.226.226,0,0,0,28.926-.2V-1.77a.9.9,0,0,1,.864-.978c.492,0,.8.342.8.924V-.2a.229.229,0,0,0,.228.234A.231.231,0,0,0,31.05-.2V-1.788a.864.864,0,0,1,.852-.96c.5,0,.8.336.8.936V-.2A.231.231,0,0,0,32.94.03.229.229,0,0,0,33.168-.2V-1.92a1.115,1.115,0,0,0-1.152-1.248,1.236,1.236,0,0,0-1.092.618,1.054,1.054,0,0,0-1-.618,1.133,1.133,0,0,0-1,.588V-2.9a.231.231,0,0,0-.234-.234.233.233,0,0,0-.228.234Zm5.982-1.518a1.069,1.069,0,0,1,1.008-1.056,1.022,1.022,0,0,1,.99,1.056ZM36.7-.4a.2.2,0,0,0,.072-.15.2.2,0,0,0-.2-.2.2.2,0,0,0-.132.054,1.268,1.268,0,0,1-.894.36,1.083,1.083,0,0,1-1.092-1.05H36.69a.215.215,0,0,0,.216-.216,1.461,1.461,0,0,0-1.44-1.572,1.53,1.53,0,0,0-1.488,1.614v.012A1.542,1.542,0,0,0,35.526.072,1.577,1.577,0,0,0,36.7-.4ZM37.722-.2a.231.231,0,0,0,.234.234A.226.226,0,0,0,38.184-.2V-1.776a.913.913,0,0,1,.93-.972.827.827,0,0,1,.858.936V-.2a.231.231,0,0,0,.234.234A.229.229,0,0,0,40.434-.2V-1.926a1.133,1.133,0,0,0-1.188-1.242,1.175,1.175,0,0,0-1.062.606V-2.9a.231.231,0,0,0-.234-.234.233.233,0,0,0-.228.234Zm4.734.258a1.167,1.167,0,0,0,.456-.084.193.193,0,0,0,.132-.18.2.2,0,0,0-.2-.2,1.307,1.307,0,0,1-.282.042.459.459,0,0,1-.522-.516V-2.694h.8a.207.207,0,0,0,.21-.2.211.211,0,0,0-.21-.2h-.8v-.732a.238.238,0,0,0-.234-.234.229.229,0,0,0-.228.234V-3.1h-.252a.206.206,0,0,0-.2.2.21.21,0,0,0,.2.2h.252V-.822A.79.79,0,0,0,42.456.054ZM44.868.06a.977.977,0,0,0,1.1-.93V-.882c0-.558-.516-.744-1-.888-.414-.126-.8-.24-.8-.534v-.012c0-.258.234-.45.6-.45a1.679,1.679,0,0,1,.81.24.232.232,0,0,0,.1.024.2.2,0,0,0,.2-.2.224.224,0,0,0-.114-.192,2.161,2.161,0,0,0-.99-.264.939.939,0,0,0-1.056.888v.012c0,.57.54.738,1.026.876.408.114.774.234.774.546v.012c0,.3-.27.492-.642.492a1.743,1.743,0,0,1-.984-.33A.185.185,0,0,0,43.794-.7a.2.2,0,0,0-.2.2.209.209,0,0,0,.084.168A2.146,2.146,0,0,0,44.868.06Z" transform="translate(472.455 2152.268)"/><path class="m" d="M.594-.21A.24.24,0,0,0,.828.03a.241.241,0,0,0,.24-.24V-1.632H2.274L3.456-.1A.276.276,0,0,0,3.678.03.248.248,0,0,0,3.918-.2.258.258,0,0,0,3.84-.378L2.8-1.722A1.221,1.221,0,0,0,3.918-2.94v-.012a1.16,1.16,0,0,0-.324-.828A1.656,1.656,0,0,0,2.4-4.2H.828a.24.24,0,0,0-.234.24Zm.474-1.848v-1.7h1.3c.678,0,1.074.312,1.074.828v.012c0,.54-.45.864-1.08.864Zm4,.336A1.069,1.069,0,0,1,6.078-2.778a1.022,1.022,0,0,1,.99,1.056ZM7.32-.4a.2.2,0,0,0,.072-.15.2.2,0,0,0-.2-.2.2.2,0,0,0-.132.054,1.268,1.268,0,0,1-.894.36A1.083,1.083,0,0,1,5.07-1.38H7.314A.215.215,0,0,0,7.53-1.6,1.461,1.461,0,0,0,6.09-3.168,1.53,1.53,0,0,0,4.6-1.554v.012A1.542,1.542,0,0,0,6.15.072,1.577,1.577,0,0,0,7.32-.4ZM9.228.048H9.24a.258.258,0,0,0,.252-.21l.78-2.262.774,2.262a.258.258,0,0,0,.252.21h.018a.274.274,0,0,0,.252-.21l.948-2.628a.43.43,0,0,0,.03-.126.222.222,0,0,0-.228-.216.227.227,0,0,0-.222.18L11.3-.612l-.78-2.334a.245.245,0,0,0-.24-.186H10.26a.237.237,0,0,0-.228.186L9.246-.612,8.466-2.94a.242.242,0,0,0-.234-.192A.228.228,0,0,0,8-2.91a.43.43,0,0,0,.03.126L8.97-.162A.275.275,0,0,0,9.228.048ZM14.19.066a1.359,1.359,0,0,0,1.122-.534v.282a.213.213,0,0,0,.222.216A.219.219,0,0,0,15.756-.2V-1.9a1.224,1.224,0,0,0-.318-.906,1.361,1.361,0,0,0-1-.342,2.446,2.446,0,0,0-1.014.21.212.212,0,0,0-.126.192.205.205,0,0,0,.2.2.236.236,0,0,0,.084-.018,1.937,1.937,0,0,1,.8-.174c.582,0,.924.288.924.846v.108a3.294,3.294,0,0,0-.954-.132c-.786,0-1.326.348-1.326,1V-.9A1.045,1.045,0,0,0,14.19.066ZM14.28-.3c-.42,0-.78-.228-.78-.618V-.93c0-.39.324-.642.906-.642a3.236,3.236,0,0,1,.912.132v.3A.938.938,0,0,1,14.28-.3Zm2.46.1a.231.231,0,0,0,.234.234A.229.229,0,0,0,17.2-.2V-1.26a1.263,1.263,0,0,1,1.092-1.416.229.229,0,0,0,.2-.234.222.222,0,0,0-.228-.234,1.284,1.284,0,0,0-1.068.828V-2.9a.231.231,0,0,0-.234-.234.233.233,0,0,0-.228.234ZM22-4.176a.231.231,0,0,0-.234-.234.226.226,0,0,0-.228.234v1.668a1.4,1.4,0,0,0-1.188-.66,1.522,1.522,0,0,0-1.482,1.614v.012A1.513,1.513,0,0,0,20.346.066a1.4,1.4,0,0,0,1.188-.69V-.2a.231.231,0,0,0,.234.234A.229.229,0,0,0,22-.2ZM20.43-2.754A1.153,1.153,0,0,1,21.552-1.56v.012a1.158,1.158,0,0,1-1.122,1.2,1.121,1.121,0,0,1-1.092-1.2V-1.56A1.1,1.1,0,0,1,20.43-2.754ZM24.054.06a.977.977,0,0,0,1.1-.93V-.882c0-.558-.516-.744-1-.888-.414-.126-.8-.24-.8-.534v-.012c0-.258.234-.45.6-.45a1.679,1.679,0,0,1,.81.24.232.232,0,0,0,.1.024.2.2,0,0,0,.2-.2.224.224,0,0,0-.114-.192,2.161,2.161,0,0,0-.99-.264.939.939,0,0,0-1.056.888v.012c0,.57.54.738,1.026.876.408.114.774.234.774.546v.012c0,.3-.27.492-.642.492a1.743,1.743,0,0,1-.984-.33A.185.185,0,0,0,22.98-.7a.2.2,0,0,0-.2.2.209.209,0,0,0,.084.168A2.146,2.146,0,0,0,24.054.06Z" transform="translate(472.455 2330.777)"/><g class="ac" transform="matrix(1, 0, 0, 1, 340, 1896)"><rect class="j" width="77.118" height="66.431" rx="4" transform="translate(125.87 271.1)"/></g><g class="ab" transform="matrix(1, 0, 0, 1, 340, 1896)"><rect class="j" width="77.118" height="66.431" rx="4" transform="translate(210.31 271.1)"/></g><path class="n" d="M-14.691-.312a.338.338,0,0,0,.342.342A.355.355,0,0,0-14.007-.2l.354-.81h2.04l.342.786a.38.38,0,0,0,.36.258.346.346,0,0,0,.348-.354A.321.321,0,0,0-10.6-.48l-1.56-3.48a.46.46,0,0,0-.438-.3h-.036a.468.468,0,0,0-.444.3l-1.56,3.48A.378.378,0,0,0-14.691-.312Zm1.32-1.356.738-1.7.738,1.7ZM-9.849-.33a.357.357,0,0,0,.36.36.359.359,0,0,0,.366-.36V-1.788a.692.692,0,0,1,.678-.786c.4,0,.642.276.642.768V-.33a.359.359,0,0,0,.366.36.357.357,0,0,0,.36-.36V-1.788c0-.51.282-.786.678-.786s.642.27.642.774V-.33a.359.359,0,0,0,.366.36.354.354,0,0,0,.36-.36V-2.022a1.065,1.065,0,0,0-1.11-1.212,1.275,1.275,0,0,0-1.068.558,1,1,0,0,0-.948-.558,1.135,1.135,0,0,0-.966.546v-.15A.364.364,0,0,0-9.489-3.2a.359.359,0,0,0-.36.366Zm5.7,0a.357.357,0,0,0,.36.36.359.359,0,0,0,.366-.36V-1.788a.692.692,0,0,1,.678-.786c.4,0,.642.276.642.768V-.33a.359.359,0,0,0,.366.36.357.357,0,0,0,.36-.36V-1.788c0-.51.282-.786.678-.786s.642.27.642.774V-.33A.359.359,0,0,0,.309.03a.354.354,0,0,0,.36-.36V-2.022A1.065,1.065,0,0,0-.441-3.234a1.275,1.275,0,0,0-1.068.558,1,1,0,0,0-.948-.558,1.135,1.135,0,0,0-.966.546v-.15A.364.364,0,0,0-3.789-3.2a.359.359,0,0,0-.36.366Zm7.206.4a1.656,1.656,0,0,0,1.7-1.65V-1.59A1.641,1.641,0,0,0,3.069-3.234,1.656,1.656,0,0,0,1.377-1.578v.012A1.638,1.638,0,0,0,3.057.072Zm.012-.636A.976.976,0,0,1,2.1-1.578V-1.59A.951.951,0,0,1,3.057-2.6a.979.979,0,0,1,.972,1.02v.012A.95.95,0,0,1,3.069-.564ZM8.307-2.838A.367.367,0,0,0,7.941-3.2a.364.364,0,0,0-.366.366V-1.38a.7.7,0,0,1-.714.78c-.432,0-.678-.276-.678-.768v-1.47A.364.364,0,0,0,5.817-3.2a.362.362,0,0,0-.36.366v1.686A1.088,1.088,0,0,0,6.585.066a1.14,1.14,0,0,0,.99-.558V-.33a.362.362,0,0,0,.366.36.362.362,0,0,0,.366-.36ZM9.213-.33a.357.357,0,0,0,.36.36.359.359,0,0,0,.366-.36V-1.788a.7.7,0,0,1,.714-.786c.432,0,.678.282.678.774V-.33A.359.359,0,0,0,11.7.03a.354.354,0,0,0,.36-.36V-2.022a1.086,1.086,0,0,0-1.128-1.212,1.148,1.148,0,0,0-.99.552v-.156A.364.364,0,0,0,9.573-3.2a.359.359,0,0,0-.36.366Zm4.782.384a1.444,1.444,0,0,0,.5-.084.312.312,0,0,0,.192-.282.306.306,0,0,0-.306-.3,1.716,1.716,0,0,1-.18.018.346.346,0,0,1-.39-.4V-2.544h.57a.315.315,0,0,0,.318-.312.315.315,0,0,0-.318-.312h-.57v-.54a.361.361,0,0,0-.36-.36.362.362,0,0,0-.366.36v.54h-.12a.31.31,0,0,0-.312.312.31.31,0,0,0,.312.312h.12V-.876A.812.812,0,0,0,13.995.054Z" transform="translate(503.795 2211.262)"/><path class="n" d="M-16.155-.336a.365.365,0,0,0,.372.366.364.364,0,0,0,.366-.366V-3.864a.364.364,0,0,0-.366-.366.365.365,0,0,0-.372.366Zm1.776.006a.357.357,0,0,0,.36.36.359.359,0,0,0,.366-.36V-1.788a.7.7,0,0,1,.714-.786c.432,0,.678.282.678.774V-.33A.359.359,0,0,0-11.9.03a.354.354,0,0,0,.36-.36V-2.022a1.086,1.086,0,0,0-1.128-1.212,1.148,1.148,0,0,0-.99.552v-.156a.364.364,0,0,0-.366-.366.359.359,0,0,0-.36.366ZM-9-.258l1.056-2.424a.435.435,0,0,0,.042-.174A.346.346,0,0,0-8.259-3.2a.361.361,0,0,0-.342.252L-9.429-.84l-.816-2.1a.366.366,0,0,0-.36-.264.363.363,0,0,0-.36.348.565.565,0,0,0,.042.18L-9.867-.258A.451.451,0,0,0-9.453.06h.036A.459.459,0,0,0-9-.258Zm2.2-1.548a.857.857,0,0,1,.822-.834.822.822,0,0,1,.8.834ZM-4.761-.348a.317.317,0,0,0,.1-.222.286.286,0,0,0-.288-.294A.27.27,0,0,0-5.139-.8a1.139,1.139,0,0,1-.75.276.884.884,0,0,1-.912-.8h1.986a.339.339,0,0,0,.342-.348,1.5,1.5,0,0,0-1.506-1.56,1.572,1.572,0,0,0-1.548,1.65v.012A1.581,1.581,0,0,0-5.9.072,1.627,1.627,0,0,0-4.761-.348ZM-2.643.06c.66,0,1.176-.33,1.176-1V-.948c0-.57-.522-.78-.984-.924-.372-.12-.714-.216-.714-.45v-.012c0-.18.162-.312.444-.312a1.728,1.728,0,0,1,.744.216.285.285,0,0,0,.144.036.292.292,0,0,0,.3-.294.308.308,0,0,0-.174-.276,2.178,2.178,0,0,0-1-.258,1.011,1.011,0,0,0-1.128.966v.012c0,.606.522.8.99.93.372.114.708.2.708.444v.012c0,.21-.18.342-.492.342a1.672,1.672,0,0,1-.912-.306.317.317,0,0,0-.156-.042.291.291,0,0,0-.294.294.278.278,0,0,0,.138.252A2.165,2.165,0,0,0-2.643.06ZM.279.054a1.444,1.444,0,0,0,.5-.084A.312.312,0,0,0,.969-.312a.306.306,0,0,0-.306-.3,1.716,1.716,0,0,1-.18.018.346.346,0,0,1-.39-.4V-2.544h.57a.315.315,0,0,0,.318-.312.315.315,0,0,0-.318-.312H.093v-.54a.361.361,0,0,0-.36-.36.362.362,0,0,0-.366.36v.54h-.12a.31.31,0,0,0-.312.312.31.31,0,0,0,.312.312h.12V-.876A.812.812,0,0,0,.279.054Zm1.4-.384a.357.357,0,0,0,.36.36.359.359,0,0,0,.366-.36V-1.788a.692.692,0,0,1,.678-.786c.4,0,.642.276.642.768V-.33a.359.359,0,0,0,.366.36.357.357,0,0,0,.36-.36V-1.788c0-.51.282-.786.678-.786s.642.27.642.774V-.33a.359.359,0,0,0,.366.36A.354.354,0,0,0,6.5-.33V-2.022a1.065,1.065,0,0,0-1.11-1.212,1.275,1.275,0,0,0-1.068.558,1,1,0,0,0-.948-.558,1.135,1.135,0,0,0-.966.546v-.15A.364.364,0,0,0,2.043-3.2a.359.359,0,0,0-.36.366ZM7.929-1.806a.857.857,0,0,1,.822-.834.822.822,0,0,1,.8.834ZM9.975-.348a.317.317,0,0,0,.1-.222.286.286,0,0,0-.288-.294A.27.27,0,0,0,9.6-.8a1.139,1.139,0,0,1-.75.276.884.884,0,0,1-.912-.8H9.921a.339.339,0,0,0,.342-.348,1.5,1.5,0,0,0-1.506-1.56,1.572,1.572,0,0,0-1.548,1.65v.012A1.581,1.581,0,0,0,8.835.072,1.627,1.627,0,0,0,9.975-.348Zm1.032.018a.357.357,0,0,0,.36.36.359.359,0,0,0,.366-.36V-1.788a.7.7,0,0,1,.714-.786c.432,0,.678.282.678.774V-.33a.359.359,0,0,0,.366.36.354.354,0,0,0,.36-.36V-2.022a1.086,1.086,0,0,0-1.128-1.212,1.148,1.148,0,0,0-.99.552v-.156a.364.364,0,0,0-.366-.366.359.359,0,0,0-.36.366Zm4.782.384a1.444,1.444,0,0,0,.5-.084.312.312,0,0,0,.192-.282.306.306,0,0,0-.306-.3,1.716,1.716,0,0,1-.18.018.346.346,0,0,1-.39-.4V-2.544h.57a.315.315,0,0,0,.318-.312.315.315,0,0,0-.318-.312H15.6v-.54a.361.361,0,0,0-.36-.36.362.362,0,0,0-.366.36v.54h-.12a.31.31,0,0,0-.312.312.31.31,0,0,0,.312.312h.12V-.876A.812.812,0,0,0,15.789.054Z" transform="translate(589.166 2211.262)"/><path class="i" d="M2.52-6.408V-6.3A1.845,1.845,0,0,0,.63-4.527c0,1.071.639,1.566,1.935,1.917v1.431a3.437,3.437,0,0,1-1.152-.5A.654.654,0,0,0,1.062-1.8a.6.6,0,0,0-.621.612.609.609,0,0,0,.306.54,4.5,4.5,0,0,0,1.773.63V.468a.468.468,0,0,0,.936,0V-.009C4.59-.135,5.364-.783,5.364-1.791S4.779-3.357,3.411-3.726V-5.094a3.444,3.444,0,0,1,.747.306.657.657,0,0,0,.315.081.6.6,0,0,0,.612-.6.605.605,0,0,0-.324-.54,3.782,3.782,0,0,0-1.305-.432v-.126a.465.465,0,0,0-.468-.468A.465.465,0,0,0,2.52-6.408ZM4.05-1.719c0,.324-.216.522-.639.585V-2.385C3.9-2.214,4.05-2.016,4.05-1.719ZM1.944-4.608c0-.288.189-.5.621-.567V-3.96C2.07-4.14,1.944-4.329,1.944-4.608ZM7.416-.63A.684.684,0,0,0,8.1.054.684.684,0,0,0,8.784-.63V-5.706A.684.684,0,0,0,8.1-6.39H8.082a2.478,2.478,0,0,0-.648.117l-.891.261a.614.614,0,0,0-.459.594.607.607,0,0,0,.6.594A1.133,1.133,0,0,0,6.93-4.86l.486-.126Zm2.7-.1v.018A.757.757,0,0,0,10.9.054a.757.757,0,0,0,.783-.765V-.729a.757.757,0,0,0-.783-.765A.757.757,0,0,0,10.116-.729Zm4.86.837A2.141,2.141,0,0,0,17.325-2.07v-.018A1.93,1.93,0,0,0,15.12-4.1,3.082,3.082,0,0,0,14.292-4l.072-1.089h2.124a.611.611,0,0,0,.612-.6.619.619,0,0,0-.612-.612H13.752a.615.615,0,0,0-.612.594l-.126,2.133a.588.588,0,0,0,.252.558,1.067,1.067,0,0,0,.63.279A5.091,5.091,0,0,1,14.85-2.9c.657,0,1.116.315,1.116.855v.018c0,.558-.432.873-1.017.873a1.942,1.942,0,0,1-1.2-.4.58.58,0,0,0-.378-.126.668.668,0,0,0-.657.666A.643.643,0,0,0,13-.486,3.219,3.219,0,0,0,14.976.108Zm6.156,0c1.683,0,2.808-1.431,2.808-3.258v-.018c0-1.827-1.125-3.24-2.79-3.24S18.342-4.977,18.342-3.15v.018C18.342-1.305,19.449.108,21.132.108Zm.018-1.251c-.837,0-1.386-.855-1.386-2.007v-.018c0-1.152.54-1.989,1.368-1.989s1.386.864,1.386,2.007v.018C22.518-1.989,21.987-1.143,21.15-1.143ZM27.7.108c1.683,0,2.808-1.431,2.808-3.258v-.018c0-1.827-1.125-3.24-2.79-3.24S24.912-4.977,24.912-3.15v.018C24.912-1.305,26.019.108,27.7.108Zm.018-1.251c-.837,0-1.386-.855-1.386-2.007v-.018c0-1.152.54-1.989,1.368-1.989s1.386.864,1.386,2.007v.018C29.088-1.989,28.557-1.143,27.72-1.143Zm3.6.414v.018A.757.757,0,0,0,32.1.054a.757.757,0,0,0,.783-.765V-.729a.757.757,0,0,0-.783-.765A.757.757,0,0,0,31.32-.729Zm5.166.837c1.683,0,2.808-1.431,2.808-3.258v-.018c0-1.827-1.125-3.24-2.79-3.24S33.7-4.977,33.7-3.15v.018C33.7-1.305,34.8.108,36.486.108ZM36.5-1.143c-.837,0-1.386-.855-1.386-2.007v-.018c0-1.152.54-1.989,1.368-1.989s1.386.864,1.386,2.007v.018C37.872-1.989,37.341-1.143,36.5-1.143ZM43.056.108c1.683,0,2.808-1.431,2.808-3.258v-.018c0-1.827-1.125-3.24-2.79-3.24S40.266-4.977,40.266-3.15v.018C40.266-1.305,41.373.108,43.056.108Zm.018-1.251c-.837,0-1.386-.855-1.386-2.007v-.018c0-1.152.54-1.989,1.368-1.989s1.386.864,1.386,2.007v.018C44.442-1.989,43.911-1.143,43.074-1.143Z" transform="translate(480.402 2224.302)"/><path class="o" d="M3.276.108c1.683,0,2.808-1.431,2.808-3.258v-.018c0-1.827-1.125-3.24-2.79-3.24S.486-4.977.486-3.15v.018C.486-1.305,1.593.108,3.276.108Zm.018-1.251C2.457-1.143,1.908-2,1.908-3.15v-.018c0-1.152.54-1.989,1.368-1.989s1.386.864,1.386,2.007v.018C4.662-1.989,4.131-1.143,3.294-1.143ZM8.127-.63a.684.684,0,0,0,.684.684A.684.684,0,0,0,9.495-.63V-5.706a.684.684,0,0,0-.684-.684H8.793a2.478,2.478,0,0,0-.648.117l-.891.261a.614.614,0,0,0-.459.594.607.607,0,0,0,.6.594,1.133,1.133,0,0,0,.243-.036l.486-.126Z" transform="translate(583.786 2224.302)"/><ellipse class="p" cx="13.845" cy="13.832" rx="13.845" ry="13.832" transform="translate(489.583 2172.597)"/><ellipse class="q" cx="13.934" cy="13.922" rx="13.934" ry="13.922" transform="translate(575.843 2172.418)"/><g class="aa" transform="matrix(1, 0, 0, 1, 340, 1896)"><rect class="j" width="77.118" height="66.431" rx="4" transform="translate(125.87 344.55)"/></g><g class="z" transform="matrix(1, 0, 0, 1, 340, 1896)"><rect class="j" width="77.118" height="66.431" rx="4" transform="translate(210.31 344.55)"/></g><path class="n" d="M-8.208.072A2.146,2.146,0,0,0-6.684-.492a.355.355,0,0,0,.12-.264A.351.351,0,0,0-6.912-1.1a.336.336,0,0,0-.222.084,1.505,1.505,0,0,1-1.05.4A1.415,1.415,0,0,1-9.57-2.1v-.012A1.414,1.414,0,0,1-8.184-3.594a1.523,1.523,0,0,1,1,.378.361.361,0,0,0,.222.072.359.359,0,0,0,.366-.36A.369.369,0,0,0-6.738-3.8a2.2,2.2,0,0,0-1.44-.474A2.125,2.125,0,0,0-10.344-2.1v.012A2.112,2.112,0,0,0-8.208.072ZM-4.9.066A1.288,1.288,0,0,0-3.87-.4v.12A.328.328,0,0,0-3.516.03a.346.346,0,0,0,.354-.348v-1.56A1.315,1.315,0,0,0-3.5-2.856a1.42,1.42,0,0,0-1.05-.354,2.716,2.716,0,0,0-1.02.186.317.317,0,0,0-.2.288.3.3,0,0,0,.306.3.408.408,0,0,0,.114-.018,1.881,1.881,0,0,1,.7-.126c.51,0,.786.24.786.69v.078a2.647,2.647,0,0,0-.852-.132c-.774,0-1.308.336-1.308,1.02v.012A1.012,1.012,0,0,0-4.9.066Zm.2-.528c-.348,0-.618-.174-.618-.48V-.954c0-.33.276-.528.744-.528a2.013,2.013,0,0,1,.72.126v.216C-3.852-.738-4.218-.462-4.7-.462ZM-2.292.63a.357.357,0,0,0,.36.36A.359.359,0,0,0-1.566.63V-.492A1.294,1.294,0,0,0-.486.066,1.516,1.516,0,0,0,.984-1.578V-1.59A1.515,1.515,0,0,0-.486-3.234a1.268,1.268,0,0,0-1.08.594v-.2A.364.364,0,0,0-1.932-3.2a.359.359,0,0,0-.36.366ZM-.66-.564a.955.955,0,0,1-.924-1.014V-1.59A.955.955,0,0,1-.66-2.6.938.938,0,0,1,.246-1.59v.012A.928.928,0,0,1-.66-.564Zm2.382-3.42a.376.376,0,0,0,.414.36.376.376,0,0,0,.414-.36V-4.02a.371.371,0,0,0-.414-.354.371.371,0,0,0-.414.354ZM1.776-.33a.357.357,0,0,0,.36.36A.359.359,0,0,0,2.5-.33V-2.838A.364.364,0,0,0,2.136-3.2a.359.359,0,0,0-.36.366ZM4.512.054a1.444,1.444,0,0,0,.5-.084A.312.312,0,0,0,5.2-.312a.306.306,0,0,0-.306-.3,1.716,1.716,0,0,1-.18.018.346.346,0,0,1-.39-.4V-2.544H4.9a.315.315,0,0,0,.318-.312A.315.315,0,0,0,4.9-3.168h-.57v-.54a.361.361,0,0,0-.36-.36.362.362,0,0,0-.366.36v.54H3.48a.31.31,0,0,0-.312.312.31.31,0,0,0,.312.312H3.6V-.876A.812.812,0,0,0,4.512.054ZM6.828.066A1.288,1.288,0,0,0,7.86-.4v.12A.328.328,0,0,0,8.214.03a.346.346,0,0,0,.354-.348v-1.56a1.315,1.315,0,0,0-.342-.978,1.42,1.42,0,0,0-1.05-.354,2.716,2.716,0,0,0-1.02.186.317.317,0,0,0-.2.288.3.3,0,0,0,.306.3.408.408,0,0,0,.114-.018,1.881,1.881,0,0,1,.7-.126c.51,0,.786.24.786.69v.078a2.647,2.647,0,0,0-.852-.132c-.774,0-1.308.336-1.308,1.02v.012A1.012,1.012,0,0,0,6.828.066Zm.2-.528c-.348,0-.618-.174-.618-.48V-.954c0-.33.276-.528.744-.528a2.013,2.013,0,0,1,.72.126v.216C7.878-.738,7.512-.462,7.032-.462ZM9.48-.33a.357.357,0,0,0,.36.36.359.359,0,0,0,.366-.36V-4.05a.362.362,0,0,0-.366-.36.357.357,0,0,0-.36.36Z" transform="translate(503.92 2284.703)"/><path class="n" d="M-20.8-.246a.409.409,0,0,0,.384.306h.072a.4.4,0,0,0,.384-.306l.936-2.742.936,2.742a.4.4,0,0,0,.378.306h.072a.411.411,0,0,0,.384-.306l1.242-3.48a.423.423,0,0,0,.036-.15.361.361,0,0,0-.366-.354.376.376,0,0,0-.36.264l-.966,2.892-.948-2.874a.384.384,0,0,0-.372-.294h-.054a.389.389,0,0,0-.372.294l-.948,2.874-.966-2.886a.376.376,0,0,0-.366-.27.369.369,0,0,0-.378.36.386.386,0,0,0,.03.144Zm5.424-3.738a.376.376,0,0,0,.414.36.376.376,0,0,0,.414-.36V-4.02a.371.371,0,0,0-.414-.354.371.371,0,0,0-.414.354Zm.054,3.654a.357.357,0,0,0,.36.36.359.359,0,0,0,.366-.36V-2.838a.364.364,0,0,0-.366-.366.359.359,0,0,0-.36.366Zm2.736.384a1.444,1.444,0,0,0,.5-.084.312.312,0,0,0,.192-.282.306.306,0,0,0-.306-.3,1.716,1.716,0,0,1-.18.018.346.346,0,0,1-.39-.4V-2.544h.57a.315.315,0,0,0,.318-.312.315.315,0,0,0-.318-.312h-.57v-.54a.361.361,0,0,0-.36-.36.362.362,0,0,0-.366.36v.54h-.12a.31.31,0,0,0-.312.312.31.31,0,0,0,.312.312h.12V-.876A.812.812,0,0,0-12.582.054Zm1.4-.384a.357.357,0,0,0,.36.36.359.359,0,0,0,.366-.36V-1.788a.7.7,0,0,1,.714-.786c.432,0,.678.282.678.774V-.33a.359.359,0,0,0,.366.36.354.354,0,0,0,.36-.36V-2.022A1.086,1.086,0,0,0-9.462-3.234a1.148,1.148,0,0,0-.99.552V-4.05a.362.362,0,0,0-.366-.36.357.357,0,0,0-.36.36Zm6.834-3.72a.359.359,0,0,0-.366-.36.357.357,0,0,0-.36.36v1.374a1.3,1.3,0,0,0-1.08-.558A1.512,1.512,0,0,0-7.62-1.59v.012A1.519,1.519,0,0,0-6.15.066,1.268,1.268,0,0,0-5.07-.528v.2A.359.359,0,0,0-4.7.03a.357.357,0,0,0,.36-.36ZM-5.976-2.6A.951.951,0,0,1-5.058-1.59v.012A.954.954,0,0,1-5.976-.564a.943.943,0,0,1-.912-1.014V-1.59A.929.929,0,0,1-5.976-2.6ZM-3.432-.33a.357.357,0,0,0,.36.36.362.362,0,0,0,.366-.36v-.936c0-.75.354-1.146.87-1.236a.341.341,0,0,0,.288-.348.337.337,0,0,0-.36-.36,1.007,1.007,0,0,0-.8.7v-.324A.364.364,0,0,0-3.072-3.2a.359.359,0,0,0-.36.366Zm3.24.4A1.288,1.288,0,0,0,.84-.4v.12A.328.328,0,0,0,1.194.03a.346.346,0,0,0,.354-.348v-1.56a1.315,1.315,0,0,0-.342-.978A1.42,1.42,0,0,0,.156-3.21a2.716,2.716,0,0,0-1.02.186.317.317,0,0,0-.2.288.3.3,0,0,0,.306.3.408.408,0,0,0,.114-.018,1.881,1.881,0,0,1,.7-.126c.51,0,.786.24.786.69v.078a2.647,2.647,0,0,0-.852-.132c-.774,0-1.308.336-1.308,1.02v.012A1.012,1.012,0,0,0-.192.066Zm.2-.528c-.348,0-.618-.174-.618-.48V-.954c0-.33.276-.528.744-.528a2.013,2.013,0,0,1,.72.126v.216C.858-.738.492-.462.012-.462ZM3.4.054h.024a.4.4,0,0,0,.39-.312L4.44-2.142,5.058-.258a.4.4,0,0,0,.4.312h.024a.422.422,0,0,0,.4-.324l.864-2.436a.6.6,0,0,0,.03-.162A.337.337,0,0,0,6.432-3.2a.362.362,0,0,0-.354.282L5.46-1l-.624-1.92A.385.385,0,0,0,4.464-3.2H4.422a.385.385,0,0,0-.372.288L3.432-1,2.82-2.916A.37.37,0,0,0,2.466-3.2a.34.34,0,0,0-.354.336.6.6,0,0,0,.036.186L3-.27A.413.413,0,0,0,3.4.054Zm8.97-4.1a.359.359,0,0,0-.366-.36.357.357,0,0,0-.36.36v1.374a1.3,1.3,0,0,0-1.08-.558A1.512,1.512,0,0,0,9.1-1.59v.012A1.519,1.519,0,0,0,10.566.066a1.268,1.268,0,0,0,1.08-.594v.2a.359.359,0,0,0,.366.36.357.357,0,0,0,.36-.36ZM10.74-2.6a.951.951,0,0,1,.918,1.014v.012A.954.954,0,0,1,10.74-.564a.943.943,0,0,1-.912-1.014V-1.59A.929.929,0,0,1,10.74-2.6ZM14.2.066A1.288,1.288,0,0,0,15.228-.4v.12a.328.328,0,0,0,.354.306.346.346,0,0,0,.354-.348v-1.56a1.315,1.315,0,0,0-.342-.978,1.42,1.42,0,0,0-1.05-.354,2.716,2.716,0,0,0-1.02.186.317.317,0,0,0-.2.288.3.3,0,0,0,.306.3.408.408,0,0,0,.114-.018,1.881,1.881,0,0,1,.7-.126c.51,0,.786.24.786.69v.078a2.647,2.647,0,0,0-.852-.132c-.774,0-1.308.336-1.308,1.02v.012A1.012,1.012,0,0,0,14.2.066Zm.2-.528c-.348,0-.618-.174-.618-.48V-.954c0-.33.276-.528.744-.528a2.013,2.013,0,0,1,.72.126v.216C15.246-.738,14.88-.462,14.4-.462Zm3.438.516a1.444,1.444,0,0,0,.5-.084.312.312,0,0,0,.192-.282.306.306,0,0,0-.306-.3,1.716,1.716,0,0,1-.18.018.346.346,0,0,1-.39-.4V-2.544h.57a.315.315,0,0,0,.318-.312.315.315,0,0,0-.318-.312h-.57v-.54a.361.361,0,0,0-.36-.36.362.362,0,0,0-.366.36v.54h-.12a.31.31,0,0,0-.312.312.31.31,0,0,0,.312.312h.12V-.876A.812.812,0,0,0,17.838.054Zm1.86-1.86a.857.857,0,0,1,.822-.834.822.822,0,0,1,.8.834ZM21.744-.348a.317.317,0,0,0,.1-.222.286.286,0,0,0-.288-.294.27.27,0,0,0-.186.066,1.139,1.139,0,0,1-.75.276.884.884,0,0,1-.912-.8H21.69a.339.339,0,0,0,.342-.348,1.5,1.5,0,0,0-1.506-1.56,1.572,1.572,0,0,0-1.548,1.65v.012A1.581,1.581,0,0,0,20.6.072,1.627,1.627,0,0,0,21.744-.348Z" transform="translate(588.843 2284.703)"/><path class="r" d="M2.52-6.408V-6.3A1.845,1.845,0,0,0,.63-4.527c0,1.071.639,1.566,1.935,1.917v1.431a3.437,3.437,0,0,1-1.152-.5A.654.654,0,0,0,1.062-1.8a.6.6,0,0,0-.621.612.609.609,0,0,0,.306.54,4.5,4.5,0,0,0,1.773.63V.468a.468.468,0,0,0,.936,0V-.009C4.59-.135,5.364-.783,5.364-1.791S4.779-3.357,3.411-3.726V-5.094a3.444,3.444,0,0,1,.747.306.657.657,0,0,0,.315.081.6.6,0,0,0,.612-.6.605.605,0,0,0-.324-.54,3.782,3.782,0,0,0-1.305-.432v-.126a.465.465,0,0,0-.468-.468A.465.465,0,0,0,2.52-6.408ZM4.05-1.719c0,.324-.216.522-.639.585V-2.385C3.9-2.214,4.05-2.016,4.05-1.719ZM1.944-4.608c0-.288.189-.5.621-.567V-3.96C2.07-4.14,1.944-4.329,1.944-4.608ZM7.416-.63A.684.684,0,0,0,8.1.054.684.684,0,0,0,8.784-.63V-5.706A.684.684,0,0,0,8.1-6.39H8.082a2.478,2.478,0,0,0-.648.117l-.891.261a.614.614,0,0,0-.459.594.607.607,0,0,0,.6.594A1.133,1.133,0,0,0,6.93-4.86l.486-.126Zm2.7-.1v.018A.757.757,0,0,0,10.9.054a.757.757,0,0,0,.783-.765V-.729a.757.757,0,0,0-.783-.765A.757.757,0,0,0,10.116-.729Zm5.121.837a2.222,2.222,0,0,0,2.4-2.178v-.018A1.981,1.981,0,0,0,15.426-4.1a2.179,2.179,0,0,0-1.3.4c.09-.828.486-1.458,1.269-1.458a1.741,1.741,0,0,1,.927.252.754.754,0,0,0,.342.1.645.645,0,0,0,.657-.639.658.658,0,0,0-.36-.594,2.962,2.962,0,0,0-1.521-.378c-1.881,0-2.763,1.494-2.763,3.438v.018a3.115,3.115,0,0,0,.747,2.385A2.39,2.39,0,0,0,15.237.108ZM15.183-1.08a.973.973,0,0,1-1.1-.936v-.018c0-.531.4-.909,1.08-.909s1.1.387,1.1.918v.018C16.263-1.467,15.867-1.08,15.183-1.08ZM20.772.108c1.791,0,2.754-1.4,2.754-3.438v-.018a3.126,3.126,0,0,0-.747-2.376,2.281,2.281,0,0,0-1.818-.684,2.223,2.223,0,0,0-2.4,2.2v.018a1.992,1.992,0,0,0,2.25,2.034,1.916,1.916,0,0,0,1.278-.432c-.09.846-.5,1.431-1.278,1.431A1.848,1.848,0,0,1,19.8-1.431a.7.7,0,0,0-.36-.108.638.638,0,0,0-.657.63.658.658,0,0,0,.324.567A2.976,2.976,0,0,0,20.772.108ZM21.033-3.3c-.684,0-1.1-.387-1.1-.945v-.018a.947.947,0,0,1,1.071-.954.98.98,0,0,1,1.107.963v.018A.952.952,0,0,1,21.033-3.3ZM26.757.108A2.141,2.141,0,0,0,29.106-2.07v-.018A1.93,1.93,0,0,0,26.9-4.1,3.082,3.082,0,0,0,26.073-4l.072-1.089h2.124a.611.611,0,0,0,.612-.6.619.619,0,0,0-.612-.612H25.533a.615.615,0,0,0-.612.594l-.126,2.133a.588.588,0,0,0,.252.558,1.067,1.067,0,0,0,.63.279,5.091,5.091,0,0,1,.954-.162c.657,0,1.116.315,1.116.855v.018c0,.558-.432.873-1.017.873a1.942,1.942,0,0,1-1.2-.4.58.58,0,0,0-.378-.126.668.668,0,0,0-.657.666.643.643,0,0,0,.279.531A3.219,3.219,0,0,0,26.757.108Zm3.384-.837v.018a.757.757,0,0,0,.783.765.757.757,0,0,0,.783-.765V-.729a.757.757,0,0,0-.783-.765A.757.757,0,0,0,30.141-.729Zm5.166.837c1.683,0,2.808-1.431,2.808-3.258v-.018c0-1.827-1.125-3.24-2.79-3.24S32.517-4.977,32.517-3.15v.018C32.517-1.305,33.624.108,35.307.108Zm.018-1.251c-.837,0-1.386-.855-1.386-2.007v-.018c0-1.152.54-1.989,1.368-1.989s1.386.864,1.386,2.007v.018C36.693-1.989,36.162-1.143,35.325-1.143ZM41.877.108c1.683,0,2.808-1.431,2.808-3.258v-.018c0-1.827-1.125-3.24-2.79-3.24S39.087-4.977,39.087-3.15v.018C39.087-1.305,40.194.108,41.877.108Zm.018-1.251c-.837,0-1.386-.855-1.386-2.007v-.018c0-1.152.54-1.989,1.368-1.989s1.386.864,1.386,2.007v.018C43.263-1.989,42.732-1.143,41.895-1.143Z" transform="translate(480.999 2298.744)"/><path class="s" d="M1.6-.63a.684.684,0,0,0,.684.684A.684.684,0,0,0,2.97-.63V-5.706a.684.684,0,0,0-.684-.684H2.268a2.478,2.478,0,0,0-.648.117l-.891.261a.614.614,0,0,0-.459.594.607.607,0,0,0,.6.594,1.133,1.133,0,0,0,.243-.036L1.6-4.986Zm5,.738A2.055,2.055,0,0,0,8.865-1.953v-.018A1.747,1.747,0,0,0,7.173-3.735L8.406-4.914a1,1,0,0,0,.414-.774.627.627,0,0,0-.7-.612H5.049a.6.6,0,0,0-.594.594.6.6,0,0,0,.594.594H6.984L5.76-3.879a.782.782,0,0,0-.3.567.6.6,0,0,0,.594.594h.216c.774,0,1.233.288,1.233.8V-1.9a.79.79,0,0,1-.891.765A1.8,1.8,0,0,1,5.382-1.6a.658.658,0,0,0-.441-.171.676.676,0,0,0-.666.666.684.684,0,0,0,.234.495A3.08,3.08,0,0,0,6.6.108ZM9.324.693a.535.535,0,0,0,.531.513.5.5,0,0,0,.477-.315l3.519-7.353a.7.7,0,0,0,.063-.261.535.535,0,0,0-.531-.513.5.5,0,0,0-.477.315L9.387.432A.7.7,0,0,0,9.324.693Zm7.7-.585c1.683,0,2.808-1.431,2.808-3.258v-.018c0-1.827-1.125-3.24-2.79-3.24S14.238-4.977,14.238-3.15v.018C14.238-1.305,15.345.108,17.028.108Zm.018-1.251c-.837,0-1.386-.855-1.386-2.007v-.018c0-1.152.54-1.989,1.368-1.989s1.386.864,1.386,2.007v.018C18.414-1.989,17.883-1.143,17.046-1.143ZM23.04.108c1.791,0,2.754-1.4,2.754-3.438v-.018a3.126,3.126,0,0,0-.747-2.376,2.281,2.281,0,0,0-1.818-.684,2.223,2.223,0,0,0-2.4,2.2v.018a1.992,1.992,0,0,0,2.25,2.034,1.916,1.916,0,0,0,1.278-.432c-.09.846-.5,1.431-1.278,1.431a1.848,1.848,0,0,1-1.008-.279.7.7,0,0,0-.36-.108.638.638,0,0,0-.657.63.658.658,0,0,0,.324.567A2.976,2.976,0,0,0,23.04.108ZM23.3-3.3c-.684,0-1.1-.387-1.1-.945v-.018a.947.947,0,0,1,1.071-.954.98.98,0,0,1,1.107.963v.018A.952.952,0,0,1,23.3-3.3Zm2.781,4a.535.535,0,0,0,.531.513A.5.5,0,0,0,27.09.891l3.519-7.353a.7.7,0,0,0,.063-.261.535.535,0,0,0-.531-.513.5.5,0,0,0-.477.315L26.145.432A.7.7,0,0,0,26.082.693Zm4.95-1.35A.665.665,0,0,0,31.779,0H35.2a.6.6,0,0,0,.6-.594.6.6,0,0,0-.6-.6H33l1.026-.792c1.116-.864,1.656-1.386,1.656-2.439v-.018A1.942,1.942,0,0,0,33.516-6.39a2.481,2.481,0,0,0-2.052.927.693.693,0,0,0-.162.432.626.626,0,0,0,.63.63.633.633,0,0,0,.468-.2,1.33,1.33,0,0,1,1.026-.549.773.773,0,0,1,.846.819c0,.522-.306.873-1.089,1.512L31.392-1.35A.875.875,0,0,0,31.032-.657Zm8.5.765c1.683,0,2.808-1.431,2.808-3.258v-.018c0-1.827-1.125-3.24-2.79-3.24S36.738-4.977,36.738-3.15v.018C36.738-1.305,37.845.108,39.528.108Zm.018-1.251c-.837,0-1.386-.855-1.386-2.007v-.018c0-1.152.54-1.989,1.368-1.989s1.386.864,1.386,2.007v.018C40.914-1.989,40.383-1.143,39.546-1.143Z" transform="translate(568.626 2298.744)"/><ellipse class="t" cx="14.124" cy="14.112" rx="14.124" ry="14.112" transform="translate(489.891 2246.039)"/><ellipse class="u" cx="14.124" cy="14.112" rx="14.124" ry="14.112" transform="translate(574.332 2246.039)"/><g transform="translate(579.768 2174.902)"><path class="o" d="M450.384,1710.687a1,1,0,0,0-.173.015,1.351,1.351,0,0,0-2.356,0,1.016,1.016,0,0,0-1.188,1,.982.982,0,0,0,.062.338h-1.413v-2.026h1.69a.338.338,0,0,0,.338-.338v-13.506a.338.338,0,0,0-.338-.338H436.866a.338.338,0,0,0-.338.338v16.21a.337.337,0,0,0,.338.337h13.52a1.013,1.013,0,1,0,0-2.026Zm-5.07-14.184h1.352v2.027h-1.352Zm0,2.7h1.352v2.026h-1.352Zm0,2.7h1.352v2.026h-1.352Zm0,2.7h1.352v2.026h-1.352Zm0,2.7h1.352v2.026h-1.352Zm-6.76,4.727H437.2v-2.026h1.352Zm0-2.7H437.2v-2.027h1.352Zm0-2.7H437.2v-2.026h1.352Zm0-2.7H437.2v-2.026h1.352Zm0-2.7H437.2v-2.026h1.352Zm0-2.7H437.2V1696.5h1.352Zm2.028,13.508H439.23v-2.026h1.352Zm0-2.7H439.23v-2.026h1.352Zm0-2.7H439.23v-2.027h1.352Zm0-2.7H439.23v-2.027h1.352Zm0-2.7H439.23v-2.025h1.352Zm0-2.7H439.23V1696.5h1.352Zm2.028,13.508h-1.352v-2.025h1.352Zm0-2.7h-1.352v-2.027h1.352Zm0-2.7h-1.352v-2.027h1.352Zm0-2.7h-1.352v-2.026h1.352Zm0-2.7h-1.352v-2.025h1.352Zm0-2.7h-1.352V1696.5h1.352Zm2.028,13.508h-1.352v-2.025h1.352Zm0-2.7h-1.352v-2.026h1.352Zm0-2.7h-1.352v-2.026h1.352Zm0-2.7h-1.352v-2.027h1.352Zm0-2.7h-1.352v-2.024h1.352Zm0-2.7h-1.352V1696.5h1.352Zm5.746,13.508h-2.7a.338.338,0,1,1,.183-.621.338.338,0,0,0,.467-.1.316.316,0,0,0,.045-.107.674.674,0,0,1,1.313,0,.338.338,0,0,0,.512.208.345.345,0,0,1,.521.283.339.339,0,0,1-.338.339h0Z" transform="translate(-431.118 -1692.452)"/><path class="o" d="M437,1693.842v-1.013h2.366a.338.338,0,0,0,.338-.338h0v-.338h1.351v.338a.338.338,0,0,0,.338.338h2.367v.675h-5.746a.338.338,0,1,0,0,.675h8.449v14.008a.338.338,0,0,0,.676,0v-14.346a.338.338,0,0,0-.338-.338h-2.366v-1.013a.338.338,0,0,0-.338-.338h-2.367v-.337a.337.337,0,0,0-.337-.338h-2.029a.338.338,0,0,0-.338.338h0v.337h-2.366a.338.338,0,0,0-.338.338v1.013h-2.366a.338.338,0,0,0-.338.338h0v17.223h-2.029v-1.385a1.692,1.692,0,0,0,1.352-1.655c0-.044-.019-4.39-1.69-4.39s-1.69,4.347-1.69,4.39a1.692,1.692,0,0,0,1.352,1.655v1.385h-1.013a.338.338,0,1,0,0,.676h4.055a.338.338,0,0,0,.338-.338h0V1694.18h2.366a.338.338,0,0,0,.338-.338Zm-6.761,14.183c0-1.683.452-3.715,1.014-3.715s1.014,2.031,1.014,3.715a1.014,1.014,0,0,1-2.028,0Z" transform="translate(-429.567 -1691.479)"/></g><g transform="translate(491.233 2178.83)"><path class="i" d="M305.155,1698.077h-3.015a.506.506,0,0,0-.507.506h0v.438h-1.415a.507.507,0,0,0-.507.507h0v.146a3.6,3.6,0,0,1-1.853-.664,30.71,30.71,0,0,0-3.046-1.555l-.022-.01a4.321,4.321,0,0,0-3.312.052l-2.042.731-1.721-1.721a.507.507,0,0,0-.717,0h0l-5.648,5.645a.5.5,0,0,0-.006.711l.006.006,9.652,9.644a.549.549,0,0,0,.718,0l5.156-5.153c.134.012.273.019.418.019a4.06,4.06,0,0,0,3.168-1.9h4.695a.507.507,0,0,0,.507-.507h0v-6.389a.506.506,0,0,0-.507-.507Zm-17.8-.493,1.156,1.155a2.214,2.214,0,0,1-2.313,0Zm-3.775,6.082-1.156-1.155,1.156-1.155A2.209,2.209,0,0,1,283.58,1703.666Zm7.778,7.772-1.156-1.155a2.21,2.21,0,0,1,2.312,0Zm1.887-1.885a3.226,3.226,0,0,0-3.774,0l-5.161-5.156a3.22,3.22,0,0,0,0-3.771l1.157-1.156a3.226,3.226,0,0,0,3.774,0l1.1,1.1a2.009,2.009,0,0,0-1.509,1.1,2.889,2.889,0,1,0,3.324,3.576l1.713.58a3.232,3.232,0,0,0,.537,2.569Zm-3.084-4.982.013,0,1.014.344a1.877,1.877,0,1,1-2.547-2.143A2.244,2.244,0,0,0,290.161,1704.571Zm4.973,3.094a2.215,2.215,0,0,1-.324-1.051,3.944,3.944,0,0,0,.894.483Zm4.576-2.894a3.133,3.133,0,0,1-2.418,1.593,3.688,3.688,0,0,1-.529-.038h0a2.907,2.907,0,0,1-1.879-1.028c-.011-.015-.055-.073-.061-.083a.508.508,0,0,0-.279-.234l-4.033-1.367a1.138,1.138,0,0,1-.828-1.342h0a.988.988,0,0,1,1.214-.679l4.544,1.439a.507.507,0,1,0,.308-.966h0l-3.615-1.144-.031-.032h0l-1.873-1.87,1.607-.576.017-.006.005,0,.021-.009a3.292,3.292,0,0,1,2.526-.043,29.283,29.283,0,0,1,2.945,1.5,4.566,4.566,0,0,0,2.36.8Zm1.921-.3h-.907v-4.431h.907Zm3.016,0h-2v-5.376h2Z" transform="translate(-281.198 -1696.359)"/></g><g transform="translate(494.266 2249.484)"><g transform="translate(0 18.032)"><path class="r" d="M303.057,1842.841H285.009a.392.392,0,1,0,0,.784h18.051a.392.392,0,1,0,0-.784Z" transform="translate(-284.615 -1842.841)"/></g><g transform="translate(0.786 13.327)"><path class="r" d="M288.359,1836.864h-2.354a.392.392,0,0,0-.392.392v4.7a.392.392,0,0,0,.392.392h2.354a.392.392,0,0,0,.392-.392v-4.7a.392.392,0,0,0-.392-.392Zm-.392,4.7H286.4v-3.921h1.569Z" transform="translate(-285.613 -1836.864)"/></g><g transform="translate(5.494 9.408)"><path class="r" d="M294.336,1831.884h-2.355a.393.393,0,0,0-.392.392v8.624a.393.393,0,0,0,.392.392h2.355a.393.393,0,0,0,.392-.392v-8.624A.393.393,0,0,0,294.336,1831.884Zm-.392,8.624h-1.569v-7.84h1.569Z" transform="translate(-291.589 -1831.884)"/></g><g transform="translate(10.202 10.976)"><path class="r" d="M300.312,1833.876h-2.354a.392.392,0,0,0-.392.392v7.055a.392.392,0,0,0,.392.392h2.354a.392.392,0,0,0,.392-.392v-7.056A.391.391,0,0,0,300.312,1833.876Zm-.392,7.056h-1.568v-6.272h1.568Z" transform="translate(-297.566 -1833.876)"/></g><g transform="translate(14.91 6.272)"><path class="r" d="M306.289,1827.9h-2.355a.393.393,0,0,0-.392.392v11.76a.393.393,0,0,0,.392.392h2.355a.392.392,0,0,0,.392-.392v-11.76A.392.392,0,0,0,306.289,1827.9Zm-.392,11.76h-1.569v-10.976H305.9Z" transform="translate(-303.542 -1827.9)"/></g><g transform="translate(0.786 7.056)"><path class="r" d="M287.182,1828.9a1.568,1.568,0,1,0,1.569,1.568A1.568,1.568,0,0,0,287.182,1828.9Zm0,2.352a.784.784,0,1,1,.785-.784.784.784,0,0,1-.785.784Z" transform="translate(-285.613 -1828.896)"/></g><g transform="translate(5.494 3.136)"><path class="r" d="M293.158,1823.915a1.568,1.568,0,1,0,1.569,1.568A1.569,1.569,0,0,0,293.158,1823.915Zm0,2.353a.784.784,0,1,1,.785-.784A.784.784,0,0,1,293.158,1826.268Z" transform="translate(-291.589 -1823.915)"/></g><g transform="translate(10.202 4.703)"><path class="r" d="M299.135,1825.907a1.568,1.568,0,1,0,1.569,1.568A1.569,1.569,0,0,0,299.135,1825.907Zm0,2.352a.784.784,0,1,1,.785-.784h0a.785.785,0,0,1-.785.784Z" transform="translate(-297.566 -1825.907)"/></g><g transform="translate(14.91)"><path class="r" d="M305.111,1819.931a1.568,1.568,0,1,0,1.569,1.568A1.569,1.569,0,0,0,305.111,1819.931Zm0,2.352a.784.784,0,1,1,.785-.784h0A.784.784,0,0,1,305.111,1822.283Z" transform="translate(-303.542 -1819.931)"/></g><g transform="translate(12.219 2.008)"><path class="r" d="M303.833,1822.6a.394.394,0,0,0-.555,0l-3.044,3.042a.392.392,0,0,0,.555.554l3.044-3.042A.393.393,0,0,0,303.833,1822.6Z" transform="translate(-300.126 -1822.482)"/></g><g transform="translate(7.803 4.634)"><path class="r" d="M297.541,1826.552l-2.521-.718a.392.392,0,1,0-.214.755l2.52.718a.393.393,0,0,0,.215-.755Z" transform="translate(-294.52 -1825.819)"/></g><g transform="translate(2.794 5.045)"><path class="r" d="M291.819,1826.488a.393.393,0,0,0-.551-.062l-2.958,2.356a.392.392,0,0,0,.488.613l2.958-2.356a.391.391,0,0,0,.063-.55Z" transform="translate(-288.162 -1826.341)"/></g></g><g transform="translate(580.3 2251.618)"><path class="s" d="M447.41,1824.193h-2.263v-1.043a.522.522,0,0,0-1.044,0v1.043h-3.134v-1.043a.522.522,0,0,0-1.044,0v1.043h-3.134v-1.043a.522.522,0,0,0-1.045,0v1.043h-2.262a1.392,1.392,0,0,0-1.393,1.391v12.347a1.392,1.392,0,0,0,1.393,1.392H447.41a1.392,1.392,0,0,0,1.392-1.392v-12.347A1.391,1.391,0,0,0,447.41,1824.193Zm.348,13.739a.349.349,0,0,1-.348.348H433.485a.348.348,0,0,1-.348-.348v-12.347a.348.348,0,0,1,.348-.347h2.262v1.043a.523.523,0,0,0,1.045,0v-1.043h3.134v1.043a.522.522,0,0,0,1.044,0v-1.043H444.1v1.043a.522.522,0,0,0,1.044,0v-1.043h2.263a.349.349,0,0,1,.347.347Z" transform="translate(-432.092 -1822.642)"/><rect class="s" width="2.089" height="1.565" transform="translate(3.656 6.246)"/><rect class="s" width="2.089" height="1.565" transform="translate(3.656 8.855)"/><rect class="s" width="2.089" height="1.565" transform="translate(3.656 11.464)"/><rect class="s" width="2.089" height="1.565" transform="translate(7.311 11.464)"/><rect class="s" width="2.089" height="1.565" transform="translate(7.311 8.855)"/><rect class="s" width="2.089" height="1.565" transform="translate(7.311 6.246)"/><rect class="s" width="2.089" height="1.565" transform="translate(10.966 11.464)"/><rect class="s" width="2.089" height="1.565" transform="translate(10.966 8.855)"/><rect class="s" width="2.089" height="1.565" transform="translate(10.966 6.246)"/></g><path class="j" d="M478.467,1425.425a.742.742,0,0,0-.742-.741h-.371a1.485,1.485,0,0,0-1.485,1.484v1.113a1.485,1.485,0,0,0,1.485,1.484h.371a.741.741,0,0,0,.742-.742h0Zm4.085,3.339a1.484,1.484,0,0,0,1.485-1.484h0v-1.113a1.485,1.485,0,0,0-1.485-1.484h-.372a.742.742,0,0,0-.743.741v2.6a.743.743,0,0,0,.743.742Zm-2.6-8.162a6.051,6.051,0,0,0-5.941,5.936v.371a.372.372,0,0,0,.372.371h.372a.371.371,0,0,0,.371-.371h0v-.371a4.827,4.827,0,0,1,9.654,0h0c0,.056,0,3.843,0,3.843a.98.98,0,0,1-.981.98h-2.361a1.113,1.113,0,0,0-1.114-1.113h-.742a1.113,1.113,0,0,0,0,2.226H483.8a2.094,2.094,0,0,0,2.094-2.093h0v-3.843A6.05,6.05,0,0,0,479.952,1420.6Z" transform="translate(133.357 605.214)"/><path class="j" d="M255.531,1427.651c-.666,0-.986.371-2.08.371s-1.411-.371-2.079-.371a3.118,3.118,0,0,0-3.119,3.116v.594a1.113,1.113,0,0,0,1.114,1.113h8.169a1.113,1.113,0,0,0,1.114-1.113v-.594A3.118,3.118,0,0,0,255.531,1427.651Zm2.005,3.71h-8.169v-.594a2.008,2.008,0,0,1,2.005-2,6.016,6.016,0,0,0,4.159,0,2.008,2.008,0,0,1,2.005,2Zm-4.085-4.081a3.339,3.339,0,1,0-3.341-3.339h0A3.341,3.341,0,0,0,253.451,1427.28Zm0-5.565a2.226,2.226,0,1,1-2.228,2.225A2.227,2.227,0,0,1,253.451,1421.715Z" transform="translate(223.81 605.214)"/><path class="j" d="M11.313,9.328c-.5-.535-1.428-1.339-1.428-3.973A4.066,4.066,0,0,0,6.59,1.36V.824a.823.823,0,1,0-1.647,0V1.36A4.066,4.066,0,0,0,1.649,5.355c0,2.634-.931,3.438-1.428,3.973A.8.8,0,0,0,0,9.887a.825.825,0,0,0,.826.824h9.882a.824.824,0,0,0,.826-.824A.8.8,0,0,0,11.313,9.328Zm-9.574.147a6.448,6.448,0,0,0,1.147-4.1c0-.005,0-.01,0-.015a2.884,2.884,0,1,1,5.767,0c0,.005,0,.01,0,.015A6.446,6.446,0,0,0,9.8,9.475Zm4.029,3.708a1.648,1.648,0,0,0,1.647-1.648H4.12A1.648,1.648,0,0,0,5.767,13.183Z" transform="translate(585.002 2025.816)"/><path class="j" d="M7.7,96.906v.906h.453v.906H7.7v.906H.906V96.906H7.7M7.926,96H.679A.679.679,0,0,0,0,96.679V99.85a.679.679,0,0,0,.679.679H7.926a.679.679,0,0,0,.679-.679v-.226h.113a.34.34,0,0,0,.34-.34V97.246a.34.34,0,0,0-.34-.34H8.606v-.226A.679.679,0,0,0,7.926,96Zm-.679,1.359H1.359v1.812H7.247Z" transform="translate(618 1915)"/><path class="j" d="M26.313,3.47h-.578a.193.193,0,0,0-.193.193V5.976a.193.193,0,0,0,.193.193h.578a.193.193,0,0,0,.193-.193V3.663A.193.193,0,0,0,26.313,3.47ZM24.771,4.627h-.578A.193.193,0,0,0,24,4.82V5.976a.193.193,0,0,0,.193.193h.578a.193.193,0,0,0,.193-.193V4.82A.193.193,0,0,0,24.771,4.627Zm3.085-2.313h-.578a.193.193,0,0,0-.193.193v3.47a.193.193,0,0,0,.193.193h.578a.193.193,0,0,0,.193-.193V2.506A.193.193,0,0,0,27.856,2.313ZM29.4,1.157H28.82a.193.193,0,0,0-.193.193V5.976a.193.193,0,0,0,.193.193H29.4a.193.193,0,0,0,.193-.193V1.35A.193.193,0,0,0,29.4,1.157ZM30.94,0h-.578a.193.193,0,0,0-.193.193V5.976a.193.193,0,0,0,.193.193h.578a.193.193,0,0,0,.193-.193V.193A.193.193,0,0,0,30.94,0Z" transform="translate(582.2 2009.078)"/><path class="j" d="M8.877,33.718a6.5,6.5,0,0,0-8.805,0,.222.222,0,0,0,0,.321l.479.475a.227.227,0,0,0,.313.005,5.364,5.364,0,0,1,7.232,0,.227.227,0,0,0,.313-.005l.479-.475a.222.222,0,0,0-.005-.321Zm-4.4,2.756a.895.895,0,1,0,.895.895A.895.895,0,0,0,4.475,36.474Zm2.833-1.169a4.292,4.292,0,0,0-5.667,0,.221.221,0,0,0-.008.324l.481.475a.228.228,0,0,0,.308.011,3.149,3.149,0,0,1,4.1,0,.228.228,0,0,0,.308-.011l.481-.475A.221.221,0,0,0,7.308,35.305Z" transform="translate(592.72 1977.078)"/><g class="y" transform="matrix(1, 0, 0, 1, 340, 1896)"><rect class="v" width="161.423" height="52.157" rx="4" transform="translate(126 447)"/></g><path class="j" d="M3.732.144A2.69,2.69,0,0,0,6.672-2.52v-.024c0-1.548-1.2-2.2-2.472-2.352L6.18-6.948a1.074,1.074,0,0,0,.42-.8A.661.661,0,0,0,5.868-8.4h-4.3a.645.645,0,0,0-.648.648.643.643,0,0,0,.648.636H4.62l-1.968,2.1a.838.838,0,0,0-.312.6.64.64,0,0,0,.636.636h.3c1.176,0,1.932.468,1.932,1.3v.024A1.315,1.315,0,0,1,3.756-1.188a2.554,2.554,0,0,1-1.908-.8.708.708,0,0,0-.492-.192.717.717,0,0,0-.708.708.709.709,0,0,0,.24.528A3.937,3.937,0,0,0,3.732.144ZM8.184-.888v.12A.821.821,0,0,0,9.036.06a.818.818,0,0,0,.84-.828v-.12a.818.818,0,0,0-.84-.828A.821.821,0,0,0,8.184-.888Zm4,.216a.735.735,0,0,0,.732.732.727.727,0,0,0,.732-.732v-7.1a.72.72,0,0,0-.732-.732h-.024a2.558,2.558,0,0,0-.72.132L10.9-7.968a.643.643,0,0,0-.492.636.649.649,0,0,0,.648.624,1.07,1.07,0,0,0,.264-.036l.864-.264Zm6.312.816A2.824,2.824,0,0,0,21.564-2.7v-.024c0-1.776-1.284-2.64-2.928-2.64a3.571,3.571,0,0,0-1.332.24l.132-1.968h3.156a.656.656,0,0,0,.66-.648.666.666,0,0,0-.66-.66h-3.8a.676.676,0,0,0-.672.66l-.18,3.024a.7.7,0,0,0,.288.648,1.154,1.154,0,0,0,.7.288,5.719,5.719,0,0,1,1.44-.288c1.02,0,1.74.528,1.74,1.392v.024A1.471,1.471,0,0,1,18.468-1.2a2.819,2.819,0,0,1-1.824-.708.648.648,0,0,0-.432-.144.717.717,0,0,0-.708.708.727.727,0,0,0,.3.576A4.257,4.257,0,0,0,18.492.144Zm8.112,0c2.208,0,3.672-1.944,3.672-4.344v-.024c0-2.4-1.452-4.32-3.648-4.32S22.956-6.6,22.956-4.2v.024C22.956-1.776,24.4.144,26.6.144Zm.024-1.332c-1.308,0-2.148-1.356-2.148-3.012v-.024c0-1.668.828-2.988,2.124-2.988S28.752-5.856,28.752-4.2v.024C28.752-2.532,27.936-1.188,26.628-1.188Z" transform="translate(487.853 2369.86)"/><path class="j" d="M1.31-.28a.307.307,0,0,0,.31.305A.307.307,0,0,0,1.93-.28V-2.93h.855a.284.284,0,0,0,.28-.285.284.284,0,0,0-.28-.285H.46a.285.285,0,0,0-.285.285A.285.285,0,0,0,.46-2.93h.85Zm2.2-3.04a.313.313,0,0,0,.345.3.313.313,0,0,0,.345-.3v-.03a.31.31,0,0,0-.345-.3.31.31,0,0,0-.345.3ZM3.56-.275a.3.3,0,0,0,.3.3.3.3,0,0,0,.3-.3v-2.09a.3.3,0,0,0-.3-.305.3.3,0,0,0-.3.305Zm1.395,0a.3.3,0,0,0,.3.3.3.3,0,0,0,.3-.3V-1.49a.587.587,0,0,1,.595-.655c.36,0,.565.235.565.645V-.275a.3.3,0,0,0,.3.3.3.3,0,0,0,.3-.3v-1.41a.9.9,0,0,0-.94-1.01.957.957,0,0,0-.825.46v-.13a.3.3,0,0,0-.3-.305.3.3,0,0,0-.3.305Zm3.1,0a.3.3,0,0,0,.3.3.3.3,0,0,0,.305-.3v-.46l.4-.38L9.815-.11a.3.3,0,0,0,.265.135.273.273,0,0,0,.285-.275.321.321,0,0,0-.08-.2L9.485-1.5l.7-.645A.343.343,0,0,0,10.32-2.4a.266.266,0,0,0-.265-.275.356.356,0,0,0-.26.13L8.66-1.425v-1.95a.3.3,0,0,0-.305-.3.3.3,0,0,0-.3.3Zm3.28-1.23A.714.714,0,0,1,12.02-2.2a.685.685,0,0,1,.67.695ZM13.04-.29a.264.264,0,0,0,.08-.185.238.238,0,0,0-.24-.245.225.225,0,0,0-.155.055.949.949,0,0,1-.625.23.737.737,0,0,1-.76-.67h1.655a.283.283,0,0,0,.285-.29,1.249,1.249,0,0,0-1.255-1.3,1.31,1.31,0,0,0-1.29,1.375v.01A1.317,1.317,0,0,0,12.09.06,1.356,1.356,0,0,0,13.04-.29Zm.86.015a.3.3,0,0,0,.3.3.3.3,0,0,0,.3-.3v-.78c0-.625.3-.955.725-1.03a.284.284,0,0,0,.24-.29.281.281,0,0,0-.3-.3.839.839,0,0,0-.665.58v-.27a.3.3,0,0,0-.3-.305.3.3,0,0,0-.3.305ZM16.87.05c.55,0,.98-.275.98-.83V-.79c0-.475-.435-.65-.82-.77-.31-.1-.595-.18-.595-.375v-.01c0-.15.135-.26.37-.26a1.44,1.44,0,0,1,.62.18.238.238,0,0,0,.12.03.243.243,0,0,0,.25-.245.257.257,0,0,0-.145-.23,1.815,1.815,0,0,0-.83-.215.842.842,0,0,0-.94.8v.01c0,.505.435.665.825.775.31.1.59.165.59.37v.01c0,.175-.15.285-.41.285a1.394,1.394,0,0,1-.76-.255A.264.264,0,0,0,16-.72a.242.242,0,0,0-.245.245.232.232,0,0,0,.115.21A1.8,1.8,0,0,0,16.87.05Z" transform="translate(495.721 2378.886)"/><path class="j" d="M2.92-7.31V-7A1.976,1.976,0,0,0,.82-5.15c0,1.05.65,1.6,2.13,1.95V-.69a3.223,3.223,0,0,1-1.77-.82.371.371,0,0,0-.23-.08.367.367,0,0,0-.37.36.373.373,0,0,0,.17.32,3.977,3.977,0,0,0,2.17.89V.71a.32.32,0,1,0,.64,0V0A2.009,2.009,0,0,0,5.69-1.89c0-1.01-.64-1.6-2.16-1.94V-6.3a3.012,3.012,0,0,1,1.32.58.336.336,0,0,0,.22.07.363.363,0,0,0,.38-.36.405.405,0,0,0-.2-.33,3.514,3.514,0,0,0-1.69-.64v-.33a.329.329,0,0,0-.32-.32A.329.329,0,0,0,2.92-7.31Zm2,5.47c0,.66-.53,1.13-1.39,1.18V-3.07C4.62-2.79,4.92-2.43,4.92-1.84ZM1.59-5.2c0-.61.51-1.09,1.36-1.13v2.36C1.86-4.26,1.59-4.62,1.59-5.2ZM11.716-.689a.749.749,0,0,0,.767.754.749.749,0,0,0,.767-.754V-2.041h.7a.647.647,0,0,0,.663-.65.658.658,0,0,0-.663-.663h-.7V-8.463a.771.771,0,0,0-.78-.767,1.132,1.132,0,0,0-.975.52L7.218-3.64a1.249,1.249,0,0,0-.351.845.752.752,0,0,0,.78.754h4.069ZM8.726-3.354l2.99-3.6v3.6ZM17.28-.728a.8.8,0,0,0,.793.793.788.788,0,0,0,.793-.793v-7.7a.78.78,0,0,0-.793-.793h-.026a2.771,2.771,0,0,0-.78.143l-1.378.442a.7.7,0,0,0-.533.689.7.7,0,0,0,.7.676,1.159,1.159,0,0,0,.286-.039l.936-.286Zm3.666-.234v.13a.889.889,0,0,0,.923.9.886.886,0,0,0,.91-.9v-.13a.886.886,0,0,0-.91-.9A.889.889,0,0,0,20.946-.962Zm3.224.208A.768.768,0,0,0,25.028,0h5.161a.7.7,0,0,0,.7-.7.7.7,0,0,0-.7-.7H26.5l1.872-1.56c1.612-1.313,2.366-2.093,2.366-3.523v-.026a2.725,2.725,0,0,0-3-2.717,3.521,3.521,0,0,0-3.016,1.469.8.8,0,0,0-.182.494.727.727,0,0,0,.728.728.732.732,0,0,0,.559-.247A2.225,2.225,0,0,1,27.615-7.8a1.365,1.365,0,0,1,1.469,1.417c0,.819-.455,1.4-1.7,2.457l-2.8,2.379A.993.993,0,0,0,24.17-.754Zm11.414.91a3.06,3.06,0,0,0,3.328-3.081v-.026c0-1.924-1.391-2.86-3.172-2.86a3.869,3.869,0,0,0-1.443.26l.143-2.132h3.419a.71.71,0,0,0,.715-.7.721.721,0,0,0-.715-.715H33.738a.732.732,0,0,0-.728.715l-.195,3.276a.758.758,0,0,0,.312.7,1.25,1.25,0,0,0,.754.312,6.2,6.2,0,0,1,1.56-.312c1.1,0,1.885.572,1.885,1.508v.026A1.593,1.593,0,0,1,35.558-1.3a3.054,3.054,0,0,1-1.976-.767.7.7,0,0,0-.468-.156.777.777,0,0,0-.767.767.788.788,0,0,0,.325.624A4.611,4.611,0,0,0,35.584.156Zm8.073,0A2.914,2.914,0,0,0,46.842-2.73v-.026c0-1.677-1.3-2.379-2.678-2.548l2.145-2.223a1.163,1.163,0,0,0,.455-.871.716.716,0,0,0-.793-.7H41.317a.7.7,0,0,0-.7.7.7.7,0,0,0,.7.689h3.3L42.487-5.434a.908.908,0,0,0-.338.65.694.694,0,0,0,.689.689h.325c1.274,0,2.093.507,2.093,1.4v.026a1.424,1.424,0,0,1-1.573,1.378,2.767,2.767,0,0,1-2.067-.871.767.767,0,0,0-.533-.208.777.777,0,0,0-.767.767.768.768,0,0,0,.26.572A4.265,4.265,0,0,0,43.657.156Z" transform="translate(562.446 2368.986)"/><path class="j" d="M.485-.28A.3.3,0,0,0,.8.025.3.3,0,0,0,1.1-.28V-3.22a.3.3,0,0,0-.3-.3.3.3,0,0,0-.31.3Zm1.48,0a.3.3,0,0,0,.3.3.3.3,0,0,0,.305-.3V-1.49a.587.587,0,0,1,.6-.655c.36,0,.565.235.565.645V-.275a.3.3,0,0,0,.3.3.3.3,0,0,0,.3-.3v-1.41a.9.9,0,0,0-.94-1.01.957.957,0,0,0-.825.46v-.13a.3.3,0,0,0-.305-.305.3.3,0,0,0-.3.305ZM6.285.06a1.292,1.292,0,0,0,.96-.375A.236.236,0,0,0,7.33-.5.262.262,0,0,0,7.07-.77a.263.263,0,0,0-.165.065.881.881,0,0,1-.59.235.8.8,0,0,1-.79-.845v-.01a.8.8,0,0,1,.765-.84.837.837,0,0,1,.565.225.308.308,0,0,0,.18.06.275.275,0,0,0,.28-.275.287.287,0,0,0-.095-.21A1.336,1.336,0,0,0,6.3-2.7,1.363,1.363,0,0,0,4.92-1.315v.01A1.348,1.348,0,0,0,6.285.06ZM9.1.06a1.38,1.38,0,0,0,1.415-1.375v-.01A1.368,1.368,0,0,0,9.11-2.7,1.38,1.38,0,0,0,7.7-1.315v.01A1.365,1.365,0,0,0,9.1.06Zm.01-.53a.814.814,0,0,1-.805-.845v-.01a.792.792,0,0,1,.8-.84.816.816,0,0,1,.81.85v.01A.792.792,0,0,1,9.11-.47Zm2.02.2a.3.3,0,0,0,.3.3.3.3,0,0,0,.3-.3V-1.49a.577.577,0,0,1,.565-.655c.335,0,.535.23.535.64v1.23a.3.3,0,0,0,.305.3.3.3,0,0,0,.3-.3V-1.49c0-.425.235-.655.565-.655s.535.225.535.645V-.275a.3.3,0,0,0,.305.3.3.3,0,0,0,.3-.3v-1.41A.887.887,0,0,0,14.22-2.7a1.062,1.062,0,0,0-.89.465.838.838,0,0,0-.79-.465.946.946,0,0,0-.805.455v-.125a.3.3,0,0,0-.3-.305.3.3,0,0,0-.3.305Zm5.2-1.23A.714.714,0,0,1,17.02-2.2a.685.685,0,0,1,.67.695ZM18.04-.29a.264.264,0,0,0,.08-.185.238.238,0,0,0-.24-.245.225.225,0,0,0-.155.055.949.949,0,0,1-.625.23.737.737,0,0,1-.76-.67H18a.283.283,0,0,0,.285-.29,1.249,1.249,0,0,0-1.255-1.3,1.31,1.31,0,0,0-1.29,1.375v.01A1.317,1.317,0,0,0,17.09.06,1.356,1.356,0,0,0,18.04-.29Zm1.765.34c.55,0,.98-.275.98-.83V-.79c0-.475-.435-.65-.82-.77-.31-.1-.595-.18-.595-.375v-.01c0-.15.135-.26.37-.26a1.44,1.44,0,0,1,.62.18.238.238,0,0,0,.12.03.243.243,0,0,0,.25-.245.257.257,0,0,0-.145-.23,1.815,1.815,0,0,0-.83-.215.842.842,0,0,0-.94.8v.01c0,.505.435.665.825.775.31.1.59.165.59.37v.01c0,.175-.15.285-.41.285a1.394,1.394,0,0,1-.76-.255.264.264,0,0,0-.13-.035.242.242,0,0,0-.245.245.232.232,0,0,0,.115.21A1.8,1.8,0,0,0,19.805.05Z" transform="translate(575.267 2378.886)"/><path class="w" d="M7984.083,1336s-.186,34.5,0,33.8" transform="translate(-7437.277 1016.178)"/></g><g transform="translate(29.86 29.588)"><path class="f" d="M383.3,1377.3H235.941c-10.67,0-19.319,10.168-19.319,22.711v342.16c0,12.543,8.649,22.711,19.319,22.711H383.3c10.669,0,19.319-10.168,19.319-22.711v-342.16C402.62,1387.463,393.97,1377.3,383.3,1377.3Zm15.224,360.167c0,11.014-7.595,19.943-16.963,19.943H237.68c-9.369,0-16.964-8.929-16.964-19.943V1402.305c0-11.013,7.595-19.942,16.964-19.942h29.738a2.791,2.791,0,0,1,2.54,2.987v5.43c0,2.549,1.758,4.616,3.926,4.616h71.473c2.168,0,3.926-2.067,3.926-4.616v-5.43a2.791,2.791,0,0,1,2.54-2.987h29.738c9.368,0,16.963,8.929,16.963,19.942Z" transform="translate(-216.622 -1377.295)"/></g><rect class="x" width="43.884" height="2.405" rx="1.202" transform="translate(98.619 38.428)"/><rect class="x" width="2.405" height="2.405" rx="1.202" transform="translate(144.907 38.428)"/></g></g></svg>