
<svg xmlns="http://www.w3.org/2000/svg" xmlns:xlink="http://www.w3.org/1999/xlink" width="414" height="500" viewBox="0 0 414 500"><defs><style>.a,.aj,.h{fill:#fff;}.a{stroke:#707070;}.b{fill:#6c68fd;}.c{fill:none;}.d{clip-path:url(#a);}.e{clip-path:url(#b);}.f{fill:#f8f8f8;}.g{clip-path:url(#e);}.i{fill:#ff4a80;}.j{fill:#383838;}.k{fill:#333;}.l{fill:#efefef;}.m{fill:#f9ce8f;}.n{fill:#8e6f54;}.o{fill:#ffe94d;}.p{fill:#49658e;}.q{fill:#f4b350;}.r{fill:#474747;}.s{fill:#353535;}.t{fill:#cea165;}.u{fill:#95a5a6;}.v{fill:#2c3e50;}.w{fill:#b77544;}.x{fill:#6bb9f0;}.y{fill:#e26a6a;}.z{fill:#eb974e;}.aa{fill:#b58054;}.ab{fill:#7a5336;}.ac{fill:#684931;}.ad{fill:#d1d1d1;}.ae{fill:#b29d38;}.af{fill:#c5eff7;}.ag{fill:#e08283;}.ah{fill:#e2ca3b;}.ai{fill:#e5e5e5;}.aj{font-size:6px;font-family:GothamRounded-Book, Gotham Rounded;}.ak{fill:#9b9b9b;}.al{filter:url(#f);}.am{filter:url(#c);}</style><clipPath id="a"><rect class="a" width="414" height="500" transform="translate(0 4131)"/></clipPath><clipPath id="b"><rect class="c" width="245.146" height="449.005"/></clipPath><filter id="c" x="92.188" y="46.686" width="245.146" height="449.005" filterUnits="userSpaceOnUse"><feOffset dx="8" dy="5" input="SourceAlpha"/><feGaussianBlur stdDeviation="8" result="d"/><feFlood flood-color="#004063" flood-opacity="0.149"/><feComposite operator="in" in2="d"/><feComposite in="SourceGraphic"/></filter><clipPath id="e"><rect class="b" width="179.416" height="379.755" rx="21" transform="translate(1156.273 4080.663)"/></clipPath><filter id="f" x="152.567" y="363.357" width="112.271" height="44.96" filterUnits="userSpaceOnUse"><feOffset dx="1" dy="1" input="SourceAlpha"/><feGaussianBlur stdDeviation="3" result="g"/><feFlood flood-opacity="0.22"/><feComposite operator="in" in2="g"/><feComposite in="SourceGraphic"/></filter></defs><g class="d" transform="translate(0 -4131)"><rect class="b" width="906.346" height="336.715" rx="168.357" transform="matrix(0.921, 0.391, -0.391, 0.921, -379.396, 3973.98)"/><g class="e" transform="translate(92.188 4177.686)"><g class="am" transform="matrix(1, 0, 0, 1, -92.19, -46.69)"><rect class="f" width="197.146" height="401.005" rx="27.441" transform="translate(108.19 65.69)"/></g><g class="g" transform="translate(-1131.188 -4055.686)"><g transform="translate(1156.406 4079)"><rect class="h" width="180.595" height="380.973" transform="translate(0 1.662)"/><rect class="i" width="180.595" height="112.931"/><g class="al" transform="matrix(1, 0, 0, 1, -117.41, -70)"><rect class="i" width="94.223" height="26.79" rx="13.395" transform="translate(160.57 371.53) rotate(-0.1)"/></g><g transform="translate(76.579 310.693)"><path class="h" d="M-3888.128,2282.252l0,1.888,3-.005,0,.975-3,.006,0,2.375-1.152,0-.011-6.2,4.529-.008,0,.966Z" transform="translate(3889.282 -2280.608)"/><path class="h" d="M-3874.725,2280.684a.624.624,0,0,1-.2-.474.62.62,0,0,1,.2-.474.711.711,0,0,1,.5-.192.732.732,0,0,1,.506.181.587.587,0,0,1,.2.457.667.667,0,0,1-.2.492.693.693,0,0,1-.51.2A.713.713,0,0,1-3874.725,2280.684Zm-.051.971,1.108,0,.008,4.733h-1.108Z" transform="translate(3880.23 -2279.513)"/><path class="h" d="M-3863.457,2285.61a2.062,2.062,0,0,1,.543,1.55l.005,2.713-1.108,0,0-2.571a1.332,1.332,0,0,0-.294-.935,1.083,1.083,0,0,0-.834-.313,1.279,1.279,0,0,0-.966.37,1.465,1.465,0,0,0-.353,1.06l0,2.393-1.108,0-.009-4.733,1.055,0v.612a1.727,1.727,0,0,1,.69-.5,2.485,2.485,0,0,1,.939-.17A1.976,1.976,0,0,1-3863.457,2285.61Z" transform="translate(3875.595 -2283.011)"/><path class="h" d="M-3847.045,2280.2l.011,6.577h-1.063v-.612a1.7,1.7,0,0,1-.677.506,2.289,2.289,0,0,1-.89.17,2.493,2.493,0,0,1-1.229-.3,2.162,2.162,0,0,1-.857-.854,2.562,2.562,0,0,1-.312-1.271,2.537,2.537,0,0,1,.308-1.268,2.167,2.167,0,0,1,.854-.852,2.493,2.493,0,0,1,1.227-.3,2.257,2.257,0,0,1,.86.158,1.734,1.734,0,0,1,.666.477l0-2.428Zm-1.772,5.512a1.311,1.311,0,0,0,.5-.52,1.582,1.582,0,0,0,.185-.781,1.581,1.581,0,0,0-.187-.779,1.317,1.317,0,0,0-.506-.518,1.432,1.432,0,0,0-.719-.181,1.427,1.427,0,0,0-.718.183,1.312,1.312,0,0,0-.5.52,1.588,1.588,0,0,0-.185.781,1.592,1.592,0,0,0,.188.779,1.311,1.311,0,0,0,.507.518,1.422,1.422,0,0,0,.718.18A1.422,1.422,0,0,0-3848.817,2285.715Z" transform="translate(3865.81 -2279.929)"/><path class="h" d="M-3828.118,2280.6a.623.623,0,0,1-.2-.474.622.622,0,0,1,.2-.475.716.716,0,0,1,.505-.192.732.732,0,0,1,.505.181.585.585,0,0,1,.2.456.668.668,0,0,1-.2.492.693.693,0,0,1-.509.2A.714.714,0,0,1-3828.118,2280.6Zm-.051.97,1.108,0,.009,4.733-1.108,0Z" transform="translate(3850.837 -2279.46)"/><path class="h" d="M-3819.194,2287.843a1.307,1.307,0,0,1-.474.24,2.139,2.139,0,0,1-.589.081,1.674,1.674,0,0,1-1.206-.405,1.567,1.567,0,0,1-.427-1.187l0-2.278h-.781v-.886h.78l0-1.082,1.108,0,0,1.082,1.268,0,0,.886-1.268,0,0,2.252a.75.75,0,0,0,.169.527.633.633,0,0,0,.488.181.976.976,0,0,0,.62-.2Z" transform="translate(3847.276 -2281.266)"/></g><g transform="translate(67.785 342.525)"><path class="i" d="M-3907.577,2366.814l.011,6.205h-.948l-3.429-4.2.008,4.2h-1.143l-.012-6.2h.949l3.429,4.195-.008-4.2Z" transform="translate(3913.091 -2366.384)"/><path class="i" d="M-3893.748,2375.177a2.25,2.25,0,0,1-.9-.862,2.439,2.439,0,0,1-.326-1.254,2.417,2.417,0,0,1,.321-1.251,2.281,2.281,0,0,1,.9-.861,2.691,2.691,0,0,1,1.293-.312,2.706,2.706,0,0,1,1.3.308,2.274,2.274,0,0,1,.9.858,2.414,2.414,0,0,1,.325,1.25,2.446,2.446,0,0,1-.321,1.255,2.262,2.262,0,0,1-.9.866,2.7,2.7,0,0,1-1.3.312A2.677,2.677,0,0,1-3893.748,2375.177Zm2.3-1.05a1.47,1.47,0,0,0,.4-1.073,1.469,1.469,0,0,0-.4-1.071,1.355,1.355,0,0,0-1.011-.406,1.34,1.34,0,0,0-1.006.41,1.474,1.474,0,0,0-.392,1.073,1.476,1.476,0,0,0,.4,1.072,1.339,1.339,0,0,0,1.007.406A1.352,1.352,0,0,0-3891.446,2374.126Z" transform="translate(3901.666 -2368.794)"/><path class="i" d="M-3870.048,2373.432a1.312,1.312,0,0,1-.473.24,2.155,2.155,0,0,1-.59.081,1.673,1.673,0,0,1-1.206-.406,1.568,1.568,0,0,1-.428-1.187l0-2.278-.78,0V2369h.78l0-1.081,1.108,0,0,1.082,1.268,0,0,.886-1.268,0,0,2.251a.747.747,0,0,0,.169.527.63.63,0,0,0,.488.181.973.973,0,0,0,.62-.2Z" transform="translate(3888.141 -2367.076)"/><path class="i" d="M-3857.535,2368.043a2.062,2.062,0,0,1,.543,1.55l0,2.712-1.108,0,0-2.57a1.331,1.331,0,0,0-.294-.935,1.082,1.082,0,0,0-.834-.313,1.277,1.277,0,0,0-.965.37,1.465,1.465,0,0,0-.353,1.059l0,2.394-1.108,0-.012-6.577,1.108,0,0,2.393a1.8,1.8,0,0,1,.677-.449,2.493,2.493,0,0,1,.9-.157A1.978,1.978,0,0,1-3857.535,2368.043Z" transform="translate(3880.656 -2365.703)"/><path class="i" d="M-3842.367,2371.048a1.939,1.939,0,0,1,.557,1.51l.005,2.774-1.046,0v-.576a1.286,1.286,0,0,1-.58.475,2.262,2.262,0,0,1-.908.166,2.231,2.231,0,0,1-.931-.18,1.441,1.441,0,0,1-.617-.5,1.287,1.287,0,0,1-.218-.731,1.254,1.254,0,0,1,.472-1.025,2.358,2.358,0,0,1,1.493-.388l1.223,0v-.07a.97.97,0,0,0-.3-.762,1.285,1.285,0,0,0-.883-.264,2.534,2.534,0,0,0-.784.125,1.93,1.93,0,0,0-.65.346l-.436-.806a2.687,2.687,0,0,1,.894-.435,3.957,3.957,0,0,1,1.107-.153A2.308,2.308,0,0,1-3842.367,2371.048Zm-1,3.352a1.033,1.033,0,0,0,.455-.546v-.549h-1.144q-.957,0-.956.631a.565.565,0,0,0,.24.478,1.1,1.1,0,0,0,.666.177A1.427,1.427,0,0,0-3843.372,2374.4Z" transform="translate(3870.846 -2368.74)"/><path class="i" d="M-3826.521,2371.039a2.065,2.065,0,0,1,.543,1.551l.005,2.713h-1.108l0-2.571a1.331,1.331,0,0,0-.294-.934,1.083,1.083,0,0,0-.834-.313,1.277,1.277,0,0,0-.965.369,1.468,1.468,0,0,0-.353,1.06l0,2.394-1.108,0-.009-4.733,1.055,0v.612a1.733,1.733,0,0,1,.69-.5,2.5,2.5,0,0,1,.94-.17A1.977,1.977,0,0,1-3826.521,2371.039Z" transform="translate(3861.094 -2368.72)"/><path class="i" d="M-3812.272,2370.2l-.823.781,0,1.25-1.108,0-.012-6.577,1.108,0,.007,3.971,2.292-2.131,1.33,0-1.973,1.989,2.168,2.744-1.347,0Z" transform="translate(3850.732 -2365.649)"/><path class="i" d="M-3799.914,2375.168a2.827,2.827,0,0,1-.878-.38l.424-.842a2.722,2.722,0,0,0,.768.339,3.161,3.161,0,0,0,.882.127q.992,0,.992-.525a.349.349,0,0,0-.254-.345,4.362,4.362,0,0,0-.811-.185,6.456,6.456,0,0,1-.953-.2,1.456,1.456,0,0,1-.639-.4,1.128,1.128,0,0,1-.272-.8,1.261,1.261,0,0,1,.561-1.078,2.56,2.56,0,0,1,1.519-.406,4.386,4.386,0,0,1,.976.108,2.748,2.748,0,0,1,.8.3l-.424.843a2.623,2.623,0,0,0-1.357-.353,1.5,1.5,0,0,0-.74.148.435.435,0,0,0-.252.386.385.385,0,0,0,.271.376,4.294,4.294,0,0,0,.838.207,6.482,6.482,0,0,1,.931.2,1.457,1.457,0,0,1,.625.389,1.089,1.089,0,0,1,.263.78,1.233,1.233,0,0,1-.574,1.065,2.713,2.713,0,0,1-1.568.4A4.226,4.226,0,0,1-3799.914,2375.168Z" transform="translate(3842.268 -2368.688)"/></g><g transform="translate(23.012 180.38)"><path class="j" d="M-4023.07,1920.3l-4.163,8.019v3.993h-2.922v-3.993l-4.162-8.019h3.33l2.311,4.893,2.311-4.893Z" transform="translate(4034.317 -1918.638)"/><path class="j" d="M-3994.714,1927.422a4.3,4.3,0,0,1,1.75,1.69,5.076,5.076,0,0,1,.637,2.582,5.075,5.075,0,0,1-.637,2.582,4.3,4.3,0,0,1-1.75,1.691,5.333,5.333,0,0,1-2.522.586,5.382,5.382,0,0,1-2.532-.586,4.283,4.283,0,0,1-1.759-1.691,5.075,5.075,0,0,1-.637-2.582,5.076,5.076,0,0,1,.637-2.582,4.28,4.28,0,0,1,1.759-1.69,5.379,5.379,0,0,1,2.532-.586A5.33,5.33,0,0,1-3994.714,1927.422Zm-3.925,2.531a2.444,2.444,0,0,0-.569,1.741,2.412,2.412,0,0,0,.569,1.733,1.864,1.864,0,0,0,1.4.595,1.838,1.838,0,0,0,1.393-.595,2.436,2.436,0,0,0,.56-1.733,2.468,2.468,0,0,0-.56-1.741,1.828,1.828,0,0,0-1.393-.6A1.854,1.854,0,0,0-3998.639,1929.953Z" transform="translate(4014.039 -1922.759)"/><path class="j" d="M-3962.239,1927.158v9.48h-2.922v-1.716a3.153,3.153,0,0,1-1.215,1.326,3.53,3.53,0,0,1-1.877.493,3.281,3.281,0,0,1-2.591-1.087,4.359,4.359,0,0,1-.96-2.99v-5.5h2.888v5.147a2.114,2.114,0,0,0,.5,1.5,1.76,1.76,0,0,0,1.35.535,1.789,1.789,0,0,0,1.394-.561,2.294,2.294,0,0,0,.51-1.6v-5.029Z" transform="translate(3994.892 -1922.962)"/><path class="j" d="M-3926.65,1927.329a2.964,2.964,0,0,1,1.156,1.342v-1.716h2.888v9.48h-2.888v-1.716a2.961,2.961,0,0,1-1.156,1.343,3.428,3.428,0,0,1-1.869.493,3.841,3.841,0,0,1-2.1-.586,4.006,4.006,0,0,1-1.461-1.691,5.855,5.855,0,0,1-.535-2.582,5.844,5.844,0,0,1,.535-2.591,4.013,4.013,0,0,1,1.461-1.682,3.839,3.839,0,0,1,2.1-.586A3.432,3.432,0,0,1-3926.65,1927.329Zm-2.437,2.667a2.4,2.4,0,0,0-.569,1.7,2.4,2.4,0,0,0,.569,1.7,1.957,1.957,0,0,0,1.5.612,1.966,1.966,0,0,0,1.5-.629,2.368,2.368,0,0,0,.586-1.682,2.362,2.362,0,0,0-.586-1.69,1.978,1.978,0,0,0-1.5-.62A1.957,1.957,0,0,0-3929.087,1930Z" transform="translate(3970.175 -1922.759)"/><path class="j" d="M-3895.785,1927.392a3.577,3.577,0,0,1,1.86-.51v3.109h-.833a2.871,2.871,0,0,0-1.792.493,1.978,1.978,0,0,0-.637,1.665v4.315h-2.905v-9.48h2.905v1.784A4.122,4.122,0,0,1-3895.785,1927.392Z" transform="translate(3949.665 -1922.787)"/><path class="j" d="M-3872,1932.222h-6.575a2.193,2.193,0,0,0,.544,1.538,1.75,1.75,0,0,0,1.257.467,1.719,1.719,0,0,0,1.07-.322,1.51,1.51,0,0,0,.561-.833h3.075a4.027,4.027,0,0,1-.815,1.792,4.34,4.34,0,0,1-1.6,1.24,5.047,5.047,0,0,1-2.157.451,5.1,5.1,0,0,1-2.472-.586,4.187,4.187,0,0,1-1.69-1.691,5.244,5.244,0,0,1-.612-2.582,5.29,5.29,0,0,1,.6-2.591,4.127,4.127,0,0,1,1.69-1.682,5.144,5.144,0,0,1,2.481-.586,5.145,5.145,0,0,1,2.48.578,4.078,4.078,0,0,1,1.656,1.622,4.83,4.83,0,0,1,.586,2.4A4.006,4.006,0,0,1-3872,1932.222Zm-3.355-2.625a1.845,1.845,0,0,0-1.282-.467,1.9,1.9,0,0,0-1.326.476,1.991,1.991,0,0,0-.595,1.393h3.7A1.749,1.749,0,0,0-3875.359,1929.6Z" transform="translate(3937.887 -1922.759)"/><path class="j" d="M-3839.5,1918.786v12.572h-2.905v-12.572Z" transform="translate(3913.286 -1917.682)"/><path class="j" d="M-3823,1927.422a4.3,4.3,0,0,1,1.75,1.69,5.076,5.076,0,0,1,.637,2.582,5.075,5.075,0,0,1-.637,2.582,4.3,4.3,0,0,1-1.75,1.691,5.333,5.333,0,0,1-2.523.586,5.382,5.382,0,0,1-2.531-.586,4.284,4.284,0,0,1-1.759-1.691,5.075,5.075,0,0,1-.637-2.582,5.076,5.076,0,0,1,.637-2.582,4.281,4.281,0,0,1,1.759-1.69,5.379,5.379,0,0,1,2.531-.586A5.33,5.33,0,0,1-3823,1927.422Zm-3.925,2.531a2.444,2.444,0,0,0-.569,1.741,2.412,2.412,0,0,0,.569,1.733,1.863,1.863,0,0,0,1.4.595,1.836,1.836,0,0,0,1.393-.595,2.435,2.435,0,0,0,.561-1.733,2.467,2.467,0,0,0-.561-1.741,1.826,1.826,0,0,0-1.393-.6A1.852,1.852,0,0,0-3826.924,1929.953Z" transform="translate(3905.744 -1922.759)"/><path class="j" d="M-3793.6,1927.422a4.3,4.3,0,0,1,1.75,1.69,5.078,5.078,0,0,1,.637,2.582,5.077,5.077,0,0,1-.637,2.582,4.3,4.3,0,0,1-1.75,1.691,5.335,5.335,0,0,1-2.523.586,5.383,5.383,0,0,1-2.531-.586,4.284,4.284,0,0,1-1.759-1.691,5.077,5.077,0,0,1-.637-2.582,5.078,5.078,0,0,1,.637-2.582,4.281,4.281,0,0,1,1.759-1.69,5.38,5.38,0,0,1,2.531-.586A5.332,5.332,0,0,1-3793.6,1927.422Zm-3.925,2.531a2.443,2.443,0,0,0-.569,1.741,2.411,2.411,0,0,0,.569,1.733,1.863,1.863,0,0,0,1.4.595,1.835,1.835,0,0,0,1.393-.595,2.434,2.434,0,0,0,.56-1.733,2.467,2.467,0,0,0-.56-1.741,1.825,1.825,0,0,0-1.393-.6A1.853,1.853,0,0,0-3797.53,1929.953Z" transform="translate(3887.206 -1922.759)"/><path class="j" d="M-3764.585,1931.358l-2.837-4.026v4.026h-2.905v-12.572h2.905v6.9l2.837-3.806h3.415l-3.823,4.74,3.908,4.74Z" transform="translate(3867.827 -1917.682)"/><path class="j" d="M-3742.712,1916.229a1.792,1.792,0,0,1,1.257-.433,1.794,1.794,0,0,1,1.257.433,1.418,1.418,0,0,1,.476,1.1,1.4,1.4,0,0,1-.476,1.079,1.8,1.8,0,0,1-1.257.433,1.793,1.793,0,0,1-1.257-.433,1.4,1.4,0,0,1-.476-1.079A1.417,1.417,0,0,1-3742.712,1916.229Zm2.7,3.763v9.48h-2.905v-9.48Z" transform="translate(3850.711 -1915.796)"/><path class="j" d="M-3720.554,1927.969a4.363,4.363,0,0,1,.96,2.99v5.5h-2.905V1931.3a2.091,2.091,0,0,0-.5-1.487,1.74,1.74,0,0,0-1.333-.535,1.816,1.816,0,0,0-1.4.561,2.268,2.268,0,0,0-.518,1.6v5.029h-2.9v-9.48h2.9v1.733a3.131,3.131,0,0,1,1.215-1.342,3.564,3.564,0,0,1,1.895-.493A3.282,3.282,0,0,1-3720.554,1927.969Z" transform="translate(3841.863 -1922.787)"/><path class="j" d="M-3693.434,1927.329a2.965,2.965,0,0,1,1.155,1.342v-1.716h2.888v9.429a5.443,5.443,0,0,1-.51,2.387,3.909,3.909,0,0,1-1.563,1.691,5.031,5.031,0,0,1-2.616.628,5.38,5.38,0,0,1-3.423-1.01,4.113,4.113,0,0,1-1.538-2.744h2.871a1.439,1.439,0,0,0,.62.9,2.246,2.246,0,0,0,1.266.323,2.039,2.039,0,0,0,1.453-.518,2.183,2.183,0,0,0,.552-1.656v-1.665a2.961,2.961,0,0,1-1.155,1.343,3.43,3.43,0,0,1-1.869.493,3.84,3.84,0,0,1-2.1-.586,4.007,4.007,0,0,1-1.461-1.691,5.855,5.855,0,0,1-.535-2.582,5.844,5.844,0,0,1,.535-2.591,4.014,4.014,0,0,1,1.461-1.682,3.838,3.838,0,0,1,2.1-.586A3.433,3.433,0,0,1-3693.434,1927.329Zm-2.438,2.667a2.4,2.4,0,0,0-.569,1.7,2.4,2.4,0,0,0,.569,1.7,1.956,1.956,0,0,0,1.5.612,1.965,1.965,0,0,0,1.5-.629,2.368,2.368,0,0,0,.586-1.682,2.362,2.362,0,0,0-.586-1.69,1.977,1.977,0,0,0-1.5-.62A1.956,1.956,0,0,0-3695.872,1930Z" transform="translate(3823.094 -1922.759)"/><path class="j" d="M-3994.382,1979.4a1.471,1.471,0,0,0-1.036.306,1.406,1.406,0,0,0-.357.985h1.716v2.446h-1.716v7.034h-2.9v-7.034h-1.139v-2.446h1.139v-.1a3.547,3.547,0,0,1,1.028-2.727,4.21,4.21,0,0,1,2.981-.96q.409,0,.612.017v2.5Z" transform="translate(4012.56 -1954.332)"/><path class="j" d="M-3974.659,1987.422a4.3,4.3,0,0,1,1.75,1.691,5.081,5.081,0,0,1,.637,2.582,5.08,5.08,0,0,1-.637,2.582,4.3,4.3,0,0,1-1.75,1.691,5.334,5.334,0,0,1-2.523.586,5.382,5.382,0,0,1-2.531-.586,4.282,4.282,0,0,1-1.759-1.691,5.08,5.08,0,0,1-.637-2.582,5.081,5.081,0,0,1,.637-2.582,4.284,4.284,0,0,1,1.759-1.691,5.382,5.382,0,0,1,2.531-.586A5.334,5.334,0,0,1-3974.659,1987.422Zm-3.925,2.531a2.442,2.442,0,0,0-.569,1.741,2.409,2.409,0,0,0,.569,1.733,1.864,1.864,0,0,0,1.4.595,1.837,1.837,0,0,0,1.393-.595,2.435,2.435,0,0,0,.56-1.733,2.468,2.468,0,0,0-.56-1.741,1.826,1.826,0,0,0-1.393-.6A1.853,1.853,0,0,0-3978.583,1989.953Z" transform="translate(4001.391 -1960.599)"/><path class="j" d="M-3947.074,1987.392a3.574,3.574,0,0,1,1.86-.51v3.109h-.833a2.871,2.871,0,0,0-1.792.493,1.979,1.979,0,0,0-.637,1.665v4.315h-2.905v-9.48h2.905v1.784A4.117,4.117,0,0,1-3947.074,1987.392Z" transform="translate(3982.012 -1960.627)"/><path class="j" d="M-3916.452,1987.736a3.916,3.916,0,0,1,1.35,2.379h-2.718a1.505,1.505,0,0,0-.535-.909,1.626,1.626,0,0,0-1.045-.332,1.143,1.143,0,0,0-.748.212.74.74,0,0,0-.255.6.707.707,0,0,0,.467.663,7.425,7.425,0,0,0,1.47.441,14.64,14.64,0,0,1,1.784.519,2.944,2.944,0,0,1,1.206.858,2.37,2.37,0,0,1,.51,1.6,2.449,2.449,0,0,1-.441,1.444,2.914,2.914,0,0,1-1.274.986,4.98,4.98,0,0,1-1.971.357,5.074,5.074,0,0,1-3.075-.849,3.585,3.585,0,0,1-1.41-2.429h2.8a1.261,1.261,0,0,0,.519.935,1.951,1.951,0,0,0,1.164.323,1.084,1.084,0,0,0,.748-.229.773.773,0,0,0,.255-.6.725.725,0,0,0-.467-.705,8.594,8.594,0,0,0-1.52-.45,12.127,12.127,0,0,1-1.733-.476,2.859,2.859,0,0,1-1.173-.824,2.294,2.294,0,0,1-.493-1.554,2.536,2.536,0,0,1,.969-2.064,4.217,4.217,0,0,1,2.735-.79A4.352,4.352,0,0,1-3916.452,1987.736Z" transform="translate(3964.199 -1960.599)"/><path class="j" d="M-3890.526,1987.422a4.3,4.3,0,0,1,1.75,1.691,5.076,5.076,0,0,1,.637,2.582,5.075,5.075,0,0,1-.637,2.582,4.3,4.3,0,0,1-1.75,1.691,5.33,5.33,0,0,1-2.522.586,5.383,5.383,0,0,1-2.532-.586,4.283,4.283,0,0,1-1.758-1.691,5.075,5.075,0,0,1-.637-2.582,5.076,5.076,0,0,1,.637-2.582,4.284,4.284,0,0,1,1.758-1.691,5.383,5.383,0,0,1,2.532-.586A5.33,5.33,0,0,1-3890.526,1987.422Zm-3.924,2.531a2.443,2.443,0,0,0-.569,1.741,2.41,2.41,0,0,0,.569,1.733,1.863,1.863,0,0,0,1.4.595,1.837,1.837,0,0,0,1.393-.595,2.436,2.436,0,0,0,.56-1.733,2.469,2.469,0,0,0-.56-1.741,1.827,1.827,0,0,0-1.393-.6A1.853,1.853,0,0,0-3894.451,1989.953Z" transform="translate(3948.331 -1960.599)"/><path class="j" d="M-3852.212,1987.961a4.237,4.237,0,0,1,1,3v5.5h-2.888V1991.3a1.934,1.934,0,0,0-.484-1.4,1.745,1.745,0,0,0-1.317-.5,1.783,1.783,0,0,0-1.367.535,2.115,2.115,0,0,0-.5,1.5v5.029h-2.905V1991.3a1.957,1.957,0,0,0-.476-1.4,1.717,1.717,0,0,0-1.308-.5,1.827,1.827,0,0,0-1.376.527,2.088,2.088,0,0,0-.51,1.512v5.029h-2.905v-9.48h2.905v1.614a2.826,2.826,0,0,1,1.146-1.257,3.478,3.478,0,0,1,1.81-.459,3.651,3.651,0,0,1,1.92.5,3.155,3.155,0,0,1,1.258,1.436,3.79,3.79,0,0,1,1.35-1.41,3.55,3.55,0,0,1,1.894-.527A3.573,3.573,0,0,1-3852.212,1987.961Z" transform="translate(3928.952 -1960.627)"/><path class="j" d="M-3810.5,1992.222h-6.575a2.194,2.194,0,0,0,.544,1.537,1.75,1.75,0,0,0,1.257.467,1.72,1.72,0,0,0,1.07-.322,1.514,1.514,0,0,0,.561-.833h3.075a4.022,4.022,0,0,1-.815,1.792,4.339,4.339,0,0,1-1.6,1.24,5.046,5.046,0,0,1-2.157.45,5.093,5.093,0,0,1-2.471-.586,4.184,4.184,0,0,1-1.691-1.691,5.242,5.242,0,0,1-.612-2.582,5.3,5.3,0,0,1,.6-2.591,4.129,4.129,0,0,1,1.69-1.682,5.143,5.143,0,0,1,2.48-.586,5.146,5.146,0,0,1,2.48.578,4.082,4.082,0,0,1,1.657,1.623,4.828,4.828,0,0,1,.586,2.4A4.025,4.025,0,0,1-3810.5,1992.222Zm-3.355-2.625a1.846,1.846,0,0,0-1.283-.467,1.9,1.9,0,0,0-1.325.476,1.991,1.991,0,0,0-.595,1.393h3.7A1.748,1.748,0,0,0-3813.857,1989.6Z" transform="translate(3899.1 -1960.599)"/><path class="j" d="M-3783.991,1987.422a4.3,4.3,0,0,1,1.75,1.691,5.081,5.081,0,0,1,.637,2.582,5.08,5.08,0,0,1-.637,2.582,4.3,4.3,0,0,1-1.75,1.691,5.33,5.33,0,0,1-2.522.586,5.384,5.384,0,0,1-2.532-.586,4.283,4.283,0,0,1-1.759-1.691,5.08,5.08,0,0,1-.637-2.582,5.081,5.081,0,0,1,.637-2.582,4.285,4.285,0,0,1,1.759-1.691,5.384,5.384,0,0,1,2.532-.586A5.33,5.33,0,0,1-3783.991,1987.422Zm-3.924,2.531a2.442,2.442,0,0,0-.569,1.741,2.409,2.409,0,0,0,.569,1.733,1.863,1.863,0,0,0,1.4.595,1.836,1.836,0,0,0,1.393-.595,2.435,2.435,0,0,0,.561-1.733,2.468,2.468,0,0,0-.561-1.741,1.826,1.826,0,0,0-1.393-.6A1.853,1.853,0,0,0-3787.915,1989.953Z" transform="translate(3881.143 -1960.599)"/><path class="j" d="M-3752.108,1987.969a4.363,4.363,0,0,1,.96,2.99v5.5h-2.905V1991.3a2.092,2.092,0,0,0-.5-1.487,1.742,1.742,0,0,0-1.334-.535,1.816,1.816,0,0,0-1.4.561,2.268,2.268,0,0,0-.518,1.6v5.029h-2.905v-9.48h2.905v1.733a3.128,3.128,0,0,1,1.214-1.342,3.564,3.564,0,0,1,1.894-.493A3.282,3.282,0,0,1-3752.108,1987.969Z" transform="translate(3861.763 -1960.627)"/><path class="j" d="M-3721.539,1992.222h-6.575a2.194,2.194,0,0,0,.543,1.537,1.752,1.752,0,0,0,1.257.467,1.72,1.72,0,0,0,1.07-.322,1.509,1.509,0,0,0,.561-.833h3.075a4.022,4.022,0,0,1-.815,1.792,4.341,4.341,0,0,1-1.6,1.24,5.046,5.046,0,0,1-2.157.45,5.1,5.1,0,0,1-2.472-.586,4.186,4.186,0,0,1-1.691-1.691,5.245,5.245,0,0,1-.611-2.582,5.3,5.3,0,0,1,.6-2.591,4.131,4.131,0,0,1,1.691-1.682,5.143,5.143,0,0,1,2.481-.586,5.146,5.146,0,0,1,2.48.578,4.081,4.081,0,0,1,1.656,1.623,4.828,4.828,0,0,1,.586,2.4A4,4,0,0,1-3721.539,1992.222Zm-3.355-2.625a1.844,1.844,0,0,0-1.282-.467,1.9,1.9,0,0,0-1.326.476,1.992,1.992,0,0,0-.594,1.393h3.7A1.748,1.748,0,0,0-3724.894,1989.6Z" transform="translate(3842.994 -1960.599)"/></g><g transform="translate(23.683 237.436)"><path class="k" d="M-4025.167,2071.072v5.72h-.162v-5.72Z" transform="translate(4027.978 -2070.779)"/><path class="k" d="M-4018,2074.9a1.926,1.926,0,0,1,.5,1.447v2.559h-.154v-2.575a1.829,1.829,0,0,0-.431-1.312,1.554,1.554,0,0,0-1.178-.451,1.627,1.627,0,0,0-1.251.508,2.136,2.136,0,0,0-.471,1.5v2.332h-.163v-4.388h.163v1.235a1.608,1.608,0,0,1,.63-1,1.861,1.861,0,0,1,1.093-.333A1.747,1.747,0,0,1-4018,2074.9Z" transform="translate(4025.342 -2072.889)"/><path class="k" d="M-4001.1,2074.217v2.575h-.162v-5.72h1.446a1.977,1.977,0,0,1,1.386.414,1.514,1.514,0,0,1,.443,1.163,1.451,1.451,0,0,1-.463,1.177,2.07,2.07,0,0,1-1.365.391Zm2.556-.536a1.339,1.339,0,0,0,.394-1.032,1.363,1.363,0,0,0-.39-1.057,1.862,1.862,0,0,0-1.276-.357h-1.284v2.812h1.284A1.833,1.833,0,0,0-3998.544,2073.681Z" transform="translate(4012.799 -2070.779)"/><path class="k" d="M-3989.937,2070.518a.2.2,0,0,1,.15-.061.206.206,0,0,1,.15.061.217.217,0,0,1,.061.159.217.217,0,0,1-.061.158.205.205,0,0,1-.15.061.2.2,0,0,1-.15-.061.215.215,0,0,1-.061-.158A.216.216,0,0,1-3989.937,2070.518Zm.231,1.5v4.388h-.163v-4.388Z" transform="translate(4005.696 -2070.392)"/><path class="k" d="M-3982.216,2074.8a1.877,1.877,0,0,1,.756.781,2.532,2.532,0,0,1,.268,1.2,2.533,2.533,0,0,1-.268,1.2,1.873,1.873,0,0,1-.756.78,2.239,2.239,0,0,1-1.113.272,2.026,2.026,0,0,1-1.28-.407,1.955,1.955,0,0,1-.7-1.064v3.478h-.154v-6.451h.154V2076a1.958,1.958,0,0,1,.7-1.064,2.025,2.025,0,0,1,1.28-.406A2.247,2.247,0,0,1-3982.216,2074.8Zm-2.132.138a1.856,1.856,0,0,0-.707.74,2.283,2.283,0,0,0-.256,1.1,2.283,2.283,0,0,0,.256,1.1,1.849,1.849,0,0,0,.707.74,1.976,1.976,0,0,0,1.02.264,2.073,2.073,0,0,0,1.044-.252,1.713,1.713,0,0,0,.687-.727,2.437,2.437,0,0,0,.244-1.126,2.436,2.436,0,0,0-.244-1.125,1.714,1.714,0,0,0-.687-.727,2.078,2.078,0,0,0-1.044-.251A1.98,1.98,0,0,0-3984.348,2074.936Z" transform="translate(4002.837 -2072.958)"/><path class="k" d="M-3970.541,2070.28v6.012h-.163v-6.012Z" transform="translate(3993.527 -2070.28)"/><path class="k" d="M-3966.8,2070.715a1.2,1.2,0,0,0-.276.882v.308h1.259v.171h-1.259v4.217h-.163v-4.217h-.715v-.171h.715v-.308a1.349,1.349,0,0,1,.325-.992,1.519,1.519,0,0,1,1.1-.325v.162A1.393,1.393,0,0,0-3966.8,2070.715Z" transform="translate(3991.794 -2070.28)"/><path class="k" d="M-3960.78,2074.68l1.771,4.153,1.633-4.153h.179l-2.5,6.451h-.2l.8-2.055-1.861-4.4Z" transform="translate(3987.382 -2073.055)"/><path class="k" d="M-3937.313,2074.68l-1.381,4.388h-.122l-1.6-4.087-1.593,4.087h-.122l-1.381-4.388h.178l1.276,4.054,1.576-4.054h.138l1.576,4.054,1.276-4.054Z" transform="translate(3976.379 -2073.055)"/><path class="k" d="M-3921.612,2078.507a1.528,1.528,0,0,0,.61-1.024h.162a1.75,1.75,0,0,1-.646,1.117,2.121,2.121,0,0,1-1.369.427,2.195,2.195,0,0,1-1.089-.269,1.875,1.875,0,0,1-.751-.78,2.524,2.524,0,0,1-.272-1.2,2.521,2.521,0,0,1,.272-1.2,1.877,1.877,0,0,1,.751-.78,2.192,2.192,0,0,1,1.089-.268,2.1,2.1,0,0,1,1.1.272,1.818,1.818,0,0,1,.687.7,1.892,1.892,0,0,1,.232.91,2.723,2.723,0,0,1-.032.438h-3.933a2.217,2.217,0,0,0,.281,1.13,1.745,1.745,0,0,0,.711.678,2.087,2.087,0,0,0,.959.223A2.027,2.027,0,0,0-3921.612,2078.507Zm-2.2-3.612a1.741,1.741,0,0,0-.711.678,2.218,2.218,0,0,0-.281,1.13h3.819a2.022,2.022,0,0,0-.215-1.13,1.635,1.635,0,0,0-.7-.678,2.085,2.085,0,0,0-.954-.223A2.081,2.081,0,0,0-3923.813,2074.9Z" transform="translate(3964.682 -2072.958)"/><path class="k" d="M-3901.068,2072.287a1.927,1.927,0,0,1,.5,1.447v2.559h-.154v-2.575a1.831,1.831,0,0,0-.431-1.313,1.555,1.555,0,0,0-1.178-.451,1.627,1.627,0,0,0-1.252.508,2.133,2.133,0,0,0-.471,1.5v2.332h-.162v-6.012h.162v2.86a1.605,1.605,0,0,1,.63-1,1.859,1.859,0,0,1,1.093-.333A1.746,1.746,0,0,1-3901.068,2072.287Z" transform="translate(3951.599 -2070.28)"/><path class="k" d="M-3887.847,2074.932a1.957,1.957,0,0,1,.7,1.064v-1.414h.154v4.388h-.154v-1.414a1.955,1.955,0,0,1-.7,1.064,2.025,2.025,0,0,1-1.28.407,2.242,2.242,0,0,1-1.113-.272,1.875,1.875,0,0,1-.756-.78,2.536,2.536,0,0,1-.268-1.2,2.535,2.535,0,0,1,.268-1.2,1.879,1.879,0,0,1,.756-.781,2.249,2.249,0,0,1,1.113-.272A2.025,2.025,0,0,1-3887.847,2074.932Zm-2.324-.009a1.719,1.719,0,0,0-.687.727,2.436,2.436,0,0,0-.244,1.125,2.437,2.437,0,0,0,.244,1.126,1.718,1.718,0,0,0,.687.727,2.073,2.073,0,0,0,1.044.252,1.975,1.975,0,0,0,1.02-.264,1.854,1.854,0,0,0,.707-.74,2.286,2.286,0,0,0,.256-1.1,2.286,2.286,0,0,0-.256-1.1,1.861,1.861,0,0,0-.707-.74,1.979,1.979,0,0,0-1.02-.263A2.078,2.078,0,0,0-3890.171,2074.924Z" transform="translate(3943.427 -2072.958)"/><path class="k" d="M-3875.448,2078.784l1.747-4.1h.179l-1.869,4.388h-.122l-1.869-4.388h.179Z" transform="translate(3934.673 -2073.055)"/><path class="k" d="M-3861.816,2078.507a1.527,1.527,0,0,0,.61-1.024h.162a1.744,1.744,0,0,1-.646,1.117,2.121,2.121,0,0,1-1.369.427,2.192,2.192,0,0,1-1.089-.269,1.878,1.878,0,0,1-.752-.78,2.529,2.529,0,0,1-.272-1.2,2.526,2.526,0,0,1,.272-1.2,1.88,1.88,0,0,1,.752-.78,2.189,2.189,0,0,1,1.089-.268,2.1,2.1,0,0,1,1.1.272,1.82,1.82,0,0,1,.687.7,1.892,1.892,0,0,1,.231.91,2.7,2.7,0,0,1-.032.438h-3.932a2.217,2.217,0,0,0,.28,1.13,1.75,1.75,0,0,0,.711.678,2.087,2.087,0,0,0,.959.223A2.027,2.027,0,0,0-3861.816,2078.507Zm-2.2-3.612a1.746,1.746,0,0,0-.711.678,2.218,2.218,0,0,0-.28,1.13h3.819a2.022,2.022,0,0,0-.215-1.13,1.636,1.636,0,0,0-.7-.678,2.088,2.088,0,0,0-.955-.223A2.081,2.081,0,0,0-3864.018,2074.9Z" transform="translate(3926.971 -2072.958)"/><path class="k" d="M-3844.979,2072.928V2076a1.624,1.624,0,0,0,.089.61.536.536,0,0,0,.284.3,1.39,1.39,0,0,0,.544.085h.463v.162h-.479a1.089,1.089,0,0,1-.817-.26,1.282,1.282,0,0,1-.248-.894v-3.071h-.715v-.163h.715v-1.121h.162v1.121h1.381v.163Z" transform="translate(3914.79 -2071.14)"/><path class="k" d="M-3833.837,2072.287a1.928,1.928,0,0,1,.5,1.447v2.559h-.155v-2.575a1.831,1.831,0,0,0-.431-1.313,1.554,1.554,0,0,0-1.178-.451,1.626,1.626,0,0,0-1.251.508,2.131,2.131,0,0,0-.471,1.5v2.332h-.163v-6.012h.163v2.86a1.6,1.6,0,0,1,.63-1,1.858,1.858,0,0,1,1.093-.333A1.748,1.748,0,0,1-3833.837,2072.287Z" transform="translate(3909.198 -2070.28)"/><path class="k" d="M-3820.676,2078.507a1.529,1.529,0,0,0,.61-1.024h.162a1.75,1.75,0,0,1-.646,1.117,2.122,2.122,0,0,1-1.369.427,2.191,2.191,0,0,1-1.089-.269,1.873,1.873,0,0,1-.751-.78,2.524,2.524,0,0,1-.272-1.2,2.521,2.521,0,0,1,.272-1.2,1.875,1.875,0,0,1,.751-.78,2.189,2.189,0,0,1,1.089-.268,2.1,2.1,0,0,1,1.1.272,1.823,1.823,0,0,1,.687.7,1.892,1.892,0,0,1,.231.91,2.7,2.7,0,0,1-.032.438h-3.933a2.214,2.214,0,0,0,.281,1.13,1.744,1.744,0,0,0,.711.678,2.086,2.086,0,0,0,.959.223A2.028,2.028,0,0,0-3820.676,2078.507Zm-2.2-3.612a1.74,1.74,0,0,0-.711.678,2.215,2.215,0,0,0-.281,1.13h3.819a2.024,2.024,0,0,0-.215-1.13,1.639,1.639,0,0,0-.7-.678,2.086,2.086,0,0,0-.955-.223A2.08,2.08,0,0,0-3822.878,2074.9Z" transform="translate(3901.026 -2072.958)"/><path class="k" d="M-3801.393,2074.417v.178h-.073a1.774,1.774,0,0,0-1.174.4,1.6,1.6,0,0,0-.483,1.3v2.608h-.162v-4.388h.162v1.065Q-3802.864,2074.417-3801.393,2074.417Z" transform="translate(3887.942 -2072.889)"/><path class="k" d="M-3796.141,2070.518a.2.2,0,0,1,.15-.061.206.206,0,0,1,.151.061.216.216,0,0,1,.061.159.215.215,0,0,1-.061.158.205.205,0,0,1-.151.061.2.2,0,0,1-.15-.061.215.215,0,0,1-.061-.158A.216.216,0,0,1-3796.141,2070.518Zm.232,1.5v4.388h-.163v-4.388Z" transform="translate(3883.475 -2070.392)"/><path class="k" d="M-3788.8,2074.932a1.957,1.957,0,0,1,.7,1.064v-1.414h.154v4.551a2.035,2.035,0,0,1-.268,1.06,1.806,1.806,0,0,1-.711.687,2.018,2.018,0,0,1-.963.236,2.169,2.169,0,0,1-1.32-.386,1.943,1.943,0,0,1-.719-1.044h.163a1.785,1.785,0,0,0,.662.938,2.012,2.012,0,0,0,1.215.345,1.83,1.83,0,0,0,.91-.228,1.662,1.662,0,0,0,.642-.642,1.926,1.926,0,0,0,.236-.967v-1.577a1.955,1.955,0,0,1-.7,1.064,2.026,2.026,0,0,1-1.28.407,2.241,2.241,0,0,1-1.113-.272,1.874,1.874,0,0,1-.755-.78,2.533,2.533,0,0,1-.268-1.2,2.532,2.532,0,0,1,.268-1.2,1.878,1.878,0,0,1,.755-.781,2.248,2.248,0,0,1,1.113-.272A2.025,2.025,0,0,1-3788.8,2074.932Zm-2.324-.009a1.716,1.716,0,0,0-.687.727,2.436,2.436,0,0,0-.244,1.125,2.437,2.437,0,0,0,.244,1.126,1.715,1.715,0,0,0,.687.727,2.073,2.073,0,0,0,1.044.252,1.978,1.978,0,0,0,1.02-.264,1.854,1.854,0,0,0,.707-.74,2.286,2.286,0,0,0,.256-1.1,2.286,2.286,0,0,0-.256-1.1,1.861,1.861,0,0,0-.707-.74,1.982,1.982,0,0,0-1.02-.263A2.078,2.078,0,0,0-3791.128,2074.924Z" transform="translate(3880.964 -2072.958)"/><path class="k" d="M-3773.757,2072.287a1.929,1.929,0,0,1,.5,1.447v2.559h-.155v-2.575a1.83,1.83,0,0,0-.431-1.313,1.554,1.554,0,0,0-1.178-.451,1.626,1.626,0,0,0-1.251.508,2.13,2.13,0,0,0-.471,1.5v2.332h-.162v-6.012h.162v2.86a1.607,1.607,0,0,1,.63-1,1.86,1.86,0,0,1,1.093-.333A1.747,1.747,0,0,1-3773.757,2072.287Z" transform="translate(3871.308 -2070.28)"/><path class="k" d="M-3763.954,2072.928V2076a1.618,1.618,0,0,0,.09.61.536.536,0,0,0,.284.3,1.389,1.389,0,0,0,.544.085h.463v.162h-.479a1.089,1.089,0,0,1-.817-.26,1.282,1.282,0,0,1-.248-.894v-3.071h-.715v-.163h.715v-1.121h.162v1.121h1.381v.163Z" transform="translate(3863.69 -2071.14)"/><path class="k" d="M-3746.335,2074.8a1.878,1.878,0,0,1,.756.781,2.529,2.529,0,0,1,.269,1.2,2.53,2.53,0,0,1-.269,1.2,1.873,1.873,0,0,1-.756.78,2.24,2.24,0,0,1-1.114.272,2.026,2.026,0,0,1-1.28-.407,1.953,1.953,0,0,1-.7-1.064v3.478h-.155v-6.451h.155V2076a1.955,1.955,0,0,1,.7-1.064,2.026,2.026,0,0,1,1.28-.406A2.248,2.248,0,0,1-3746.335,2074.8Zm-2.133.138a1.862,1.862,0,0,0-.707.74,2.286,2.286,0,0,0-.256,1.1,2.286,2.286,0,0,0,.256,1.1,1.855,1.855,0,0,0,.707.74,1.976,1.976,0,0,0,1.019.264,2.075,2.075,0,0,0,1.044-.252,1.719,1.719,0,0,0,.687-.727,2.44,2.44,0,0,0,.244-1.126,2.439,2.439,0,0,0-.244-1.125,1.72,1.72,0,0,0-.687-.727,2.08,2.08,0,0,0-1.044-.251A1.98,1.98,0,0,0-3748.468,2074.936Z" transform="translate(3854.075 -2072.958)"/><path class="k" d="M-3732.018,2078.507a1.527,1.527,0,0,0,.61-1.024h.162a1.749,1.749,0,0,1-.646,1.117,2.12,2.12,0,0,1-1.369.427,2.192,2.192,0,0,1-1.089-.269,1.876,1.876,0,0,1-.751-.78,2.527,2.527,0,0,1-.272-1.2,2.524,2.524,0,0,1,.272-1.2,1.879,1.879,0,0,1,.751-.78,2.19,2.19,0,0,1,1.089-.268,2.1,2.1,0,0,1,1.1.272,1.82,1.82,0,0,1,.687.7,1.892,1.892,0,0,1,.232.91,2.723,2.723,0,0,1-.032.438h-3.933a2.222,2.222,0,0,0,.28,1.13,1.75,1.75,0,0,0,.711.678,2.087,2.087,0,0,0,.959.223A2.026,2.026,0,0,0-3732.018,2078.507Zm-2.2-3.612a1.746,1.746,0,0,0-.711.678,2.223,2.223,0,0,0-.28,1.13h3.819a2.026,2.026,0,0,0-.215-1.13,1.633,1.633,0,0,0-.7-.678,2.085,2.085,0,0,0-.955-.223A2.081,2.081,0,0,0-3734.22,2074.9Z" transform="translate(3845.113 -2072.958)"/><path class="k" d="M-3719.115,2074.417v.178h-.073a1.775,1.775,0,0,0-1.174.4,1.6,1.6,0,0,0-.483,1.3v2.608h-.163v-4.388h.163v1.065Q-3720.585,2074.417-3719.115,2074.417Z" transform="translate(3836.052 -2072.889)"/><path class="k" d="M-3711.684,2074.883a1.485,1.485,0,0,1,.479.983h-.163a1.375,1.375,0,0,0-.406-.849,1.316,1.316,0,0,0-.967-.345,1.263,1.263,0,0,0-.857.272.908.908,0,0,0-.313.719.746.746,0,0,0,.175.524,1.079,1.079,0,0,0,.426.285,6.391,6.391,0,0,0,.691.2,6.153,6.153,0,0,1,.763.223,1.161,1.161,0,0,1,.483.35.978.978,0,0,1,.2.646,1.051,1.051,0,0,1-.354.82,1.331,1.331,0,0,1-.923.317,1.782,1.782,0,0,1-1.15-.362,1.417,1.417,0,0,1-.524-.979h.163a1.246,1.246,0,0,0,.443.853,1.587,1.587,0,0,0,1.076.342,1.136,1.136,0,0,0,.813-.276.939.939,0,0,0,.293-.715.823.823,0,0,0-.179-.557,1.087,1.087,0,0,0-.447-.309,5.229,5.229,0,0,0-.707-.2,5.472,5.472,0,0,1-.743-.215,1.17,1.17,0,0,1-.471-.333.912.912,0,0,1-.191-.614,1.032,1.032,0,0,1,.365-.829,1.451,1.451,0,0,1,.967-.309A1.542,1.542,0,0,1-3711.684,2074.883Z" transform="translate(3831.71 -2072.958)"/><path class="k" d="M-3700.254,2074.8a1.93,1.93,0,0,1,.764.781,2.477,2.477,0,0,1,.276,1.2,2.478,2.478,0,0,1-.276,1.2,1.926,1.926,0,0,1-.764.78,2.206,2.206,0,0,1-1.1.272,2.206,2.206,0,0,1-1.1-.272,1.955,1.955,0,0,1-.768-.78,2.446,2.446,0,0,1-.28-1.2,2.445,2.445,0,0,1,.28-1.2,1.96,1.96,0,0,1,.768-.781,2.213,2.213,0,0,1,1.1-.272A2.214,2.214,0,0,1-3700.254,2074.8Zm-2.076.106a1.769,1.769,0,0,0-.728.707,2.285,2.285,0,0,0-.276,1.165,2.287,2.287,0,0,0,.276,1.166,1.767,1.767,0,0,0,.728.707,2.112,2.112,0,0,0,.979.232,2.089,2.089,0,0,0,.975-.232,1.786,1.786,0,0,0,.723-.7,2.285,2.285,0,0,0,.276-1.17,2.285,2.285,0,0,0-.276-1.17,1.789,1.789,0,0,0-.723-.7,2.091,2.091,0,0,0-.975-.231A2.114,2.114,0,0,0-3702.33,2074.9Z" transform="translate(3825.008 -2072.958)"/><path class="k" d="M-3685.559,2074.9a1.928,1.928,0,0,1,.5,1.447v2.559h-.154v-2.575a1.832,1.832,0,0,0-.431-1.312,1.555,1.555,0,0,0-1.178-.451,1.626,1.626,0,0,0-1.251.508,2.131,2.131,0,0,0-.471,1.5v2.332h-.163v-4.388h.163v1.235a1.606,1.606,0,0,1,.63-1,1.861,1.861,0,0,1,1.093-.333A1.748,1.748,0,0,1-3685.559,2074.9Z" transform="translate(3815.684 -2072.889)"/><path class="k" d="M-4031.347,2107.715a1.2,1.2,0,0,0-.276.881v.308h1.26v.171h-1.26v4.217h-.162v-4.217h-.715v-.171h.715v-.308a1.347,1.347,0,0,1,.325-.992,1.515,1.515,0,0,1,1.1-.325v.163A1.39,1.39,0,0,0-4031.347,2107.715Z" transform="translate(4032.501 -2093.615)"/><path class="k" d="M-4021.383,2111.8a1.935,1.935,0,0,1,.764.78,2.472,2.472,0,0,1,.276,1.2,2.469,2.469,0,0,1-.276,1.2,1.926,1.926,0,0,1-.764.78,2.212,2.212,0,0,1-1.1.272,2.211,2.211,0,0,1-1.1-.272,1.947,1.947,0,0,1-.768-.78,2.438,2.438,0,0,1-.28-1.2,2.441,2.441,0,0,1,.28-1.2,1.956,1.956,0,0,1,.768-.78,2.213,2.213,0,0,1,1.1-.272A2.215,2.215,0,0,1-4021.383,2111.8Zm-2.076.106a1.764,1.764,0,0,0-.728.707,2.285,2.285,0,0,0-.276,1.166,2.286,2.286,0,0,0,.276,1.166,1.771,1.771,0,0,0,.728.707,2.11,2.11,0,0,0,.979.232,2.09,2.09,0,0,0,.975-.232,1.791,1.791,0,0,0,.723-.7,2.281,2.281,0,0,0,.276-1.17,2.283,2.283,0,0,0-.276-1.17,1.789,1.789,0,0,0-.723-.7,2.087,2.087,0,0,0-.975-.231A2.107,2.107,0,0,0-4023.459,2111.9Z" transform="translate(4027.533 -2096.292)"/><path class="k" d="M-4007.948,2111.417v.178h-.073a1.774,1.774,0,0,0-1.174.4,1.6,1.6,0,0,0-.483,1.3v2.608h-.163v-4.388h.163v1.064Q-4009.418,2111.417-4007.948,2111.417Z" transform="translate(4018.21 -2096.223)"/><path class="k" d="M-3997.276,2111.68l1.771,4.152,1.633-4.152h.179l-2.5,6.451h-.2l.8-2.055-1.861-4.4Z" transform="translate(4010.398 -2096.39)"/><path class="k" d="M-3982.267,2111.8a1.929,1.929,0,0,1,.764.78,2.472,2.472,0,0,1,.276,1.2,2.469,2.469,0,0,1-.276,1.2,1.92,1.92,0,0,1-.764.78,2.211,2.211,0,0,1-1.1.272,2.211,2.211,0,0,1-1.1-.272,1.948,1.948,0,0,1-.768-.78,2.443,2.443,0,0,1-.28-1.2,2.446,2.446,0,0,1,.28-1.2,1.958,1.958,0,0,1,.768-.78,2.213,2.213,0,0,1,1.1-.272A2.213,2.213,0,0,1-3982.267,2111.8Zm-2.076.106a1.767,1.767,0,0,0-.728.707,2.29,2.29,0,0,0-.276,1.166,2.291,2.291,0,0,0,.276,1.166,1.774,1.774,0,0,0,.728.707,2.114,2.114,0,0,0,.979.232,2.088,2.088,0,0,0,.975-.232,1.785,1.785,0,0,0,.723-.7,2.281,2.281,0,0,0,.276-1.17,2.283,2.283,0,0,0-.276-1.17,1.783,1.783,0,0,0-.723-.7,2.085,2.085,0,0,0-.975-.231A2.111,2.111,0,0,0-3984.343,2111.9Z" transform="translate(4002.864 -2096.292)"/><path class="k" d="M-3967.516,2111.68v4.388h-.163v-1.235a1.61,1.61,0,0,1-.63,1,1.858,1.858,0,0,1-1.093.333,1.746,1.746,0,0,1-1.268-.479,1.926,1.926,0,0,1-.5-1.446v-2.56h.154v2.576a1.828,1.828,0,0,0,.431,1.313,1.554,1.554,0,0,0,1.178.45,1.625,1.625,0,0,0,1.251-.508,2.129,2.129,0,0,0,.472-1.5v-2.332Z" transform="translate(3993.818 -2096.39)"/><path class="k" d="M-3955.655,2111.417v.178h-.073a1.776,1.776,0,0,0-1.174.4,1.6,1.6,0,0,0-.483,1.3v2.608h-.163v-4.388h.163v1.064Q-3957.125,2111.417-3955.655,2111.417Z" transform="translate(3985.23 -2096.223)"/><path class="k" d="M-3946.152,2115.306h.292a.726.726,0,0,0,.52-.159.764.764,0,0,0,.163-.557v-5.574h.162v5.623a.882.882,0,0,1-.195.613.841.841,0,0,1-.65.215h-.292Zm.906-7.472a.214.214,0,0,1-.061-.158.215.215,0,0,1,.061-.159.206.206,0,0,1,.15-.061.206.206,0,0,1,.15.061.215.215,0,0,1,.061.159.214.214,0,0,1-.061.158.2.2,0,0,1-.15.061A.2.2,0,0,1-3945.246,2107.834Z" transform="translate(3978.043 -2093.726)"/><path class="k" d="M-3936.64,2111.8a1.929,1.929,0,0,1,.764.78,2.467,2.467,0,0,1,.276,1.2,2.464,2.464,0,0,1-.276,1.2,1.92,1.92,0,0,1-.764.78,2.211,2.211,0,0,1-1.1.272,2.208,2.208,0,0,1-1.1-.272,1.945,1.945,0,0,1-.768-.78,2.438,2.438,0,0,1-.28-1.2,2.441,2.441,0,0,1,.28-1.2,1.954,1.954,0,0,1,.768-.78,2.21,2.21,0,0,1,1.1-.272A2.213,2.213,0,0,1-3936.64,2111.8Zm-2.076.106a1.764,1.764,0,0,0-.728.707,2.28,2.28,0,0,0-.276,1.166,2.282,2.282,0,0,0,.276,1.166,1.771,1.771,0,0,0,.728.707,2.112,2.112,0,0,0,.979.232,2.09,2.09,0,0,0,.975-.232,1.787,1.787,0,0,0,.723-.7,2.272,2.272,0,0,0,.276-1.17,2.273,2.273,0,0,0-.276-1.17,1.785,1.785,0,0,0-.723-.7,2.087,2.087,0,0,0-.975-.231A2.109,2.109,0,0,0-3938.716,2111.9Z" transform="translate(3974.089 -2096.292)"/><path class="k" d="M-3921.848,2109.121a1.875,1.875,0,0,1,.756.78,2.53,2.53,0,0,1,.268,1.2,2.529,2.529,0,0,1-.268,1.2,1.872,1.872,0,0,1-.756.78,2.244,2.244,0,0,1-1.113.272,2.026,2.026,0,0,1-1.28-.407,1.953,1.953,0,0,1-.7-1.064v1.414h-.155v-6.013h.155v3.039a1.954,1.954,0,0,1,.7-1.064,2.025,2.025,0,0,1,1.28-.407A2.242,2.242,0,0,1-3921.848,2109.121Zm-2.133.138a1.862,1.862,0,0,0-.707.74,2.286,2.286,0,0,0-.256,1.1,2.286,2.286,0,0,0,.256,1.1,1.855,1.855,0,0,0,.707.739,1.977,1.977,0,0,0,1.02.264,2.071,2.071,0,0,0,1.044-.252,1.72,1.72,0,0,0,.687-.727,2.441,2.441,0,0,0,.243-1.126,2.437,2.437,0,0,0-.243-1.125,1.723,1.723,0,0,0-.687-.728,2.083,2.083,0,0,0-1.044-.251A1.983,1.983,0,0,0-3923.98,2109.259Z" transform="translate(3964.765 -2093.615)"/><path class="k" d="M-3911.118,2122.482v.4h-.406v-.4Z" transform="translate(3956.205 -2103.202)"/><path class="k" d="M-3900.113,2108.072v4.558a1.216,1.216,0,0,1-.328.874,1.2,1.2,0,0,1-.914.345,1.238,1.238,0,0,1-.979-.39,1.559,1.559,0,0,1-.345-1.072h.162a1.54,1.54,0,0,0,.276.942,1.027,1.027,0,0,0,.886.374.99.99,0,0,0,.829-.321,1.182,1.182,0,0,0,.252-.751v-4.558Z" transform="translate(3950.627 -2094.114)"/><path class="k" d="M-3888.89,2111.68v4.388h-.163v-1.235a1.607,1.607,0,0,1-.63,1,1.857,1.857,0,0,1-1.093.333,1.748,1.748,0,0,1-1.268-.479,1.928,1.928,0,0,1-.5-1.446v-2.56h.154v2.576a1.83,1.83,0,0,0,.431,1.313,1.554,1.554,0,0,0,1.178.45,1.624,1.624,0,0,0,1.25-.508,2.129,2.129,0,0,0,.472-1.5v-2.332Z" transform="translate(3944.231 -2096.39)"/><path class="k" d="M-3877.033,2111.883a1.485,1.485,0,0,1,.48.983h-.163a1.373,1.373,0,0,0-.406-.849,1.316,1.316,0,0,0-.967-.345,1.262,1.262,0,0,0-.857.271.908.908,0,0,0-.313.719.748.748,0,0,0,.175.524,1.082,1.082,0,0,0,.427.285,6.509,6.509,0,0,0,.691.2,6.155,6.155,0,0,1,.764.223,1.168,1.168,0,0,1,.484.35.98.98,0,0,1,.2.646,1.05,1.05,0,0,1-.354.82,1.33,1.33,0,0,1-.923.317,1.78,1.78,0,0,1-1.15-.362,1.411,1.411,0,0,1-.524-.979h.162a1.248,1.248,0,0,0,.443.853,1.589,1.589,0,0,0,1.076.341,1.136,1.136,0,0,0,.813-.277.937.937,0,0,0,.292-.715.82.82,0,0,0-.178-.556,1.091,1.091,0,0,0-.447-.309,5.209,5.209,0,0,0-.707-.2,5.441,5.441,0,0,1-.744-.215,1.173,1.173,0,0,1-.471-.333.917.917,0,0,1-.191-.614,1.031,1.031,0,0,1,.366-.829,1.45,1.45,0,0,1,.967-.309A1.541,1.541,0,0,1-3877.033,2111.883Z" transform="translate(3935.99 -2096.292)"/><path class="k" d="M-3868.848,2109.928V2113a1.615,1.615,0,0,0,.09.61.537.537,0,0,0,.285.3,1.388,1.388,0,0,0,.544.085h.463v.163h-.48a1.089,1.089,0,0,1-.817-.26,1.281,1.281,0,0,1-.248-.894v-3.071h-.715v-.163h.715v-1.121h.162v1.121h1.382v.163Z" transform="translate(3929.843 -2094.475)"/><path class="k" d="M-3851.613,2111.933a1.957,1.957,0,0,1,.7,1.064v-1.414h.154v4.551a2.036,2.036,0,0,1-.268,1.06,1.808,1.808,0,0,1-.711.687,2.02,2.02,0,0,1-.963.235,2.17,2.17,0,0,1-1.32-.386,1.943,1.943,0,0,1-.719-1.044h.163a1.789,1.789,0,0,0,.663.939,2.015,2.015,0,0,0,1.214.345,1.831,1.831,0,0,0,.91-.228,1.668,1.668,0,0,0,.642-.642,1.921,1.921,0,0,0,.235-.966v-1.577a1.956,1.956,0,0,1-.7,1.065,2.026,2.026,0,0,1-1.28.406,2.244,2.244,0,0,1-1.114-.272,1.871,1.871,0,0,1-.755-.78,2.53,2.53,0,0,1-.268-1.2,2.533,2.533,0,0,1,.268-1.2,1.879,1.879,0,0,1,.755-.78,2.247,2.247,0,0,1,1.114-.272A2.024,2.024,0,0,1-3851.613,2111.933Zm-2.324-.009a1.719,1.719,0,0,0-.686.727,2.438,2.438,0,0,0-.244,1.125,2.437,2.437,0,0,0,.244,1.126,1.717,1.717,0,0,0,.686.727,2.073,2.073,0,0,0,1.045.252,1.979,1.979,0,0,0,1.02-.264,1.852,1.852,0,0,0,.707-.739,2.282,2.282,0,0,0,.256-1.1,2.28,2.28,0,0,0-.256-1.1,1.856,1.856,0,0,0-.707-.74,1.981,1.981,0,0,0-1.02-.263A2.08,2.08,0,0,0-3853.937,2111.924Z" transform="translate(3920.576 -2096.292)"/><path class="k" d="M-3840.009,2107.518a.206.206,0,0,1,.15-.061.2.2,0,0,1,.15.061.215.215,0,0,1,.061.159.213.213,0,0,1-.061.158.2.2,0,0,1-.15.061.2.2,0,0,1-.15-.061.215.215,0,0,1-.061-.158A.216.216,0,0,1-3840.009,2107.518Zm.231,1.5v4.387h-.162v-4.387Z" transform="translate(3911.141 -2093.726)"/><path class="k" d="M-3835.034,2115.783l1.747-4.1h.179l-1.869,4.388h-.122l-1.869-4.388h.179Z" transform="translate(3909.184 -2096.39)"/><path class="k" d="M-3821.4,2115.507a1.526,1.526,0,0,0,.609-1.024h.163a1.745,1.745,0,0,1-.646,1.117,2.121,2.121,0,0,1-1.369.427,2.19,2.19,0,0,1-1.089-.269,1.876,1.876,0,0,1-.751-.78,2.532,2.532,0,0,1-.272-1.2,2.53,2.53,0,0,1,.272-1.2,1.876,1.876,0,0,1,.751-.78,2.188,2.188,0,0,1,1.089-.269,2.1,2.1,0,0,1,1.1.272,1.821,1.821,0,0,1,.687.7,1.892,1.892,0,0,1,.232.91,2.673,2.673,0,0,1-.033.438h-3.933a2.223,2.223,0,0,0,.28,1.13,1.745,1.745,0,0,0,.711.678,2.081,2.081,0,0,0,.959.223A2.027,2.027,0,0,0-3821.4,2115.507Zm-2.2-3.612a1.745,1.745,0,0,0-.711.678,2.226,2.226,0,0,0-.28,1.13h3.819a2.025,2.025,0,0,0-.216-1.13,1.64,1.64,0,0,0-.7-.678,2.092,2.092,0,0,0-.955-.223A2.083,2.083,0,0,0-3823.6,2111.9Z" transform="translate(3901.484 -2096.292)"/><path class="k" d="M-3800.8,2111.68v4.388h-.163v-1.235a1.607,1.607,0,0,1-.63,1,1.858,1.858,0,0,1-1.093.333,1.747,1.747,0,0,1-1.268-.479,1.925,1.925,0,0,1-.5-1.446v-2.56h.155v2.576a1.828,1.828,0,0,0,.431,1.313,1.552,1.552,0,0,0,1.178.45,1.626,1.626,0,0,0,1.251-.508,2.13,2.13,0,0,0,.471-1.5v-2.332Z" transform="translate(3888.677 -2096.39)"/><path class="k" d="M-3788.946,2111.883a1.485,1.485,0,0,1,.479.983h-.163a1.376,1.376,0,0,0-.406-.849,1.314,1.314,0,0,0-.967-.345,1.262,1.262,0,0,0-.857.271.907.907,0,0,0-.312.719.746.746,0,0,0,.174.524,1.079,1.079,0,0,0,.427.285,6.464,6.464,0,0,0,.691.2,6.2,6.2,0,0,1,.764.223,1.17,1.17,0,0,1,.483.35.979.979,0,0,1,.2.646,1.052,1.052,0,0,1-.354.82,1.33,1.33,0,0,1-.922.317,1.78,1.78,0,0,1-1.15-.362,1.412,1.412,0,0,1-.524-.979h.163a1.248,1.248,0,0,0,.442.853,1.591,1.591,0,0,0,1.077.341,1.137,1.137,0,0,0,.813-.277.938.938,0,0,0,.292-.715.822.822,0,0,0-.179-.556,1.092,1.092,0,0,0-.447-.309,5.193,5.193,0,0,0-.707-.2,5.452,5.452,0,0,1-.743-.215,1.177,1.177,0,0,1-.472-.333.916.916,0,0,1-.19-.614,1.029,1.029,0,0,1,.366-.829,1.447,1.447,0,0,1,.967-.309A1.541,1.541,0,0,1-3788.946,2111.883Z" transform="translate(3880.436 -2096.292)"/><path class="k" d="M-3770.962,2111.933a1.957,1.957,0,0,1,.7,1.064v-1.414h.155v4.388h-.155v-1.414a1.957,1.957,0,0,1-.7,1.065,2.025,2.025,0,0,1-1.279.406,2.244,2.244,0,0,1-1.114-.272,1.87,1.87,0,0,1-.756-.78,2.536,2.536,0,0,1-.268-1.2,2.539,2.539,0,0,1,.268-1.2,1.879,1.879,0,0,1,.756-.78,2.247,2.247,0,0,1,1.114-.272A2.024,2.024,0,0,1-3770.962,2111.933Zm-2.324-.009a1.722,1.722,0,0,0-.687.727,2.444,2.444,0,0,0-.244,1.125,2.443,2.443,0,0,0,.244,1.126,1.719,1.719,0,0,0,.687.727,2.074,2.074,0,0,0,1.045.252,1.978,1.978,0,0,0,1.02-.264,1.855,1.855,0,0,0,.706-.739,2.282,2.282,0,0,0,.257-1.1,2.28,2.28,0,0,0-.257-1.1,1.859,1.859,0,0,0-.706-.74,1.98,1.98,0,0,0-1.02-.263A2.081,2.081,0,0,0-3773.286,2111.924Z" transform="translate(3869.712 -2096.292)"/><path class="k" d="M-3749.755,2111.952a1.746,1.746,0,0,1,.646,1.118h-.163a1.528,1.528,0,0,0-.609-1.024,2.031,2.031,0,0,0-1.244-.373,2.062,2.062,0,0,0-.971.231,1.739,1.739,0,0,0-.711.7,2.338,2.338,0,0,0-.268,1.17,2.337,2.337,0,0,0,.268,1.17,1.741,1.741,0,0,0,.711.7,2.065,2.065,0,0,0,.971.232,2.028,2.028,0,0,0,1.244-.374,1.526,1.526,0,0,0,.609-1.024h.163a1.745,1.745,0,0,1-.646,1.117,2.121,2.121,0,0,1-1.369.427,2.189,2.189,0,0,1-1.088-.269,1.876,1.876,0,0,1-.751-.78,2.526,2.526,0,0,1-.272-1.2,2.525,2.525,0,0,1,.272-1.2,1.876,1.876,0,0,1,.751-.78,2.187,2.187,0,0,1,1.088-.269A2.123,2.123,0,0,1-3749.755,2111.952Z" transform="translate(3856.378 -2096.292)"/><path class="k" d="M-3735.718,2109.287a1.927,1.927,0,0,1,.5,1.446v2.559h-.155v-2.575a1.83,1.83,0,0,0-.431-1.313,1.554,1.554,0,0,0-1.178-.451,1.626,1.626,0,0,0-1.251.508,2.13,2.13,0,0,0-.471,1.5v2.332h-.163v-6.013h.163v2.86a1.608,1.608,0,0,1,.63-1,1.86,1.86,0,0,1,1.093-.333A1.747,1.747,0,0,1-3735.718,2109.287Z" transform="translate(3847.318 -2093.615)"/><path class="k" d="M-3722.5,2111.933a1.96,1.96,0,0,1,.7,1.064v-1.414h.154v4.388h-.154v-1.414a1.959,1.959,0,0,1-.7,1.065,2.026,2.026,0,0,1-1.28.406,2.241,2.241,0,0,1-1.113-.272,1.867,1.867,0,0,1-.756-.78,2.53,2.53,0,0,1-.268-1.2,2.533,2.533,0,0,1,.268-1.2,1.875,1.875,0,0,1,.756-.78,2.244,2.244,0,0,1,1.113-.272A2.025,2.025,0,0,1-3722.5,2111.933Zm-2.324-.009a1.718,1.718,0,0,0-.687.727,2.438,2.438,0,0,0-.244,1.125,2.437,2.437,0,0,0,.244,1.126,1.715,1.715,0,0,0,.687.727,2.071,2.071,0,0,0,1.044.252,1.977,1.977,0,0,0,1.019-.264,1.855,1.855,0,0,0,.707-.739,2.287,2.287,0,0,0,.256-1.1,2.286,2.286,0,0,0-.256-1.1,1.859,1.859,0,0,0-.707-.74,1.979,1.979,0,0,0-1.019-.263A2.078,2.078,0,0,0-3724.82,2111.924Z" transform="translate(3839.146 -2096.292)"/><path class="k" d="M-3707.449,2111.9a1.926,1.926,0,0,1,.5,1.447v2.559h-.155v-2.575a1.829,1.829,0,0,0-.43-1.312,1.555,1.555,0,0,0-1.178-.451,1.627,1.627,0,0,0-1.251.508,2.131,2.131,0,0,0-.471,1.5v2.332h-.162v-4.388h.162v1.235a1.609,1.609,0,0,1,.63-1,1.86,1.86,0,0,1,1.093-.333A1.747,1.747,0,0,1-3707.449,2111.9Z" transform="translate(3829.489 -2096.223)"/><path class="k" d="M-3694.162,2111.952a1.747,1.747,0,0,1,.646,1.118h-.162a1.529,1.529,0,0,0-.61-1.024,2.029,2.029,0,0,0-1.243-.373,2.06,2.06,0,0,0-.971.231,1.74,1.74,0,0,0-.711.7,2.336,2.336,0,0,0-.268,1.17,2.334,2.334,0,0,0,.268,1.17,1.742,1.742,0,0,0,.711.7,2.063,2.063,0,0,0,.971.232,2.027,2.027,0,0,0,1.243-.374,1.527,1.527,0,0,0,.61-1.024h.162a1.746,1.746,0,0,1-.646,1.117,2.12,2.12,0,0,1-1.369.427,2.191,2.191,0,0,1-1.089-.269,1.881,1.881,0,0,1-.751-.78,2.529,2.529,0,0,1-.272-1.2,2.528,2.528,0,0,1,.272-1.2,1.881,1.881,0,0,1,.751-.78,2.188,2.188,0,0,1,1.089-.269A2.122,2.122,0,0,1-3694.162,2111.952Z" transform="translate(3821.317 -2096.292)"/><path class="k" d="M-3680.472,2115.507a1.526,1.526,0,0,0,.609-1.024h.163a1.742,1.742,0,0,1-.646,1.117,2.119,2.119,0,0,1-1.369.427,2.19,2.19,0,0,1-1.089-.269,1.876,1.876,0,0,1-.751-.78,2.526,2.526,0,0,1-.272-1.2,2.525,2.525,0,0,1,.272-1.2,1.876,1.876,0,0,1,.751-.78,2.188,2.188,0,0,1,1.089-.269,2.1,2.1,0,0,1,1.1.272,1.821,1.821,0,0,1,.687.7,1.9,1.9,0,0,1,.231.91,2.735,2.735,0,0,1-.032.438h-3.933a2.226,2.226,0,0,0,.281,1.13,1.744,1.744,0,0,0,.711.678,2.082,2.082,0,0,0,.958.223A2.028,2.028,0,0,0-3680.472,2115.507Zm-2.2-3.612a1.744,1.744,0,0,0-.711.678,2.228,2.228,0,0,0-.281,1.13h3.819a2.023,2.023,0,0,0-.216-1.13,1.636,1.636,0,0,0-.7-.678,2.093,2.093,0,0,0-.955-.223A2.084,2.084,0,0,0-3682.674,2111.9Z" transform="translate(3812.604 -2096.292)"/><path class="k" d="M-3934.759,2146.928V2150a1.616,1.616,0,0,0,.089.61.535.535,0,0,0,.285.3,1.388,1.388,0,0,0,.544.085h.463v.163h-.48a1.09,1.09,0,0,1-.816-.26,1.284,1.284,0,0,1-.248-.894v-3.071h-.715v-.163h.715v-1.121h.163v1.121h1.381v.163Z" transform="translate(3971.412 -2117.81)"/><path class="k" d="M-3924.079,2148.8a1.93,1.93,0,0,1,.764.781,2.471,2.471,0,0,1,.276,1.2,2.471,2.471,0,0,1-.276,1.2,1.921,1.921,0,0,1-.764.78,2.207,2.207,0,0,1-1.1.273,2.206,2.206,0,0,1-1.1-.273,1.942,1.942,0,0,1-.768-.78,2.44,2.44,0,0,1-.281-1.2,2.44,2.44,0,0,1,.281-1.2,1.951,1.951,0,0,1,.768-.781,2.21,2.21,0,0,1,1.1-.272A2.211,2.211,0,0,1-3924.079,2148.8Zm-2.076.106a1.772,1.772,0,0,0-.728.707,2.285,2.285,0,0,0-.276,1.166,2.287,2.287,0,0,0,.276,1.166,1.775,1.775,0,0,0,.728.707,2.113,2.113,0,0,0,.979.231,2.09,2.09,0,0,0,.975-.231,1.783,1.783,0,0,0,.723-.7,2.281,2.281,0,0,0,.276-1.17,2.282,2.282,0,0,0-.276-1.17,1.783,1.783,0,0,0-.723-.7,2.087,2.087,0,0,0-.975-.232A2.111,2.111,0,0,0-3926.155,2148.9Z" transform="translate(3966.167 -2119.627)"/><path class="k" d="M-3906.433,2144.715a1.2,1.2,0,0,0-.276.882v.308h1.26v.171h-1.26v4.217h-.162v-4.217h-.715v-.171h.715v-.308a1.351,1.351,0,0,1,.325-.992,1.52,1.52,0,0,1,1.1-.325v.162A1.391,1.391,0,0,0-3906.433,2144.715Z" transform="translate(3953.721 -2116.949)"/><path class="k" d="M-3899.452,2144.518a.205.205,0,0,1,.151-.061.206.206,0,0,1,.15.061.215.215,0,0,1,.061.159.215.215,0,0,1-.061.158.2.2,0,0,1-.15.061.2.2,0,0,1-.151-.061.213.213,0,0,1-.061-.158A.214.214,0,0,1-3899.452,2144.518Zm.232,1.5v4.388h-.163v-4.388Z" transform="translate(3948.63 -2117.061)"/><path class="k" d="M-3891.828,2148.9a1.924,1.924,0,0,1,.5,1.446v2.559h-.154v-2.575a1.831,1.831,0,0,0-.431-1.312,1.554,1.554,0,0,0-1.178-.451,1.626,1.626,0,0,0-1.251.507,2.132,2.132,0,0,0-.471,1.5v2.332h-.163v-4.387h.163v1.235a1.608,1.608,0,0,1,.63-1,1.858,1.858,0,0,1,1.093-.333A1.744,1.744,0,0,1-3891.828,2148.9Z" transform="translate(3945.771 -2119.559)"/><path class="k" d="M-3878.607,2146.255a1.955,1.955,0,0,1,.7,1.064v-3.039h.155v6.013h-.155v-1.414a1.954,1.954,0,0,1-.7,1.064,2.026,2.026,0,0,1-1.28.407,2.244,2.244,0,0,1-1.113-.273,1.868,1.868,0,0,1-.756-.78,2.535,2.535,0,0,1-.268-1.2,2.533,2.533,0,0,1,.268-1.2,1.875,1.875,0,0,1,.756-.781,2.246,2.246,0,0,1,1.113-.272A2.024,2.024,0,0,1-3878.607,2146.255Zm-2.324-.009a1.717,1.717,0,0,0-.687.727,2.442,2.442,0,0,0-.244,1.125,2.445,2.445,0,0,0,.244,1.126,1.717,1.717,0,0,0,.687.727,2.072,2.072,0,0,0,1.044.252,1.978,1.978,0,0,0,1.02-.264,1.857,1.857,0,0,0,.707-.739,2.285,2.285,0,0,0,.256-1.1,2.283,2.283,0,0,0-.256-1.1,1.86,1.86,0,0,0-.707-.74,1.98,1.98,0,0,0-1.02-.263A2.079,2.079,0,0,0-3880.931,2146.246Z" transform="translate(3937.6 -2116.949)"/><path class="k" d="M-3860.623,2144.518a.2.2,0,0,1,.15-.061.2.2,0,0,1,.15.061.215.215,0,0,1,.061.159.214.214,0,0,1-.061.158.2.2,0,0,1-.15.061.2.2,0,0,1-.15-.061.214.214,0,0,1-.061-.158A.215.215,0,0,1-3860.623,2144.518Zm.231,1.5v4.388h-.163v-4.388Z" transform="translate(3924.142 -2117.061)"/><path class="k" d="M-3856.7,2146.928V2150a1.615,1.615,0,0,0,.09.61.536.536,0,0,0,.284.3,1.389,1.389,0,0,0,.544.085h.463v.163h-.479a1.09,1.09,0,0,1-.817-.26,1.282,1.282,0,0,1-.248-.894v-3.071h-.715v-.163h.715v-1.121h.162v1.121h1.382v.163Z" transform="translate(3922.185 -2117.81)"/><path class="k" d="M-3842.612,2144.715a1.2,1.2,0,0,0-.276.882v.308h1.26v.171h-1.26v4.217h-.163v-4.217h-.715v-.171h.715v-.308a1.348,1.348,0,0,1,.325-.992,1.517,1.517,0,0,1,1.1-.325v.162A1.391,1.391,0,0,0-3842.612,2144.715Z" transform="translate(3913.472 -2116.949)"/><path class="k" d="M-3832.649,2148.8a1.934,1.934,0,0,1,.764.781,2.468,2.468,0,0,1,.276,1.2,2.468,2.468,0,0,1-.276,1.2,1.926,1.926,0,0,1-.764.78,2.206,2.206,0,0,1-1.1.273,2.205,2.205,0,0,1-1.1-.273,1.948,1.948,0,0,1-.768-.78,2.448,2.448,0,0,1-.28-1.2,2.448,2.448,0,0,1,.28-1.2,1.957,1.957,0,0,1,.768-.781,2.21,2.21,0,0,1,1.1-.272A2.211,2.211,0,0,1-3832.649,2148.8Zm-2.076.106a1.768,1.768,0,0,0-.727.707,2.288,2.288,0,0,0-.276,1.166,2.29,2.29,0,0,0,.276,1.166,1.771,1.771,0,0,0,.727.707,2.113,2.113,0,0,0,.979.231,2.088,2.088,0,0,0,.975-.231,1.785,1.785,0,0,0,.723-.7,2.279,2.279,0,0,0,.276-1.17,2.28,2.28,0,0,0-.276-1.17,1.785,1.785,0,0,0-.723-.7,2.085,2.085,0,0,0-.975-.232A2.11,2.11,0,0,0-3834.725,2148.9Z" transform="translate(3908.505 -2119.627)"/><path class="k" d="M-3819.213,2148.417v.178h-.073a1.773,1.773,0,0,0-1.174.4,1.594,1.594,0,0,0-.483,1.3v2.607h-.162v-4.387h.162v1.064Q-3820.684,2148.417-3819.213,2148.417Z" transform="translate(3899.181 -2119.559)"/><path class="k" d="M-3808.542,2148.68l1.771,4.153,1.633-4.153h.179l-2.5,6.451h-.2l.8-2.055-1.86-4.4Z" transform="translate(3891.37 -2119.724)"/><path class="k" d="M-3793.533,2148.8a1.938,1.938,0,0,1,.764.781,2.474,2.474,0,0,1,.276,1.2,2.474,2.474,0,0,1-.276,1.2,1.929,1.929,0,0,1-.764.78,2.207,2.207,0,0,1-1.1.273,2.207,2.207,0,0,1-1.1-.273,1.951,1.951,0,0,1-.768-.78,2.439,2.439,0,0,1-.28-1.2,2.439,2.439,0,0,1,.28-1.2,1.96,1.96,0,0,1,.768-.781,2.211,2.211,0,0,1,1.1-.272A2.212,2.212,0,0,1-3793.533,2148.8Zm-2.076.106a1.768,1.768,0,0,0-.728.707,2.288,2.288,0,0,0-.276,1.166,2.29,2.29,0,0,0,.276,1.166,1.771,1.771,0,0,0,.728.707,2.11,2.11,0,0,0,.979.231,2.09,2.09,0,0,0,.976-.231,1.789,1.789,0,0,0,.723-.7,2.284,2.284,0,0,0,.276-1.17,2.285,2.285,0,0,0-.276-1.17,1.79,1.79,0,0,0-.723-.7,2.087,2.087,0,0,0-.976-.232A2.107,2.107,0,0,0-3795.608,2148.9Z" transform="translate(3883.836 -2119.627)"/><path class="k" d="M-3778.783,2148.68v4.388h-.162v-1.235a1.61,1.61,0,0,1-.63,1,1.862,1.862,0,0,1-1.093.333,1.749,1.749,0,0,1-1.268-.479,1.928,1.928,0,0,1-.5-1.447v-2.559h.154v2.576a1.828,1.828,0,0,0,.431,1.313,1.552,1.552,0,0,0,1.178.451,1.625,1.625,0,0,0,1.251-.508,2.133,2.133,0,0,0,.471-1.5v-2.332Z" transform="translate(3874.79 -2119.724)"/><path class="k" d="M-3769.595,2159.482v.4H-3770v-.4Z" transform="translate(3866.951 -2126.537)"/></g><g transform="translate(15.216 77.529)"><rect class="l" width="28.315" height="7.387" rx="3.693" transform="translate(76.682 59.909)"/><rect class="l" width="28.315" height="7.387" rx="3.693" transform="translate(116.57 60.894)"/><rect class="l" width="28.315" height="7.387" rx="3.693" transform="translate(54.522 62.617)"/><rect class="l" width="28.315" height="7.387" rx="3.693" transform="translate(29.9 62.125)"/><rect class="l" width="28.315" height="7.387" rx="3.693" transform="translate(94.902 63.356)"/><rect class="l" width="28.315" height="7.387" rx="3.693" transform="translate(8.479 61.14)"/><g transform="translate(60.301 4.263)"><path class="m" d="M-3814.638,1678.092a4.379,4.379,0,0,1-4.378-4.379v-14.449a4.378,4.378,0,0,1,4.378-4.379,4.379,4.379,0,0,1,4.379,4.379v14.449A4.379,4.379,0,0,1-3814.638,1678.092Z" transform="translate(3846.03 -1652.66)"/><path class="n" d="M-3810.259,1659.5v-.238a4.379,4.379,0,0,0-4.379-4.379,4.378,4.378,0,0,0-4.378,4.379v.616c.075-.835.677-2.748,4.553-3.155A3.773,3.773,0,0,1-3810.259,1659.5Z" transform="translate(3846.03 -1652.66)"/><g transform="translate(25.087)"><path class="o" d="M-3814.949,1648.861a4.549,4.549,0,0,0-4.549,4.549h9.1A4.549,4.549,0,0,0-3814.949,1648.861Z" transform="translate(3821.247 -1648.861)"/><rect class="o" width="11.735" height="1.11" rx="0.555" transform="translate(0 4.216)"/></g><path class="n" d="M-3811.379,1674.5a5.757,5.757,0,0,1-2.521-.647.154.154,0,0,1-.061-.209.154.154,0,0,1,.209-.061c.025.013,2.478,1.336,4.3.01a.154.154,0,0,1,.215.034.154.154,0,0,1-.034.215A3.516,3.516,0,0,1-3811.379,1674.5Z" transform="translate(3842.853 -1664.438)"/><g transform="translate(27.611 7.202)"><circle class="h" cx="0.657" cy="0.657" r="0.657" transform="translate(0.103 0.103)"/><path class="n" d="M-3816.638,1669.879a.761.761,0,0,1-.76-.76.76.76,0,0,1,.76-.759.76.76,0,0,1,.759.759A.76.76,0,0,1-3816.638,1669.879Zm0-1.313a.555.555,0,0,0-.554.554.555.555,0,0,0,.554.554.554.554,0,0,0,.554-.554A.554.554,0,0,0-3816.638,1668.565Z" transform="translate(3817.398 -1668.36)"/></g><g transform="translate(33.479 7.202)"><circle class="h" cx="0.657" cy="0.657" r="0.657" transform="translate(0.103 0.103)"/><path class="n" d="M-3800.751,1669.879a.76.76,0,0,1-.76-.76.76.76,0,0,1,.76-.759.76.76,0,0,1,.76.759A.76.76,0,0,1-3800.751,1669.879Zm0-1.313a.554.554,0,0,0-.554.554.554.554,0,0,0,.554.554.554.554,0,0,0,.554-.554A.554.554,0,0,0-3800.751,1668.565Z" transform="translate(3801.511 -1668.36)"/></g><path class="p" d="M-3821.036,1687.8h-13.25a4.945,4.945,0,0,0-4.93,4.93v16.229a1.957,1.957,0,0,0,1.951,1.952h19.208a1.957,1.957,0,0,0,1.952-1.952v-16.229A4.945,4.945,0,0,0-3821.036,1687.8Z" transform="translate(3858.77 -1673.417)"/><path class="p" d="M-3833.74,1765.181a1.027,1.027,0,0,1-1.027-1.027v-25.268a1.027,1.027,0,0,1,1.027-1.027,1.027,1.027,0,0,1,1.027,1.027v25.268A1.027,1.027,0,0,1-3833.74,1765.181Z" transform="translate(3855.963 -1704.988)"/><path class="p" d="M-3786.183,1765.181a1.027,1.027,0,0,1-1.027-1.027v-25.268a1.027,1.027,0,0,1,1.027-1.027,1.027,1.027,0,0,1,1.027,1.027v25.268A1.027,1.027,0,0,1-3786.183,1765.181Z" transform="translate(3825.971 -1704.988)"/><path class="m" d="M-3891.949,1692.722a2.105,2.105,0,0,1,.94-2.787,31.88,31.88,0,0,1,24.048-1.961,2.105,2.105,0,0,1,1.24,2.708,2.106,2.106,0,0,1-2.7,1.242,25.033,25.033,0,0,0-6.412-1.161,27.331,27.331,0,0,0-14.258,2.923,2.106,2.106,0,0,1-2.833-.918Z" transform="translate(3892.158 -1672.592)"/><path class="q" d="M-3821.036,1687.8h-13.25a4.945,4.945,0,0,0-4.93,4.93v11.4h23.111v-11.4A4.945,4.945,0,0,0-3821.036,1687.8Z" transform="translate(3858.77 -1673.417)"/><path class="q" d="M-3842.749,1691.924a2.106,2.106,0,0,0,2.7-1.242,2.106,2.106,0,0,0-1.24-2.708,29.952,29.952,0,0,0-9.981-1.483l-.179,4.222q1.133-.019,2.285.049A25.027,25.027,0,0,1-3842.749,1691.924Z" transform="translate(3866.482 -1672.593)"/><path class="m" d="M-3769.026,1694.05a2.105,2.105,0,0,0-.754-2.843,31.881,31.881,0,0,0-23.866-3.546,2.106,2.106,0,0,0-1.416,2.62,2.106,2.106,0,0,0,2.615,1.418,25.036,25.036,0,0,1,6.475-.734,27.329,27.329,0,0,1,14.033,3.858,2.105,2.105,0,0,0,2.887-.728Z" transform="translate(3830.979 -1672.752)"/><path class="q" d="M-3792.448,1691.7a2.106,2.106,0,0,1-2.615-1.418,2.106,2.106,0,0,1,1.416-2.62,29.946,29.946,0,0,1,10.057-.82l-.1,4.225q-1.129-.094-2.283-.1A25.048,25.048,0,0,0-3792.448,1691.7Z" transform="translate(3830.979 -1672.753)"/><path class="r" d="M-3787.21,1795.427v5.033a1.027,1.027,0,0,0,1.027,1.027,1.027,1.027,0,0,0,1.027-1.027v-5.033Z" transform="translate(3825.971 -1741.295)"/><path class="r" d="M-3834.767,1795.427v5.033a1.027,1.027,0,0,0,1.027,1.027,1.027,1.027,0,0,0,1.027-1.027v-5.033Z" transform="translate(3855.963 -1741.295)"/><path class="m" d="M-3819.016,1686.159s.346,2.927,4.352,2.927,4.406-2.979,4.406-2.979S-3815.356,1683.848-3819.016,1686.159Z" transform="translate(3846.03 -1671.727)"/><path class="p" d="M-3828.371,1687.886v16.243h1.952V1687.8h-1.027A4.924,4.924,0,0,0-3828.371,1687.886Z" transform="translate(3851.93 -1673.417)"/><path class="p" d="M-3791.659,1687.8v16.332h1.951v-16.145a4.883,4.883,0,0,0-1.335-.186Z" transform="translate(3828.776 -1673.417)"/><circle class="h" cx="0.514" cy="0.514" r="0.514" transform="translate(24.072 30.199)"/><circle class="h" cx="0.514" cy="0.514" r="0.514" transform="translate(37.528 30.199)"/></g><g transform="translate(49.184 7.418)"><path class="s" d="M-3889.925,1664.363s-3.778,0-2.81-2.713,1.066-.775,4.166-2.616,5.91-2.712,6.2.634a1.742,1.742,0,0,1,2.329,1.3c.485,1.937-.193,5.877-.193,5.877Z" transform="translate(3903.738 -1657.405)"/><path class="m" d="M-3878.326,1686.713a4.379,4.379,0,0,1-4.379-4.378v-14.45a4.379,4.379,0,0,1,4.379-4.378,4.379,4.379,0,0,1,4.379,4.378v14.45A4.379,4.379,0,0,1-3878.326,1686.713Z" transform="translate(3897.313 -1661.253)"/><path class="n" d="M-3875.068,1683.117a5.763,5.763,0,0,1-2.521-.647.154.154,0,0,1-.061-.209.155.155,0,0,1,.209-.061c.025.014,2.478,1.336,4.3.01a.155.155,0,0,1,.215.034.154.154,0,0,1-.034.215A3.518,3.518,0,0,1-3875.068,1683.117Z" transform="translate(3894.136 -1673.031)"/><g transform="translate(15.206 7.23)"><circle class="h" cx="0.657" cy="0.657" r="0.657" transform="translate(0.103 0.103)"/><path class="n" d="M-3880.326,1678.5a.76.76,0,0,1-.76-.759.761.761,0,0,1,.76-.76.761.761,0,0,1,.76.76A.761.761,0,0,1-3880.326,1678.5Zm0-1.313a.555.555,0,0,0-.554.554.555.555,0,0,0,.554.554.555.555,0,0,0,.554-.554A.555.555,0,0,0-3880.326,1677.187Z" transform="translate(3881.086 -1676.981)"/></g><g transform="translate(21.073 7.23)"><circle class="h" cx="0.657" cy="0.657" r="0.657" transform="translate(0.103 0.103)"/><path class="n" d="M-3864.44,1678.5a.761.761,0,0,1-.76-.759.761.761,0,0,1,.76-.76.761.761,0,0,1,.759.76A.76.76,0,0,1-3864.44,1678.5Zm0-1.313a.555.555,0,0,0-.554.554.555.555,0,0,0,.554.554.554.554,0,0,0,.554-.554A.555.555,0,0,0-3864.44,1677.187Z" transform="translate(3865.199 -1676.981)"/></g><path class="t" d="M-3884.725,1696.418h-13.25a4.945,4.945,0,0,0-4.931,4.931v16.229a1.957,1.957,0,0,0,1.952,1.952h19.208a1.957,1.957,0,0,0,1.951-1.952v-16.229A4.945,4.945,0,0,0-3884.725,1696.418Z" transform="translate(3910.053 -1682.009)"/><path class="t" d="M-3897.429,1773.8a1.027,1.027,0,0,1-1.027-1.027v-25.268a1.027,1.027,0,0,1,1.027-1.027,1.027,1.027,0,0,1,1.027,1.027v25.268A1.027,1.027,0,0,1-3897.429,1773.8Z" transform="translate(3907.247 -1713.581)"/><path class="t" d="M-3849.871,1773.8a1.027,1.027,0,0,1-1.027-1.027v-25.268a1.027,1.027,0,0,1,1.027-1.027,1.027,1.027,0,0,1,1.027,1.027v25.268A1.027,1.027,0,0,1-3849.871,1773.8Z" transform="translate(3877.253 -1713.581)"/><path class="m" d="M-3920.144,1721.723a2.106,2.106,0,0,1-2.1-2.056,31.88,31.88,0,0,1,8.656-22.521,2.106,2.106,0,0,1,2.978.056,2.106,2.106,0,0,1-.053,2.974,25.063,25.063,0,0,0-3.825,5.276,27.334,27.334,0,0,0-3.546,14.116,2.105,2.105,0,0,1-2.055,2.155Z" transform="translate(3922.257 -1682.097)"/><path class="u" d="M-3884.725,1696.418h-13.25a4.945,4.945,0,0,0-4.931,4.931v11.4h23.111v-11.4A4.945,4.945,0,0,0-3884.725,1696.418Z" transform="translate(3910.053 -1682.009)"/><path class="v" d="M-3905.538,1700.176a2.106,2.106,0,0,0,.053-2.974,2.106,2.106,0,0,0-2.978-.056,29.944,29.944,0,0,0-5.662,8.352l3.727,1.992q.474-1.029,1.035-2.038A25.074,25.074,0,0,1-3905.538,1700.176Z" transform="translate(3917.128 -1682.097)"/><path class="m" d="M-3844.279,1721.723a2.106,2.106,0,0,0,2.1-2.056,31.881,31.881,0,0,0-8.656-22.521,2.106,2.106,0,0,0-2.978.056,2.106,2.106,0,0,0,.052,2.974,25.039,25.039,0,0,1,3.825,5.276,27.332,27.332,0,0,1,3.546,14.116,2.1,2.1,0,0,0,2.055,2.155Z" transform="translate(3879.46 -1682.097)"/><path class="v" d="M-3853.756,1700.176a2.106,2.106,0,0,1-.052-2.974,2.106,2.106,0,0,1,2.978-.056,29.966,29.966,0,0,1,5.662,8.352l-3.727,1.992q-.474-1.029-1.035-2.038A25.039,25.039,0,0,0-3853.756,1700.176Z" transform="translate(3879.46 -1682.097)"/><path class="r" d="M-3850.9,1804.049v5.033a1.027,1.027,0,0,0,1.027,1.027,1.027,1.027,0,0,0,1.027-1.027v-5.033Z" transform="translate(3877.253 -1749.889)"/><path class="r" d="M-3898.456,1804.049v5.033a1.027,1.027,0,0,0,1.027,1.027,1.027,1.027,0,0,0,1.027-1.027v-5.033Z" transform="translate(3907.247 -1749.889)"/><rect class="r" width="23.111" height="2.876" transform="translate(7.147 29.097)"/><path class="v" d="M-3900.954,1719.529h6.163v-23.111h-3.184a4.945,4.945,0,0,0-4.931,4.931v16.229A1.957,1.957,0,0,0-3900.954,1719.529Z" transform="translate(3910.053 -1682.009)"/><path class="v" d="M-3859.117,1696.418h-3.184v23.111h6.163a1.958,1.958,0,0,0,1.952-1.952v-16.229A4.945,4.945,0,0,0-3859.117,1696.418Z" transform="translate(3884.445 -1682.009)"/><rect class="v" width="5.547" height="9.553" transform="translate(7.147 30.125)"/><rect class="v" width="5.547" height="9.553" transform="translate(24.712 30.125)"/><rect class="v" width="8.115" height="9.245" rx="4.057" transform="translate(7.147 30.433)"/><rect class="v" width="8.115" height="9.245" rx="4.057" transform="translate(22.144 30.433)"/><path class="m" d="M-3882.7,1694.78s.346,2.928,4.352,2.928,4.406-2.979,4.406-2.979S-3879.044,1692.469-3882.7,1694.78Z" transform="translate(3897.313 -1680.32)"/><path class="s" d="M-3876.859,1666.4v-.263a4.844,4.844,0,0,0-4.844-4.844,4.844,4.844,0,0,0-4.844,4.844s-2.228.588,0,.682,6.1-3.491,6.1-3.491A12.041,12.041,0,0,0-3876.859,1666.4Z" transform="translate(3900.36 -1659.856)"/></g><g transform="translate(0 5.187)"><path class="w" d="M-3979.538,1682.967a5.728,5.728,0,0,1,5.462,1.092c2.384,2.185,0,4.469,1.49,6.158s5.562,1.092,5.562,1.092-4.372,2.958-8.641.4c-2.979-1.788-2.375-3.575-2.285-4.668C-3977.849,1685.847-3977.054,1684.556-3979.538,1682.967Z" transform="translate(4007.566 -1671.122)"/><path class="w" d="M-4006.034,1666.138s-3.333,5.737,3.1,7.132c4.424.959,7.125-1.049,7.576-3.784a5.982,5.982,0,0,0-.831-3.968C-3998.67,1661.254-4006.034,1666.138-4006.034,1666.138Z" transform="translate(4024.821 -1659.189)"/><path class="m" d="M-3999.067,1686.689a4.234,4.234,0,0,1-4.234-4.234v-13.971a4.234,4.234,0,0,1,4.234-4.234,4.234,4.234,0,0,1,4.234,4.234v13.971A4.234,4.234,0,0,1-3999.067,1686.689Z" transform="translate(4022.553 -1659.491)"/><path class="n" d="M-3995.916,1683.211a5.568,5.568,0,0,1-2.437-.625.15.15,0,0,1-.059-.2.15.15,0,0,1,.2-.059c.024.013,2.4,1.292,4.159.01a.149.149,0,0,1,.208.033.149.149,0,0,1-.033.208A3.4,3.4,0,0,1-3995.916,1683.211Z" transform="translate(4019.481 -1670.878)"/><g transform="translate(19.826 9.568)"><circle class="h" cx="0.635" cy="0.635" r="0.635" transform="translate(0.103 0.103)"/><path class="n" d="M-4001.007,1678.744a.739.739,0,0,1-.738-.738.739.739,0,0,1,.738-.738.738.738,0,0,1,.737.738A.738.738,0,0,1-4001.007,1678.744Zm0-1.27a.534.534,0,0,0-.533.532.533.533,0,0,0,.533.533.533.533,0,0,0,.532-.533A.533.533,0,0,0-4001.007,1677.474Z" transform="translate(4001.745 -1677.269)"/></g><g transform="translate(25.5 9.568)"><circle class="h" cx="0.635" cy="0.635" r="0.635" transform="translate(0.103 0.103)"/><path class="n" d="M-3985.646,1678.744a.739.739,0,0,1-.738-.738.739.739,0,0,1,.738-.738.739.739,0,0,1,.738.738A.739.739,0,0,1-3985.646,1678.744Zm0-1.27a.533.533,0,0,0-.532.532.533.533,0,0,0,.532.533.533.533,0,0,0,.532-.533A.533.533,0,0,0-3985.646,1677.474Z" transform="translate(3986.384 -1677.269)"/></g><path class="x" d="M-4005.253,1696.072h-12.812a4.781,4.781,0,0,0-4.768,4.767v15.693a1.892,1.892,0,0,0,1.887,1.887h18.572a1.892,1.892,0,0,0,1.887-1.887v-15.693A4.781,4.781,0,0,0-4005.253,1696.072Z" transform="translate(4034.871 -1679.56)"/><path class="x" d="M-4017.537,1770.9a.993.993,0,0,1-.993-.993V1745.47a.993.993,0,0,1,.993-.993.993.993,0,0,1,.993.993V1769.9A.993.993,0,0,1-4017.537,1770.9Z" transform="translate(4032.157 -1710.087)"/><path class="x" d="M-3971.552,1770.9a.993.993,0,0,1-.993-.993V1745.47a.993.993,0,0,1,.993-.993.993.993,0,0,1,.993.993V1769.9A.993.993,0,0,1-3971.552,1770.9Z" transform="translate(4003.156 -1710.087)"/><path class="m" d="M-4053.848,1651.417a2.036,2.036,0,0,0-1.537,2.394,30.828,30.828,0,0,0,13.045,19.341,2.037,2.037,0,0,0,2.794-.7,2.037,2.037,0,0,0-.7-2.791,24.2,24.2,0,0,1-4.75-4.141,26.423,26.423,0,0,1-6.406-12.53,2.036,2.036,0,0,0-2.4-1.584Z" transform="translate(4055.427 -1651.364)"/><path class="y" d="M-4005.253,1696.072h-12.812a4.781,4.781,0,0,0-4.768,4.767v11.025h22.346v-11.025A4.781,4.781,0,0,0-4005.253,1696.072Z" transform="translate(4034.871 -1679.56)"/><path class="m" d="M-3966.146,1720.54a2.036,2.036,0,0,0,2.034-1.988,30.83,30.83,0,0,0-8.37-21.776,2.037,2.037,0,0,0-2.879.055,2.036,2.036,0,0,0,.051,2.875,24.189,24.189,0,0,1,3.7,5.1,26.421,26.421,0,0,1,3.428,13.648,2.036,2.036,0,0,0,1.987,2.084Z" transform="translate(4005.291 -1679.645)"/><path class="r" d="M-3972.546,1800.142v4.867a.993.993,0,0,0,.993.993.993.993,0,0,0,.993-.993v-4.867Z" transform="translate(4003.156 -1745.193)"/><path class="r" d="M-4018.531,1800.142v4.867a.993.993,0,0,0,.993.993.993.993,0,0,0,.993-.993v-4.867Z" transform="translate(4032.157 -1745.193)"/><path class="m" d="M-4003.3,1694.489s.334,2.831,4.208,2.831,4.26-2.88,4.26-2.88S-3999.761,1692.254-4003.3,1694.489Z" transform="translate(4022.553 -1677.927)"/><path class="y" d="M-4037.7,1678.1a2.036,2.036,0,0,1,.7,2.791,2.036,2.036,0,0,1-2.793.7,30.767,30.767,0,0,1-11.6-14.436l3.452-2.407a26.681,26.681,0,0,0,5.5,9.213A24.211,24.211,0,0,0-4037.7,1678.1Z" transform="translate(4052.886 -1659.805)"/><path class="y" d="M-3972.481,1696.776a2.037,2.037,0,0,0-2.879.055,2.036,2.036,0,0,0,.051,2.875,24.189,24.189,0,0,1,3.7,5.1,26.736,26.736,0,0,1,3.245,9.842l3.959-1.111A30.771,30.771,0,0,0-3972.481,1696.776Z" transform="translate(4005.291 -1679.645)"/><path class="z" d="M-4002.828,1661.884s.387,3.256-5.272,3.256-1.473-7.287,4.187-5.349c0,0,1.55-2.248,4.419-.31a2.648,2.648,0,0,1,.62,4.264S-4000.115,1665.218-4002.828,1661.884Z" transform="translate(4027.274 -1655.986)"/><path class="z" d="M-3981.169,1669.152s-.311,2.636.232,3.178a7.206,7.206,0,0,0,1.185-5.659Z" transform="translate(4008.65 -1661.018)"/><path class="n" d="M-3985.365,1675.238a.146.146,0,0,1-.115-.055.968.968,0,0,0-.736-.431,1.083,1.083,0,0,0-.717.424.149.149,0,0,1-.208.032.148.148,0,0,1-.033-.208,1.366,1.366,0,0,1,.947-.546,1.233,1.233,0,0,1,.977.54.149.149,0,0,1-.021.21A.148.148,0,0,1-3985.365,1675.238Z" transform="translate(4012.4 -1665.927)"/></g><g transform="translate(111.738)"><ellipse class="aa" cx="0.822" cy="1.335" rx="0.822" ry="1.335" transform="translate(13.516 12.994)"/><ellipse class="aa" cx="0.822" cy="1.335" rx="0.822" ry="1.335" transform="translate(22.966 12.994)"/><path class="aa" d="M-3708.954,1683.1a4.379,4.379,0,0,1-4.379-4.379V1664.27a4.379,4.379,0,0,1,4.379-4.379,4.379,4.379,0,0,1,4.379,4.379v14.449A4.379,4.379,0,0,1-3708.954,1683.1Z" transform="translate(3727.941 -1651.554)"/><path class="ab" d="M-3705.7,1679.5a5.766,5.766,0,0,1-2.521-.647.154.154,0,0,1-.06-.209.154.154,0,0,1,.209-.061c.025.013,2.479,1.336,4.3.01a.154.154,0,0,1,.215.034.155.155,0,0,1-.034.215A3.517,3.517,0,0,1-3705.7,1679.5Z" transform="translate(3724.764 -1663.332)"/><g transform="translate(15.206 13.313)"><circle class="h" cx="0.657" cy="0.657" r="0.657" transform="translate(0.103 0.103)"/><path class="ac" d="M-3710.954,1674.885a.761.761,0,0,1-.76-.76.761.761,0,0,1,.76-.76.76.76,0,0,1,.759.76A.76.76,0,0,1-3710.954,1674.885Zm0-1.314a.555.555,0,0,0-.554.554.555.555,0,0,0,.554.554.555.555,0,0,0,.554-.554A.555.555,0,0,0-3710.954,1673.572Z" transform="translate(3711.714 -1673.366)"/></g><g transform="translate(21.074 13.313)"><circle class="h" cx="0.657" cy="0.657" r="0.657" transform="translate(0.103 0.103)"/><path class="ac" d="M-3695.067,1674.885a.76.76,0,0,1-.759-.76.76.76,0,0,1,.759-.76.76.76,0,0,1,.76.76A.76.76,0,0,1-3695.067,1674.885Zm0-1.314a.555.555,0,0,0-.554.554.555.555,0,0,0,.554.554.555.555,0,0,0,.554-.554A.555.555,0,0,0-3695.067,1673.572Z" transform="translate(3695.827 -1673.366)"/></g><path class="p" d="M-3715.352,1692.8H-3728.6a4.945,4.945,0,0,0-4.93,4.93v16.23a1.957,1.957,0,0,0,1.952,1.952h19.208a1.957,1.957,0,0,0,1.951-1.952v-16.23A4.945,4.945,0,0,0-3715.352,1692.8Z" transform="translate(3740.68 -1672.311)"/><path class="p" d="M-3728.057,1770.186a1.028,1.028,0,0,1-1.027-1.027v-25.268a1.028,1.028,0,0,1,1.027-1.027,1.027,1.027,0,0,1,1.027,1.027v25.268A1.027,1.027,0,0,1-3728.057,1770.186Z" transform="translate(3737.875 -1703.883)"/><path class="p" d="M-3680.5,1770.186a1.027,1.027,0,0,1-1.027-1.027v-25.268a1.027,1.027,0,0,1,1.027-1.027,1.028,1.028,0,0,1,1.028,1.027v25.268A1.027,1.027,0,0,1-3680.5,1770.186Z" transform="translate(3707.881 -1703.883)"/><path class="aa" d="M-3750.772,1718.107a2.106,2.106,0,0,1-2.1-2.055,31.882,31.882,0,0,1,8.656-22.521,2.106,2.106,0,0,1,2.978.057,2.106,2.106,0,0,1-.052,2.974,25.062,25.062,0,0,0-3.825,5.276,27.327,27.327,0,0,0-3.546,14.115,2.106,2.106,0,0,1-2.055,2.155Z" transform="translate(3752.885 -1672.398)"/><path class="r" d="M-3715.352,1692.8H-3728.6a4.945,4.945,0,0,0-4.93,4.93v11.4h23.111v-11.4A4.945,4.945,0,0,0-3715.352,1692.8Z" transform="translate(3740.68 -1672.311)"/><path class="r" d="M-3736.166,1696.561a2.106,2.106,0,0,0,.052-2.974,2.106,2.106,0,0,0-2.978-.057,29.956,29.956,0,0,0-5.662,8.352l3.727,1.992q.474-1.029,1.035-2.038A25.062,25.062,0,0,1-3736.166,1696.561Z" transform="translate(3747.757 -1672.398)"/><path class="aa" d="M-3671.847,1637.319a2.105,2.105,0,0,1,2.1,2.055,31.879,31.879,0,0,1-8.656,22.521,2.106,2.106,0,0,1-2.977-.057,2.106,2.106,0,0,1,.052-2.974,25.066,25.066,0,0,0,3.825-5.276,27.33,27.33,0,0,0,3.546-14.115,2.106,2.106,0,0,1,2.055-2.155Z" transform="translate(3708.158 -1637.319)"/><path class="r" d="M-3681.324,1683.17a2.106,2.106,0,0,0-.052,2.973,2.106,2.106,0,0,0,2.977.057,29.95,29.95,0,0,0,5.662-8.352l-3.727-1.992q-.473,1.029-1.035,2.038A25.082,25.082,0,0,1-3681.324,1683.17Z" transform="translate(3708.158 -1661.623)"/><path class="r" d="M-3681.526,1800.434v5.033a1.027,1.027,0,0,0,1.027,1.027,1.027,1.027,0,0,0,1.028-1.027v-5.033Z" transform="translate(3707.881 -1740.19)"/><path class="r" d="M-3729.084,1800.434v5.033a1.028,1.028,0,0,0,1.027,1.027,1.027,1.027,0,0,0,1.027-1.027v-5.033Z" transform="translate(3737.875 -1740.19)"/><rect class="r" width="23.111" height="4.417" transform="translate(7.147 36.516)"/><path class="aa" d="M-3713.333,1691.165s.346,2.927,4.352,2.927,4.406-2.979,4.406-2.979S-3709.672,1688.854-3713.333,1691.165Z" transform="translate(3727.941 -1670.621)"/><path class="ab" d="M-3704.575,1674.709l-.708,1.239s-.822,1.541-3.7,1.541-3.7-1.541-3.7-1.541l-.654-1.144v1.206c.038,4.047,4.352,3.739,4.352,3.739s4.52.205,4.406-4.038Z" transform="translate(3727.941 -1660.9)"/><path class="ab" d="M-3694.586,1671.252a.122.122,0,0,1-.116-.083.876.876,0,0,0-.86-.649c-.556,0-.777.642-.779.649a.121.121,0,0,1-.154.077.122.122,0,0,1-.077-.154,1.17,1.17,0,0,1,1.01-.815,1.121,1.121,0,0,1,1.091.815.121.121,0,0,1-.077.154A.122.122,0,0,1-3694.586,1671.252Z" transform="translate(3717.375 -1658.104)"/><path class="ab" d="M-3711.857,1671.252a.122.122,0,0,0,.115-.083.876.876,0,0,1,.86-.649c.556,0,.777.642.779.649a.121.121,0,0,0,.154.077.122.122,0,0,0,.077-.154,1.169,1.169,0,0,0-1.01-.815,1.122,1.122,0,0,0-1.091.815.122.122,0,0,0,.077.154A.123.123,0,0,0-3711.857,1671.252Z" transform="translate(3727.087 -1658.104)"/><path class="ad" d="M-3707.006,1709.491h-.036c-2.131.017-3.042,1.549-2.532,3.081a11.456,11.456,0,0,0,2.532,3.458v.035l.018-.017.018.017v-.035a11.452,11.452,0,0,0,2.532-3.458C-3703.963,1711.039-3704.875,1709.508-3707.006,1709.491Z" transform="translate(3725.658 -1682.835)"/><path class="r" d="M-3706.2,1718.959s-.205-1.849-1.747-.822A1.055,1.055,0,0,0-3706.2,1718.959Z" transform="translate(3724.544 -1688.092)"/><path class="r" d="M-3701.828,1718.959s.205-1.849,1.746-.822A1.055,1.055,0,0,1-3701.828,1718.959Z" transform="translate(3720.685 -1688.092)"/><circle class="r" cx="0.205" cy="0.205" r="0.205" transform="translate(18.446 31.585)"/></g><g transform="translate(26.786 10.939)"><path class="ae" d="M-3947.262,1681.816s-3.088.491-4.809-1.3.743-2.247,1.167-3.09.126-3.311.126-3.311l4.414-3.317,4.938,3.541-.149,1.631s.053,0,0,1.062.468.748.991,2.095.152,2.115-1.12,2.265S-3947.262,1681.816-3947.262,1681.816Z" transform="translate(3963.838 -1669.37)"/><path class="m" d="M-3941.888,1694.483a4.088,4.088,0,0,1-4.087-4.088v-13.49a4.088,4.088,0,0,1,4.087-4.088,4.088,4.088,0,0,1,4.088,4.088v13.49A4.088,4.088,0,0,1-3941.888,1694.483Z" transform="translate(3959.613 -1670.646)"/><path class="n" d="M-3938.846,1691.126a5.385,5.385,0,0,1-2.354-.6.144.144,0,0,1-.056-.2.144.144,0,0,1,.2-.057c.023.013,2.313,1.248,4.016.01a.143.143,0,0,1,.2.031.144.144,0,0,1-.032.2A3.282,3.282,0,0,1-3938.846,1691.126Z" transform="translate(3956.648 -1681.641)"/><g transform="translate(14.189 6.811)"><circle class="h" cx="0.613" cy="0.613" r="0.613" transform="translate(0.103 0.103)"/><path class="n" d="M-3943.767,1686.811a.716.716,0,0,1-.715-.716.716.716,0,0,1,.715-.716.717.717,0,0,1,.716.716A.717.717,0,0,1-3943.767,1686.811Zm0-1.226a.511.511,0,0,0-.511.51.511.511,0,0,0,.511.51.51.51,0,0,0,.51-.51A.51.51,0,0,0-3943.767,1685.584Z" transform="translate(3944.483 -1685.379)"/></g><g transform="translate(19.667 6.811)"><circle class="h" cx="0.613" cy="0.613" r="0.613" transform="translate(0.103 0.103)"/><path class="n" d="M-3928.936,1686.811a.717.717,0,0,1-.716-.716.717.717,0,0,1,.716-.716.716.716,0,0,1,.716.716A.716.716,0,0,1-3928.936,1686.811Zm0-1.226a.51.51,0,0,0-.51.51.511.511,0,0,0,.51.51.511.511,0,0,0,.511-.51A.511.511,0,0,0-3928.936,1685.584Z" transform="translate(3929.652 -1685.379)"/></g><path class="af" d="M-3947.861,1703.543h-12.371a4.617,4.617,0,0,0-4.6,4.6V1723.3a1.827,1.827,0,0,0,1.822,1.822h17.932a1.827,1.827,0,0,0,1.822-1.822v-15.151A4.617,4.617,0,0,0-3947.861,1703.543Z" transform="translate(3971.507 -1690.024)"/><path class="af" d="M-3959.721,1775.786a.959.959,0,0,1-.959-.959v-23.59a.959.959,0,0,1,.959-.959.959.959,0,0,1,.959.959v23.59A.959.959,0,0,1-3959.721,1775.786Z" transform="translate(3968.887 -1719.498)"/><path class="af" d="M-3915.323,1775.786a.959.959,0,0,1-.959-.959v-23.59a.959.959,0,0,1,.959-.959.958.958,0,0,1,.959.959v23.59A.959.959,0,0,1-3915.323,1775.786Z" transform="translate(3940.886 -1719.498)"/><path class="m" d="M-3980.928,1727.167a1.967,1.967,0,0,1-1.965-1.919,29.762,29.762,0,0,1,8.082-21.025,1.966,1.966,0,0,1,2.78.053,1.966,1.966,0,0,1-.049,2.776,23.4,23.4,0,0,0-3.571,4.925,25.513,25.513,0,0,0-3.311,13.178,1.965,1.965,0,0,1-1.918,2.012Z" transform="translate(3982.901 -1690.106)"/><path class="ag" d="M-3947.861,1703.543h-12.371a4.617,4.617,0,0,0-4.6,4.6v10.644h21.577v-10.644A4.617,4.617,0,0,0-3947.861,1703.543Z" transform="translate(3971.507 -1690.024)"/><path class="m" d="M-3910.1,1727.167a1.966,1.966,0,0,0,1.964-1.919,29.762,29.762,0,0,0-8.081-21.025,1.966,1.966,0,0,0-2.78.053,1.966,1.966,0,0,0,.049,2.776,23.362,23.362,0,0,1,3.571,4.925,25.514,25.514,0,0,1,3.311,13.178,1.965,1.965,0,0,0,1.918,2.012Z" transform="translate(3942.947 -1690.106)"/><path class="r" d="M-3916.282,1804.024v4.7a.959.959,0,0,0,.959.959.959.959,0,0,0,.959-.959v-4.7Z" transform="translate(3940.886 -1753.393)"/><path class="r" d="M-3960.68,1804.024v4.7a.959.959,0,0,0,.959.959.959.959,0,0,0,.959-.959v-4.7Z" transform="translate(3968.887 -1753.393)"/><path class="h" d="M-3963.013,1725.119h5.753v-21.576h-2.973a4.617,4.617,0,0,0-4.6,4.6V1723.3A1.827,1.827,0,0,0-3963.013,1725.119Z" transform="translate(3971.507 -1690.024)"/><path class="h" d="M-3923.954,1703.543h-2.972v21.576h5.753a1.827,1.827,0,0,0,1.822-1.822v-15.151A4.617,4.617,0,0,0-3923.954,1703.543Z" transform="translate(3947.6 -1690.024)"/><rect class="h" width="5.178" height="8.918" transform="translate(6.673 31.26)"/><rect class="h" width="5.178" height="8.918" transform="translate(23.07 31.26)"/><rect class="h" width="7.576" height="8.63" rx="3.788" transform="translate(6.673 31.548)"/><rect class="h" width="7.576" height="8.63" rx="3.788" transform="translate(20.673 31.548)"/><path class="m" d="M-3945.976,1702.014s.322,2.733,4.063,2.733,4.113-2.781,4.113-2.781S-3942.558,1699.856-3945.976,1702.014Z" transform="translate(3959.613 -1688.446)"/><path class="h" d="M-3971.558,1707.052a1.966,1.966,0,0,0,.049-2.776,1.966,1.966,0,0,0-2.78-.053,29.7,29.7,0,0,0-7.785,16.1l3.77,1.517a25.761,25.761,0,0,1,3.174-9.86A23.357,23.357,0,0,1-3971.558,1707.052Z" transform="translate(3982.379 -1690.106)"/><path class="h" d="M-3916.219,1704.223a1.966,1.966,0,0,0-2.78.053,1.966,1.966,0,0,0,.049,2.776,23.362,23.362,0,0,1,3.571,4.925,25.8,25.8,0,0,1,3.134,9.5l3.823-1.072A29.7,29.7,0,0,0-3916.219,1704.223Z" transform="translate(3942.947 -1690.106)"/><path class="ah" d="M-3944.669,1669.9a4.054,4.054,0,0,0,2.922,2.435c1.534.406,1.461,2.226,1.461,2.226s1.53-4.1-.417-6.54-4.453,0-4.453,0a3.718,3.718,0,0,0-3.826,1.044c-1.669,1.809-.95,4.522.582,6.539v-2.852A16.808,16.808,0,0,0-3944.669,1669.9Z" transform="translate(3962.113 -1666.938)"/></g><g transform="translate(91.221 10.595)"><path class="p" d="M-3785.63,1776.108a.977.977,0,0,1-.977-.976v-24.02a.977.977,0,0,1,.977-.976.976.976,0,0,1,.976.976v24.02A.976.976,0,0,1-3785.63,1776.108Z" transform="translate(3794.67 -1719.064)"/><path class="r" d="M-3786.607,1804.86v4.784a.977.977,0,0,0,.977.976.976.976,0,0,0,.976-.976v-4.784Z" transform="translate(3794.67 -1753.576)"/><path class="p" d="M-3740.423,1776.108a.977.977,0,0,1-.977-.976v-24.02a.976.976,0,0,1,.977-.976.976.976,0,0,1,.976.976v24.02A.976.976,0,0,1-3740.423,1776.108Z" transform="translate(3766.16 -1719.064)"/><path class="r" d="M-3741.4,1804.86v4.784a.976.976,0,0,0,.977.976.976.976,0,0,0,.976-.976v-4.784Z" transform="translate(3766.16 -1753.576)"/><path class="m" d="M-3735.372,1727.925a2,2,0,0,0,2-1.954,30.3,30.3,0,0,0-8.229-21.408,2,2,0,0,0-2.831.054,2,2,0,0,0,.05,2.827,23.788,23.788,0,0,1,3.636,5.015,25.981,25.981,0,0,1,3.371,13.417,2,2,0,0,0,1.953,2.049Z" transform="translate(3768.425 -1689.969)"/><path class="ai" d="M-3741.6,1704.563a2,2,0,0,0-2.831.054,2,2,0,0,0,.05,2.827,23.788,23.788,0,0,1,3.636,5.015,26.192,26.192,0,0,1,3.262,10.341h4.017A30.3,30.3,0,0,0-3741.6,1704.563Z" transform="translate(3768.425 -1689.969)"/><path class="m" d="M-3806.43,1727.925a2,2,0,0,1-2-1.954,30.3,30.3,0,0,1,8.229-21.408,2,2,0,0,1,2.83.054,2,2,0,0,1-.05,2.827,23.817,23.817,0,0,0-3.635,5.015,25.979,25.979,0,0,0-3.371,13.417,2,2,0,0,1-1.953,2.049Z" transform="translate(3808.439 -1689.969)"/><path class="ai" d="M-3797.249,1707.443a2,2,0,0,0,.051-2.827,2,2,0,0,0-2.83-.054,30.287,30.287,0,0,0-8.136,18.236h4.017a26.21,26.21,0,0,1,3.263-10.341A23.827,23.827,0,0,1-3797.249,1707.443Z" transform="translate(3808.266 -1689.969)"/><path class="ab" d="M-3766.088,1672.986s.941-.558,1.429.224a5.691,5.691,0,0,1,.2,4.1,10.292,10.292,0,0,1-2.44,3.222l-6.054-.781a7.165,7.165,0,0,1-1.758-4.784c.1-2.831,3.027-3.612,3.027-3.612Z" transform="translate(3787.174 -1669.378)"/><ellipse class="m" cx="0.781" cy="1.269" rx="0.781" ry="1.269" transform="translate(12.555 6.369)"/><ellipse class="m" cx="0.781" cy="1.269" rx="0.781" ry="1.269" transform="translate(21.538 6.369)"/><path class="m" d="M-3767.472,1693.324a4.162,4.162,0,0,1-4.162-4.162v-13.735a4.162,4.162,0,0,1,4.162-4.162,4.162,4.162,0,0,1,4.162,4.162v13.735A4.162,4.162,0,0,1-3767.472,1693.324Z" transform="translate(3785.228 -1669.322)"/><path class="ab" d="M-3764.375,1689.906a5.473,5.473,0,0,1-2.4-.615.147.147,0,0,1-.058-.2.147.147,0,0,1,.2-.058c.023.013,2.355,1.27,4.089.01a.146.146,0,0,1,.2.032.146.146,0,0,1-.032.2A3.344,3.344,0,0,1-3764.375,1689.906Z" transform="translate(3782.208 -1680.517)"/><path class="ab" d="M-3770.441,1670.4a18.339,18.339,0,0,1-6.194,0,4.6,4.6,0,0,1-3.1-3.1,2.231,2.231,0,0,0,2.243.213c1.388-.534,3.2-1.922,5.874-1.388s3.525,2.563,3.2,3.311S-3770.441,1670.4-3770.441,1670.4Z" transform="translate(3790.335 -1666.005)"/><path class="p" d="M-3773.554,1702.549h-12.6a4.7,4.7,0,0,0-4.687,4.687v15.427a1.86,1.86,0,0,0,1.855,1.855h18.259a1.86,1.86,0,0,0,1.855-1.855v-15.427A4.7,4.7,0,0,0-3773.554,1702.549Z" transform="translate(3797.338 -1689.052)"/><path class="ai" d="M-3773.554,1702.549h-12.6a4.7,4.7,0,0,0-4.687,4.687v14.646h21.969v-14.646A4.7,4.7,0,0,0-3773.554,1702.549Z" transform="translate(3797.338 -1689.052)"/><path class="m" d="M-3771.635,1700.992s.329,2.783,4.136,2.783,4.188-2.832,4.188-2.832S-3768.156,1698.8-3771.635,1700.992Z" transform="translate(3785.228 -1687.446)"/><path class="ad" d="M-3773.186,1701.4a5.887,5.887,0,0,0,3.551,3.352l-1.172,1.66a6.79,6.79,0,0,1-3.287-4.3Z" transform="translate(3786.779 -1688.33)"/><path class="ad" d="M-3754.946,1701.4a5.885,5.885,0,0,1-3.55,3.352l1.172,1.66a6.789,6.789,0,0,0,3.287-4.3Z" transform="translate(3776.941 -1688.33)"/><path class="y" d="M-3761.885,1709.961c-.187-.375-1.638-.3-1.75-.293s-1.562-.082-1.75.293a1.884,1.884,0,0,0,1.742,2.536v0h.015v0A1.884,1.884,0,0,0-3761.885,1709.961Z" transform="translate(3781.357 -1693.535)"/><path class="ai" d="M-3773.186,1700.611a5.887,5.887,0,0,0,3.551,3.352l-1.172,1.66a6.79,6.79,0,0,1-3.287-4.3Z" transform="translate(3786.779 -1687.829)"/><path class="ai" d="M-3754.946,1700.611a5.885,5.885,0,0,1-3.55,3.352l1.172,1.66a6.79,6.79,0,0,0,3.287-4.3Z" transform="translate(3776.941 -1687.829)"/><path class="y" d="M-3761.821,1723.946c-.232-1.464-1.084-9.764-1.084-9.764h-1.525s-.852,8.3-1.084,9.764c-.229,1.445,1.273,3.458,1.835,3.513v0h.023v0C-3763.094,1727.4-3761.592,1725.391-3761.821,1723.946Z" transform="translate(3781.383 -1696.388)"/><g transform="translate(14.156 6.668)"><circle class="h" cx="0.624" cy="0.624" r="0.624" transform="translate(0.103 0.103)"/><path class="ac" d="M-3769.383,1685.513a.728.728,0,0,1-.727-.727.728.728,0,0,1,.727-.727.728.728,0,0,1,.727.727A.728.728,0,0,1-3769.383,1685.513Zm0-1.249a.522.522,0,0,0-.521.522.522.522,0,0,0,.521.522.522.522,0,0,0,.522-.522A.522.522,0,0,0-3769.383,1684.264Z" transform="translate(3770.11 -1684.059)"/></g><g transform="translate(19.734 6.668)"><circle class="h" cx="0.624" cy="0.624" r="0.624" transform="translate(0.103 0.103)"/><path class="ac" d="M-3754.281,1685.513a.728.728,0,0,1-.727-.727.728.728,0,0,1,.727-.727.728.728,0,0,1,.727.727A.728.728,0,0,1-3754.281,1685.513Zm0-1.249a.522.522,0,0,0-.521.522.522.522,0,0,0,.521.522.523.523,0,0,0,.522-.522A.523.523,0,0,0-3754.281,1684.264Z" transform="translate(3755.008 -1684.059)"/></g><path class="ab" d="M-3753.815,1682.063a.116.116,0,0,1-.11-.079.832.832,0,0,0-.818-.616c-.529,0-.738.61-.74.616a.116.116,0,0,1-.147.073.116.116,0,0,1-.074-.147,1.113,1.113,0,0,1,.961-.775,1.067,1.067,0,0,1,1.038.775.116.116,0,0,1-.073.147A.113.113,0,0,1-3753.815,1682.063Z" transform="translate(3775.184 -1675.547)"/><path class="ab" d="M-3770.232,1682.063a.116.116,0,0,0,.11-.079.833.833,0,0,1,.818-.616c.529,0,.739.61.74.616a.116.116,0,0,0,.147.073.116.116,0,0,0,.073-.147,1.112,1.112,0,0,0-.96-.775,1.067,1.067,0,0,0-1.038.775.116.116,0,0,0,.073.147A.117.117,0,0,0-3770.232,1682.063Z" transform="translate(3784.416 -1675.547)"/></g></g><g transform="translate(15.443 11.872)"><text class="aj" transform="translate(0 6)"><tspan x="0" y="0">22:29</tspan></text></g><path class="h" d="M7.7,96.906v.906h.453v.906H7.7v.906H.906V96.906H7.7M7.926,96H.679A.679.679,0,0,0,0,96.679V99.85a.679.679,0,0,0,.679.679H7.926a.679.679,0,0,0,.679-.679v-.226h.113a.34.34,0,0,0,.34-.34V97.246a.34.34,0,0,0-.34-.34H8.606v-.226A.679.679,0,0,0,7.926,96Zm-.679,1.359H1.359v1.812H7.247Z" transform="translate(158.594 -82)"/><path class="h" d="M26.313,3.47h-.578a.193.193,0,0,0-.193.193V5.976a.193.193,0,0,0,.193.193h.578a.193.193,0,0,0,.193-.193V3.663A.193.193,0,0,0,26.313,3.47ZM24.771,4.627h-.578A.193.193,0,0,0,24,4.82V5.976a.193.193,0,0,0,.193.193h.578a.193.193,0,0,0,.193-.193V4.82A.193.193,0,0,0,24.771,4.627Zm3.085-2.313h-.578a.193.193,0,0,0-.193.193v3.47a.193.193,0,0,0,.193.193h.578a.193.193,0,0,0,.193-.193V2.506A.193.193,0,0,0,27.856,2.313ZM29.4,1.157H28.82a.193.193,0,0,0-.193.193V5.976a.193.193,0,0,0,.193.193H29.4a.193.193,0,0,0,.193-.193V1.35A.193.193,0,0,0,29.4,1.157ZM30.94,0h-.578a.193.193,0,0,0-.193.193V5.976a.193.193,0,0,0,.193.193h.578a.193.193,0,0,0,.193-.193V.193A.193.193,0,0,0,30.94,0Z" transform="translate(122.794 12.078)"/><path class="h" d="M8.877,33.718a6.5,6.5,0,0,0-8.805,0,.222.222,0,0,0,0,.321l.479.475a.227.227,0,0,0,.313.005,5.364,5.364,0,0,1,7.232,0,.227.227,0,0,0,.313-.005l.479-.475a.222.222,0,0,0-.005-.321Zm-4.4,2.756a.895.895,0,1,0,.895.895A.895.895,0,0,0,4.475,36.474Zm2.833-1.169a4.292,4.292,0,0,0-5.667,0,.221.221,0,0,0-.008.324l.481.475a.228.228,0,0,0,.308.011,3.149,3.149,0,0,1,4.1,0,.228.228,0,0,0,.308-.011l.481-.475A.221.221,0,0,0,7.308,35.305Z" transform="translate(133.314 -19.922)"/></g></g><g transform="translate(21.844 24.571)"><path class="f" d="M2363.179,659.407H2216.246c-10.639,0-19.263,10.138-19.263,22.645v341.154c0,12.506,8.624,22.644,19.263,22.644h146.933c10.64,0,19.264-10.138,19.264-22.644V682.052C2382.443,669.545,2373.819,659.407,2363.179,659.407Zm15.181,363.326c0,11.112-7.573,20.121-16.914,20.121H2217.98c-9.342,0-16.914-9.009-16.914-20.121V684.581c0-11.112,7.573-20.121,16.914-20.121h29.653a2.8,2.8,0,0,1,2.532,3.014v5.479c0,2.572,1.753,4.657,3.915,4.657h71.265c2.162,0,3.914-2.085,3.914-4.657v-5.479a2.8,2.8,0,0,1,2.533-3.014h29.653c9.342,0,16.914,9.009,16.914,20.121Z" transform="translate(-2196.984 -659.407)"/></g><rect class="ak" width="43.757" height="2.398" rx="1.038" transform="translate(90.402 33.386)"/><rect class="ak" width="2.398" height="2.398" rx="1.038" transform="translate(136.557 33.386)"/><rect class="ak" width="43.757" height="1.898" rx="0.822" transform="translate(93.999 397.569)"/></g></g></svg>