
<svg xmlns="http://www.w3.org/2000/svg" xmlns:xlink="http://www.w3.org/1999/xlink" width="108.561" height="108.561" viewBox="0 0 108.561 108.561"><defs><style>.a,.j{fill:none;}.b{clip-path:url(#a);}.c{fill:#f4f4f4;}.d{fill:#565656;}.e{fill:#fff6a4;}.f{fill:#848484;}.g{fill:#484848;}.h{fill:#ffc4a2;}.i{fill:#ffa200;}.j{stroke:#565656;stroke-miterlimit:10;stroke-width:0.5px;}</style><clipPath id="a"><rect class="a" width="108.561" height="108.561"/></clipPath></defs><g class="b" transform="translate(0)"><circle class="c" cx="54.281" cy="54.281" r="54.281"/><g transform="translate(46.411 24.628)"><path class="d" d="M4224.091,3008.523a135.053,135.053,0,0,0-.213,15.7c.006.125.2.125.194,0a135.054,135.054,0,0,1,.214-15.7c.008-.125-.186-.124-.195,0Z" transform="translate(-4219.21 -2985.804)"/><path class="d" d="M4225.861,2999.909c-.056-.416.962-.981,1.3-1.131a7.779,7.779,0,0,1,.9-.287q1.01-.309,2.038-.56c.874-.213,3.944-1.238,4.536-.324.067.1.236.007.167-.1-.306-.472-.731-.481-1.271-.437a23.468,23.468,0,0,0-3.712.728,14.3,14.3,0,0,0-3.539,1.1.954.954,0,0,0-.6,1.064c.017.123.2.071.187-.052Z" transform="translate(-4220.631 -2977.373)"/><path class="d" d="M4260.6,2998.383l.032,5.042a.1.1,0,0,0,.194,0l-.033-5.042a.1.1,0,0,0-.193,0Z" transform="translate(-4246.529 -2978.288)"/><path class="d" d="M4224.164,3069.035c-.185,1.588,2.06,2.256,3.244,2.513.121.026.173-.161.051-.187-1.1-.239-3.271-.854-3.1-2.325.015-.124-.18-.123-.194,0Z" transform="translate(-4219.514 -3030.653)"/><path class="d" d="M4257.089,3015.655l-.283,8.364-.137,4.055c-.029.845.314,4.447-.924,4.5-.125,0-.125.2,0,.194.675-.026.894-.46.99-1.087a43.767,43.767,0,0,0,.179-5.123l.368-10.9c0-.125-.19-.125-.194,0Z" transform="translate(-4242.86 -2991.089)"/><path class="d" d="M4234.8,3077.787c1.394.417,2.8.78,4.228,1.066.73.147,1.421.4,1.971-.2.084-.092-.052-.23-.137-.137-.66.723-2.571,0-3.351-.189-.895-.213-1.779-.459-2.659-.723a.1.1,0,0,0-.051.188Z" transform="translate(-4227.355 -3037.066)"/><path class="d" d="M4229.294,2994.5a7.058,7.058,0,0,1,4.277-2.244c.7-.164,1.4-.338,2.1-.484.963-.2,4.117-.513,2.736,1.638-.068.105.1.2.167.1,1.128-1.756-.739-2.292-2.253-2.065-2.442.366-5.537.883-7.161,2.92-.077.1.06.235.137.138Z" transform="translate(-4223.205 -2973.177)"/><path class="d" d="M4261.9,3005.263a9.85,9.85,0,0,0-.106,2.191c.026.358,0,1.1.287,1.382.494.486,1.1-.249,1.292-.682.351-.789.451-2.537-.174-3.242a.674.674,0,0,0-1.207.189c-.038.119.149.17.188.052l.965.012a1.768,1.768,0,0,1,.189.729,6.021,6.021,0,0,1,.054.767c.009.535.026,1.5-.5,1.837q-.2.425-.5.037a.382.382,0,0,1-.331-.478,3.272,3.272,0,0,1-.086-.913,9.765,9.765,0,0,1,.116-1.829c.018-.122-.169-.175-.187-.052Z" transform="translate(-4247.393 -2982.98)"/><path class="d" d="M4262.268,3035.791v.111c0,.127.18.121.194,0l.141-1.3c.02-.18.039-.36.059-.54q.023-.224.053-.447.464-.638.629-.117c.227.323.122.931.118,1.319,0,.448-.021.9-.042,1.343-.006.125.188.125.194,0,.04-.82.059-1.643.036-2.464-.012-.4-.065-.6-.506-.588-.417.012-.576.212-.637.6-.113.722-.16,1.461-.239,2.188h.194v-.111a.1.1,0,0,0-.194,0Z" transform="translate(-4247.762 -3004.095)"/><path class="d" d="M4262.008,3039.4c-.1,1.666-.161,3.333-.156,5,0,.522-.2,1.4.414,1.619.118.043.169-.144.052-.187-.565-.207-.262-2.926-.25-3.434.024-1,.073-2,.135-3,.008-.125-.187-.125-.194,0Z" transform="translate(-4247.433 -3008.688)"/><path class="d" d="M4262.949,3052.942c.458.275.819.049.951-.432a7.777,7.777,0,0,0,.128-1.506c.049-.752.079-1.506.1-2.259a.1.1,0,0,0-.194,0c-.015.646-.038,1.292-.076,1.937-.014.24-.023,2.564-.807,2.093a.1.1,0,0,0-.1.168Z" transform="translate(-4248.233 -3015.614)"/><path class="d" d="M4266.645,3042.579a13.421,13.421,0,0,1,.063,2.335c-.008.125.187.124.194,0a13.421,13.421,0,0,0-.062-2.335c-.015-.123-.209-.124-.194,0Z" transform="translate(-4251.006 -3011.045)"/><path class="d" d="M4226.222,3074.49a10.658,10.658,0,0,0,1.587,2.4c.083.094.219-.043.138-.137a10.427,10.427,0,0,1-1.557-2.363c-.054-.113-.221-.014-.168.1Z" transform="translate(-4221.04 -3034.656)"/><path class="d" d="M4232.058,3084.378a20.25,20.25,0,0,0,4.775,1.508,4.508,4.508,0,0,0,1.662.174,5.411,5.411,0,0,0,1.571-1.09c.1-.075,0-.244-.1-.167a3.685,3.685,0,0,1-1.934,1.067,8.046,8.046,0,0,1-2.083-.36,20.239,20.239,0,0,1-3.8-1.3c-.113-.051-.211.116-.1.168Z" transform="translate(-4225.335 -3041.962)"/><path class="d" d="M4260.355,3078.3l-.055-1a2.262,2.262,0,0,0-.066-.761c-.052-.11-.135-.152-.213-.236a1.788,1.788,0,0,1-.535-.978c-.02-.123-.207-.071-.187.052a2.093,2.093,0,0,0,.458.949,3.477,3.477,0,0,1,.4,1.974c.006.125.2.125.194,0Z" transform="translate(-4245.562 -3035.329)"/><path class="d" d="M4226.621,3007.327a1.789,1.789,0,0,0-.432.97c-.016.124.179.122.194,0a1.557,1.557,0,0,1,.375-.833c.082-.094-.055-.232-.137-.137Z" transform="translate(-4221.021 -2984.963)"/><path class="d" d="M4225.716,3009.9q-.1,4.756-.189,9.512c-.028,1.542-.067,3.085-.083,4.628a2.256,2.256,0,0,0,.58,1.959c.095.08.232-.057.137-.137-.963-.814-.5-3.028-.482-4.136q.034-1.928.072-3.856.075-3.985.16-7.97a.1.1,0,0,0-.194,0Z" transform="translate(-4220.469 -2986.822)"/><path class="d" d="M4227.938,3002.65c.688-.209,7.423-2.149,7.5-1.1.009.124.2.125.194,0-.063-.908-1.052-.593-1.692-.492a44.548,44.548,0,0,0-6.05,1.4c-.119.036-.068.224.052.187Z" transform="translate(-4222.23 -2980.241)"/><path class="d" d="M4256.677,3002.423c.656,1.273.436,3.055.41,4.449a.1.1,0,0,0,.194,0c.027-1.449.251-3.216-.436-4.547-.057-.111-.225-.013-.167.1Z" transform="translate(-4243.61 -2981.244)"/><path class="d" d="M4254.09,3018.957l-.235,7.413-.114,3.578c-.017.516.149,4.71-.992,4.36-.12-.036-.171.151-.052.187a.778.778,0,0,0,1.057-.571,5.6,5.6,0,0,0,.108-1.676l.089-2.812.332-10.48c0-.125-.19-.125-.194,0Z" transform="translate(-4240.62 -2993.537)"/><path class="d" d="M4227.414,3072.047a41.158,41.158,0,0,0,6.8,1.82.1.1,0,0,0,.052-.187,41.166,41.166,0,0,1-6.755-1.8c-.113-.051-.212.117-.1.168Z" transform="translate(-4221.893 -3032.823)"/><path class="d" d="M4266.293,2995.416c.344.67.848,1.089.974,1.888a14.487,14.487,0,0,1,.108,2.448.1.1,0,0,0,.194,0,13.61,13.61,0,0,0-.13-2.619c-.145-.794-.63-1.137-.979-1.815-.057-.111-.225-.013-.167.1Z" transform="translate(-4250.737 -2976.049)"/><path class="d" d="M4264.334,3011.054c-.032,3.024-.052,6.048-.1,9.072-.021,1.417-.063,2.835-.2,4.247-.078.825-.352,5.4-1.807,5.3-.125-.009-.124.186,0,.194,1.064.07,1.238-1.181,1.437-1.992a27.933,27.933,0,0,0,.684-5.15c.2-3.881.136-7.786.178-11.671a.1.1,0,0,0-.194,0Z" transform="translate(-4247.666 -2987.679)"/><path class="d" d="M4234.254,3085.736a48.571,48.571,0,0,1,1.363,6.641,2.869,2.869,0,0,0,2.3,2.664c.12.039.171-.149.052-.187a2.714,2.714,0,0,1-2.112-2.151c-.15-.724-.183-1.488-.3-2.219a35.755,35.755,0,0,0-1.119-4.8c-.036-.119-.224-.068-.187.052Z" transform="translate(-4226.997 -3043.011)"/><path class="d" d="M4247.571,3095.6c1.258.28,3.98.894,4.467-.833.275-.979-.237-2.152-.367-3.121a17.228,17.228,0,0,1,.094-5.049c.02-.123-.167-.175-.187-.052a17.557,17.557,0,0,0-.1,5.127c.052.389.12.773.2,1.157.178.889.447,1.615-.25,2.321-.876.885-2.672.512-3.8.261-.122-.027-.174.16-.052.188Z" transform="translate(-4236.818 -3043.646)"/><path class="d" d="M4261.466,3000.682l.841-.673c.1-.078-.041-.214-.138-.137l-.841.672c-.1.078.041.215.137.138Z" transform="translate(-4247.042 -2979.444)"/><path class="d" d="M4237.6,2984.682c1.079-1.062,1.459-2.55,2.182-3.84a.1.1,0,0,0-.167-.1c-.714,1.274-1.085,2.751-2.151,3.8a.1.1,0,0,0,.137.137Z" transform="translate(-4229.358 -2965.25)"/><path class="d" d="M4268.859,2986.268a19.19,19.19,0,0,1,.026-4.881c.016-.124-.178-.122-.194,0a19.191,19.191,0,0,0-.026,4.881c.014.122.208.124.194,0Z" transform="translate(-4252.398 -2965.692)"/><path class="d" d="M4236.579,2995.245l.481-.586c.078-.1-.059-.234-.138-.137l-.48.586c-.079.1.058.234.137.137Z" transform="translate(-4228.604 -2975.471)"/><path class="d" d="M4226.231,3046.567c1.12,0,1.544.075,1.715,1.178a13.515,13.515,0,0,1,0,1.958v3.917a.1.1,0,0,0,.194,0v-3.182a20.488,20.488,0,0,0,0-3.183c-.156-.943-1.028-.884-1.908-.883a.1.1,0,0,0,0,.194Z" transform="translate(-4220.984 -3013.925)"/><path class="d" d="M4226.592,3034.929l3.023.309a7.852,7.852,0,0,0,2.215.173c1.069-.222.951-1.721.944-2.556a.1.1,0,0,0-.194,0c.008.881.153,2.112-1.056,2.375a5.325,5.325,0,0,1-1.444-.14l-3.489-.355c-.124-.013-.124.182,0,.194Z" transform="translate(-4221.252 -3003.838)"/><path class="d" d="M4250.05,3009.978c.167-1.518.1-3.032.123-4.555a22.31,22.31,0,0,0,.094-3.849c-.02-.123-.207-.071-.187.052a27.09,27.09,0,0,1-.1,4.278,37.315,37.315,0,0,1-.121,4.074c-.013.124.181.123.194,0Z" transform="translate(-4238.563 -2980.671)"/><path class="d" d="M4238.483,3055.667l.007-4.932a4.411,4.411,0,0,1,0-.986c.329-1.228.806-1.04,1.555-.966,1,.1,1.991.25,2.978.435.123.023.174-.164.052-.187-1.081-.2-2.167-.37-3.263-.464-.573-.049-1.038-.157-1.366.375-.4.646-.152,1.828-.153,2.534l-.006,4.192a.1.1,0,0,0,.194,0Z" transform="translate(-4229.94 -3015.519)"/><path class="d" d="M4255.108,3004.735q-.3,3.576-.526,7.157c-.058.917-.6,2.492.786,2.2.122-.026.07-.213-.051-.187-.95.2-.572-1.5-.54-2.015q.076-1.235.163-2.469.163-2.345.363-4.688c.01-.125-.184-.124-.194,0Z" transform="translate(-4241.954 -2982.996)"/><path class="d" d="M4238.809,3068.769l4.637.991c.122.026.174-.161.051-.187l-4.636-.99c-.122-.026-.174.161-.052.187Z" transform="translate(-4230.324 -3030.385)"/><path class="d" d="M4238.342,3073.083a44.9,44.9,0,0,1,4.584.987.1.1,0,0,0,.052-.188,45.255,45.255,0,0,0-4.585-.987c-.123-.02-.175.168-.052.188Z" transform="translate(-4229.978 -3033.582)"/><path class="d" d="M4226.613,3022.976l.529-.045.24-.02a1.2,1.2,0,0,1,.29-.024c.13.063.1.387.1.505.007.19,0,.381,0,.571-.005.125.188.124.194,0a7.192,7.192,0,0,0-.005-.761c-.008-.125.014-.353-.087-.454-.116-.114-.354-.043-.492-.031l-.77.064c-.124.01-.125.2,0,.194Z" transform="translate(-4221.268 -2996.369)"/><path class="d" d="M4231.1,3024.608l-.111,3.427a.1.1,0,0,0,.1.1l.844,0a.1.1,0,0,0,0-.194c-.292,0-.576.1-.739-.169-.107-.174.027-.842.034-1.055l.068-2.109c0-.125-.19-.125-.194,0Z" transform="translate(-4224.58 -2997.725)"/><path class="d" d="M4234.208,3026q.049-2.075.227-4.141c.011-.125-.183-.124-.194,0q-.178,2.067-.227,4.141a.1.1,0,0,0,.194,0Z" transform="translate(-4226.822 -2995.689)"/><path class="d" d="M4234.792,3021.417a5.482,5.482,0,0,1,1.1-.2,1.681,1.681,0,0,0,.677-.115c.112-.056.014-.224-.1-.167a3.154,3.154,0,0,1-.926.125,5.938,5.938,0,0,0-.8.173.1.1,0,0,0,.051.187Z" transform="translate(-4227.31 -2995.062)"/><path class="d" d="M4241.658,3008.385a20.1,20.1,0,0,0,.217-4.4c-.007-.125-.2-.125-.194,0a19.908,19.908,0,0,1-.21,4.344c-.019.122.167.175.187.052Z" transform="translate(-4232.348 -2982.443)"/><path class="d" d="M4226.482,3018.03a19.284,19.284,0,0,0,2.907-.3c.123-.021.071-.209-.051-.187a19.007,19.007,0,0,1-2.856.291.1.1,0,0,0,0,.195Z" transform="translate(-4221.17 -2992.558)"/><path class="d" d="M4237.745,3007.88q-.024-1.7.112-3.4c.01-.125-.185-.124-.194,0q-.136,1.7-.112,3.4a.1.1,0,0,0,.194,0Z" transform="translate(-4229.441 -2982.809)"/><path class="d" d="M4244.987,3032.194a.162.162,0,0,0-.2-.163c-.138.032-.227.242-.263.358-.11.352.21.581.537.546a.658.658,0,0,0,.6-.569.558.558,0,0,0-.542-.588.1.1,0,0,0,0,.194.364.364,0,0,1,.178.668.492.492,0,0,1-.423.09.221.221,0,0,1-.172-.259.6.6,0,0,1,.069-.158.088.088,0,0,0,.021-.12c.009.124.2.125.194,0Z" transform="translate(-4234.597 -3003.109)"/><path class="d" d="M4231.252,3011.842a.589.589,0,0,0-.259.724c.143.254.521.154.716.029a.589.589,0,0,0,.264-.7.437.437,0,0,0-.633-.211c-.1.067-.008.235.1.168a.243.243,0,0,1,.37.162.4.4,0,0,1-.2.412c-.1.066-.385.189-.458.018s.073-.355.2-.436c.1-.068.007-.236-.1-.168Z" transform="translate(-4224.546 -2988.168)"/><path class="d" d="M4244.314,3058.915a2.832,2.832,0,0,0-.354-1.243c-.292-.8-.456-2.17.663-2.412,1.622-.351,1.111,1.693.715,2.374-.3.517-.684.979-.989,1.494l.178.023-.088-.435c-.014-.123-.208-.124-.194,0a1.813,1.813,0,0,0,.1.486.1.1,0,0,0,.178.023c.505-.855,1.333-1.658,1.435-2.695a1.326,1.326,0,0,0-.848-1.507,1.3,1.3,0,0,0-1.443.858,2.107,2.107,0,0,0-.107,1.011c.077.681.624,1.349.565,2.023-.011.125.184.124.195,0Z" transform="translate(-4233.88 -3020.314)"/><path class="d" d="M4246.748,3058.161a.822.822,0,0,0-.458.73.427.427,0,0,0,.521.45c.578-.135.667-1.377-.036-1.216-.121.028-.071.215.052.187.412-.095.309.96-.175.842-.2-.048-.186-.3-.138-.449a.643.643,0,0,1,.333-.376c.111-.057.013-.225-.1-.168Z" transform="translate(-4235.92 -3022.625)"/><path class="d" d="M4243.956,3058.037q.3-.435.612-.853c.076-.1-.093-.2-.168-.1q-.316.419-.611.853c-.07.1.1.2.167.1Z" transform="translate(-4234.054 -3021.835)"/><path class="d" d="M4243.444,3058.835l-.01-.005a.1.1,0,0,0-.118.015.117.117,0,0,0-.032.122.1.1,0,0,0,.094.072c.172,0,.338-.263.432-.381a3.135,3.135,0,0,0,.391-.634c.052-.112-.115-.211-.168-.1a3.087,3.087,0,0,1-.276.483,2.939,2.939,0,0,1-.188.238c-.027.03-.153.2-.19.2l.093.071,0-.015-.024.094.011-.012-.118.015.01.005c.111.058.209-.11.1-.167Z" transform="translate(-4233.689 -3022.45)"/><path class="d" d="M4244.011,3059.542a7.2,7.2,0,0,0,.649-1.032c.058-.111-.11-.209-.167-.1a7.165,7.165,0,0,1-.651,1.032c-.074.1.094.2.168.1Z" transform="translate(-4234.093 -3022.812)"/><path class="d" d="M4244.385,3061.5l.5-.829a.1.1,0,0,0-.167-.1l-.505.829c-.065.107.1.2.168.1Z" transform="translate(-4234.374 -3024.417)"/><path class="d" d="M4245.031,3061.484l.488-.839a.1.1,0,0,0-.167-.1l-.49.839a.1.1,0,0,0,.168.1Z" transform="translate(-4234.853 -3024.396)"/><path class="d" d="M4244.9,3062.889a9.059,9.059,0,0,0,.554-1c.053-.113-.114-.21-.167-.1a9.3,9.3,0,0,1-.554,1c-.067.106.1.2.167.1Z" transform="translate(-4234.758 -3025.315)"/><path class="d" d="M4244.879,3062.663a.2.2,0,0,0-.079.137.1.1,0,0,0,.178.075,10.573,10.573,0,0,0,.8-1.356c.054-.111-.113-.21-.168-.1a10.458,10.458,0,0,1-.8,1.356l.178.075.028-.05c.093-.085-.045-.222-.137-.138Z" transform="translate(-4234.815 -3025.041)"/><path class="d" d="M4245.77,3062.288q.422-.78.912-1.518c.069-.1-.1-.2-.167-.1q-.49.739-.911,1.519c-.06.11.107.208.167.1Z" transform="translate(-4235.402 -3024.49)"/><path class="d" d="M4246.1,3062.757c.107-.221.3-.387.416-.6a1.158,1.158,0,0,0,.111-.341c.013-.068.018-.138.033-.2.028-.119.143-.528.4-.3.093.083.23-.054.137-.137a.418.418,0,0,0-.67.215,4.617,4.617,0,0,1-.219.745,6.469,6.469,0,0,0-.373.53c-.054.112.113.21.168.1Z" transform="translate(-4235.645 -3024.815)"/><path class="d" d="M4245.927,3061.313l-.072.107.168.1q.757-1.284,1.4-2.632c.053-.113-.114-.211-.167-.1q-.639,1.348-1.4,2.632c-.064.109.1.2.168.1l.072-.107c.07-.1-.1-.2-.168-.1Z" transform="translate(-4235.588 -3023.091)"/><path class="d" d="M4246.151,3061.018a27.943,27.943,0,0,0,1.566-3.049c.049-.113-.118-.212-.167-.1a27.974,27.974,0,0,1-1.566,3.049.1.1,0,0,0,.167.1Z" transform="translate(-4235.683 -3022.41)"/><path class="d" d="M4247.333,3061.287a14.557,14.557,0,0,0,1.287-2.4c.049-.115-.139-.166-.187-.052a14.272,14.272,0,0,1-1.268,2.359c-.069.1.1.2.168.1Z" transform="translate(-4236.557 -3023.111)"/><path class="d" d="M4247.256,3062.311a10.166,10.166,0,0,0,1.261-2.406c.043-.117-.145-.168-.187-.052a9.964,9.964,0,0,1-1.242,2.36c-.072.1.1.2.168.1Z" transform="translate(-4236.5 -3023.867)"/><path class="d" d="M4246.5,3056.835a4.392,4.392,0,0,1,.188-.608c.04-.1-.13-.174-.177-.075a4.2,4.2,0,0,1-.417.693l.167.1a3.068,3.068,0,0,0,.4-.963.1.1,0,0,0-.177-.075l-.358.51.178.075.3-.842c.038-.105-.123-.169-.177-.075-.135.235-.28.463-.435.686l.178.075.131-.5c.023-.088-.1-.173-.163-.094a3,3,0,0,1-.29.308l.163.094.125-.466a.1.1,0,0,0-.178-.074,4.623,4.623,0,0,1-.371.566l.177.075.138-.516a.1.1,0,0,0-.177-.075,2.012,2.012,0,0,1-.423.468l.163.095a3.309,3.309,0,0,1,.155-.576c.038-.1-.127-.173-.177-.075l-.458.9c-.056.111.111.21.168.1l.457-.9-.178-.075a3.363,3.363,0,0,0-.155.576.1.1,0,0,0,.163.094,2.191,2.191,0,0,0,.454-.507l-.178-.075-.139.516c-.031.114.114.157.177.075a4.518,4.518,0,0,0,.372-.566l-.177-.075-.125.466a.1.1,0,0,0,.163.094,3.057,3.057,0,0,0,.29-.308l-.163-.094-.131.5a.1.1,0,0,0,.178.075c.155-.223.3-.451.434-.686l-.177-.075-.3.843c-.039.11.118.159.177.075l.358-.51-.178-.075a2.93,2.93,0,0,1-.382.917c-.068.108.095.2.167.1a4.12,4.12,0,0,0,.417-.693l-.177-.075a4.213,4.213,0,0,0-.188.608c-.028.122.159.173.187.052Z" transform="translate(-4234.942 -3020.704)"/><path class="d" d="M4276.4,3005.075a1.538,1.538,0,0,1,.559-.243.1.1,0,0,0,.119.068c1.895-.409,3.841-.094,5.735-.508.122-.027.07-.214-.052-.187a16.478,16.478,0,0,1-3.288.258c-.066,0-2.367.189-2.378.156a.1.1,0,0,0-.143-.058l-.65.347c-.11.059-.012.226.1.168Z" transform="translate(-4258.125 -2982.671)"/><path class="d" d="M4277.863,3009.463c.427-.286.474.093.785.1a4.541,4.541,0,0,0,1.007-.1,16.709,16.709,0,0,1,3.768-.275c.125.007.124-.187,0-.195a15.944,15.944,0,0,0-3.611.246,8.5,8.5,0,0,1-1.559-.058c-.288,0-.241-.054-.488.111-.1.069-.006.237.1.168Z" transform="translate(-4259.216 -2986.208)"/><path class="d" d="M4275.668,3029.357l-.04,2.232a.1.1,0,0,0,.194,0l.041-2.232a.1.1,0,0,0-.195,0Z" transform="translate(-4257.665 -3001.245)"/><path class="d" d="M4275.458,3027.648l3.568-.125c.33-.011,1.526-.242,1.783-.062.428.3.191.758.148,1.192-.053.533.16,1.384-.426,1.665a6.221,6.221,0,0,1-1.9.015c-.856.007-3.225.485-3.211-.688a.1.1,0,0,0-.194,0l-.01.811a.1.1,0,0,0,.1.1l5.688-.045a.1.1,0,0,0,.1-.1,14.129,14.129,0,0,1,.247-3.037.1.1,0,0,0-.094-.123l-5.8.2c-.125,0-.125.2,0,.195Z" transform="translate(-4257.362 -2999.754)"/><path class="d" d="M4274.414,3028.371a11.461,11.461,0,0,1,.084,1.712.1.1,0,0,0,.194,0,11.459,11.459,0,0,0-.084-1.712c-.015-.122-.21-.124-.194,0Z" transform="translate(-4256.764 -3000.515)"/><path class="d" d="M4278.423,3029.983c1.4-.064,2.8-.17,4.193-.279.124-.01.125-.2,0-.194-1.4.109-2.793.215-4.193.279-.124.006-.125.2,0,.194Z" transform="translate(-4259.667 -3001.427)"/><path class="d" d="M4279.968,3032.495l-.008-.021a.1.1,0,0,0-.119-.068l-.028.007a.1.1,0,0,0-.068.119c.033.217.364.194.52.169a2.888,2.888,0,0,1,.38-.075,3.227,3.227,0,0,1,.447.078,2.279,2.279,0,0,0,.584-.037c.123-.018.071-.205-.051-.187a1.949,1.949,0,0,1-.613.016,2.253,2.253,0,0,0-.317-.063c-.121,0-.746.159-.764.048l-.067.12.027-.007-.119-.068.008.021c.042.116.23.066.188-.052Z" transform="translate(-4260.715 -3003.571)"/><path class="d" d="M4278.922,3035.84c.622-.363,1.368-.1,2.042-.229.123-.024.071-.211-.051-.187-.7.134-1.437-.131-2.088.25a.1.1,0,0,0,.1.167Z" transform="translate(-4259.999 -3005.808)"/><path class="d" d="M4280.679,3021.334a1.433,1.433,0,0,0-.286-1.62,1.714,1.714,0,0,0-1.655-.412c-.122.014-.124.209,0,.194a1.766,1.766,0,0,1,1.337.18,1.317,1.317,0,0,1,.437,1.559c-.067.106.1.2.167.1Z" transform="translate(-4259.901 -2993.834)"/><path class="d" d="M4275.97,3017.556l-.227,1.045.143-.058-.34-.168c-.175-.086-.176-.184-.088-.354a1.226,1.226,0,0,1,.531-.521c.11-.058.012-.226-.1-.168a1.383,1.383,0,0,0-.683.783c-.122.374.311.463.579.6a.1.1,0,0,0,.143-.058l.227-1.045c.027-.122-.161-.174-.187-.052Z" transform="translate(-4257.338 -2992.393)"/><path class="d" d="M4219.363,2934.916c.115-.993-.976-1.995-1.321-2.9-.562-1.475-1-3.937.9-4.653a2.712,2.712,0,0,1,3.194,1.144,3.186,3.186,0,0,1-.209,3.026,15.741,15.741,0,0,1-2.75,3.682l.325.086-.119-.345c-.081-.235-.456-.134-.375.1l.119.345a.2.2,0,0,0,.324.086c1.362-1.42,3.05-3.294,3.357-5.315a3,3,0,0,0-2.507-3.326,2.591,2.591,0,0,0-3.066,2.094,5.32,5.32,0,0,0,.166,2.338,8.584,8.584,0,0,0,.552,1.495c.274.58,1.1,1.5,1.027,2.145-.029.248.36.246.388,0Z" transform="translate(-4214.333 -2925.3)"/><path class="d" d="M4224.376,2933.752c-.428-.557-.991.3-1.036.713a1.308,1.308,0,0,0,1.166,1.4c1.715.139,1.428-2.951-.274-2.419-.238.074-.137.449.1.375.956-.3,1.347,1.256.5,1.6a.833.833,0,0,1-.971-.367.843.843,0,0,1-.142-.471c0-.066.257-.722.322-.639.15.2.488,0,.335-.2Z" transform="translate(-4218.907 -2930.183)"/><path class="d" d="M4212.491,2922.181l6.4.185c.5.014.985-.115,1.3.348.2.3.03,1.375.036,1.75q.021,1.626-.008,3.25-.028,1.5-.095,3c-.02.449.11,1.333-.239,1.634s-1.176.062-1.618.026c-2.1-.171-4.2-.4-6.291-.679-.247-.033-.245.356,0,.388q4.1.543,8.233.822a.2.2,0,0,0,.194-.194q.324-5.245.161-10.5a.2.2,0,0,0-.194-.194l-7.879-.228a.194.194,0,0,0,0,.388Z" transform="translate(-4210.353 -2921.593)"/><path class="d" d="M4206.774,2926.363c-.031-1.193-.066-2.386-.092-3.579a2.244,2.244,0,0,1-.01-.731,1.253,1.253,0,0,1,1.055-.566,11.366,11.366,0,0,1,1.895.036.194.194,0,0,0,0-.388,12.875,12.875,0,0,0-2.651-.051c-.3.064-.334.046-.513.292-.4.545-.158,1.6-.143,2.2l.071,2.783a.194.194,0,0,0,.388,0Z" transform="translate(-4206.23 -2921.019)"/><path class="e" d="M4301.535,2981.759c.259,1.553-1.035,8.542-1.035,8.542h8.542s.258-7.248.258-8.8Z" transform="translate(-4276.099 -2965.845)"/><path class="f" d="M4308.138,2988.576h-.12v.194a13.523,13.523,0,0,1,2.174-.023,18.618,18.618,0,0,0,2.475.114c.125,0,.125-.2,0-.194a18.577,18.577,0,0,1-2.475-.114,13.492,13.492,0,0,0-2.174.023.1.1,0,0,0,0,.194h.12a.1.1,0,0,0,0-.194Z" transform="translate(-4281.601 -2971.044)"/><path class="f" d="M4308.754,2992.591l-.086-.029-.025.191,3.485-.025a.1.1,0,0,0,0-.194l-3.485.025a.1.1,0,0,0-.026.191l.086.029c.119.04.17-.148.052-.187Z" transform="translate(-4282.064 -2974.022)"/><path class="f" d="M4309.08,2995.226l-.046.014v.187a2.158,2.158,0,0,1,1.161.005.1.1,0,0,0,.052-.187,2.364,2.364,0,0,0-1.265-.005c-.086.023-.1.174,0,.187a.233.233,0,0,0,.2-.033.1.1,0,0,0-.1-.167Z" transform="translate(-4282.334 -2975.966)"/><path class="f" d="M4307.475,3003.671a33.272,33.272,0,0,1,5.48-.057.1.1,0,0,0,0-.194,33.6,33.6,0,0,0-5.532.064c-.123.02-.071.207.052.187Z" transform="translate(-4281.178 -2982.025)"/><path class="f" d="M4308.611,3006.453a6.467,6.467,0,0,1,1.974.059,9.24,9.24,0,0,0,1.714.042c.125.005.125-.189,0-.194a9.851,9.851,0,0,1-1.961-.147,6.133,6.133,0,0,0-1.726.046c-.125.008-.125.2,0,.194Z" transform="translate(-4282.041 -2984.121)"/><path class="e" d="M4304.535,3118.759c.259,1.553-1.036,8.542-1.036,8.542h8.542s.259-7.248.259-8.8Z" transform="translate(-4278.322 -3067.383)"/><path class="e" d="M4381.535,3072.759c.259,1.553-1.035,8.542-1.035,8.542h8.542s.259-7.248.259-8.8Z" transform="translate(-4335.391 -3033.29)"/><path class="f" d="M4388.078,3080.354a8.943,8.943,0,0,1,2.087.073c.652.055,1.292-.058,1.943-.018.125.008.124-.187,0-.194-.747-.046-1.477.069-2.227-.01a7.336,7.336,0,0,0-1.854-.038c-.124.018-.071.205.052.187Z" transform="translate(-4340.917 -3038.939)"/><path class="f" d="M4388.424,3083.458a4.768,4.768,0,0,1,1.672-.16c1.121.011,2.25.116,3.37.174.125.007.124-.188,0-.194l-2.544-.132a8.3,8.3,0,0,1-2-.072.1.1,0,0,0-.118-.015l-.482.231c-.113.054-.015.221.1.167Z" transform="translate(-4341.154 -3041.107)"/><path class="f" d="M4389.224,3088.91a19.912,19.912,0,0,0,2.761.218c.124-.012.125-.206,0-.194a20.133,20.133,0,0,1-2.761-.219c-.125,0-.125.19,0,.194Z" transform="translate(-4341.787 -3045.308)"/><path class="f" d="M4387.682,3092.268a6.551,6.551,0,0,1,1.211-.014,10.924,10.924,0,0,1,1.849-.059,22.256,22.256,0,0,0,2.943.088.1.1,0,0,0,0-.194c-1.371.031-2.736-.216-4.093-.171-.126,0-.25.057-.375.067,1.3-.1-1.481.029-1.319-.037-.214.088-.191-.014-.353.183-.079.1.058.234.137.137Z" transform="translate(-4340.594 -3047.678)"/><path class="f" d="M4310.266,3125.889c.692.04,1.322-.085,2,.009a17.374,17.374,0,0,0,3.169-.1c.124-.007.125-.2,0-.194l-1.609.083a8.528,8.528,0,0,1-1.7-.087c-.611-.081-1.229.133-1.86.1-.125-.007-.125.187,0,.194Z" transform="translate(-4283.267 -3072.63)"/><path class="f" d="M4321.525,3129.356l-.247-.015v.194a22.059,22.059,0,0,1,2.748-.062c.125,0,.125-.189,0-.194a22.153,22.153,0,0,0-2.748.062.1.1,0,0,0,0,.194l.247.014c.125.007.125-.187,0-.193Z" transform="translate(-4291.429 -3075.359)"/><path class="f" d="M4311.255,3132.967a3.428,3.428,0,0,1,1.451.018c.386.014.775-.048,1.162-.049.867,0,1.738.067,2.6.1.125.005.125-.189,0-.194-1.057-.047-2.118-.129-3.175-.085-.708.03-1.477-.258-2.139.037-.113.051-.015.218.1.167Z" transform="translate(-4283.96 -3077.881)"/><path class="f" d="M4311.563,3135.9c1.611.028,3.224-.117,4.833-.049.125.005.125-.189,0-.194-1.609-.067-3.222.077-4.833.05a.1.1,0,0,0,0,.194Z" transform="translate(-4284.228 -3080.083)"/><path class="f" d="M4312.254,3138.656c.378-.056.761.125,1.149.091a6.819,6.819,0,0,1,1.322.014c.124.013.123-.182,0-.195a10.164,10.164,0,0,0-1.476.005,9.2,9.2,0,0,0-1.046-.1c-.124.019-.071.205.051.187Z" transform="translate(-4284.72 -3082.175)"/><path class="f" d="M4309.29,3146.583a39.459,39.459,0,0,1,5.523-.26c.125-.006.125-.2,0-.194a38.106,38.106,0,0,0-5.575.267c-.122.024-.07.211.052.187Z" transform="translate(-4282.523 -3087.86)"/></g><path class="g" d="M4082.718,2953.791c-3.625-18.637-2.33-19.931.776-36.5s8.542-19.414,13.2-20.708,11.389,0,11.907,3.365c0,0,5.953,3.106,5.953,13.46s-1.811,24.331,0,35.462S4082.718,2953.791,4082.718,2953.791Z" transform="translate(-4066.651 -2877.917)"/><path class="h" d="M4104.5,3019.69c2.33-1.294,3.624-2.071,3.624-2.071l2.847-18.119,8.8,2.848s.259,12.942.518,15.272,2.848.259,2.848.259,4.659-.776,6.212.518,3.883,7.765,5.177,12.166,3.106,10.095,3.106,10.095,2.847-4.4,5.436-8.542,4.918-7.507,4.918-7.507,2.071-5.953,3.107-6.73,3.882-2.588,5.435-2.847,5.436-3.365,5.436-3.365,2.33-1.553,1.554,1.812-1.294,4.918-1.036,6.989-.776,3.624-3.882,5.953-5.436,2.071-5.436,2.071-3.365,12.166-6.73,16.566-9.578,9.06-11.648,9.319-8.283-11.13-8.283-11.13l-22-21.484Z" transform="translate(-4084.421 -2954.558)"/><path class="h" d="M4127.912,2917.5c4.727,2.589,7.09,4.918,7.352,8.283s-.345,6.3,0,10.613c.59,7.377-2.774,11.519-5.88,12.036-6.725,1.121-12.942-3.365-13.032-10.742,0,0-3.932,1.035-3.144-4.659s3.938-.518,3.938-.518Z" transform="translate(-4090.798 -2893.783)"/><path class="g" d="M4138.245,2918.241s-.043,4.362-10.02,8.247c-6.372,2.481-7.914,3.9-7.914,3.9l-2.994-7.428,10.1-7.825s7.315-.1,8.024.489S4138.245,2918.241,4138.245,2918.241Z" transform="translate(-4093.92 -2892.027)"/><path class="i" d="M4083.776,3071.983l.259-2.847a17.187,17.187,0,0,0,4.141-1.035,10.632,10.632,0,0,1,4.1-.657s-.212,7.646,7.812,8.422,4.141-8.024,4.141-8.024l4.915.186a44.472,44.472,0,0,1,5.181,8.356,18.888,18.888,0,0,1,5.459,8.474c1.53,5.244-4.165,9.9-4.165,9.9l.776,10.095s-16.825,7.507-29.25,1.294L4083,3078.971Z" transform="translate(-4068.487 -3004.909)"/><path class="h" d="M4045.917,3110.306s.392-17.136,1.635-25.131,4.963-13.383,9.831-12.509,2.157,11.138,1.075,14.867-4.949,25.055-4.949,25.055S4047.649,3112.7,4045.917,3110.306Z" transform="translate(-4041.002 -3008.716)"/><ellipse class="g" cx="0.518" cy="1.165" rx="0.518" ry="1.165" transform="translate(34.574 37.177)"/><ellipse class="g" cx="0.518" cy="1.165" rx="0.518" ry="1.165" transform="translate(42.728 37.306)"/><path class="g" d="M4152.664,2963.144a13.468,13.468,0,0,0-5.633,0,3.481,3.481,0,0,1-2.816,0c-.845-.518-9.013,0-9.013,0s-.7,1.424,0,1.673a.912.912,0,0,1,.7.786c.281,2.071,1.126,5.177,4.506,4.918s3.662-4.4,4.225-5.436,2.253-.776,2.535,1.035.423,4.012,3.521,4.271a3.077,3.077,0,0,0,3.38-2.848S4154.072,2963.662,4152.664,2963.144Zm-12.533,6.6c-3.1.259-3.38-3.882-3.38-4.659,0-1.394,1.972-1.035,3.38-1.035s3.662-.259,3.662.518S4143.229,2969.486,4140.131,2969.744Zm11.829-.259c-1.689.259-3.943,0-4.225-3.624-.08-1.033,0-1.812,1.126-1.812s3.379-.259,3.943.259S4153.65,2969.227,4151.96,2969.486Z" transform="translate(-4106.944 -2927.391)"/><path class="g" d="M4282.164,3044.448a1.164,1.164,0,0,1-.947-1.842l12.941-18.119a1.165,1.165,0,1,1,1.9,1.354l-12.942,18.119A1.164,1.164,0,0,1,4282.164,3044.448Z" transform="translate(-4215.234 -2972.716)"/><path class="h" d="M4281.5,3064.187s4.121-1.161,5.425-2.263,4.411-4.729,2.082-4.469-3.883,2.849-3.883,2.849Z" transform="translate(-4215.605 -2997.501)"/><path class="d" d="M4336.781,2952.144A78.319,78.319,0,0,1,4336,2968.4c-.038.245.337.35.375.1a78.909,78.909,0,0,0,.8-16.358c-.014-.249-.4-.25-.389,0Z" transform="translate(-4255.993 -2919.321)"/><path class="d" d="M4338.452,2950.93q5.558-.359,11.129-.362a6.344,6.344,0,0,1,1.519.008c.392.253.221.684.182,1.067q-.14,1.381-.26,2.763-.243,2.765-.411,5.536t-.264,5.544q-.043,1.261-.072,2.522c-.016.718.271,2.5-.392,2.921-.612.387-2.135.283-2.9.343q-1.357.107-2.721.117a39.052,39.052,0,0,1-6.113-.45c-.244-.037-.35.337-.1.374a39.639,39.639,0,0,0,12.425-.091.2.2,0,0,0,.142-.187q.1-10.348,1.183-20.648a.2.2,0,0,0-.194-.194q-6.582-.076-13.154.348c-.248.016-.25.4,0,.388Z" transform="translate(-4257.413 -2918.006)"/><path class="d" d="M4335.67,3017.548l.2-2.069c.024-.248-.364-.247-.388,0l-.2,2.069c-.024.249.365.247.389,0Z" transform="translate(-4255.464 -2966.264)"/><path class="d" d="M4342.493,2964.812q-.224,2.108-.295,4.225c-.008.25.38.249.388,0q.071-2.119.3-4.225c.026-.248-.362-.247-.389,0Z" transform="translate(-4260.592 -2928.711)"/><path class="d" d="M4343.8,2965.034l3.453-.115-.194-.194a25.568,25.568,0,0,0-.166,4.068c.01.249.4.25.388,0a25.625,25.625,0,0,1,.166-4.068.2.2,0,0,0-.194-.194l-3.453.116c-.25.009-.25.4,0,.388Z" transform="translate(-4261.64 -2928.64)"/><path class="d" d="M4343.137,2980.607a21.016,21.016,0,0,0,3.8-.1c.245-.029.248-.417,0-.388a21.1,21.1,0,0,1-3.8.1c-.249-.016-.249.373,0,.388Z" transform="translate(-4261.149 -2940.191)"/><path class="d" d="M4343.25,2967.649q1.731-2.029,3.265-4.21c.145-.2-.192-.4-.334-.2q-1.507,2.141-3.206,4.132c-.161.189.112.465.275.274Z" transform="translate(-4261.13 -2927.622)"/><path class="d" d="M4344.756,2966.42q1.307,1.625,2.754,3.126c.174.18.448-.094.275-.274q-1.448-1.5-2.754-3.126c-.157-.195-.43.081-.274.275Z" transform="translate(-4262.453 -2929.787)"/><path class="d" d="M4362.8,2965.243c.935-.017,1.87-.022,2.8-.01a8.662,8.662,0,0,1,2.841.121l-.039-.3.155-.007c-.208-.141-.4.2-.2.335l.04.027a.194.194,0,0,0,.235-.03l.04-.05a.2.2,0,0,0-.039-.3,6.334,6.334,0,0,0-2.39-.164c-1.151-.023-2.3-.021-3.452,0a.194.194,0,0,0,0,.388Z" transform="translate(-4275.72 -2928.857)"/><path class="d" d="M4362.463,2969.638h3.71a.194.194,0,0,0,0-.388h-3.71a.194.194,0,0,0,0,.388Z" transform="translate(-4275.473 -2932.138)"/><path class="d" d="M4361.8,2975.306h5.695a.194.194,0,0,0,0-.389H4361.8a.194.194,0,0,0,0,.389Z" transform="translate(-4274.978 -2936.338)"/><path class="d" d="M4345.448,2957.159l1.126.13c.248.028.246-.36,0-.389l-1.126-.129c-.248-.029-.246.36,0,.388Z" transform="translate(-4262.863 -2922.888)"/><path class="d" d="M4343.8,2954.019l5.091.176c.25.009.25-.38,0-.388l-5.091-.176c-.25-.009-.25.38,0,.389Z" transform="translate(-4261.637 -2920.561)"/><path class="d" d="M4343.4,2990.132l-.293,4.139c-.017.25.372.249.389,0l.292-4.139c.018-.25-.37-.249-.388,0Z" transform="translate(-4261.264 -2947.476)"/><path class="d" d="M4343.142,2990.131c1.7-.1,3.393-.152,5.092-.119q.764.015,1.526.049c.2.009.861-.064,1.018.054.551.415.027,2.049-.051,2.643-.1.79.063,1.9-.836,2.04a11.413,11.413,0,0,1-2.44-.2l-5.124-.418.052.381a76.011,76.011,0,0,0,7.871-3.837.194.194,0,0,0-.2-.335,75.259,75.259,0,0,1-7.779,3.8.2.2,0,0,0,.052.381l8.3.677c.114.01.181-.1.194-.194l.664-5.1c.015-.109-.1-.188-.194-.194a63.756,63.756,0,0,0-8.145-.018c-.249.015-.25.4,0,.389Z" transform="translate(-4260.548 -2947.236)"/><path class="d" d="M4343.76,2991.121q3.847,2,7.521,4.3c.213.133.408-.2.2-.335q-3.675-2.3-7.521-4.3c-.221-.115-.417.22-.2.336Z" transform="translate(-4261.678 -2948.082)"/><path class="d" d="M4345.423,3012.758a1.392,1.392,0,0,0,1.117.364l.5.031,1.764.109a24.4,24.4,0,0,1,3.47.368c.244.05.348-.324.1-.375a25.113,25.113,0,0,0-3.573-.381c-.97-.06-2.538-.466-3.454-.151a.2.2,0,0,0-.116.285l.027.052a.194.194,0,0,0,.219.089l.042-.016c.231-.089.131-.464-.1-.375Z" transform="translate(-4262.828 -2964.27)"/><path class="d" d="M4349.81,3016.573l-.926,0v.388q2.318-.019,4.638.021a.194.194,0,0,0,0-.389q-2.32-.04-4.638-.021a.194.194,0,0,0,0,.388l.926,0a.194.194,0,0,0,0-.388Z" transform="translate(-4265.408 -2967.209)"/><path class="d" d="M4351.986,3021.594a15.764,15.764,0,0,0-3.622.051.2.2,0,0,0-.135.136,2.9,2.9,0,0,0-.01,1.387.2.2,0,0,0,.136.135,8.353,8.353,0,0,0,2.072.059l2.567,0a.2.2,0,0,0,.137-.332c-1.147-1.118.28-.921-.153-1.509-.211-.287-.812-.105-1.075-.088s-.25.4,0,.388l.726-.047q-.144.006-.135.219c.016.09-.064.226-.07.333a1.243,1.243,0,0,0,.433.978l.137-.331-2.2,0c-.542,0-1.645.195-2.037-.172a.459.459,0,0,1,.18-.823,4.278,4.278,0,0,1,1.017,0h2.032a.194.194,0,0,0,0-.388Z" transform="translate(-4264.996 -2970.763)"/><path class="d" d="M4249.036,2954.073q-.321,2.389-.455,4.794c-.014.25.374.25.388,0q.129-2.355.441-4.691c.033-.245-.341-.351-.375-.1Z" transform="translate(-4191.207 -2920.785)"/><path class="d" d="M4251.127,2953.121q6.859.071,13.716-.153c.25-.008.251-.4,0-.388q-6.856.224-13.716.153a.194.194,0,0,0,0,.388Z" transform="translate(-4192.955 -2919.783)"/><path class="d" d="M4250.131,2957.318l11.284-.26c.643-.015,2.521.312,2.953-.25.306-.4.154-1.3.169-1.76.033-.971.033-1.942.014-2.914a.194.194,0,0,0-.389,0c.021,1.052.4,3.429-.376,4.186-.53.517-1.632.333-2.372.35l-2.308.053-8.976.208a.194.194,0,0,0,0,.388Z" transform="translate(-4192.217 -2919.313)"/><path class="d" d="M4254.725,2958.326a1.168,1.168,0,0,0-.8,1.448,1.129,1.129,0,0,0,1.435.676,1.1,1.1,0,0,0,.6-1.394,1.082,1.082,0,0,0-1.465-.517c-.226.107-.029.442.195.335a.7.7,0,0,1,.9.3.706.706,0,0,1-.38.92.728.728,0,0,1-.913-.446.769.769,0,0,1,.53-.944c.237-.075.136-.45-.1-.375Z" transform="translate(-4195.129 -2924.034)"/><path class="d" d="M4287.551,2958.435a1.166,1.166,0,0,0-1.242,1.032c-.06.76.7.915,1.3.784a1.043,1.043,0,0,0,.823-1.318.868.868,0,0,0-1.3-.409c-.2.145-.007.482.2.335a.479.479,0,0,1,.753.26.667.667,0,0,1-.576.758c-.369.078-.927,0-.792-.494a.781.781,0,0,1,.833-.56c.249.023.247-.365,0-.388Z" transform="translate(-4219.167 -2924.076)"/><path class="d" d="M4297.623,2958.133l-.1,1.379c-.019.249.37.248.389,0l.1-1.379c.018-.249-.37-.248-.388,0Z" transform="translate(-4227.479 -2923.76)"/><path class="d" d="M4297.636,2957.293l1.021.013-.194-.194-.1,1.723.194-.194-1.1-.086c-.249-.02-.248.369,0,.388l1.1.086a.2.2,0,0,0,.194-.194l.1-1.723a.2.2,0,0,0-.193-.194l-1.021-.013a.194.194,0,0,0,0,.388Z" transform="translate(-4227.298 -2922.988)"/><path class="d" d="M4268.813,2961.728l2.757-.17c.248-.015.249-.4,0-.388l-2.757.17c-.248.015-.25.4,0,.388Z" transform="translate(-4206.063 -2926.148)"/><path class="d" d="M4306.8,2958.257a44.282,44.282,0,0,0,5.345-.126c.247-.021.25-.409,0-.388a44.232,44.232,0,0,1-5.345.126c-.25-.009-.25.379,0,.388Z" transform="translate(-4234.216 -2923.608)"/><path class="d" d="M4327.414,2955.067a7.477,7.477,0,0,0-.177,1.95c.01.249.4.251.389,0a7.094,7.094,0,0,1,.162-1.847c.055-.243-.319-.347-.374-.1Z" transform="translate(-4249.499 -2921.523)"/><path class="d" d="M4327.335,2955.2a6.239,6.239,0,0,1,1.085.383l-.039-.3a10.31,10.31,0,0,1-1.368,1.219c-.2.147,0,.484.2.335a10.844,10.844,0,0,0,1.447-1.28.2.2,0,0,0-.039-.3,6.792,6.792,0,0,0-1.178-.423.194.194,0,0,0-.1.375Z" transform="translate(-4249.276 -2921.441)"/><path class="d" d="M4259.778,2944.78c.026.208.051.417.072.625.011.114.116.235.246.188l.892-.33c.232-.085.132-.461-.1-.374l-.892.329.246.187c-.021-.209-.045-.417-.072-.625-.031-.244-.42-.248-.388,0Z" transform="translate(-4199.505 -2913.866)"/><path class="d" d="M4262.8,2945.829q2.246,0,4.482.177c.249.02.248-.368,0-.388q-2.238-.181-4.482-.177a.194.194,0,0,0,0,.388Z" transform="translate(-4201.604 -2914.492)"/><path class="d" d="M4260.807,2941.06l4.311.168c.25.01.25-.378,0-.388l-4.311-.168c-.249-.01-.249.378,0,.388Z" transform="translate(-4200.13 -2910.957)"/><path class="d" d="M4338.13,3050.314l7.088-.065a21.425,21.425,0,0,1,3.544-.033c.692.117.625-.066.634.725a11.457,11.457,0,0,1-.292,1.722,55.94,55.94,0,0,0-.42,13.24c.021.247.41.25.389,0a56.071,56.071,0,0,1,.889-15.84.2.2,0,0,0-.188-.245l-11.645.107a.194.194,0,0,0,0,.388Z" transform="translate(-4257.438 -2991.852)"/><path class="d" d="M4338.826,3050.132q.083,8.082-.3,16.156a.2.2,0,0,0,.143.187,20.951,20.951,0,0,0,8.021.972c1.094-.025,3.554-.208,2.7-1.962-.109-.225-.444-.028-.334.2.7,1.446-1.812,1.365-2.366,1.378-.465.011-.93.02-1.4.021a26.152,26.152,0,0,1-3.011-.136c-.748-.084-2.48-.15-3.081-.68s-.175-2.564-.15-3.255q.234-6.435.162-12.876a.2.2,0,0,0-.389,0Z" transform="translate(-4257.87 -2991.945)"/><path class="d" d="M4344.484,3060.464l-.148,3.711c-.01.25.378.249.388,0l.149-3.711c.009-.25-.378-.25-.389,0Z" transform="translate(-4262.176 -2999.603)"/><path class="d" d="M4345.167,3060.044l-.145-.156-.137.331,4.156-.054-.2-.195a33.456,33.456,0,0,0-.215,4.439l.194-.194a20.9,20.9,0,0,0-3.361-.17c-.249.007-.25.4,0,.388a20.959,20.959,0,0,1,3.361.17.2.2,0,0,0,.194-.194,33.21,33.21,0,0,1,.215-4.439.2.2,0,0,0-.193-.194l-4.156.055a.2.2,0,0,0-.137.331l.145.156c.17.184.444-.091.274-.274Z" transform="translate(-4262.442 -2999.231)"/><path class="d" d="M4345.554,3065.708a24.512,24.512,0,0,0,2.874-3.146c.151-.2-.186-.392-.336-.2a23.922,23.922,0,0,1-2.813,3.068c-.184.169.091.443.275.274Z" transform="translate(-4262.83 -3001.091)"/><path class="d" d="M4348.18,3062.781l-.156-.172c-.16-.176-.387.048-.3.235.689,1.565,2.334,2.345,3.194,3.787a.2.2,0,0,0,.336-.2c-.86-1.441-2.509-2.23-3.2-3.787l-.3.235.155.172c.168.186.442-.09.275-.275Z" transform="translate(-4264.67 -3001.284)"/><path class="d" d="M4344.239,3082.1a27.511,27.511,0,0,0-.418,3.753c-.011.25.378.249.388,0a26.558,26.558,0,0,1,.406-3.65c.043-.244-.33-.349-.375-.1Z" transform="translate(-4261.794 -3015.671)"/><path class="d" d="M4344.751,3082.72a12.38,12.38,0,0,1,3.163.014l-.194-.194-.156,1.625c-.036.369.036,1.474-.3,1.714-.21.15-1.154-.039-1.419-.055-.567-.036-1.132-.09-1.7-.155-.249-.029-.246.36,0,.388.752.087,1.506.152,2.263.185.324.014.963.174,1.239-.09s.2-.922.229-1.249l.228-2.364c.011-.114-.1-.181-.195-.194a12.38,12.38,0,0,0-3.163-.014c-.245.03-.248.419,0,.388Z" transform="translate(-4261.901 -3015.879)"/><path class="d" d="M4343.824,3087.12a14.042,14.042,0,0,0,3.008-2.488c.168-.185-.106-.46-.274-.275a13.646,13.646,0,0,1-2.93,2.428c-.213.13-.018.467.2.335Z" transform="translate(-4261.583 -3017.405)"/><path class="d" d="M4346.343,3084.215q1.2,1.424,2.49,2.772c.173.181.447-.094.274-.275q-1.288-1.348-2.49-2.772c-.162-.191-.436.085-.275.274Z" transform="translate(-4263.627 -3017.094)"/><path class="d" d="M4343.2,3101.421a12.4,12.4,0,0,0-.288,2.894.194.194,0,0,0,.388,0,11.913,11.913,0,0,1,.275-2.791c.053-.244-.321-.348-.375-.1Z" transform="translate(-4261.116 -3029.994)"/><path class="d" d="M4344.133,3101.992l1.412.053a5.353,5.353,0,0,1,1.407.058,5.476,5.476,0,0,1-.1,1.322l-.113,1.557c-.018.249.371.248.389,0l.147-2.035c.021-.284.2-.887-.026-1.131-.209-.221-.738-.122-1-.132l-2.117-.079c-.25-.009-.25.379,0,.388Z" transform="translate(-4261.887 -3030.232)"/><path class="d" d="M4344.479,3106.3q1.648-1.092,3.238-2.265c.2-.146.005-.484-.2-.335q-1.591,1.173-3.238,2.265c-.207.137-.013.474.2.335Z" transform="translate(-4262.071 -3031.761)"/><path class="d" d="M4346.8,3103.208a.387.387,0,0,0-.125-.08.2.2,0,0,0-.246.187c0,.341.454.81.638,1.074.461.667,1.129,1.148,1.585,1.815.14.2.477.011.335-.2-.426-.623-1.044-1.07-1.489-1.676-.138-.188-.266-.384-.393-.58a2.628,2.628,0,0,1-.288-.438l-.246.188-.046-.02c.182.17.458-.1.274-.274Z" transform="translate(-4263.729 -3031.354)"/><path class="d" d="M4357.13,3113.005l3.451-.106c.249-.008.25-.4,0-.388l-3.451.106c-.249.007-.25.4,0,.388Z" transform="translate(-4271.521 -3038.316)"/><path class="d" d="M4357.469,3110.424l2.76.074a.194.194,0,0,0,0-.388l-2.76-.074a.194.194,0,0,0,0,.388Z" transform="translate(-4271.771 -3036.482)"/><path class="d" d="M4359.46,3103.77l3.8.077a.194.194,0,0,0,0-.388l-3.8-.077a.194.194,0,0,0,0,.388Z" transform="translate(-4273.246 -3031.55)"/><path class="d" d="M4362.127,3092.646q1.124.008,2.243-.08c.248-.019.25-.408,0-.388q-1.121.088-2.243.08a.194.194,0,0,0,0,.388Z" transform="translate(-4275.223 -3023.247)"/><path class="d" d="M4362.137,3084.918a19.488,19.488,0,0,1,3.714.116c.247.031.245-.357,0-.388a19.47,19.47,0,0,0-3.714-.116c-.249.016-.25.4,0,.389Z" transform="translate(-4275.231 -3017.547)"/><path class="d" d="M4361.8,3087.971h2.934a.194.194,0,0,0,0-.388H4361.8a.194.194,0,0,0,0,.388Z" transform="translate(-4274.978 -3019.841)"/><path class="d" d="M4363.8,3074.305h2.33a.194.194,0,0,0,0-.389h-2.33a.194.194,0,0,0,0,.389Z" transform="translate(-4276.46 -3009.712)"/><path class="d" d="M4364.8,3071.638h1.554a.194.194,0,0,0,0-.388H4364.8a.194.194,0,0,0,0,.388Z" transform="translate(-4277.201 -3007.736)"/><path class="d" d="M4364.463,3067.305h3.02a.194.194,0,0,0,0-.388h-3.02a.194.194,0,0,0,0,.388Z" transform="translate(-4276.955 -3004.524)"/><path class="d" d="M4364.142,3062.26l2.588-.272c.246-.026.248-.414,0-.388l-2.588.271c-.246.026-.248.414,0,.388Z" transform="translate(-4276.718 -3000.583)"/><path class="d" d="M4336.142,3130.688c2.248-.147,4.5-.215,6.749-.186,1.575.021,1.175,1.071,1.062,2.205-.117,1.155-.179,2.313-.209,3.473a.194.194,0,0,0,.387,0c.04-1.492.138-2.98.32-4.461.056-.457.362-1.211-.108-1.546-.252-.181-.917-.052-1.2-.057q-1.126-.018-2.251-.005c-1.585.017-3.167.084-4.749.188-.248.016-.25.405,0,.388Z" transform="translate(-4255.965 -3051.336)"/><path class="d" d="M4337.127,3154.771l7.162.1a.194.194,0,0,0,0-.388l-7.162-.1a.194.194,0,0,0,0,.388Z" transform="translate(-4256.694 -3069.351)"/><path class="d" d="M4337.919,3139.523q3.409-2.459,6.97-4.689c.211-.132.017-.468-.2-.335q-3.561,2.23-6.97,4.689c-.2.145-.007.482.2.335Z" transform="translate(-4257.213 -3054.59)"/><path class="d" d="M4338.367,3135.594a32.865,32.865,0,0,1,6.227,5.349c.168.185.442-.09.274-.275a33.241,33.241,0,0,0-6.3-5.41c-.209-.138-.4.2-.2.335Z" transform="translate(-4257.687 -3055.152)"/><path class="d" d="M4372.8,3134.306a46.165,46.165,0,0,1,5.268.205c.249.024.247-.365,0-.388a46.053,46.053,0,0,0-5.268-.2.194.194,0,0,0,0,.388Z" transform="translate(-4283.131 -3054.177)"/><path class="d" d="M4372.464,3140.861a27.479,27.479,0,0,1,5.564-.253c.25.014.249-.375,0-.388a27.972,27.972,0,0,0-5.668.267c-.246.037-.142.411.1.375Z" transform="translate(-4282.842 -3058.822)"/><path class="j" d="M4373.667,3147.333" transform="translate(-4283.915 -3064.125)"/><path class="d" d="M4371.913,3145.68l-.412.05v.375a21.614,21.614,0,0,1,3.746-.352.194.194,0,0,0,0-.388,22.275,22.275,0,0,0-3.849.366.2.2,0,0,0,0,.375,1.152,1.152,0,0,0,.618-.05c.234-.083.133-.459-.1-.375Z" transform="translate(-4282.13 -3062.666)"/><path class="d" d="M4340.117,3055.421l-.024.035a.193.193,0,0,0,.03.235c.337.271.854.109,1.257.1q1.534-.048,3.067-.035c2.046.017,4.089.123,6.127.3.249.021.248-.367,0-.388-1.7-.145-3.4-.244-5.1-.281q-1.15-.025-2.3-.015c-.508,0-2.393-.2-2.716.253.145-.2-.191-.4-.336-.2Z" transform="translate(-4259.012 -2995.93)"/><path class="d" d="M4373.527,3051.493a.675.675,0,0,0-1.037.439.726.726,0,0,0,.846.8,1.139,1.139,0,0,0,.645-.3,1.821,1.821,0,0,0,.5-.625c.207-.588-.955-.6-1.265-.564-.246.026-.249.415,0,.389a1.367,1.367,0,0,1,.785.061c.1.011.109.048.023.11-.038.052-.078.1-.12.149a1.55,1.55,0,0,1-.271.263.563.563,0,0,1-.678.042c-.272-.25.08-.6.374-.425.214.13.409-.206.2-.335Z" transform="translate(-4283.036 -2992.897)"/><path class="d" d="M4375.412,2913.283c-1.775-.732-3.828,1.534-4.179,3.124-.447,2.03,2.134,3.4,3.819,3.48a3.646,3.646,0,0,0,3.893-3.109c.208-2.472-1.951-3.263-3.99-3.5-.248-.029-.246.36,0,.388,1.6.185,3.457.67,3.59,2.608a3.145,3.145,0,0,1-3.1,3.224c-1.635.069-4.013-1.047-3.834-2.989.131-1.421,2.287-3.436,3.7-2.853.231.095.331-.28.1-.375Z" transform="translate(-4282.073 -2890.552)"/><path class="d" d="M4378.811,2924.042c-.181.265-.282.886-.009,1.126.369.327.721-.238.814-.532s.235-.954-.167-1.109c-.477-.184-.613.576-.589.878.02.247.408.25.388,0a.985.985,0,0,1,.015-.31c.011-.055.033-.278.06-.1a1.3,1.3,0,0,1-.082.538.8.8,0,0,1-.1.232c-.12.161-.1.052-.1-.05a.736.736,0,0,1,.1-.477c.142-.207-.195-.4-.335-.2Z" transform="translate(-4287.596 -2898.229)"/><path class="d" d="M4380.955,2919.724l-.015.172c-.019.216.35.269.381.052.109-.76.623-2.193,1.664-1.535.7.441.542,1.714.5,2.443a.2.2,0,0,0,.292.168c.467-.264.747-1.147.146-1.458-.548-.284-.848.69-.666,1.065.3.627.964.15,1.019-.364.06-.554-.657-1.08-.874-.4-.075.239.3.341.375.1l.12.227q-.458-.026-.156-.078c.126-.071.162-.029.108.126a.406.406,0,0,1-.268.444l.292.168c.059-.969.207-2.647-1.037-2.934-1.217-.281-1.75.957-1.887,1.922l.381.052.015-.172c.021-.249-.366-.248-.388,0Z" transform="translate(-4289.305 -2894.066)"/><path class="d" d="M4388.556,2928.263a.655.655,0,0,1-.393.865c-.237.075-.136.45.1.375a1.044,1.044,0,0,0,.664-1.343c-.09-.23-.465-.13-.375.1Z" transform="translate(-4294.559 -2901.588)"/><path class="d" d="M4385.917,2932.135l-.253.008a.2.2,0,0,0-.187.143c-.144.448.452.582.766.478a.35.35,0,0,0,.26-.412.508.508,0,0,0-.39-.308.606.606,0,0,0-.5.034.376.376,0,0,0-.138.46.411.411,0,0,0,.4.261.487.487,0,0,0,.421-.342.2.2,0,0,0-.136-.239l-.2-.081a.2.2,0,0,0-.239.136.2.2,0,0,0,.135.239l.2.081-.136-.239c-.016.044-.082.089-.091.03,0,.034-.01.007.033.011a.886.886,0,0,1,.143.023c.014,0,.123.057.129.055-.024.009,0-.1.011-.091a.317.317,0,0,1-.058.02.544.544,0,0,1-.154.007.687.687,0,0,1-.077-.013c-.045-.008-.006-.02-.01-.008l-.187.143.253-.008c.249-.008.25-.4,0-.388Z" transform="translate(-4292.649 -2904.535)"/><path class="d" d="M4379.991,2925.687a.392.392,0,0,0-.095-.377.2.2,0,0,0-.3.04.68.68,0,0,0,.19.929.2.2,0,0,0,.266-.069,1.585,1.585,0,0,0,.179-1.168.2.2,0,0,0-.325-.085.906.906,0,0,0-.032,1.283.2.2,0,0,0,.3-.04,1.083,1.083,0,0,0,.216-.8.569.569,0,0,0-.512-.443c-.249-.022-.248.366,0,.388.317.029.03.544-.039.661l.3-.04a.513.513,0,0,1,.033-.734l-.325-.086a1.175,1.175,0,0,1-.14.87l.266-.07a.289.289,0,0,1-.051-.4l-.3.039h0c-.059.244.316.347.374.1Z" transform="translate(-4288.225 -2899.269)"/><path class="d" d="M4394.378,2933.4a1.4,1.4,0,0,0,.053.9,8.914,8.914,0,0,1,.877,2.984c.052,1.714-.1,3.453-.162,5.166l-.182,5.057c-.033.919-.028,1.849-.1,2.766a4.99,4.99,0,0,1-1.454,3.125c-.163.188.111.464.275.275a5.5,5.5,0,0,0,1.578-3.637c.107-1.936.14-3.879.209-5.816s.151-3.877.209-5.816a10.712,10.712,0,0,0-.086-2.279c-.151-.807-.972-1.842-.843-2.617.041-.244-.333-.349-.375-.1Z" transform="translate(-4298.51 -2905.463)"/><path class="d" d="M4389.4,3009.254a8.449,8.449,0,0,0-.766,1.431.2.2,0,0,0,.239.239l.911-.361c.133-.052.345-.1.419-.235s-.015-.281-.083-.408c-.159-.3-.327-.586-.49-.879-.122-.219-.457-.023-.335.2l.275.495.153.275.062.11q.1.185.036.068c-.014-.051-.041-.058-.083-.019l-.114.045-.285.112-.57.226.239.239a7.9,7.9,0,0,1,.726-1.339c.14-.208-.2-.4-.335-.2Z" transform="translate(-4295.001 -2961.559)"/><path class="d" d="M4332.847,2917.277c.478-.012.943.156,1.428.142.413-.013.827-.1,1.241-.125a12.757,12.757,0,0,1,3.532.334c.244.056.348-.318.1-.374a13.188,13.188,0,0,0-3.184-.365c-.569.009-1.128.121-1.693.141-.52.017-.922-.154-1.428-.142a.194.194,0,0,0,0,.388Z" transform="translate(-4253.522 -2893.329)"/><path class="d" d="M4333.388,2922.028v-.065a.194.194,0,0,0-.388,0v.065a.194.194,0,0,0,.388,0Z" transform="translate(-4253.774 -2896.952)"/><path class="d" d="M4332.371,2922.3l-.181.118a.2.2,0,0,0,.1.361,65.527,65.527,0,0,1,7.421.392c.249.027.246-.361,0-.388a65.527,65.527,0,0,0-7.421-.392l.1.362.181-.118c.209-.136.014-.472-.2-.335Z" transform="translate(-4253.106 -2897.316)"/><path class="d" d="M4333.963,2926.877q3.009-.008,6.018.08a.194.194,0,0,0,0-.388q-3.009-.087-6.018-.08a.194.194,0,0,0,0,.389Z" transform="translate(-4254.349 -2900.445)"/><path class="d" d="M4333.958,2930.265l4.145.181c.25.01.25-.377,0-.389l-4.145-.18c-.25-.011-.25.377,0,.388Z" transform="translate(-4254.346 -2902.956)"/></g></svg>