
<svg xmlns="http://www.w3.org/2000/svg" xmlns:xlink="http://www.w3.org/1999/xlink" width="108.769" height="108.769" viewBox="0 0 108.769 108.769"><defs><style>.a{fill:none;}.b{clip-path:url(#a);}.c{fill:#f4f4f4;}.d{fill:#6b6b6b;}.e{fill:#dbdbdb;}.f{fill:#fff;}.g{fill:#c4c4c4;}.h{fill:#ffc4a2;}.i{fill:#554332;}.j{fill:#ff5e56;}.k{fill:#818181;}.l{fill:#777;}.m{fill:#a36cb7;}.n{fill:#2c519b;}.o{fill:#898989;}.p{fill:#ddb450;}.q{fill:#a8a8a8;}.r{fill:#c1c1c1;}.s{fill:#565656;}</style><clipPath id="a"><rect class="a" width="108.769" height="108.769"/></clipPath></defs><g class="b" transform="translate(0)"><ellipse class="c" cx="54.385" cy="54.385" rx="54.385" ry="54.385"/><path class="d" d="M4080.369,3499.562l-55.584,3.691a1.709,1.709,0,0,1-1.822-1.669l-.829-39.783a1.461,1.461,0,0,1,1.425-1.491l54.793-1.31Z" transform="translate(-4010.874 -3436.125)"/><path class="e" d="M4035.664,3502.742l-.664-32.575,45.455-1.167,4.893,30.342-6.949,1.162Z" transform="translate(-4020.857 -3443.884)"/><path class="f" d="M4086,3488.148l.224,10.505,28.685-1.467V3487Z" transform="translate(-4060.428 -3457.85)"/><path class="f" d="M4086,3543.148l.224,10.5,28.685-1.467V3542Z" transform="translate(-4060.428 -3500.525)"/><path class="g" d="M4111.333,3633.244c-.448,6.723-1.792,7.171-6.051,8.067s-5.827,3.138,3.361,2.241,23.979-2.241,23.979-2.241l-11.221-2.374a.8.8,0,0,1-.605-.561c-.2-.695-1.843-2.289-1.843-5.581C4118.953,3627.866,4111.333,3633.244,4111.333,3633.244Z" transform="translate(-4072.763 -3569.359)"/><path class="c" d="M4226.287,3469.209l.98,31.363,6.5-1.087-4.157-25.782-2.338-4.519Z" transform="translate(-4169.277 -3444.026)"/><path class="c" d="M4044.729,3473.093l-8.127.208-1.6.041.664,32.575,10.011-.524Z" transform="translate(-4020.857 -3447.06)"/><path class="g" d="M4025.379,3614.356a1.788,1.788,0,0,0,1.821,1.85l55.585-4.09-.365-8.116-57.173,3.365Z" transform="translate(-4013.29 -3548.631)"/><path class="e" d="M4042.352,3507.529a.029.029,0,0,1-.028-.028l-.448-31.6a.028.028,0,0,1,.028-.028h0a.028.028,0,0,1,.028.027l.448,31.6a.028.028,0,0,1-.028.029Z" transform="translate(-4026.191 -3449.218)"/><path class="f" d="M4035,3472.186v-1.419l37.424-.934,1.12,1.382Z" transform="translate(-4020.857 -3444.53)"/><path class="g" d="M4064,3705.154c1.121-2.689,1.345-1.793,3.137-2.241S4094.7,3700,4094.7,3700l1.793,16.583s-27.34,1.344-28.684,1.12-2.241-2.241-2.241-2.241Z" transform="translate(-4043.358 -3623.117)"/><path class="h" d="M4125.952,3732.8s-6.05,11.205-9.636,13.222-14.118-7.171-16.807-14.79c0,0-4.034.448-4.706-2.241s-3.586-2.241-1.793-4.034,5.6-1.569,7.4-1.121,4.034,0,4.482,1.793,6.61,6.835,6.61,6.835l4.706-8.964Z" transform="translate(-4065.421 -3641.351)"/><path class="h" d="M4239.465,3543.6l-2.465,1.12a20.807,20.807,0,0,1,4.258,10.084c.9,6.275,17.479-3.362,17.479-3.362l-5.154-6.723-4.258-6.723Z" transform="translate(-4177.589 -3497.421)"/><path class="h" d="M4199.393,3450.81c-.449,7.4-4.034,25.1,9.636,24.875s13.894-7.62,13.894-7.62L4218.665,3447Z" transform="translate(-4147.825 -3426.814)"/><path class="i" d="M4207.523,3443.625c-6.5.224-12.326-2.017-14.343-6.723s-3.81-5.155-4.481-13.222c0,0-9.86,1.793-10.757-3.585s2.241-7.843,2.241-7.843-.449.672.672,1.569c0,0,1.345-2.689,2.689-3.362,0,0-.448.448.448.9s2.241.224,6.723-2.465,10.084.672,10.084.672,7.171-.9,9.188,6.275.224,17.255-1.345,21.289S4207.523,3443.625,4207.523,3443.625Z" transform="translate(-4131.641 -3396.435)"/><path class="j" d="M4193.222,3621.939c-3.138-.448-10.085-.9-13.222-10.756a36.781,36.781,0,0,0,2.913-10.309c.9-6.275-1.578-13.049,13.777-16.609s17.373-7.145,23.423-5.577,14.118,9.86,15.239,19.5-.9,31.149-.9,31.149a62.745,62.745,0,0,1-21.737,5.378c-11.429.448-18.376-2.465-18.376-2.465Z" transform="translate(-4133.363 -3528.698)"/><path class="k" d="M4326.057,3684.683c-7.984-.887-4.481-8.068-4.034-20.393s-3.361-14.79,1.793-18.376,18.152-4.033,23.306-5.826,10.084.672,10.309,8.964,2.689,21.289-1.569,24.2S4336.142,3685.8,4326.057,3684.683Z" transform="translate(-4250.668 -3576.203)"/><path class="h" d="M4226,3495.781c1.12-4.253,3.81-3.615,4.93-.638s2,6.618-.682,6.393S4226,3495.781,4226,3495.781Z" transform="translate(-4169.054 -3462.311)"/><ellipse class="i" cx="0.448" cy="1.345" rx="0.448" ry="1.345" transform="translate(51.343 33.184)"/><ellipse class="d" cx="1.345" cy="1.345" rx="1.345" ry="1.345" transform="translate(41.707 59.403)"/><path class="f" d="M4044.666,3486.793a.729.729,0,0,1-.666-.76.742.742,0,0,1,.646-.808l6.095-.224a.726.726,0,0,1,.687.76.742.742,0,0,1-.645.809l-6.1.224Z" transform="translate(-4027.84 -3456.298)"/><path class="f" d="M4044.666,3496.793a.729.729,0,0,1-.666-.76.742.742,0,0,1,.646-.809l6.095-.224a.725.725,0,0,1,.687.759.742.742,0,0,1-.645.809l-6.1.224Z" transform="translate(-4027.84 -3464.058)"/><path class="f" d="M4044.666,3506.793a.729.729,0,0,1-.666-.76.742.742,0,0,1,.646-.809l6.095-.224a.725.725,0,0,1,.687.76.741.741,0,0,1-.645.808l-6.1.224Z" transform="translate(-4027.84 -3471.817)"/><path class="f" d="M4044.666,3516.793a.729.729,0,0,1-.666-.76.741.741,0,0,1,.646-.808l6.095-.224a.725.725,0,0,1,.687.759.742.742,0,0,1-.645.809l-6.1.224Z" transform="translate(-4027.84 -3479.576)"/><path class="f" d="M4045.516,3533.793a.728.728,0,0,1-.666-.76.742.742,0,0,1,.646-.809l6.1-.224a.725.725,0,0,1,.687.759.741.741,0,0,1-.645.809l-6.1.224Z" transform="translate(-4028.5 -3492.766)"/><path class="f" d="M4045.516,3543.793a.728.728,0,0,1-.666-.76.742.742,0,0,1,.646-.809l6.1-.224a.725.725,0,0,1,.687.76.741.741,0,0,1-.645.808l-6.1.224Z" transform="translate(-4028.5 -3500.525)"/><path class="f" d="M4045.516,3553.793a.728.728,0,0,1-.666-.76.742.742,0,0,1,.646-.809l6.1-.224a.725.725,0,0,1,.687.76.741.741,0,0,1-.645.808l-6.1.224Z" transform="translate(-4028.5 -3508.284)"/><path class="f" d="M4045.516,3563.794a.728.728,0,0,1-.666-.76.742.742,0,0,1,.646-.808l6.1-.224a.725.725,0,0,1,.687.759.741.741,0,0,1-.645.808l-6.1.224Z" transform="translate(-4028.5 -3516.044)"/><path class="l" d="M4097.258,3484.448h-4.034a.224.224,0,0,1,0-.448h4.034a.224.224,0,1,1,0,.448Z" transform="translate(-4065.859 -3455.522)"/><path class="l" d="M4170.258,3481.448h-4.034a.224.224,0,0,1,0-.448h4.034a.224.224,0,1,1,0,.448Z" transform="translate(-4122.5 -3453.195)"/><circle class="m" cx="0.56" cy="0.56" r="0.56" transform="translate(16.384 29.15)"/><circle class="n" cx="0.56" cy="0.56" r="0.56" transform="translate(16.384 31.391)"/><circle class="o" cx="0.56" cy="0.56" r="0.56" transform="translate(16.384 33.632)"/><circle class="p" cx="0.56" cy="0.56" r="0.56" transform="translate(16.384 35.873)"/><path class="l" d="M4048.224,3534.673a.224.224,0,0,1-.01-.448l5.154-.224a.224.224,0,1,1,.019.448l-5.154.224Z" transform="translate(-4030.944 -3494.318)"/><path class="q" d="M4048.612,3544.948a.112.112,0,0,1,0-.224l5.154-.224a.117.117,0,0,1,.116.107.112.112,0,0,1-.107.117l-5.154.224Z" transform="translate(-4031.332 -3502.464)"/><path class="q" d="M4044.6,3529.307a.112.112,0,0,1,0-.224l2.131-.083h0a.112.112,0,0,1,0,.224l-2.132.083Z" transform="translate(-4028.218 -3490.438)"/><path class="q" d="M4045.6,3482.307a.112.112,0,0,1,0-.224l2.131-.083h0a.112.112,0,0,1,0,.224l-2.132.083Z" transform="translate(-4028.994 -3453.97)"/><path class="r" d="M4048.709,3555.017a.084.084,0,0,1,0-.168l5.154-.224h0a.084.084,0,0,1,0,.168l-5.154.224Z" transform="translate(-4031.428 -3510.32)"/><path class="s" d="M4048.9,3565.155a.028.028,0,0,1-.028-.026.028.028,0,0,1,.026-.03l5.154-.224h0a.028.028,0,0,1,0,.056l-5.154.224Z" transform="translate(-4031.623 -3518.273)"/><path class="e" d="M4113,3487.448l.224,24.2h1.569L4114.12,3487Z" transform="translate(-4081.377 -3457.85)"/><path class="e" d="M4148,3484.448l.224,24.2h1.569L4149.12,3484Z" transform="translate(-4108.534 -3455.522)"/><path class="e" d="M4185,3485.448l.224,24.2h1.569L4186.12,3485Z" transform="translate(-4137.242 -3456.298)"/></g></svg>