<svg xmlns="http://www.w3.org/2000/svg" xmlns:xlink="http://www.w3.org/1999/xlink" width="221" height="221" viewBox="0 0 221 221"><defs><style>.a{fill:none;}.b{clip-path:url(#a);}.c{fill:#f4f4f4;}.d{fill:#ffc4a2;}.e{fill:#1c3b50;}.f{fill:#895334;}.g{fill:#35190a;}.h{fill:#c4c4c4;}.i,.n{fill:#fff;}.j{clip-path:url(#b);}.k{fill:#f7f7f7;}.l,.p{fill:#7cda89;}.m{fill:#f0f0f0;}.n,.o,.p,.q{font-size:1px;}.n{font-family:Montserrat-Bold, Montserrat;font-weight:700;}.o,.r{fill:#cdcdcd;}.o,.q{font-family:Montserrat-Medium, Montserrat;font-weight:500;}.p{font-family:Montserrat-SemiBold, Montserrat;font-weight:600;}.q{fill:#bdbdbd;}.s{fill:#00ef76;}.t{fill:#97ffcb;}</style><clipPath id="a"><rect class="a" width="221" height="221"/></clipPath><clipPath id="b"><rect class="a" width="26.719" height="56.502" rx="5.971"/></clipPath></defs><g class="b"><circle class="c" cx="110.5" cy="110.5" r="110.5"/><path class="d" d="M3725.387,3519.42c-4.212-4.488-8.95-7.855-8.424-14.027s3.159-8.416,3.159-8.416l33.169-8.977s2.633,1.122,1.579,16.271-5.265,16.832-5.265,16.832Z" transform="translate(-3536.592 -3394.385)"/><path class="d" d="M3679.35,3564.6c1.683,1.683,8.416,14.027,8.416,14.027s3.366-8.416,8.416-19.637,11.782-27.493,11.782-27.493h12.9l2.805,10.66s-3.927,8.416-11.782,32.542-10.1,31.42-17.393,39.275c0,0-17.954-1.122-33.1-26.931S3679.35,3564.6,3679.35,3564.6Z" transform="translate(-3510.477 -3413.479)"/><path class="e" d="M3465.5,3580.022s3.647-12.063,8.7-26.09,17.393-20.2,31.981-23,12.344-5.611,24.126-6.172,14.588-.561,17.954,1.683,5.611,3.366,12.9,4.489,16.271,0,23.565,10.1,19.357,23.284,19.357,23.284-8.977,18.515-25.248,21.321c0,0,.842,30.018-2.525,37.873,0,0-67.329,7.294-89.21,1.122l-.842-36.189A62.727,62.727,0,0,1,3465.5,3580.022Z" transform="translate(-3426.235 -3410.382)"/><path class="f" d="M3555.418,3451.465c-2.805.561-19.918-1.4-19.918-40.117,0-34.827,31.14-30.578,41.8-27.773s13.466,4.489,14.027,18.515,2.805,46.569-22.443,49.374Z" transform="translate(-3456.96 -3347.751)"/><path class="d" d="M3565.122,3486.307c1.122,11.782-1.122,18.515-1.122,18.515s3.927,6.172,14.588,7.294,16.271-3.366,16.271-5.61-2.805-6.733-1.122-27.493S3565.122,3486.307,3565.122,3486.307Z" transform="translate(-3469.469 -3387.082)"/><path class="f" d="M3589,3372.13c12.344-3.366,21.882-4.489,24.687,5.611,0,0,14.027,10.661,1.683,19.638S3589,3372.13,3589,3372.13Z" transform="translate(-3480.443 -3342.478)"/><path class="f" d="M3543.18,3393.313c-8.416-12.344-7.294-19.637,3.927-26.37,0,0,5.611-12.344,24.687-4.489s-7.294,23-7.294,23Z" transform="translate(-3457.907 -3338.132)"/><path class="d" d="M3577.054,3464.5c-20.215.763-28.054-6.733-28.054-30.859,0-21.679,5.33-31.14,5.33-31.14l39.836,1.122S3606.791,3463.376,3577.054,3464.5Z" transform="translate(-3462.885 -3356.857)"/><path class="f" d="M3540.5,3395.916v6.172s5.05,5.05,30.3,3.366,23-9.538,23-9.538l-23.565-8.416Z" transform="translate(-3459.155 -3350.273)"/><ellipse class="g" cx="1.403" cy="2.525" rx="1.403" ry="2.525" transform="translate(104.349 69.769)"/><ellipse class="g" cx="1.403" cy="2.525" rx="1.403" ry="2.525" transform="translate(124.267 68.928)"/><path class="d" d="M3503.293,3600.721l.561,3.366a347.261,347.261,0,0,1,31.42-15.149c16.271-6.733,23-11.782,23-11.782s2.805-10.66,6.172-13.466,7.855-2.244,10.66-6.172,3.366,1.683,3.366,1.683,7.855-2.805,14.588-5.611,10.1,0,5.611,2.805-11.783,7.855-11.783,7.855a17.18,17.18,0,0,1,.562,13.466c-2.806,7.294-17.955,12.344-22.443,12.9,0,0-27.492,28.615-44.324,35.909s-29.176,8.977-36.47,8.416-13.145-40.75-13.145-40.75S3488.705,3603.526,3503.293,3600.721Z" transform="translate(-3428.681 -3422.665)"/><path class="f" d="M3562.515,3413.683c-5.611,5.05-10.1,20.2-10.1,20.2l-5.611-3.927L3544,3422.1l5.611-10.1Z" transform="translate(-3460.691 -3361.027)"/><path class="d" d="M3548.29,3442.255c0-6.94-5.05-11.783-8.977-7.855s.561,20.76,4.489,18.515S3548.29,3451.232,3548.29,3442.255Z" transform="translate(-3457.967 -3370.242)"/><rect class="h" width="30.298" height="61.718" rx="8.375" transform="translate(184.863 77.344)"/><rect class="i" width="27.217" height="55.441" rx="3.828" transform="translate(186.404 80.482)"/><g transform="translate(186.546 80.71)"><g class="j"><g transform="translate(-1.613 -0.79)"><rect class="i" width="29.786" height="58.167"/><g transform="translate(1.552 7.407)"><rect class="i" width="26.779" height="49.923"/><rect class="k" width="23.776" height="9.923" rx="0.878" transform="translate(1.493 20.656)"/><rect class="l" width="11.11" height="3.59" rx="0.878" transform="translate(8.565 35.173)"/><rect class="m" width="19.776" height="0.561" transform="translate(3.499 25.248)"/><g transform="translate(12.414 36.264)"><text class="n" transform="translate(0 1)"><tspan x="0" y="0">Login</tspan></text></g><g transform="translate(6.269 40.614)"><text class="o" transform="translate(0 1)"><tspan x="0" y="0">Don&apos;t have an account?</tspan></text></g><g transform="translate(17.314 40.614)"><text class="p" transform="translate(0 1)"><tspan x="0" y="0">Sign in</tspan></text></g><g transform="translate(6.517 22.96)"><text class="q" transform="translate(0 1)"><tspan x="0" y="0">Username</tspan></text></g><g transform="translate(6.715 27.386)"><text class="q" transform="translate(0 1)"><tspan x="0" y="0">Password</tspan></text></g><path class="r" d="M3735.433,3517.74c-.1,0-.154.058-.324.058s-.219-.058-.324-.058a.485.485,0,0,0-.485.485v.092a.173.173,0,0,0,.173.173h1.272a.173.173,0,0,0,.173-.173v-.092a.485.485,0,0,0-.486-.485Zm.312.578h-1.271v-.092a.312.312,0,0,1,.312-.312.938.938,0,0,0,.647,0,.312.312,0,0,1,.312.312Zm-.636-.635a.52.52,0,1,0-.52-.52.52.52,0,0,0,.52.52Zm0-.867a.347.347,0,1,1-.347.347h0a.347.347,0,0,1,.347-.347Z" transform="translate(-3730.705 -3494.284)"/><path class="r" d="M3735.679,3526.264h-1.271a.257.257,0,0,1-.257-.257v-.694a.257.257,0,0,1,.257-.257h0v-.176a.633.633,0,0,1,1.266,0v.177h0a.258.258,0,0,1,.258.257v.694A.258.258,0,0,1,3735.679,3526.264Zm-1.271-1.04a.09.09,0,0,0-.09.09v.694a.09.09,0,0,0,.09.09h1.271a.09.09,0,0,0,.09-.09v-.694a.09.09,0,0,0-.09-.09h-.171v-.344a.465.465,0,0,0-.93-.015v.359Zm.98,0h-.688v-.344a.344.344,0,0,1,.688,0Zm-.52-.167h.352v-.176a.176.176,0,1,0-.352,0Z" transform="translate(-3730.639 -3497.622)"/><path class="r" d="M3767.916,3525.781a1.088,1.088,0,0,0-1.869,0,.16.16,0,0,0,0,.162,1.088,1.088,0,0,0,1.869,0A.162.162,0,0,0,3767.916,3525.781Zm-.935.532a.514.514,0,1,1-.079-.9.186.186,0,1,1-.319.129h0a.452.452,0,1,0,.757-.061.914.914,0,0,1,.438.38.925.925,0,0,1-.8.451Z" transform="translate(-3744.63 -3498.062)"/><g transform="translate(2192.562 -10673.102)"><g transform="translate(-2189 10673.075)"><circle class="i" cx="8.728" cy="8.728" r="8.728" transform="translate(0.068 0.068)"/><path class="s" d="M-2180.2,10708.594a8.741,8.741,0,0,1-6.22-2.577,8.738,8.738,0,0,1-2.576-6.22,8.742,8.742,0,0,1,2.576-6.221,8.74,8.74,0,0,1,6.22-2.576,8.741,8.741,0,0,1,6.22,2.576,8.742,8.742,0,0,1,2.576,6.221,8.738,8.738,0,0,1-2.576,6.22A8.742,8.742,0,0,1-2180.2,10708.594Zm0-17.457a8.67,8.67,0,0,0-8.66,8.66,8.67,8.67,0,0,0,8.66,8.66,8.67,8.67,0,0,0,8.66-8.66A8.67,8.67,0,0,0-2180.2,10691.137Z" transform="translate(2189 -10691)"/></g><g transform="translate(-2187.575 10674.5)"><circle class="i" cx="7.304" cy="7.304" r="7.304" transform="translate(0.068 0.068)"/><path class="s" d="M-2139.842,10747.529a7.322,7.322,0,0,1-5.213-2.159,7.323,7.323,0,0,1-2.159-5.213,7.323,7.323,0,0,1,2.159-5.212,7.322,7.322,0,0,1,5.213-2.159,7.323,7.323,0,0,1,5.213,2.159,7.323,7.323,0,0,1,2.159,5.212,7.323,7.323,0,0,1-2.159,5.213A7.323,7.323,0,0,1-2139.842,10747.529Zm0-14.607a7.244,7.244,0,0,0-7.236,7.235,7.243,7.243,0,0,0,7.236,7.235,7.243,7.243,0,0,0,7.235-7.235A7.244,7.244,0,0,0-2139.842,10732.922Z" transform="translate(2147.214 -10732.786)"/></g><g transform="translate(-2185.156 10672.442)"><path class="t" d="M-2072.767,10686.365a2.691,2.691,0,0,1-1.112-2.79c.105-1.393-.5-2.552-.361-3.348s.671-1.546,1.261-1.5a.869.869,0,0,1,.33-1.046,6.889,6.889,0,0,1,4.182-.432s.261-.045.136-.25c0,0,.841.387,1.057.836a1.379,1.379,0,0,1,1.136,1.3,1.322,1.322,0,0,1,1.011.807c.3.728.052,2.908.185,3.875s0,2.456-1.2,2.547Z" transform="translate(2074.328 -10676.845)"/><path class="s" d="M-2068.068,10682.03h-6.655l-.018-.013a2.747,2.747,0,0,1-1.14-2.851,6.828,6.828,0,0,0-.215-1.993,3.836,3.836,0,0,1-.145-1.36c.128-.746.627-1.521,1.233-1.558a.958.958,0,0,1,.383-1.029,6.948,6.948,0,0,1,4.227-.449c.032-.009.083-.029.1-.061a.1.1,0,0,0-.02-.084l-.117-.19.2.093a2.767,2.767,0,0,1,1.074.837,1.452,1.452,0,0,1,1.153,1.3,1.379,1.379,0,0,1,1.012.841,7.717,7.717,0,0,1,.153,2.287,12.472,12.472,0,0,0,.036,1.6,3.145,3.145,0,0,1-.389,2.177,1.19,1.19,0,0,1-.87.447Zm-6.611-.137h6.605a1.056,1.056,0,0,0,.771-.4,2.927,2.927,0,0,0,.36-2.071,12.555,12.555,0,0,1-.038-1.625,7.726,7.726,0,0,0-.143-2.234,1.259,1.259,0,0,0-.956-.765l-.055-.006-.005-.056a1.3,1.3,0,0,0-1.077-1.24l-.037,0-.016-.033a2.239,2.239,0,0,0-.9-.739.183.183,0,0,1-.014.05.3.3,0,0,1-.211.142l-.015,0-.015,0a6.89,6.89,0,0,0-4.121.419.8.8,0,0,0-.311.963l.051.107-.118-.01c-.573-.044-1.064.715-1.189,1.444a3.758,3.758,0,0,0,.143,1.309,6.931,6.931,0,0,1,.218,2.032A2.628,2.628,0,0,0-2074.678,10681.894Z" transform="translate(2076.262 -10672.442)"/></g><g transform="translate(-2172.968 10676.384)"><path class="i" d="M-1715.414,10794.077c-.314-.5-1.381-.844-1.372-1.406s.511-.512.852-.375.409-.239.367-.751-.051-1.363.707-1.5,1.534.827,1.432,2.105-.491,1.406-.535,1.961S-1715.414,10794.077-1715.414,10794.077Z" transform="translate(1716.855 -10789.964)"/><path class="s" d="M-1716.27,10792.485a3.525,3.525,0,0,1-1.1-.277l-.02-.008-.011-.019a2.328,2.328,0,0,0-.627-.547c-.374-.261-.761-.53-.755-.9a.513.513,0,0,1,.2-.451.872.872,0,0,1,.742.014c.114.046.16.012.174,0,.055-.04.141-.183.1-.683-.029-.35-.118-1.414.763-1.572a1.029,1.029,0,0,1,.878.291,2.323,2.323,0,0,1,.634,1.887,3.577,3.577,0,0,1-.365,1.427,1.441,1.441,0,0,0-.17.533.29.29,0,0,1-.14.234A.591.591,0,0,1-1716.27,10792.485Zm-1.031-.395c.286.116,1.016.361,1.262.212a.154.154,0,0,0,.075-.129,1.556,1.556,0,0,1,.182-.58,3.46,3.46,0,0,0,.353-1.38,2.187,2.187,0,0,0-.59-1.775.9.9,0,0,0-.762-.258c-.681.122-.7.873-.652,1.428.036.437-.014.7-.154.8a.3.3,0,0,1-.306.016.708.708,0,0,0-.616-.027.388.388,0,0,0-.142.34c0,.294.352.542.7.782A2.517,2.517,0,0,1-1717.3,10792.091Z" transform="translate(1718.787 -10788.032)"/></g><g transform="translate(-2173.083 10679.901)"><path class="t" d="M-1719.441,10893.2c-.388.121-.383.212-.412.854-.031.7-.474,1.081-.185,1.533a4.543,4.543,0,0,0,2.583,1.185c.614-.068.682-.375.682-.869a2.563,2.563,0,0,1,.256-1.262c.222-.486.17-1-.605-1.168A10.489,10.489,0,0,0-1719.441,10893.2Z" transform="translate(1720.204 -10893.114)"/><path class="s" d="M-1719.482,10894.928a4.673,4.673,0,0,1-2.558-1.221.9.9,0,0,1,.011-.869,2.369,2.369,0,0,0,.162-.7l0-.042c.027-.614.033-.741.458-.874h0a10.471,10.471,0,0,1,2.353.271.954.954,0,0,1,.7.454.931.931,0,0,1-.049.809,2.482,2.482,0,0,0-.25,1.233c0,.484-.055.86-.743.937A.658.658,0,0,1-1719.482,10894.928Zm-1.883-3.578c-.333.1-.336.152-.362.749l0,.042a2.5,2.5,0,0,1-.17.743c-.1.3-.179.511-.025.75a4.542,4.542,0,0,0,2.518,1.154c.535-.06.621-.285.621-.8a2.63,2.63,0,0,1,.262-1.29.827.827,0,0,0,.051-.691.828.828,0,0,0-.609-.382,10.718,10.718,0,0,0-2.283-.273Z" transform="translate(1722.148 -10891.202)"/></g><g transform="translate(-2176.661 10682.163)"><path class="t" d="M-1822.958,10963.33c1.592-.051,3.544-1.875,4-3.674a2.346,2.346,0,0,1,1.509.086c.69.332.793.682.793.682a8.031,8.031,0,0,1-1.441,2.685,14.767,14.767,0,0,1-2.983,2.481Z" transform="translate(1823.099 -10959.499)"/><path class="s" d="M-1825.1,10963.718l-2-2.412.139,0a3.94,3.94,0,0,0,2.381-1.163,5.262,5.262,0,0,0,1.55-2.459l.01-.037.037-.012a2.4,2.4,0,0,1,1.558.089c.71.342.824.709.829.725l.005.019-.005.019a8.182,8.182,0,0,1-1.454,2.711,14.952,14.952,0,0,1-3,2.494Zm-1.721-2.289,1.749,2.109a14.5,14.5,0,0,0,2.917-2.434,8.071,8.071,0,0,0,1.421-2.639,1.464,1.464,0,0,0-.75-.624,2.252,2.252,0,0,0-1.423-.091,5.42,5.42,0,0,1-1.58,2.486A4.213,4.213,0,0,1-1826.826,10961.429Z" transform="translate(1827.105 -10957.538)"/></g><g transform="translate(-2186.826 10674.421)"><path class="i" d="M-2116.194,10748.771a8.7,8.7,0,0,0,6.531-2.938,4.29,4.29,0,0,0-.893-.981c-1.023-.818-.955-.636-.864-1.886s-.318-1.273-.5-1.3l-.735-6.237a3.056,3.056,0,0,0-2.739-2.685l-.789-.076v0l-.022,0h-.01v0l-.789.076a3.056,3.056,0,0,0-2.739,2.685l-.735,6.237c-.182.022-.591.045-.5,1.295s.159,1.068-.864,1.887a4.271,4.271,0,0,0-.889.976A8.706,8.706,0,0,0-2116.194,10748.771Z" transform="translate(2122.817 -10732.593)"/><path class="s" d="M-2118.619,10746.709a8.8,8.8,0,0,1-6.588-2.969l-.035-.039.029-.044a4.334,4.334,0,0,1,.9-.991l.247-.2c.343-.271.516-.406.588-.571a1.872,1.872,0,0,0,.022-.817c-.006-.075-.012-.156-.019-.244-.079-1.086.2-1.31.507-1.36l.729-6.186a3.131,3.131,0,0,1,.916-1.865,3.129,3.129,0,0,1,1.884-.878l.728-.071v-.013l.079,0,.091-.009v.018l.728.071a3.128,3.128,0,0,1,1.884.878,3.133,3.133,0,0,1,.916,1.865l.729,6.186c.3.051.585.274.506,1.36-.006.089-.013.17-.019.244a1.872,1.872,0,0,0,.022.817c.073.166.245.3.588.571l.247.2a4.317,4.317,0,0,1,.907,1l.029.044-.035.038A8.807,8.807,0,0,1-2118.619,10746.709Zm-6.451-3.02a8.668,8.668,0,0,0,6.451,2.883,8.671,8.671,0,0,0,6.445-2.876,4.2,4.2,0,0,0-.849-.922l-.246-.2c-.72-.567-.732-.6-.662-1.507.006-.074.012-.155.019-.243.084-1.159-.262-1.2-.428-1.222l-.065-.008-.741-6.29a3,3,0,0,0-2.678-2.624l-.806-.078h0l-.789.077a3,3,0,0,0-2.678,2.624l-.741,6.29-.065.008c-.167.021-.513.063-.429,1.222.006.088.013.169.019.243.071.911.059.939-.662,1.507l-.246.2A4.189,4.189,0,0,0-2125.07,10743.689Z" transform="translate(2125.242 -10730.461)"/></g><g transform="translate(-2186.826 10683.419)"><path class="t" d="M-2116.194,11003.77a8.7,8.7,0,0,0,6.55-2.96,4.275,4.275,0,0,0-.879-.96c-1.023-.818-.955-.637-.864-1.887s-.318-1.273-.5-1.3c0,0,.068,2.25-4.3,2.25s-4.3-2.25-4.3-2.25c-.182.022-.591.046-.5,1.3s.159,1.068-.864,1.887a4.267,4.267,0,0,0-.889.975A8.706,8.706,0,0,0-2116.194,11003.77Z" transform="translate(2122.817 -10996.589)"/><path class="s" d="M-2118.619,11001.641a8.807,8.807,0,0,1-6.588-2.968l-.035-.04.029-.043a4.334,4.334,0,0,1,.9-.991l.247-.2c.343-.271.516-.406.588-.571a1.874,1.874,0,0,0,.022-.817c-.006-.075-.012-.156-.019-.244-.083-1.136.231-1.328.548-1.367l.091-.011,0,.079a1.684,1.684,0,0,0,.521,1.105c.478.49,1.509,1.074,3.707,1.074s3.229-.584,3.707-1.074a1.683,1.683,0,0,0,.521-1.105l0-.079.09.011c.317.039.631.231.548,1.367-.006.088-.013.169-.019.244a1.869,1.869,0,0,0,.022.817c.073.165.245.3.588.571l.247.2a4.327,4.327,0,0,1,.893.977l.029.043-.034.039A8.8,8.8,0,0,1-2118.619,11001.641Zm-6.451-3.02a8.669,8.669,0,0,0,6.451,2.884,8.665,8.665,0,0,0,6.464-2.9,4.206,4.206,0,0,0-.835-.9l-.246-.2c-.72-.566-.733-.595-.662-1.506.006-.075.012-.156.019-.244.075-1.029-.19-1.178-.367-1.212a1.862,1.862,0,0,1-.553,1.12c-.721.743-2,1.12-3.808,1.12s-3.088-.377-3.808-1.12a1.862,1.862,0,0,1-.553-1.12c-.177.034-.442.183-.367,1.212.006.088.013.169.019.244.071.911.059.939-.662,1.506l-.246.2A4.211,4.211,0,0,0-2125.07,10998.621Z" transform="translate(2125.242 -10994.393)"/></g><g transform="translate(-2185.534 10677.951)"><ellipse class="i" cx="0.888" cy="1.163" rx="0.888" ry="1.163" transform="translate(0.068 0.068)"/><path class="s" d="M-2086.377,10836.463a1.122,1.122,0,0,1-.956-1.231,1.122,1.122,0,0,1,.956-1.231,1.122,1.122,0,0,1,.956,1.231A1.122,1.122,0,0,1-2086.377,10836.463Zm0-2.326c-.452,0-.82.491-.82,1.095s.368,1.095.82,1.095.82-.491.82-1.095S-2085.925,10834.137-2086.377,10834.137Z" transform="translate(2087.333 -10834)"/></g><g transform="translate(-2177.033 10677.951)"><ellipse class="i" cx="0.888" cy="1.163" rx="0.888" ry="1.163" transform="translate(0.068 0.068)"/><path class="s" d="M-1837.044,10836.463a1.122,1.122,0,0,1-.956-1.231,1.122,1.122,0,0,1,.956-1.231,1.122,1.122,0,0,1,.956,1.231A1.122,1.122,0,0,1-1837.044,10836.463Zm0-2.326c-.452,0-.82.491-.82,1.095s.368,1.095.82,1.095.82-.491.82-1.095S-1836.592,10834.137-1837.044,10834.137Z" transform="translate(1838 -10834)"/></g><path class="s" d="M-1952.161,10913.891s-.523.022-.511-.387.671-.432.659-.295-.148.091-.33.125S-1952.638,10913.743-1952.161,10913.891Z" transform="translate(-228.27 -232.485)"/><path class="s" d="M-1949.567,10947.478a2.328,2.328,0,0,1-.319-.021.137.137,0,0,1-.113-.156.137.137,0,0,1,.156-.113,1.864,1.864,0,0,0,1.838-.786.137.137,0,0,1,.186-.05.136.136,0,0,1,.05.186A2,2,0,0,1-1949.567,10947.478Z" transform="translate(-230.851 -264.552)"/><path class="s" d="M-1930.427,10825.515l-.032-.065-.072-.009a10.476,10.476,0,0,0-2.836.068.63.63,0,0,0-.445.261,1.1,1.1,0,0,0-.051.838c.01.04.019.086.03.136.1.48.313,1.479,1.316,1.5h.068c.993,0,1.672-.509,1.7-1.28.023-.7.1-.754.238-.848A.473.473,0,0,0-1930.427,10825.515Zm-2.021,2.46h-.064c-.787-.019-.955-.812-1.055-1.287-.011-.052-.021-.1-.031-.143a.834.834,0,0,1,.012-.623.366.366,0,0,1,.263-.143h0a10.9,10.9,0,0,1,1.684-.132c.1,0,.2,0,.307,0,.526.086.315.914.315.914l.01.033c-.01.1-.017.221-.021.359C-1931.047,10827.579-1931.6,10827.975-1932.448,10827.975Z" transform="translate(-246.381 -147.716)"/><path class="s" d="M-2048.372,10826.119c.134.094.215.151.238.848.025.771.7,1.28,1.7,1.28h.068c1-.023,1.214-1.022,1.316-1.5.01-.05.02-.1.03-.136a1.1,1.1,0,0,0-.051-.838.63.63,0,0,0-.445-.261,10.476,10.476,0,0,0-2.836-.068l-.072.009-.032.065A.473.473,0,0,0-2048.372,10826.119Zm.51.838c0-.139-.011-.257-.021-.359l.01-.033s-.21-.828.315-.914c.1,0,.207,0,.307,0a10.9,10.9,0,0,1,1.684.132h0a.366.366,0,0,1,.263.143.834.834,0,0,1,.012.623c-.01.042-.02.091-.031.143-.1.475-.269,1.269-1.055,1.287h-.064C-2047.285,10827.975-2047.841,10827.579-2047.861,10826.957Z" transform="translate(-135.681 -147.716)"/><path class="s" d="M-1951.815,11027.655c.061.114.153.464.776.426a2.011,2.011,0,0,0,1.1-.473,1.307,1.307,0,0,1-1.108.631c-.776.008-.891-.461-.912-.524S-1951.883,11027.525-1951.815,11027.655Z" transform="translate(-228.956 -343.047)"/><path class="s" d="M-1914.02,10984.637c-.1.024-.183.085-.153.161s.4-.076.494-.3A1.457,1.457,0,0,1-1914.02,10984.637Z" transform="translate(-265.45 -301.418)"/><path class="s" d="M-2020.728,10810.953a.1.1,0,0,1-.059-.02.934.934,0,0,0-1.051,0,.1.1,0,0,1-.143-.023.1.1,0,0,1,.023-.143,1.148,1.148,0,0,1,1.29,0,.1.1,0,0,1,.024.143A.1.1,0,0,1-2020.728,10810.953Z" transform="translate(-161.306 -133.412)"/><path class="s" d="M-1908,10798.277a.106.106,0,0,1-.039-.049.933.933,0,0,0-.88-.575.1.1,0,0,1-.107-.1.1.1,0,0,1,.1-.106,1.145,1.145,0,0,1,1.08.705.1.1,0,0,1-.058.132A.1.1,0,0,1-1908,10798.277Z" transform="translate(-270.428 -120.745)"/><ellipse class="s" cx="0.222" cy="0.426" rx="0.222" ry="0.426" transform="translate(-2182.556 10679.008)"/><ellipse class="s" cx="0.222" cy="0.426" rx="0.222" ry="0.426" transform="translate(-2178.959 10678.951)"/><g transform="translate(-2176.52 10678.274)"><path class="i" d="M-1819.095,10847c-.432.364-.554.978-.055.983s-.058.574-.058.574" transform="translate(1819.594 -10846.881)"/><path class="s" d="M-1822.573,10845.3a.12.12,0,0,1-.083-.034.119.119,0,0,1,0-.169.83.83,0,0,0,.232-.356.221.221,0,0,0-.09-.015.4.4,0,0,1-.416-.26.965.965,0,0,1,.4-.934.119.119,0,0,1,.168.015.119.119,0,0,1-.014.168.761.761,0,0,0-.325.67c.009.025.036.1.194.1.2,0,.278.088.307.158.087.21-.168.5-.282.618A.117.117,0,0,1-1822.573,10845.3Z" transform="translate(1822.958 -10843.5)"/></g><g transform="translate(-2184.826 10678.274)"><path class="i" d="M-2062.938,10847c.432.364.554.978.055.983s.058.574.058.574" transform="translate(2063.209 -10846.881)"/><path class="s" d="M-2066.2,10845.3a.12.12,0,0,0,.083-.034.119.119,0,0,0,0-.169.83.83,0,0,1-.232-.356.22.22,0,0,1,.09-.015.4.4,0,0,0,.416-.26.965.965,0,0,0-.4-.934.12.12,0,0,0-.168.015.119.119,0,0,0,.014.168.76.76,0,0,1,.325.67c-.009.025-.036.1-.194.1-.2,0-.278.088-.308.158-.087.21.168.5.282.618A.117.117,0,0,0-2066.2,10845.3Z" transform="translate(2066.582 -10843.5)"/></g><g transform="translate(-2184.431 10686.668)"><path class="t" d="M-2053,11091.667a7.061,7.061,0,0,0,7.819,1.113" transform="translate(2053.068 -11091.599)"/><path class="s" d="M-2050.244,11091.625h-.046a6.936,6.936,0,0,1-2.495-.485,6.956,6.956,0,0,1-2.194-1.356.069.069,0,0,1,0-.1.068.068,0,0,1,.1,0,6.811,6.811,0,0,0,2.153,1.327,7.041,7.041,0,0,0,5.59-.228.068.068,0,0,1,.09.033.069.069,0,0,1-.034.091A7.674,7.674,0,0,1-2050.244,11091.625Z" transform="translate(2054.999 -11089.667)"/></g></g></g></g></g></g><path class="d" d="M3721.683,3517.452l1.122-2.057a30.385,30.385,0,0,0,2.245-9.164c.561-5.611-2.245-4.773-2.245-4.773l-2.805,4.773Z" transform="translate(-3537.942 -3400.273)"/><path class="d" d="M3778.342,3491.414l.6-4.922s-2.841-5.178-4.524-2.933,0,8.416,0,8.977a33,33,0,0,0,0,7.855c.561,3.927-1.123,7.294.561,9.538s2.244,3.18,2.244,3.18l1.683-8.791Z" transform="translate(-3561.498 -3392.188)"/></g></svg>