
<svg xmlns="http://www.w3.org/2000/svg" xmlns:xlink="http://www.w3.org/1999/xlink" width="107.967" height="108.002" viewBox="0 0 107.967 108.002"><defs><style>.a{fill:none;}.b{clip-path:url(#a);}.c{fill:#f4f4f4;}.d{fill:#ffc4a2;}.e{fill:#e2b667;}.f{fill:#009a73;}.g{fill:#484848;}.h{fill:#fff;}.i{fill:#b5812d;}</style><clipPath id="a"><rect class="a" width="107.967" height="108.002"/></clipPath></defs><g class="b" transform="translate(0)"><ellipse class="c" cx="53.983" cy="53.983" rx="53.983" ry="53.983"/><path class="d" d="M3755.718,3051s6.571,1.1,10.13,6.571,15.605,22.724,12.594,29.294c-1.275,2.783-10.678,1.643-20.534-5.2l8.351-3.148s-8.625-11.362-11.727-9.854C3750.43,3070.654,3755.718,3051,3755.718,3051Z" transform="translate(-3680.899 -2981.738)"/><path class="e" d="M3651.062,2904.368c-5.736-10.835-5.2-18.891-2.738-28.747s9.035-12.046,9.035-12.046,3.012-4.654,12.594-3.833,12.594,8.487,13.416,10.677-1.228,17.326-4.38,25.735c-4.107,10.951-19.986,14.51-19.986,14.51S3653.526,2909.022,3651.062,2904.368Z" transform="translate(-3603.621 -2842.772)"/><path class="f" d="M3623.606,3028.128a58.817,58.817,0,0,0,8.742-1.138c2.757-.778,4.126-.5,8.506-.23s6.571,0,10.13,2.464,5.749,3.286,7.118,3.286,2.738.821,2.738,4.107-5.339,15.468-.821,25.187l-2.464,6.3-38.055-2.19Z" transform="translate(-3583.969 -2963.931)"/><path class="d" d="M3672.01,3007.783c-3.022.1-3.559-5.476-3.012-9.582s1.917-2.464,2.464-6.023,1.1-10.677,1.1-10.677l12.594,3.559s-1.643,9.583-.547,11.225S3680.224,3007.51,3672.01,3007.783Z" transform="translate(-3619.779 -2931.266)"/><path class="d" d="M3593.6,3033.541l-2.19-.547s-4.106-.274-7.392,4.928-4.928,17.248-7.392,24.367-1.917,10.4,0,10.951,16.152,2.737,31.21.821a87.41,87.41,0,0,1,10.267.411c4.928.547,9.035-1.1,10.4-2.464s.548-3.286-3.011-3.833-5.749,1.095-8.487.547c0,0,2.19-.821,3.559-1.369s-.274-1.643-4.107-1.643-5.2,0-8.213,1.917c0,0-13.141-2.738-21.081-2.464Z" transform="translate(-3551.635 -2968.66)"/><path class="f" d="M3614.475,3036.881l-6.571-4.38a25.745,25.745,0,0,1-3.833,7.939c-2.464,3.012-6.571,7.392-6.571,13.963s6.023,10.4,6.023,10.4l3.011-1.643Z" transform="translate(-3567.992 -2968.303)"/><path class="g" d="M3738.2,3093.968a.821.821,0,0,1-.313-1.485l13.574-9.3a.821.821,0,1,1,.928,1.355l-13.573,9.3A.82.82,0,0,1,3738.2,3093.968Z" transform="translate(-3669.682 -3005.004)"/><path class="e" d="M3632.378,3002.683a14.049,14.049,0,0,0-6.57,7.118,35.721,35.721,0,0,0-2.464,10.677s-3.012,9.582.547,14.784,7.118,3.833,7.118,3.833-3.7-6.981,1.1-20.259C3633.02,3016.3,3638.4,2999.946,3632.378,3002.683Z" transform="translate(-3585.896 -2946.426)"/><path class="d" d="M3712.084,3110.966c2.487-2.878,2.487-2.878,4.791-3.283s7.012,2.079,9.958,5.692,14.815,5.412,14.815,5.412l5.074,5.052-18.878-1.174Z" transform="translate(-3651.206 -3022.871)"/><path class="h" d="M3641.56,3077.795a.41.41,0,0,1-.384-.267c-3.323-8.861,9.887-28.039,10.451-28.851a.411.411,0,1,1,.675.468c-.136.2-13.529,19.635-10.356,28.095a.41.41,0,0,1-.24.529A.4.4,0,0,1,3641.56,3077.795Z" transform="translate(-3599.322 -2979.923)"/><path class="g" d="M3621.174,3117.618l-6.99-19.284a1.751,1.751,0,0,1,1.822-2.339l33.7,3.395a2.623,2.623,0,0,1,2.172,1.636l7.5,18.761a1.913,1.913,0,0,1-2.026,2.606Z" transform="translate(-3580.031 -3014.407)"/><path class="d" d="M3652.034,3153.466c-3.559-.548-5.75,1.095-8.487.547,0,0,2.19-.821,3.559-1.369S3646.832,3151,3643,3151s-5.2,0-8.214,1.916c0,0-14.282-2.405-22.268-2.481l-1,8.6c7.057-.052,15.566,1.24,22.855.312a87.471,87.471,0,0,1,10.267.411c4.928.548,9.035-1.1,10.4-2.464S3655.593,3154.013,3652.034,3153.466Z" transform="translate(-3578.174 -3053.951)"/><path class="d" d="M3664.054,2932.744c-4.312,4.284-5.437-1.082-4.683-5.081s5.622-4.768,5.765-.356S3664.054,2932.744,3664.054,2932.744Z" transform="translate(-3612.766 -2889.738)"/><path class="h" d="M3668.537,2975.131l.28-1.121c0-.015.438-2.284-2.451-10.162-3.012-8.216-1.677-17.9-1.664-18a.411.411,0,0,1,.813.116c-.013.095-1.318,9.579,1.622,17.6,2.043,5.572,2.466,8.433,2.519,9.73a38.833,38.833,0,0,1,9.29-4.741c3.972-1.282,14.86-7.124,12.865-16.811a.411.411,0,0,1,.8-.166c.863,4.193-.523,8.3-4.009,11.873a24.537,24.537,0,0,1-9.408,5.886,38.731,38.731,0,0,0-9.736,5.1Z" transform="translate(-3616.573 -2905.121)"/><path class="d" d="M3674.768,2893.839c-2.124,7.28-5.067,18.9,4.53,23.852s17.2-4.2,18.945-9.855,3.218-16.266,3.218-16.266l-11.279-9.988Z" transform="translate(-3622.544 -2858.703)"/><path class="e" d="M3654,2884.974a19.263,19.263,0,0,0,12.046-1.643c6.571-3.012,8.488-6.023,8.488-6.023s.547,10.13,11.772,10.13l-1.917-1.643,3.559.821,1.1-5.2-5.2-10.4-9.308-3.012-9.309,4.654Z" transform="translate(-3609.023 -2848.84)"/><ellipse class="g" cx="1.437" cy="0.753" rx="1.437" ry="0.753" transform="translate(58.818 43.358) rotate(-79.088)"/><ellipse class="g" cx="1.437" cy="0.753" rx="1.437" ry="0.753" transform="translate(67.579 45.549) rotate(-79.088)"/><path class="e" d="M3731.285,2906.654,3728,2902s.821,6.57,6.023,9.308,5.2,10.13,5.2,10.13l2.464-8.213.274-4.38Z" transform="translate(-3662.764 -2873.531)"/><path class="i" d="M3668.519,3127.874l-1.878-5.167a.339.339,0,0,1,.362-.451l5.123.668a.973.973,0,0,1,.8.681l1.478,4.857a.536.536,0,0,1-.608.683l-4.811-.875A.617.617,0,0,1,3668.519,3127.874Z" transform="translate(-3618.188 -3033.483)"/></g></svg>