<svg xmlns="http://www.w3.org/2000/svg" viewBox="0 0 675.66 114.03"><defs><style>.cls-1{fill:#f1b634;fill-rule:evenodd;}.cls-2{fill:#fff;}</style></defs><title>tracbras logo</title><g id="Capa_2" data-name="Capa 2"><g id="Capa_1-2" data-name="Capa 1"><path class="cls-1" d="M525.78,86h44.14c16,0,27.61-9.25,36.22-21.73,5.16-7.45,10.45-14.15,20.39-14.15h49.13V28.87H626.53c-19.6,0-25.44,9.12-33.5,19.79-5.91,7.82-12.25,16.1-23.11,16.1H511.26Z"/><path class="cls-2" d="M463.32,35.87H432.57L406,113.42h19.78l4.74-13.22h32.44l4.79,13.22h20.91Zm-26.26,46,7.64-21.32h5.12l7.77,21.22Z"/><path class="cls-2" d="M393.67,87.65c.81-1.68,14.41-9,14.3-23.38-.13-10.21-2.87-28.4-29.22-28.4H343v77.55h19.43V90.06h9.42l16.34,23.36h22.88ZM379,74.42H362.42V54.66H375.9c7.87,0,12.76,2.89,13,10.48C389,70.79,382.33,74.42,379,74.42Z"/><path class="cls-2" d="M106.67,87.65c.84-1.68,14.43-9,14.3-23.38-.12-10.21-2.86-28.4-29.21-28.4H0V53.1H17.67V113H38.51V53.1H56v60.32H75.43V90.06h9.42l16.34,23.36h22.89ZM92,74.42H75.43V54.66H88.91c7.87,0,12.75,2.89,13,10.48C102,70.79,95.33,74.42,92,74.42Z"/><path class="cls-2" d="M181.43,35.87H150.66l-26.58,77.55h19.79l4.74-13.22h32.45l4.76,13.22h20.92Zm-26.26,46,7.63-21.32h5.11l7.8,21.22Z"/><path class="cls-2" d="M266,44.11a40.21,40.21,0,0,1,6.82,7.9L259.35,62.72a22.13,22.13,0,0,0-15.31-11h-5.18a21.86,21.86,0,0,0-4.21.41c-9.28,2.58-16,11.49-16.18,21.64.26,12.08,9.69,22.39,21.69,22.39a22,22,0,0,0,19.19-11.31L272.82,95.6a39.08,39.08,0,0,1-32.66,17.82c-21.58,0-39.22-17.82-39.22-39.61s17.53-40,39.1-40c0,0,13.06-1.63,26,10.28"/><path class="cls-2" d="M630,60.58c-9.92,0-15.21,6.7-20.39,14.18C601,87.23,589.42,96.48,573.4,96.48H537a21.84,21.84,0,0,0,.76-5.7c0-15-10.13-21.44-17-24.93C511,61,506.22,60.78,507,57a5,5,0,0,1,1.74-2.82v.14H565.7c10.85,0,17.18-8.26,23.11-16.11,8.05-10.65,13.9-19.76,33.49-19.76h18V0h-27c-19.58,0-25.42,9.11-33.48,19.76-5.92,7.85-12.25,16.11-23.11,16.11H522.81a39.76,39.76,0,0,0-13.74,0h-.29v.06c-12.6,2.48-20,11.58-20,20,0,16.76,10,18.68,14.07,21.8,5.85,4.47,17,4.34,17.18,12.89,0,3.48-2.79,5.27-6.79,5.83H507a41.11,41.11,0,0,1-17-5.83v18c9.79,5,19.2,6.22,27,4.73h68.72c16,0,27.63-9.26,36.22-21.71,5.16-7.48,10.47-14.18,20.38-14.18h15.19v-17Z"/><path class="cls-2" d="M333.68,74.65C337,71.23,340.12,66,340,57.92c-.12-10.24-2.88-22.05-29.22-22.05H275.06v77.56h35.76c26.34,0,29.1-11.83,29.22-22,.08-8.1-3-13.32-6.36-16.74m-29.76-8.13H294.5V52.84h13.26c8.65.32,13-1.66,13.19,5.93.12,4.78-1.1,6.79-6.3,7.75ZM314.4,82.78c6.23.47,6.83,2.57,6.55,7.77-.34,6.74-3.26,5.91-13,5.91H294.5V82.78h19.9Z"/></g></g></svg>