
<svg xmlns="http://www.w3.org/2000/svg" width="101.574" height="56.068" viewBox="0 0 101.574 56.068"><defs><style>.a{fill:#354050;}</style></defs><g transform="translate(2506.487 -12507.568)"><path class="a" d="M-2481.037,12508.617l-5.925,17.5h-1.351l-5.424-15.7-5.451,15.7h-1.349l-5.95-17.5h1.35l5.324,15.75,5.476-15.75h1.225l5.45,15.775,5.375-15.775Z"/><path class="a" d="M-2466.737,12513.068v13.049h-1.2v-2.8a4.842,4.842,0,0,1-1.924,2.137,5.738,5.738,0,0,1-3,.762,5.461,5.461,0,0,1-4-1.424,5.493,5.493,0,0,1-1.451-4.1v-7.625h1.25v7.523a4.6,4.6,0,0,0,1.125,3.352,4.244,4.244,0,0,0,3.175,1.148,4.548,4.548,0,0,0,3.489-1.375,5.2,5.2,0,0,0,1.287-3.7v-6.949Z"/><path class="a" d="M-2461.438,12507.568h1.25v18.549h-1.25Z"/><path class="a" d="M-2445.063,12513.818a6.084,6.084,0,0,1,2.313,2.35,6.9,6.9,0,0,1,.837,3.424,6.972,6.972,0,0,1-.837,3.438,5.973,5.973,0,0,1-2.313,2.352,6.558,6.558,0,0,1-3.3.836,6.093,6.093,0,0,1-3.125-.812,5.625,5.625,0,0,1-2.176-2.262v7.824h-1.25v-17.9h1.2v3.074a5.7,5.7,0,0,1,2.188-2.338,6.079,6.079,0,0,1,3.163-.838A6.49,6.49,0,0,1-2445.063,12513.818Zm-.674,10.574a5.007,5.007,0,0,0,1.886-1.949,5.812,5.812,0,0,0,.688-2.852,5.81,5.81,0,0,0-.688-2.85,5.007,5.007,0,0,0-1.886-1.949,5.264,5.264,0,0,0-2.7-.7,5.188,5.188,0,0,0-2.687.7,5.029,5.029,0,0,0-1.875,1.949,5.81,5.81,0,0,0-.688,2.85,5.812,5.812,0,0,0,.688,2.852,5.029,5.029,0,0,0,1.875,1.949,5.187,5.187,0,0,0,2.687.7A5.263,5.263,0,0,0-2445.737,12524.393Z"/><path class="a" d="M-2427.013,12519.893h-11.224a5.448,5.448,0,0,0,.774,2.713,4.972,4.972,0,0,0,1.963,1.838,5.9,5.9,0,0,0,2.787.648,5.958,5.958,0,0,0,2.362-.461,4.6,4.6,0,0,0,1.813-1.363l.725.824a5.579,5.579,0,0,1-2.137,1.576,7.012,7.012,0,0,1-2.787.549,7.019,7.019,0,0,1-3.476-.85,6.173,6.173,0,0,1-2.388-2.35,6.755,6.755,0,0,1-.862-3.426,7.1,7.1,0,0,1,.813-3.412,6,6,0,0,1,2.237-2.361,6.132,6.132,0,0,1,3.2-.852,6.13,6.13,0,0,1,3.188.838,5.963,5.963,0,0,1,2.225,2.338,7.029,7.029,0,0,1,.813,3.4Zm-8.675-5.213a4.672,4.672,0,0,0-1.762,1.725,5.623,5.623,0,0,0-.763,2.514h10a5.231,5.231,0,0,0-.75-2.5,4.883,4.883,0,0,0-1.774-1.725,4.914,4.914,0,0,0-2.476-.625A5,5,0,0,0-2435.688,12514.68Z"/><path class="a" d="M-2420.038,12513.73a5.942,5.942,0,0,1,3.1-.764v1.227l-.3-.025a4.34,4.34,0,0,0-3.4,1.361,5.472,5.472,0,0,0-1.224,3.789v6.8h-1.25v-13.049h1.2v2.85A4.5,4.5,0,0,1-2420.038,12513.73Z"/><path class="a" d="M-2413.063,12525.742a6.205,6.205,0,0,1-2.225-1.2l.574-1a6.643,6.643,0,0,0,2.063,1.125,7.817,7.817,0,0,0,2.637.449,5.175,5.175,0,0,0,2.913-.65,2.069,2.069,0,0,0,.938-1.8,1.688,1.688,0,0,0-.513-1.3,3.167,3.167,0,0,0-1.262-.7,21.117,21.117,0,0,0-2.076-.475,17.346,17.346,0,0,1-2.5-.6,3.914,3.914,0,0,1-1.625-1.049,2.822,2.822,0,0,1-.674-2,3.124,3.124,0,0,1,1.287-2.562,5.8,5.8,0,0,1,3.663-1.014,8.924,8.924,0,0,1,2.474.352,6.178,6.178,0,0,1,2,.924l-.575,1a6,6,0,0,0-1.824-.875,7.473,7.473,0,0,0-2.1-.3,4.655,4.655,0,0,0-2.75.674,2.1,2.1,0,0,0-.924,1.775,1.767,1.767,0,0,0,.525,1.363,3.306,3.306,0,0,0,1.287.725q.762.237,2.138.512a18.283,18.283,0,0,1,2.462.588,3.771,3.771,0,0,1,1.588,1.012,2.723,2.723,0,0,1,.65,1.926,3.05,3.05,0,0,1-1.351,2.6,6.4,6.4,0,0,1-3.8.975A9.431,9.431,0,0,1-2413.063,12525.742Z"/><path class="a" d="M-2478.552,12549.111a10.333,10.333,0,0,0-2.187.264q-1.209.261-2.327.559t-2.048.561a5.608,5.608,0,0,1-1.383.262,2.01,2.01,0,0,1-1.208-.506,6.6,6.6,0,0,1-1.19-1.227,6.993,6.993,0,0,1-.875-1.5,3.059,3.059,0,0,1-.3-1.348,7.834,7.834,0,0,1,.822-2.869,15.9,15.9,0,0,1,1.854-2.906,20.4,20.4,0,0,1,2.609-2.713,21.077,21.077,0,0,1,3.1-2.24,17.387,17.387,0,0,1,3.29-1.521,10.027,10.027,0,0,1,3.2-.561,8.183,8.183,0,0,1,2.834.42,5.134,5.134,0,0,1,1.714.98,2.564,2.564,0,0,1,.753,1.086c.1.35.088.594-.051.734a.486.486,0,0,1-.351.106,3.983,3.983,0,0,1-.56-.054,5.734,5.734,0,0,0-.839-.053,14.555,14.555,0,0,0-4.954.787,15.351,15.351,0,0,0-3.814,1.961,13.975,13.975,0,0,0-2.766,2.59,20.24,20.24,0,0,0-1.838,2.66,14.024,14.024,0,0,0-1.014,2.135,5.541,5.541,0,0,0-.316,1.066c0,.117.129.176.386.176a8.251,8.251,0,0,0,1.505-.211c.676-.139,1.436-.291,2.275-.455s1.727-.314,2.661-.455a18.322,18.322,0,0,1,2.694-.209,2.638,2.638,0,0,1,1.61.578,5.664,5.664,0,0,1,1.348,1.469,7.486,7.486,0,0,1,.893,1.979,5.613,5.613,0,0,1,.208,2.135,5.911,5.911,0,0,1-.7,2.311,13.156,13.156,0,0,1-1.644,2.432,19.893,19.893,0,0,1-2.311,2.311,18.955,18.955,0,0,1-2.73,1.941,16.187,16.187,0,0,1-2.905,1.348,8.686,8.686,0,0,1-2.836.508,5.562,5.562,0,0,1-2.064-.35,4.232,4.232,0,0,1-1.436-.91,3.123,3.123,0,0,1-.787-1.295,3.709,3.709,0,0,1-.157-1.471,7.05,7.05,0,0,1,.351-1.574,6.968,6.968,0,0,1,.734-1.559,5.01,5.01,0,0,1,1-1.172,1.75,1.75,0,0,1,1.137-.455,2.336,2.336,0,0,1,.945.158,1.8,1.8,0,0,1,.526.332,1.372,1.372,0,0,1,.314.49,12.13,12.13,0,0,0-1.644,1.959,3.183,3.183,0,0,0-.385.719,1.148,1.148,0,0,0-.088.629.661.661,0,0,0,.332.438,1.687,1.687,0,0,0,.875.176,5.833,5.833,0,0,0,2.205-.473,12.625,12.625,0,0,0,2.293-1.242,15.45,15.45,0,0,0,2.152-1.768,20.012,20.012,0,0,0,1.821-2.047,13.015,13.015,0,0,0,1.312-2.066,5.192,5.192,0,0,0,.577-1.82.862.862,0,0,0-.612-.908A4.975,4.975,0,0,0-2478.552,12549.111Z"/><path class="a" d="M-2466.582,12540.291q-1.224.246-2.363.49a9.777,9.777,0,0,1-2.047.246,1.818,1.818,0,0,1-.262-.018,1.622,1.622,0,0,0-.228-.018,2.219,2.219,0,0,1-1.278-.473,2.871,2.871,0,0,1-.717-.893,2.581,2.581,0,0,1-.281-.945,2.859,2.859,0,0,1,0-.629.227.227,0,0,1,.246-.211,3.12,3.12,0,0,1,.8.176,8.377,8.377,0,0,0,1.54.279,1.146,1.146,0,0,0,.28.035h.315a13.616,13.616,0,0,0,2.345-.229q1.295-.226,2.765-.506.42-.981.683-1.576a5,5,0,0,1,.367-.734.374.374,0,0,1,.349-.176,3.711,3.711,0,0,1,.789.229,6.1,6.1,0,0,1,1,.49,5.088,5.088,0,0,1,.875.664,1.212,1.212,0,0,1,.42.717,4.491,4.491,0,0,0,.56.035,4.913,4.913,0,0,1,.56.035,1.694,1.694,0,0,1,1.417.754,2.578,2.578,0,0,1,.35,1.363,3.141,3.141,0,0,1-.28,1.279c-.175.373-.332.523-.473.453-.279-.115-.634-.279-1.066-.488a8.413,8.413,0,0,0-2.118-.561q-.666,1.679-1.663,4.146t-2.153,5.3q-.63,1.506-1.136,3.063t-.858,2.836q-.351,1.277-.525,2.1c-.117.549-.153.846-.106.893q.036.035.264-.193a10.9,10.9,0,0,0,.734-.875q.507-.647,1.33-1.8t2.047-2.977q.526-.768,1.034-1.574t.892-1.471q.489-.768.91-1.5a4.411,4.411,0,0,1,.7.42,1.856,1.856,0,0,1,.4.473.482.482,0,0,1-.018.541q-.1.211-.769,1.4t-1.68,2.73a45.537,45.537,0,0,1-3.867,5.268,4.207,4.207,0,0,1-2.854,1.732,2.986,2.986,0,0,1-1.767-.508,2.558,2.558,0,0,1-.962-1.627,7.935,7.935,0,0,1,.035-2.871,23.6,23.6,0,0,1,1.19-4.234q1.155-3.149,2.257-6T-2466.582,12540.291Z"/><path class="a" d="M-2455.7,12544.037a15.251,15.251,0,0,1-.91,1.873q-.876,1.661-2.1,4.287a27.6,27.6,0,0,0-1.208,3.045q-.438,1.365-.648,2.326a8.853,8.853,0,0,0-.227,1.523,1.345,1.345,0,0,0,.052.631q.071.035.631-.525t1.312-1.436q.753-.873,1.592-1.926a15.794,15.794,0,0,0,1.4-2.029.313.313,0,0,0,.088-.141.311.311,0,0,1,.088-.139c.046-.117.1-.246.156-.385s.112-.27.158-.387q1.014-2.273,1.943-3.971a32.494,32.494,0,0,1,1.7-2.818,25.074,25.074,0,0,1,1.645-2.311.554.554,0,0,1,.244-.07,1.734,1.734,0,0,1,.8.281,10.174,10.174,0,0,1,.945.611,6.7,6.7,0,0,1,.788.666,1.811,1.811,0,0,1,.368.438,1.353,1.353,0,0,1-.228.646q-.263.51-.752,1.348t-1.156,1.979q-.665,1.138-1.434,2.5a22.321,22.321,0,0,0-1.33,2.783,26.789,26.789,0,0,0-.893,2.607q-.335,1.189-.473,1.977a2.03,2.03,0,0,0-.07.857c.024.023.17-.133.438-.473s.6-.781,1-1.33.828-1.165,1.3-1.854.921-1.383,1.365-2.084q.489-.8,1-1.592t.892-1.453q.454-.768.911-1.469a4.528,4.528,0,0,1,.7.42,1.458,1.458,0,0,1,.4.438.485.485,0,0,1-.017.543q-.107.173-.6,1.066t-1.242,2.117q-.753,1.228-1.68,2.59t-1.873,2.521a15.34,15.34,0,0,1-1.837,1.924,2.591,2.591,0,0,1-1.593.77,2.2,2.2,0,0,1-2.1-1.312,6.446,6.446,0,0,1-.491-3.447,24.672,24.672,0,0,1-2.484,2.766,3.423,3.423,0,0,1-2.136,1.154,2.563,2.563,0,0,1-1.277-.367,4.024,4.024,0,0,1-1.12-.928,3.978,3.978,0,0,1-.717-1.242,2.423,2.423,0,0,1-.1-1.348,23.669,23.669,0,0,1,.8-3.045q.525-1.573,1.156-3.062t1.259-2.816q1.086-2.312,2.345-4.516a.693.693,0,0,1,.315-.07,2.5,2.5,0,0,1,.858.193,4.853,4.853,0,0,1,.962.49,5.64,5.64,0,0,1,.788.611C-2455.773,12543.688-2455.675,12543.873-2455.7,12544.037Z"/><path class="a" d="M-2440.088,12541.762a2.819,2.819,0,0,1,2.117.682,3.157,3.157,0,0,1,.824,1.629q.734-1.611,1.4-3.1t1.19-2.678q.527-1.189.893-1.961a8.167,8.167,0,0,1,.472-.908.484.484,0,0,1,.455-.246,1.7,1.7,0,0,1,.892.332,4.935,4.935,0,0,1,.928.789,4.529,4.529,0,0,1,.666.908.86.86,0,0,1,.139.7q-.14.246-.612,1.137t-1.19,2.293q-.719,1.4-1.593,3.222t-1.82,3.954q-.84,1.925-1.417,3.621t-.944,2.977q-.371,1.277-.526,2.029a3.156,3.156,0,0,0-.123.787c.024.023.163-.117.42-.42s.578-.705.963-1.207.816-1.086,1.3-1.75.951-1.348,1.418-2.049q.489-.768,1.014-1.557t.945-1.453q.49-.768.945-1.5a4.436,4.436,0,0,1,.7.42,1.66,1.66,0,0,1,.438.473.489.489,0,0,1-.018.543c-.069.115-.274.467-.612,1.049s-.765,1.266-1.277,2.047-1.081,1.617-1.7,2.5a30.731,30.731,0,0,1-1.908,2.467,14.95,14.95,0,0,1-1.89,1.873,2.736,2.736,0,0,1-1.645.734,2.507,2.507,0,0,1-2.4-1.33,5.489,5.489,0,0,1-.193-3.744q-.594.806-1.3,1.627a14.307,14.307,0,0,1-1.435,1.471,9.858,9.858,0,0,1-1.434,1.066,2.591,2.591,0,0,1-1.33.42,1.482,1.482,0,0,1-1.365-.77,4.32,4.32,0,0,1-.508-2.028,13.471,13.471,0,0,1,.227-2.854,20.353,20.353,0,0,1,.875-3.271,24.619,24.619,0,0,1,1.435-3.274,16.993,16.993,0,0,1,1.873-2.851,9.709,9.709,0,0,1,2.223-2.032A4.517,4.517,0,0,1-2440.088,12541.762Zm-.525,9.8q.491-.983,1.015-2.153t1.12-2.4c.046-.326.087-.652.123-.98a4.436,4.436,0,0,0,.017-.875,1.415,1.415,0,0,0-.175-.611.459.459,0,0,0-.42-.229,2.22,2.22,0,0,0-1.487.91,15.559,15.559,0,0,0-1.662,2.275,27.249,27.249,0,0,0-1.576,2.975q-.734,1.611-1.242,2.975a13.29,13.29,0,0,0-.664,2.275c-.106.607-.053.91.156.91a1.666,1.666,0,0,0,.8-.473,15.035,15.035,0,0,0,1.208-1.154q.646-.683,1.331-1.471c.454-.525.844-.984,1.171-1.383A4.448,4.448,0,0,0-2440.613,12551.563Z"/><path class="a" d="M-2428.328,12542.182a3.851,3.851,0,0,1,.892.262,6.71,6.71,0,0,1,1.1.561,3.953,3.953,0,0,1,.875.736.762.762,0,0,1,.209.787q-.07.243-.77,1.7t-2.17,4.322a31.017,31.017,0,0,0-1.259,2.852c-.351.924-.631,1.75-.84,2.486a14.9,14.9,0,0,0-.42,1.785c-.07.455-.082.705-.035.752.022.023.168-.135.437-.473s.606-.787,1.015-1.348.851-1.2,1.329-1.908.94-1.416,1.383-2.117c.326-.535.666-1.066,1.015-1.592s.653-1.021.911-1.488q.489-.768.945-1.5a3.246,3.246,0,0,1,.7.455,1.312,1.312,0,0,1,.438.438.486.486,0,0,1-.018.543c-.07.115-.274.479-.612,1.084s-.765,1.324-1.278,2.152-1.085,1.709-1.715,2.643-1.266,1.8-1.907,2.59a13.983,13.983,0,0,1-1.89,1.961,2.736,2.736,0,0,1-1.627.77,2.439,2.439,0,0,1-1.768-.7,3.7,3.7,0,0,1-.98-1.926,7.938,7.938,0,0,1,.017-2.922,14.631,14.631,0,0,1,1.225-3.729q1.924-4.233,3.045-6.422t1.4-2.607A.473.473,0,0,1-2428.328,12542.182Zm1.855-2.868a1.82,1.82,0,0,1,.193-1,9.747,9.747,0,0,1,.647-1.242,17.049,17.049,0,0,1,.945-1.506,1.034,1.034,0,0,1,.84-.455,3.513,3.513,0,0,1,.91.176,4.258,4.258,0,0,1,.717.332,4.113,4.113,0,0,1,.718.508,2.416,2.416,0,0,1,.473.543.362.362,0,0,1,.017.438q-.561.806-.927,1.348c-.246.361-.461.682-.648.961s-.367.537-.543.772-.367.478-.576.733a.543.543,0,0,1-.49.209,1.6,1.6,0,0,1-.684-.174,4.356,4.356,0,0,1-.717-.437,2.565,2.565,0,0,1-.578-.6A1.976,1.976,0,0,1-2426.473,12539.313Z"/><path class="a" d="M-2416.848,12541.621a5.3,5.3,0,0,1,2.414.455,3.288,3.288,0,0,1,1.313,1.156,3.984,3.984,0,0,1,.56,1.592,12.953,12.953,0,0,1,.123,1.768,9.441,9.441,0,0,1-.542,3.08q-.545,1.576-1.138,2.869a6.728,6.728,0,0,0,1.487-1.242,14.642,14.642,0,0,0,1.191-1.485q.505-.737.822-1.261a2.649,2.649,0,0,1,.35-.525c.07-.023.174.018.315.121a2.211,2.211,0,0,1,.4.4,2.629,2.629,0,0,1,.315.506.448.448,0,0,1,.017.438q-.208.387-.646,1.139a8.811,8.811,0,0,1-1.173,1.539,9.744,9.744,0,0,1-1.768,1.471,6.366,6.366,0,0,1-2.467.928,13.745,13.745,0,0,1-1.505,1.959,11.982,11.982,0,0,1-1.785,1.594,8.856,8.856,0,0,1-1.978,1.084,5.759,5.759,0,0,1-2.117.4,4.988,4.988,0,0,1-1.085-.156,3.5,3.5,0,0,1-1.278-.613,3.944,3.944,0,0,1-1.067-1.26,4.246,4.246,0,0,1-.455-2.1,8.479,8.479,0,0,1,.228-1.926,9.943,9.943,0,0,1,.612-1.838,8.538,8.538,0,0,1,.928-1.592,5.366,5.366,0,0,1,1.171-1.188,4.4,4.4,0,0,1,.176-2.364,7.316,7.316,0,0,1,1.33-2.381,7.618,7.618,0,0,1,2.257-1.836A6.144,6.144,0,0,1-2416.848,12541.621Zm-4.97,16.17a3.531,3.531,0,0,0,2.345-.893,11.968,11.968,0,0,0,1.994-2.221,8.3,8.3,0,0,1-4.024-1.75,7.583,7.583,0,0,0-.577,1.451,6.091,6.091,0,0,0-.229,1.7C-2422.309,12557.221-2422.145,12557.791-2421.818,12557.791Zm1.4-9.344a2.888,2.888,0,0,1,.822.438,2.156,2.156,0,0,1,.508.543,2.123,2.123,0,0,1,.315.594c-.118.07-.245.152-.385.246l-.42.332a6.025,6.025,0,0,0-.526.473,5.168,5.168,0,0,0,1.454,1.383,4.272,4.272,0,0,0,2.117.646,22.74,22.74,0,0,0,1.522-3.359,9.07,9.07,0,0,0,.613-2.975v-.857a5.512,5.512,0,0,0-.1-1.068,2.646,2.646,0,0,0-.351-.91.814.814,0,0,0-.734-.385,3.272,3.272,0,0,0-1.662.455,5.652,5.652,0,0,0-1.418,1.172,8.193,8.193,0,0,0-1.085,1.576A7.482,7.482,0,0,0-2420.418,12548.447Z"/></g></svg>