<svg xmlns="http://www.w3.org/2000/svg" viewBox="0 0 99.88 85.33"><defs><style>.cls-1{fill:#fff;}.cls-2{fill:#2c3e50;}.cls-3{fill:#85c0f0;}</style></defs><title>Recurso 117</title><g id="Capa_2" data-name="Capa 2"><g id="Capa_1-2" data-name="Capa 1"><path class="cls-1" d="M47.87,82.63H76.8s-19.15-6.46-19.15-33.1H38.09c0,26.64-19.15,33.1-19.15,33.1H31.4"/><path class="cls-2" d="M76.8,84.29H47.87a1.67,1.67,0,1,1,0-3.33H70.35A31.39,31.39,0,0,1,66,77.23c-4.4-4.55-9.62-12.7-10-26H39.73c-.41,13.33-5.62,21.48-10,26A31.39,31.39,0,0,1,25.39,81h6a1.67,1.67,0,1,1,0,3.33H18.94a1.66,1.66,0,0,1-.53-3.24,25.89,25.89,0,0,0,9-6.26c6-6.23,9-14.73,9-25.26a1.66,1.66,0,0,1,1.67-1.66H57.65a1.66,1.66,0,0,1,1.67,1.66c0,10.53,3,19,9,25.26a25.89,25.89,0,0,0,9,6.26,1.66,1.66,0,0,1-.53,3.24Z"/><path class="cls-1" d="M93.66,42V55.78a7.1,7.1,0,0,1-7.08,7.07H9.16a7.1,7.1,0,0,1-7.08-7.07V9.16A7.11,7.11,0,0,1,9.16,2.08H86.58a7.11,7.11,0,0,1,7.08,7.08"/><path class="cls-2" d="M86.58,64.94H9.16A9.17,9.17,0,0,1,0,55.78V9.16A9.17,9.17,0,0,1,9.16,0H86.58a9.17,9.17,0,0,1,9.16,9.16,2.08,2.08,0,1,1-4.16,0,5,5,0,0,0-5-5H9.16a5,5,0,0,0-5,5V55.78a5,5,0,0,0,5,5H86.58a5,5,0,0,0,5-5V42a2.08,2.08,0,1,1,4.16,0V55.78A9.17,9.17,0,0,1,86.58,64.94Z"/><polyline class="cls-1" points="33.14 39.86 20.02 27.24 33.14 16.13"/><path class="cls-2" d="M33.14,41.52A1.65,1.65,0,0,1,32,41.06L18.86,28.44A1.67,1.67,0,0,1,18.94,26l13.13-11.1a1.66,1.66,0,0,1,2.15,2.54L22.5,27.31,34.3,38.66a1.66,1.66,0,0,1,0,2.35A1.64,1.64,0,0,1,33.14,41.52Z"/><polyline class="cls-1" points="62.6 39.86 75.72 27.24 62.6 16.13"/><path class="cls-2" d="M62.6,41.52A1.64,1.64,0,0,1,61.4,41a1.66,1.66,0,0,1,0-2.35l11.8-11.35L61.52,17.4a1.66,1.66,0,1,1,2.15-2.54L76.8,26a1.67,1.67,0,0,1,.08,2.48L63.75,41.06A1.65,1.65,0,0,1,62.6,41.52Z"/><path class="cls-3" d="M2.08,51.41v4.37a7.1,7.1,0,0,0,7.08,7.07H86.58a7.1,7.1,0,0,0,7.08-7.07V51.41Z"/><path class="cls-2" d="M86.58,64.94H9.16A9.17,9.17,0,0,1,0,55.78V9.16A9.17,9.17,0,0,1,9.16,0H86.58a9.17,9.17,0,0,1,9.16,9.16,2.08,2.08,0,1,1-4.16,0,5,5,0,0,0-5-5H9.16a5,5,0,0,0-5,5V55.78a5,5,0,0,0,5,5H86.58a5,5,0,0,0,5-5V30a2.08,2.08,0,1,1,4.16,0V55.78A9.17,9.17,0,0,1,86.58,64.94Z"/><line class="cls-1" x1="42.46" y1="45.37" x2="51.82" y2="10.82"/><path class="cls-2" d="M42.46,47a1.67,1.67,0,0,1-1.61-2.1l9.37-34.55a1.66,1.66,0,1,1,3.21.87L44.07,45.81A1.68,1.68,0,0,1,42.46,47Z"/><line class="cls-1" x1="3.51" y1="50.78" x2="93.66" y2="50.78"/><path class="cls-2" d="M93.66,52.45H3.51a1.67,1.67,0,0,1,0-3.33H93.66a1.67,1.67,0,0,1,0,3.33Z"/><path class="cls-1" d="M98.21,61.61V75.34a8.36,8.36,0,0,1-8.33,8.33H80.94a8.36,8.36,0,0,1-8.33-8.33V52.45a8.36,8.36,0,0,1,8.33-8.33h8.94a8.36,8.36,0,0,1,8.33,8.33"/><path class="cls-2" d="M89.88,85.33H80.94a10,10,0,0,1-10-10V52.45a10,10,0,0,1,10-10h8.94a10,10,0,0,1,10,10,1.67,1.67,0,0,1-3.34,0,6.66,6.66,0,0,0-6.66-6.66H80.94a6.66,6.66,0,0,0-6.66,6.66V75.34A6.66,6.66,0,0,0,80.94,82h8.94a6.66,6.66,0,0,0,6.66-6.66V61.61a1.67,1.67,0,0,1,3.34,0V75.34A10,10,0,0,1,89.88,85.33Z"/><line class="cls-1" x1="73.86" y1="69.31" x2="98.21" y2="69.31"/><path class="cls-2" d="M98.21,71H73.86a1.67,1.67,0,1,1,0-3.33H98.21a1.67,1.67,0,1,1,0,3.33Z"/><path class="cls-3" d="M72.61,68.47v6.87a8.36,8.36,0,0,0,8.33,8.33h8.94a8.36,8.36,0,0,0,8.33-8.33V68.47Z"/><path class="cls-2" d="M89.88,85.33H80.94a10,10,0,0,1-10-10V68.47a1.66,1.66,0,0,1,1.66-1.66h25.6a1.66,1.66,0,0,1,1.67,1.66v6.87A10,10,0,0,1,89.88,85.33ZM74.28,70.14v5.2A6.66,6.66,0,0,0,80.94,82h8.94a6.66,6.66,0,0,0,6.66-6.66v-5.2Z"/><circle class="cls-2" cx="85.1" cy="75.97" r="2.91"/></g></g></svg>