<svg xmlns="http://www.w3.org/2000/svg" viewBox="0 0 87.55 103.03"><defs><style>.cls-1{fill:#85c0f0;}.cls-2{fill:#2c3e50;}.cls-3{fill:#fff;}</style></defs><title>Recurso 118</title><g id="Capa_2" data-name="Capa 2"><g id="Capa_1-2" data-name="Capa 1"><path class="cls-1" d="M11.89,101.28c-2.09-.45-6.05-.43-8.31-.94a3.3,3.3,0,0,1-2.45-3.4c.27-7.76.29-29.7,12.37-52.13,12.18-22.62,32.77-27.3,39.27-28.07a3.1,3.1,0,0,1,3.2,2l3,7.55"/><path class="cls-2" d="M11.89,102.41a1,1,0,0,1-.24,0,32.26,32.26,0,0,0-3.8-.41,35.69,35.69,0,0,1-4.51-.53A4.43,4.43,0,0,1,0,96.9c0-.41,0-.86.05-1.35.26-8.92.89-29.8,12.46-51.28C25.59,20,48.23,16.15,52.64,15.63A4.19,4.19,0,0,1,57,18.35l3,7.55a1.12,1.12,0,1,1-2.09.83l-3-7.55a2,2,0,0,0-2-1.32C48.69,18.36,27,22,14.49,45.34,3.17,66.35,2.56,86.86,2.29,95.62c0,.49,0,.94,0,1.36a2.18,2.18,0,0,0,1.58,2.27A32.88,32.88,0,0,0,8,99.72a33.08,33.08,0,0,1,4.11.47,1.12,1.12,0,0,1-.24,2.22Z"/><path class="cls-3" d="M63.87,101.91A4,4,0,0,0,67.75,98c.37-5.08.88-16.47-9.36-22.6s-11.72-17.24-6.2-22.74c0,0,3.67,7,9.88,6,4.32-.7,9-1.75,11.49.25,3.16,2.5,6.66,5.24,12.86-.25,0,0-7.12-21.74-22.4-28.38a3.76,3.76,0,0,1-2.18-3.49V15.61a1.31,1.31,0,0,0-2.36-.88l-10,13.71S11.6,34.49,12.14,98.74a3.09,3.09,0,0,0,2.95,3.17H25.76"/><path class="cls-2" d="M63.87,103a1.13,1.13,0,0,1,0-2.25,2.93,2.93,0,0,0,2.76-2.84c.31-4.27,1.13-15.6-8.82-21.55C52.26,73.06,48.69,68,48,62.51a12.64,12.64,0,0,1,3.37-10.63,1.13,1.13,0,0,1,1.79.28c0,.06,3.39,6.26,8.71,5.41l1.31-.22c4.12-.69,8.39-1.41,11,.7,3.06,2.42,5.72,4.52,10.86.28-1.38-3.74-8.43-21.3-21.54-27a4.89,4.89,0,0,1-2.86-4.53V15.61c0-.23-.12-.29-.16-.3s-.08,0-.15.07L50.33,29.11a1.14,1.14,0,0,1-.72.44c-.09,0-9.31,1.61-18.34,10.85C22.9,49,13,66,13.27,98.73a2,2,0,0,0,1.82,2H25.76a1.13,1.13,0,0,1,0,2.25H15.09A4.21,4.21,0,0,1,11,98.75C10.89,84,12.8,71,16.68,60.27a58.92,58.92,0,0,1,13.1-21.56c8.47-8.61,16.93-10.85,19-11.29l9.8-13.36a2.35,2.35,0,0,1,2.66-.9A2.55,2.55,0,0,1,63,15.61v11.2a2.67,2.67,0,0,0,1.51,2.46c8.17,3.55,14,11.28,17.45,17.14a66.33,66.33,0,0,1,5.57,11.92,1.12,1.12,0,0,1-.32,1.19c-6.92,6.13-11.19,2.76-14.31.29-1.88-1.49-5.65-.85-9.29-.24l-1.32.22a8.74,8.74,0,0,1-1.42.11c-4.38,0-7.4-3.37-8.78-5.33a10.67,10.67,0,0,0-1.8,7.66C50.84,67,54,71.49,59,74.46c11.14,6.67,10.21,19.44,9.9,23.64A5.18,5.18,0,0,1,63.87,103Z"/><ellipse class="cls-3" cx="61.38" cy="39.19" rx="2.64" ry="2.87"/><path class="cls-2" d="M61.38,43.18a4,4,0,1,1,3.76-4A3.89,3.89,0,0,1,61.38,43.18Zm0-5.74a1.76,1.76,0,1,0,1.52,1.75A1.64,1.64,0,0,0,61.38,37.44Z"/><path class="cls-3" d="M50.23,46.06a17,17,0,0,0,2.64,7.72"/><path class="cls-2" d="M52.88,54.91a1.11,1.11,0,0,1-.93-.49,18,18,0,0,1-2.84-8.3A1.12,1.12,0,1,1,51.35,46a16,16,0,0,0,2.45,7.15,1.12,1.12,0,0,1-.29,1.56A1.14,1.14,0,0,1,52.88,54.91Z"/><path class="cls-3" d="M64,16.82,83.41,1.23c.44-.36,1,.25.66.73L65.63,28.32"/><path class="cls-2" d="M65.63,29.44a1.18,1.18,0,0,1-.65-.2,1.12,1.12,0,0,1-.27-1.57L80.63,4.9,64.72,17.7a1.13,1.13,0,0,1-1.41-1.76L82.7.35a1.57,1.57,0,0,1,2.06.08A1.65,1.65,0,0,1,85,2.6L66.55,29A1.13,1.13,0,0,1,65.63,29.44Z"/><line class="cls-3" x1="67.93" y1="14.82" x2="68.62" y2="22.57"/><path class="cls-2" d="M68.61,23.69a1.12,1.12,0,0,1-1.11-1l-.69-7.75a1.12,1.12,0,0,1,2.24-.2l.69,7.75a1.14,1.14,0,0,1-1,1.22Z"/><line class="cls-3" x1="72.6" y1="9.92" x2="72.98" y2="16.82"/><path class="cls-2" d="M73,17.94a1.12,1.12,0,0,1-1.12-1.06L71.48,10a1.12,1.12,0,1,1,2.24-.12l.38,6.9A1.11,1.11,0,0,1,73,17.94Z"/></g></g></svg>