<svg xmlns="http://www.w3.org/2000/svg" xmlns:xlink="http://www.w3.org/1999/xlink" viewBox="0 0 1921 1716.78"><defs><style>.cls-1{fill:url(#Degradado_sin_nombre_8);}.cls-2,.cls-4{opacity:0.2;}.cls-3,.cls-4,.cls-5{fill:#fff;}.cls-5{fill-rule:evenodd;}</style><linearGradient id="Degradado_sin_nombre_8" x1="1218.77" y1="-175.09" x2="703.35" y2="1892.15" gradientUnits="userSpaceOnUse"><stop offset="0" stop-color="#2f80ff"/><stop offset="0.12" stop-color="#328dfd"/><stop offset="1" stop-color="#49e8ee"/></linearGradient></defs><title>Recurso 121</title><g id="Capa_2" data-name="Capa 2"><g id="Capa_1-2" data-name="Capa 1"><path class="cls-1" d="M1,.78s959,107,1920-.78V1716.78H0Z"/><g class="cls-2"><path class="cls-3" d="M1766.28,59.19H1651.11a23.75,23.75,0,0,0-23.72,23.72v78.75a23.75,23.75,0,0,0,23.72,23.72h27.31a9.4,9.4,0,0,0,0-18.8h-27.31a4.92,4.92,0,0,1-4.92-4.92V82.91a4.92,4.92,0,0,1,4.92-4.92h115.17a4.93,4.93,0,0,1,4.92,4.92v60.23a9.4,9.4,0,0,0,18.8,0V82.91A23.75,23.75,0,0,0,1766.28,59.19Z"/><path class="cls-3" d="M1696.84,138.33h33.77a6.1,6.1,0,0,0,5.91-4.59l7.06-27.61a6.09,6.09,0,0,0-5.89-7.61l-52.68-.1a18.5,18.5,0,0,0-16.41-6.24,6.1,6.1,0,1,0,2,12,6.94,6.94,0,0,1,2.84.5c2.41,1,4.08,3.57,5,7.62,1.5,6.89,3.29,14.73,4.77,21.13h0c1.66,7.22,2.94,12.6,3,12.7a6.1,6.1,0,0,0,5.94,4.69,6.22,6.22,0,0,0,1.41-.16,6.11,6.11,0,0,0,4.53-7.35C1698,143.28,1697.55,141.37,1696.84,138.33Zm-2.83-12.2c-1.15-5-2.38-10.48-3.48-15.5l39.29.07-4,15.43Z"/><path class="cls-3" d="M1769.78,162.84a37.05,37.05,0,0,0-51.54,53.24l23.75,23a6.1,6.1,0,1,0,8.48-8.76l-23.74-23a24.84,24.84,0,1,1,34.56-35.7l16.43,15.89a6.1,6.1,0,0,0,8.48-8.76Z"/><path class="cls-3" d="M1754.77,177.12a16.19,16.19,0,0,0-22.87.37l-.29.3a16.2,16.2,0,0,0,.37,22.87l3.76,3.64h0a16.19,16.19,0,0,0,22.88-.37l.28-.3a16.2,16.2,0,0,0-.37-22.87ZM1751.06,196l-.29.3a5.28,5.28,0,0,1-7.44.12h0l-3.76-3.64a5.31,5.31,0,0,1-.12-7.44l.29-.3a5.28,5.28,0,0,1,7.44-.12l3.76,3.64a5.29,5.29,0,0,1,.12,7.44Z"/></g><g class="cls-2"><path class="cls-3" d="M201.5,224.93a62.5,62.5,0,1,0,62.5,62.5A62.5,62.5,0,0,0,201.5,224.93Zm0,103A40.49,40.49,0,1,1,242,287.43,40.48,40.48,0,0,1,201.5,327.91Z"/><path class="cls-3" d="M201.5,254.8a32.63,32.63,0,1,0,32.63,32.63A32.63,32.63,0,0,0,201.5,254.8Zm0,45.2a12.58,12.58,0,1,1,12.58-12.57A12.57,12.57,0,0,1,201.5,300Z"/><path class="cls-3" d="M210.85,362.78V334.14H196.08v28.61c-30.44.42-51,7.2-51,15.51,0,8.57,25.79,15.53,57.59,15.53s57.59-7,57.59-15.53C260.27,370.09,240.54,363.4,210.85,362.78Z"/></g><path class="cls-4" d="M1215,257.14c0-.41,0-.8,0-1.2V205.05a10.85,10.85,0,0,0-21.69,0v10.87A50,50,0,0,0,1115,257.14c0,.13,0,.27,0,.41s0,.2,0,.3c0,.41,0,.8,0,1.2v50.89a10.85,10.85,0,0,0,21.69,0V299.07A50,50,0,0,0,1215,257.85c0-.14,0-.27,0-.41S1215,257.24,1215,257.14Zm-21.72,1.76a28.36,28.36,0,0,1-56.6.1v-2.91a28.36,28.36,0,0,1,56.6-.1v2.91Z"/><g class="cls-2"><path class="cls-5" d="M132.61,759a256.64,256.64,0,0,0,29.95,1.65,256.69,256.69,0,0,0,30-1.65c24.9-3,23.86-4.85,29.84-30.5,6.09-26.06,5.64-29-21.47-37.13a139.2,139.2,0,0,0-76.65,0c-27.11,8.11-27.56,11.07-21.48,37.13,6,25.65,4.95,27.53,29.85,30.5m29.95,17.76A270.62,270.62,0,0,1,130.72,775a170.16,170.16,0,0,1-27.2-5.34,8,8,0,0,1-5.11-4.41h0a182.08,182.08,0,0,1-8.2-21.64,7.77,7.77,0,0,1-8.35-5.69l-2.78-10.37a7.76,7.76,0,0,1,5.4-9.46,140.26,140.26,0,0,1-1.38-18.73A8,8,0,0,1,86,693.15h0c9.53-7.88,21.28-13.46,33.67-17.17a154.78,154.78,0,0,1,85.84,0c12.4,3.71,24.15,9.29,33.68,17.17a8.07,8.07,0,0,1,2.89,6.86,142.92,142.92,0,0,1-1.38,18.1,7.76,7.76,0,0,1,5.42,9.46l-2.78,10.37a7.77,7.77,0,0,1-8.37,5.68,183.31,183.31,0,0,1-8.2,21.65,8,8,0,0,1-5.73,4.57,172.26,172.26,0,0,1-26.6,5.17A270.79,270.79,0,0,1,162.56,776.78Z"/><path class="cls-5" d="M132.75,706.47a19,19,0,1,1-19,19,19,19,0,0,1,19-19"/><path class="cls-5" d="M192.37,706.47a19,19,0,1,1-19,19,19,19,0,0,1,19-19"/></g><path class="cls-4" d="M493.69,703.47h25.42v68.2c0,10.81,4.91,17.25,8.89,19.93-4.15,3.63-16.73,6.83-26.21-.91-5.55-4.58-8.1-12.19-8.1-19.28Zm158.78,56.7V753h7.78v-25.1h-8.53a33.56,33.56,0,0,0-66.34,7.19v58.56a21.22,21.22,0,0,0,16.9-4.58c5.59-4.57,8.1-12.15,8.1-19.28v-2.19h12.68V742.49H610.38v-7.62c0-11.3,17.06-11.3,17.06,0v25.2A33.59,33.59,0,0,0,661,793.63v-25A8.5,8.5,0,0,1,652.47,760.17ZM556.3,727.81v36.93c0,5-7.78,5-7.78,0V727.81H523.43v43.37c0,7.77,2.61,17.64,14.7,20.88s19-3.47,19-3.47c-.69,4.38-4.74,7.62-11.4,8.27-5.07.53-11.51-1.17-14.71-2.55v23a52.84,52.84,0,0,0,25.36,1.53c15.39-3,25.1-15.81,25.1-32.94V727.65H556.3Z"/><path class="cls-4" d="M697.26,297.66h25V213.45l-25,11.78ZM729,250v47.64h25V250Zm-108.1-3.84c-7.85-7.85-21.73-7.37-21.73-7.37s-13.88-.48-21.73,7.37a25.4,25.4,0,0,0-2.29,2.59c-16.47-12.77-31.26-20.05-44-26.35V213.5l-9.7,4.57c-23.46-9.53-38.37-7.85-42,0,0,0-10.74,14.14,26.69,47.82V252.56c-21-23.54-16.82-32.81-15.22-34.15,5.82-4.91,16.17-3.45,27.76.91l-12.59,5.91v27.29a206,206,0,0,0,23.07,21.73l1.94,1.55V263c0-3,.73-7.84,4.66-7.84s4.57,3,4.57,6.46v21a114.69,114.69,0,0,0,24.88,12.76V254.85c0-8.07-5.78-16.13-17.51-16.13a19.09,19.09,0,0,0-16.6,9.44V224.75c18.07,9,36.18,20.05,43.08,25.14-4.4,6.29-4,12.11-4,18.84,0,8.06-.61,14.79,7.24,22.64s21.73,7.37,21.73,7.37,13.93.47,21.73-7.37,7.2-14.58,7.2-22.64.65-14.75-7.2-22.55Zm-17.12,31c0,1.55-.77,5.39-4.61,5.39s-4.61-3.84-4.61-5.39V259.76a4.61,4.61,0,1,1,9.22,0Zm80.07-31c-7.85-7.85-21.73-7.37-21.73-7.37s-13.93-.48-21.73,7.37-7.24,14.62-7.24,22.68-.61,14.79,7.24,22.64,21.73,7.37,21.73,7.37,13.93.47,21.73-7.37,7.25-14.58,7.25-22.64S691.7,254,683.89,246.18Zm-17.16,31c0,1.55-.77,5.39-4.61,5.39s-4.62-3.84-4.62-5.39V259.76a4.62,4.62,0,1,1,9.23,0Zm74.81-31.47A12.47,12.47,0,0,0,754,233.25c0-6.9-5.56-10.57-12.46-10.57s-12.46,3.71-12.46,10.57A12.47,12.47,0,0,0,741.54,245.71Zm-201.18,52,16.51.35a115,115,0,0,1-16.51-7.25Zm-9.23,0V285.33c-2.8-1.81-5.61-3.75-8.37-5.86-6.38-4.83-11.85-9.36-16.6-13.59v31.78Zm25.74.35c15.74,5.39,30.14,6.12,40.83,3.1a92.31,92.31,0,0,1-32.47-5.73v2.28Z"/><path class="cls-4" d="M440,467.78a76,76,0,1,0,76,76A76.08,76.08,0,0,0,440,467.78Zm50.25,35.05a64.59,64.59,0,0,1,14.66,40.44c-2.14-.46-23.6-4.81-45.2-2.09-1.77-4.31-3.43-8.09-5.71-12.76,24-9.79,34.88-23.74,36.25-25.59ZM483,495.32c-1.17,1.66-10.94,14.8-34,23.45a347.77,347.77,0,0,0-24.22-38A64.76,64.76,0,0,1,483,495.32ZM412.4,485.13a414.81,414.81,0,0,1,24.07,37.55,242,242,0,0,1-60,7.9A65.14,65.14,0,0,1,412.4,485.13Zm-37.32,58.75c0-.66,0-1.32,0-2,2.84.05,34.3.46,66.71-9.24,1.86,3.64,3.64,7.33,5.27,11-23.48,6.62-44.8,25.6-55.33,43.61A64.63,64.63,0,0,1,375.08,543.88Zm25.07,51.21c6.79-13.86,25.19-31.75,51.36-40.68a270.48,270.48,0,0,1,13.85,49.23A64.79,64.79,0,0,1,400.15,595.09Zm76.12,2.6a279.52,279.52,0,0,0-12.61-46.28,95.24,95.24,0,0,1,40.43,2.77A65,65,0,0,1,476.27,597.69Z"/><path class="cls-4" d="M1745,558.81c0,4.76-3.52,8.66-8,8.66s-8-3.9-8-8.66,3.51-8.67,8-8.67S1745,554,1745,558.81Zm-36.46-8.67c-4.45,0-8,3.9-8,8.67s3.59,8.66,8,8.66,8-3.9,8-8.66S1713,550.14,1708.56,550.14ZM1791,500.72V640.78c-19.67-17.38-13.38-11.63-36.23-32.87l4.14,14.45h-88.53a16,16,0,0,1-16-16.09V500.72a16,16,0,0,1,16-16.08H1775A16,16,0,0,1,1791,500.72Zm-22.25,74c0-25.14-11.24-45.51-11.24-45.51-11.24-8.43-21.94-8.2-21.94-8.2l-1.09,1.25c13.27,4.06,19.44,9.91,19.44,9.91a66.36,66.36,0,0,0-58.32-2.26c-2.89,1.33-4.61,2.26-4.61,2.26s6.48-6.16,20.53-10.22l-.78-.94s-10.69-.23-21.94,8.2c0,0-11.24,20.37-11.24,45.51,0,0,6.56,11.32,23.81,11.87,0,0,2.89-3.51,5.23-6.48-9.91-3-13.66-9.21-13.66-9.21,1.15.8,3,1.84,3.2,2a56.9,56.9,0,0,0,48.72,2.73,44.83,44.83,0,0,0,9-4.6s-3.91,6.4-14.13,9.29c2.34,3,5.15,6.32,5.15,6.32,17.25-.55,23.89-11.87,23.89-11.87Z"/><path class="cls-4" d="M1627,358.37V383.2a40,40,0,0,1-40,40c-22,0-40-17.74-40-39.64v-25l12.22,5.7,18.19-5.42V384a9.53,9.53,0,0,0,19.06,0V358.37Zm-80-20.72,12.21,5.7,18.2-5.42V325.25c0-21.54-18.2-38.81-39.92-38.81s-39.92,17.16-39.92,38.53v57.84a9.51,9.51,0,0,1-19,0V358.37H1447.9V383.2a40,40,0,0,0,40,40c21.94,0,40-17.63,40-39.46V326.64a9.51,9.51,0,1,1,19,0v11Z"/><path class="cls-4" d="M1013.12,731.2l6.81,20.35-21.09,7.06L992,738.26l21.09-7.06Zm14.61,86c-54.32,16.29-77.81,3.67-94.11-50.65s-3.66-77.81,50.65-94.1,77.81-3.67,94.11,50.64,3.66,77.81-50.65,94.11Zm28.43-69.2a8.22,8.22,0,0,0-10.37-5.19l-10.23,3.42-6.81-20.35,10.23-3.42a8.2,8.2,0,0,0-5.19-15.56l-10.23,3.43L1020,699.67a8.2,8.2,0,1,0-15.56,5.18l3.53,10.62-21.09,7.09-3.53-10.62a8.2,8.2,0,1,0-15.55,5.19l3.52,10.62-10.22,3.42A8.2,8.2,0,0,0,956,741.54a8.47,8.47,0,0,0,7.58,5.57c1.52.21,2.72-.35,13-3.78l6.81,20.36-10.23,3.42a8.21,8.21,0,0,0-5.19,10.37,8.48,8.48,0,0,0,7.59,5.57c1.51.21,2.71-.35,13-3.77l3.53,10.61a8.38,8.38,0,0,0,10.37,5.19,8.21,8.21,0,0,0,5.18-10.37l-3.52-10.62,21.09-7.09,3.52,10.62a8.37,8.37,0,0,0,10.37,5.18,8.21,8.21,0,0,0,5.19-10.37l-3.53-10.61L1051,758.4a8.36,8.36,0,0,0,5.19-10.44Z"/></g></g></svg>