<svg xmlns="http://www.w3.org/2000/svg" xmlns:xlink="http://www.w3.org/1999/xlink" viewBox="0 0 1921 1717"><defs><style>.cls-1{fill:url(#Degradado_sin_nombre_4);}.cls-2{fill:#fff;opacity:0.2;}</style><linearGradient id="Degradado_sin_nombre_4" x1="1218.65" y1="-174.9" x2="703.24" y2="1892.34" gradientUnits="userSpaceOnUse"><stop offset="0" stop-color="#2f80ff"/><stop offset="0.12" stop-color="#328dfd"/><stop offset="1" stop-color="#49e8ee"/></linearGradient></defs><title>fondo reacciones</title><g id="Capa_2" data-name="Capa 2"><g id="Capa_1-2" data-name="Capa 1"><path class="cls-1" d="M1,0S873,114,1921,.22V1717H0Z"/><path class="cls-2" d="M145.71,604.17c-13.24-11.29-32.93-9.26-45.09,3.29l-4.76,4.9-4.76-4.9C79,594.91,59.25,592.88,46,604.17a34.7,34.7,0,0,0-2.39,50.24L90.37,702.7a7.59,7.59,0,0,0,10.95,0l46.76-48.29a34.67,34.67,0,0,0-2.37-50.24Z"/><path class="cls-2" d="M290.71,370.17c-13.24-11.29-32.93-9.26-45.09,3.29l-4.76,4.9-4.76-4.9c-12.13-12.55-31.85-14.58-45.1-3.29a34.7,34.7,0,0,0-2.39,50.24l46.76,48.29a7.59,7.59,0,0,0,10.95,0l46.76-48.29a34.67,34.67,0,0,0-2.37-50.24Z"/><path class="cls-2" d="M1836.71,604.17c-13.24-11.29-32.93-9.26-45.09,3.29l-4.76,4.9-4.76-4.9c-12.13-12.55-31.85-14.58-45.1-3.29a34.7,34.7,0,0,0-2.39,50.24l46.76,48.29a7.59,7.59,0,0,0,11,0l46.76-48.29a34.67,34.67,0,0,0-2.37-50.24Z"/><path class="cls-2" d="M985.71,877.17c-13.24-11.29-32.93-9.26-45.09,3.29l-4.76,4.9-4.76-4.9c-12.13-12.55-31.85-14.58-45.1-3.29a34.7,34.7,0,0,0-2.39,50.24l46.76,48.29a7.59,7.59,0,0,0,11,0l46.76-48.29a34.67,34.67,0,0,0-2.37-50.24Z"/><path class="cls-2" d="M1555.42,220.48c-15.83-13.49-39.36-11.06-53.89,3.92l-5.69,5.87-5.69-5.87c-14.49-15-38.05-17.41-53.88-3.92a41.46,41.46,0,0,0-2.86,60l55.88,57.7a9.06,9.06,0,0,0,13.08,0l55.88-57.7c16.25-16.78,15.3-44.56-2.83-60Z"/><path class="cls-2" d="M375.58,201.46H356.25a5.79,5.79,0,0,0-5.8,5.8v58a5.8,5.8,0,0,0,5.8,5.8h19.33a5.8,5.8,0,0,0,5.8-5.8v-58A5.8,5.8,0,0,0,375.58,201.46Zm-9.67,59.93a5.8,5.8,0,1,1,5.8-5.8A5.8,5.8,0,0,1,365.91,261.39ZM443.25,167c0,10.25-6.28,16-8.05,22.85h24.59a14.44,14.44,0,0,1,14.39,14,17.49,17.49,0,0,1-4.7,11.89l0,0A20.19,20.19,0,0,1,467.21,235a19.15,19.15,0,0,1-4,18.07c1,4.25.54,7.87-1.49,10.78-4.93,7.09-17.16,7.19-27.49,7.19h-.69c-11.67,0-21.22-4.26-28.9-7.67-3.85-1.72-8.89-3.84-12.72-3.91a2.9,2.9,0,0,1-2.85-2.9V204.92a2.92,2.92,0,0,1,.86-2.06c9.58-9.46,13.69-19.47,21.54-27.33,3.58-3.59,4.88-9,6.14-14.24,1.07-4.47,3.32-14,8.2-14C431.65,147.33,443.25,149.26,443.25,167Z"/><path class="cls-2" d="M1168.58,175.46h-19.33a5.79,5.79,0,0,0-5.8,5.8v58a5.8,5.8,0,0,0,5.8,5.8h19.33a5.8,5.8,0,0,0,5.8-5.8v-58A5.8,5.8,0,0,0,1168.58,175.46Zm-9.67,59.93a5.8,5.8,0,1,1,5.8-5.8A5.8,5.8,0,0,1,1158.91,235.39ZM1236.25,141c0,10.25-6.28,16-8,22.85h24.59a14.44,14.44,0,0,1,14.39,14,17.49,17.49,0,0,1-4.7,11.89l0,0a20.19,20.19,0,0,1-2.24,19.21,19.15,19.15,0,0,1-4,18.07c1,4.25.54,7.87-1.49,10.78-4.93,7.09-17.16,7.19-27.49,7.19h-.69c-11.67,0-21.22-4.26-28.9-7.67-3.85-1.72-8.89-3.84-12.72-3.91a2.9,2.9,0,0,1-2.85-2.9V178.92a2.92,2.92,0,0,1,.86-2.06c9.58-9.46,13.69-19.47,21.54-27.33,3.58-3.59,4.88-9,6.14-14.24,1.07-4.47,3.32-14,8.2-14C1224.65,121.33,1236.25,123.26,1236.25,141Z"/><path class="cls-2" d="M1602,422.21h-16.9a5.07,5.07,0,0,0-5.07,5.07V478a5.07,5.07,0,0,0,5.07,5.07H1602A5.07,5.07,0,0,0,1607,478V427.28A5.07,5.07,0,0,0,1602,422.21Zm-8.45,52.4a5.08,5.08,0,1,1,5.07-5.07A5.07,5.07,0,0,1,1593.52,474.61Zm67.61-82.52c0,9-5.48,14-7,20h21.5a12.63,12.63,0,0,1,12.58,12.28,15.33,15.33,0,0,1-4.11,10.4l0,0a17.64,17.64,0,0,1-2,16.79,16.67,16.67,0,0,1-3.46,15.79c.91,3.72.47,6.89-1.3,9.43-4.31,6.2-15,6.29-24,6.29h-.6c-10.2,0-18.55-3.72-25.26-6.71-3.37-1.5-7.78-3.35-11.12-3.41a2.54,2.54,0,0,1-2.49-2.54V425.23a2.55,2.55,0,0,1,.75-1.8c8.37-8.27,12-17,18.83-23.9,3.12-3.13,4.26-7.86,5.36-12.44.94-3.91,2.91-12.21,7.17-12.21C1651,374.88,1661.13,376.57,1661.13,392.09Z"/><path class="cls-2" d="M1191.58,800.46h-19.33a5.79,5.79,0,0,0-5.8,5.8v58a5.8,5.8,0,0,0,5.8,5.8h19.33a5.8,5.8,0,0,0,5.8-5.8v-58A5.8,5.8,0,0,0,1191.58,800.46Zm-9.67,59.93a5.8,5.8,0,1,1,5.8-5.8A5.8,5.8,0,0,1,1181.91,860.39ZM1259.25,766c0,10.25-6.28,16-8,22.85h24.59a14.44,14.44,0,0,1,14.39,14,17.49,17.49,0,0,1-4.7,11.89l0,0a20.19,20.19,0,0,1-2.24,19.21,19.15,19.15,0,0,1-4,18.07c1,4.25.54,7.87-1.49,10.78-4.93,7.09-17.16,7.19-27.49,7.19h-.69c-11.67,0-21.22-4.26-28.9-7.67-3.85-1.72-8.89-3.84-12.72-3.91a2.9,2.9,0,0,1-2.85-2.9V803.92a2.92,2.92,0,0,1,.86-2.06c9.58-9.46,13.69-19.47,21.54-27.33,3.58-3.59,4.88-9,6.14-14.24,1.07-4.47,3.32-14,8.2-14C1247.65,746.33,1259.25,748.26,1259.25,766Z"/><path class="cls-2" d="M316.84,785.69h-27a8.11,8.11,0,0,0-8.1,8.11v81.09a8.11,8.11,0,0,0,8.1,8.11h27a8.11,8.11,0,0,0,8.11-8.11V793.8A8.11,8.11,0,0,0,316.84,785.69Zm-13.51,83.8a8.11,8.11,0,1,1,8.11-8.11A8.12,8.12,0,0,1,303.33,869.49Zm108.12-132c0,14.33-8.78,22.37-11.25,32h34.37a20.18,20.18,0,0,1,20.12,19.63,24.49,24.49,0,0,1-6.56,16.62l0,0c3.32,7.88,2.78,18.93-3.15,26.85,2.94,8.74,0,19.49-5.53,25.25,1.45,6,.76,11-2.08,15.08-6.89,9.91-24,10-38.44,10h-1c-16.31,0-29.67-6-40.4-10.72-5.39-2.4-12.44-5.37-17.78-5.47a4.06,4.06,0,0,1-4-4V790.54a4,4,0,0,1,1.21-2.88c13.38-13.23,19.14-27.23,30.11-38.22,5-5,6.82-12.58,8.58-19.9,1.5-6.25,4.64-19.53,11.46-19.53C395.23,710,411.45,712.71,411.45,737.53Z"/><path class="cls-2" d="M1545.68,645.3l-26.1-7.63a7.13,7.13,0,0,1,2-14h16a14.72,14.72,0,0,1,8.27,2.54,3.76,3.76,0,0,0,4.71-.49l8.41-8.21a3.91,3.91,0,0,0-.44-5.92,34.13,34.13,0,0,0-20.9-7.25v-11.6a3.88,3.88,0,0,0-3.87-3.87h-7.73a3.88,3.88,0,0,0-3.87,3.87v11.6h-.6a26.47,26.47,0,0,0-26.34,28.9c1,11.14,9.52,20.2,20.25,23.34l24.77,7.25a7.13,7.13,0,0,1-2,14h-16a14.67,14.67,0,0,1-8.26-2.54,3.77,3.77,0,0,0-4.71.49l-8.41,8.21a3.92,3.92,0,0,0,.43,5.93,34.21,34.21,0,0,0,20.9,7.25v11.59a3.88,3.88,0,0,0,3.87,3.87h7.73a3.88,3.88,0,0,0,3.87-3.87V697.12c11.26-.22,21.82-6.91,25.54-17.57a26.54,26.54,0,0,0-17.52-34.25Z"/><path class="cls-2" d="M696.68,802.3l-26.1-7.63a7.13,7.13,0,0,1,2-14h16a14.72,14.72,0,0,1,8.27,2.54,3.76,3.76,0,0,0,4.71-.49l8.41-8.21a3.91,3.91,0,0,0-.44-5.92,34.13,34.13,0,0,0-20.9-7.25v-11.6a3.88,3.88,0,0,0-3.87-3.87h-7.73a3.88,3.88,0,0,0-3.87,3.87v11.6h-.6a26.47,26.47,0,0,0-26.34,28.9c1,11.14,9.52,20.2,20.25,23.34l24.77,7.25a7.13,7.13,0,0,1-2,14h-16a14.67,14.67,0,0,1-8.26-2.54,3.77,3.77,0,0,0-4.71.49L651.86,841a3.92,3.92,0,0,0,.43,5.93,34.21,34.21,0,0,0,20.9,7.25v11.59a3.88,3.88,0,0,0,3.87,3.87h7.73a3.88,3.88,0,0,0,3.87-3.87V854.12c11.26-.22,21.82-6.91,25.54-17.57a26.54,26.54,0,0,0-17.52-34.25Z"/><path class="cls-2" d="M150.49,130.62l-33.13-9.7a9,9,0,0,1,2.54-17.73h20.35a18.7,18.7,0,0,1,10.49,3.22,4.77,4.77,0,0,0,6-.62L167.4,95.36a5,5,0,0,0-.55-7.52,43.4,43.4,0,0,0-26.54-9.2V63.91A4.93,4.93,0,0,0,135.4,59h-9.82a4.93,4.93,0,0,0-4.91,4.91V78.64h-.77a33.62,33.62,0,0,0-33.44,36.7C87.75,129.48,98.55,141,112.17,145l31.45,9.2a9.05,9.05,0,0,1-2.55,17.74H120.73a18.78,18.78,0,0,1-10.49-3.22,4.8,4.8,0,0,0-6,.61L93.58,179.74a5,5,0,0,0,.55,7.52,43.39,43.39,0,0,0,26.54,9.21v14.72a4.93,4.93,0,0,0,4.91,4.91h9.82a4.93,4.93,0,0,0,4.91-4.91V196.4c14.3-.27,27.71-8.77,32.43-22.3a33.69,33.69,0,0,0-22.25-43.48Z"/><path class="cls-2" d="M1759.49,137.62l-33.13-9.7a9,9,0,0,1,2.54-17.73h20.35a18.7,18.7,0,0,1,10.49,3.22,4.77,4.77,0,0,0,6-.62l10.68-10.43a5,5,0,0,0-.55-7.52,43.4,43.4,0,0,0-26.54-9.2V70.91A4.93,4.93,0,0,0,1744.4,66h-9.82a4.93,4.93,0,0,0-4.91,4.91V85.64h-.77a33.62,33.62,0,0,0-33.44,36.7c1.29,14.14,12.09,25.65,25.71,29.64l31.45,9.2a9.05,9.05,0,0,1-2.55,17.74h-20.34a18.78,18.78,0,0,1-10.49-3.22,4.8,4.8,0,0,0-6,.61l-10.67,10.43a5,5,0,0,0,.55,7.52,43.39,43.39,0,0,0,26.54,9.21v14.72a4.93,4.93,0,0,0,4.91,4.91h9.82a4.93,4.93,0,0,0,4.91-4.91V203.4c14.3-.27,27.71-8.77,32.43-22.3a33.69,33.69,0,0,0-22.25-43.48Z"/><path class="cls-2" d="M826.49,211.62l-33.13-9.7a9,9,0,0,1,2.54-17.73h20.35a18.7,18.7,0,0,1,10.49,3.22,4.77,4.77,0,0,0,6-.62l10.68-10.43a5,5,0,0,0-.55-7.52,43.4,43.4,0,0,0-26.54-9.2V144.91A4.93,4.93,0,0,0,811.4,140h-9.82a4.93,4.93,0,0,0-4.91,4.91v14.73h-.77a33.62,33.62,0,0,0-33.44,36.7c1.29,14.14,12.09,25.65,25.71,29.64l31.45,9.2a9.05,9.05,0,0,1-2.55,17.74H796.73a18.78,18.78,0,0,1-10.49-3.22,4.8,4.8,0,0,0-6,.61l-10.67,10.43a5,5,0,0,0,.55,7.52,43.39,43.39,0,0,0,26.54,9.21v14.72a4.93,4.93,0,0,0,4.91,4.91h9.82a4.93,4.93,0,0,0,4.91-4.91V277.4c14.3-.27,27.71-8.77,32.43-22.3a33.69,33.69,0,0,0-22.25-43.48Z"/><path class="cls-2" d="M1868.49,351.62l-33.13-9.7a9,9,0,0,1,2.54-17.73h20.35a18.7,18.7,0,0,1,10.49,3.22,4.77,4.77,0,0,0,6-.62l10.68-10.43a5,5,0,0,0-.55-7.52,43.4,43.4,0,0,0-26.54-9.2V284.91a4.93,4.93,0,0,0-4.91-4.91h-9.82a4.93,4.93,0,0,0-4.91,4.91v14.73h-.77a33.62,33.62,0,0,0-33.44,36.7c1.29,14.14,12.09,25.65,25.71,29.64l31.45,9.2a9.05,9.05,0,0,1-2.55,17.74h-20.34a18.78,18.78,0,0,1-10.49-3.22,4.8,4.8,0,0,0-6,.61l-10.67,10.43a5,5,0,0,0,.55,7.52,43.39,43.39,0,0,0,26.54,9.21v14.72a4.93,4.93,0,0,0,4.91,4.91h9.82a4.93,4.93,0,0,0,4.91-4.91V417.4c14.3-.27,27.71-8.77,32.43-22.3a33.69,33.69,0,0,0-22.25-43.48Z"/></g></g></svg>