<svg xmlns="http://www.w3.org/2000/svg" viewBox="0 0 62.91 62.91"><defs><style>.cls-1{fill:#fff;}</style></defs><title>Recurso 111</title><g id="Capa_2" data-name="Capa 2"><g id="Capa_1-2" data-name="Capa 1"><path class="cls-1" d="M31.46.35A31,31,0,0,0,21.58,2a1.6,1.6,0,1,0,1,3,27.9,27.9,0,1,1-19,26.46c0-6.18.72-10.7,4.43-15.51,0,0,.76-.84,1.46-.75.35,0,1.29.41,2.42,2.86,3.06,6.64,9.78,24,9.84,24.12a1.63,1.63,0,0,0,1.45,1h.05a1.63,1.63,0,0,0,1.46-.94l6.89-15,6.75,15a1.58,1.58,0,0,0,1.48,1,1.62,1.62,0,0,0,1.46-1l8-19.14a1.6,1.6,0,0,0-3-1.23L39.72,37.58,33,22.7a1.6,1.6,0,0,0-1.46-.95h0a1.61,1.61,0,0,0-1.46.94L23.33,37.5C21.18,32,17.05,21.66,14.78,16.72c-1.32-2.88-3-4.46-4.94-4.7A5.18,5.18,0,0,0,5.48,14h0C1.21,19.5.35,24.76.35,31.46A31.11,31.11,0,1,0,31.46.35Z"/><path class="cls-1" d="M31.46,62.91A31.49,31.49,0,0,1,0,31.46c0-6.78.87-12.1,5.18-17.7l0,0a5.54,5.54,0,0,1,4.68-2.05c2.08.25,3.83,1.9,5.21,4.9,2.16,4.7,6,14.25,8.25,20L29.8,22.54a2,2,0,0,1,3.56,0l6.35,14.14,6.27-15A2,2,0,0,1,47,20.65a2,2,0,0,1,1.5,0,2,2,0,0,1,1,2.56l-8,19.14a2,2,0,0,1-3.59,0L31.56,28.09,25,42.42a2,2,0,0,1-1.78,1.14h-.06a1.93,1.93,0,0,1-1.76-1.25c-.07-.17-6.78-17.46-9.84-24.1-1.11-2.42-2-2.64-2.14-2.66-.45-.06-1,.45-1.16.63C4.62,20.9,3.91,25.36,3.91,31.46A27.53,27.53,0,1,0,22.71,5.33a2,2,0,0,1-1.24-3.7,31.45,31.45,0,1,1,10,61.28ZM5.72,14.21C1.54,19.64.7,24.84.7,31.46A30.8,30.8,0,1,0,21.7,2.3a1.24,1.24,0,0,0-.79,1.58,1.26,1.26,0,0,0,1.58.79A28.25,28.25,0,1,1,3.21,31.46c0-6.25.73-10.83,4.5-15.73a2.35,2.35,0,0,1,1.79-.88c.5.06,1.53.54,2.69,3.06,3.07,6.66,9.79,24,9.85,24.15a1.24,1.24,0,0,0,1.13.79h0a1.24,1.24,0,0,0,1.13-.73l7.22-15.75,7.07,15.74a1.22,1.22,0,0,0,1.14.74,1.26,1.26,0,0,0,1.15-.77l8-19.14a1.28,1.28,0,0,0,0-1,1.26,1.26,0,0,0-.68-.68,1.26,1.26,0,0,0-1.63.67l-6.9,16.48-7-15.62a1.28,1.28,0,0,0-1.14-.74,1.26,1.26,0,0,0-1.14.73L23.3,38.4l-.3-.77C20.78,32,16.72,21.76,14.46,16.87c-1.27-2.77-2.84-4.28-4.66-4.5a4.8,4.8,0,0,0-4,1.78Z"/></g></g></svg>