
<svg xmlns="http://www.w3.org/2000/svg" viewBox="0 0 218 218"><defs><style>.cls-1,.cls-2{fill:#2f80ff;}.cls-1{opacity:0.05;isolation:isolate;}</style></defs><title>Grupo 919</title><g id="Layer_2" data-name="Layer 2"><g id="Capa_1" data-name="Capa 1"><g id="Grupo_919" data-name="Grupo 919"><circle id="Elipse_157" data-name="Elipse 157" class="cls-1" cx="109" cy="109" r="109"/><g id="employee"><g id="Grupo_889" data-name="Grupo 889"><path id="Trazado_4512" data-name="Trazado 4512" class="cls-2" d="M175,153.05a2,2,0,0,0-2,2h0v13.41a.34.34,0,0,1-.34.34H165V139.48a2,2,0,0,0-4,0V168.8H146.27l4-4.39a3.17,3.17,0,0,0,.77-2.57v-.06l-4.49-26.49.83-1.25.21.16a3.14,3.14,0,0,0,4.38-.75,2.5,2.5,0,0,0,.25-.41h0l4.56-9.15,10.43,4A10,10,0,0,1,173,137v8.7a2,2,0,0,0,4,0V137a14,14,0,0,0-8.29-12.78h0l-17.75-6.87v-3.66a14.66,14.66,0,0,0,5.3-9.1,7.09,7.09,0,0,0,3.73-1.64,6.91,6.91,0,0,0,.84-9.61V87.9a19.21,19.21,0,0,0-31.7-14.6,6.86,6.86,0,0,0-1.56-4.18V63.7a19.22,19.22,0,1,0-38.44-.27v5.83a6.57,6.57,0,0,0-1.55,4,19.15,19.15,0,0,0-7.57-4,2,2,0,0,0-1,3.89A15.21,15.21,0,0,1,90.28,87.9v3l-.37-.07a2.36,2.36,0,0,0-.48-1.35c-.52-.74-1.44-1.66-4.4-4.85a3.17,3.17,0,0,0-4.07-.5,28.73,28.73,0,0,1-17,4.68,3.2,3.2,0,0,0-3.53,2l-.57.12V87.9A15.3,15.3,0,0,1,70.68,73.34a2,2,0,1,0-1.16-3.84,19.44,19.44,0,0,0-9.8,6.83A19.11,19.11,0,0,0,55.85,87.9v5.56a6.61,6.61,0,0,0-1.56,4.23,6.94,6.94,0,0,0,6.14,6.88,14.87,14.87,0,0,0,5.6,9.34v3.42L48.3,124.2l0,0A14,14,0,0,0,40,137v31.47a4.36,4.36,0,0,0,4.35,4.36h61.81a4.43,4.43,0,0,0,2.35-.7,4.34,4.34,0,0,0,2.35.7h61.81a4.36,4.36,0,0,0,4.35-4.36V155.05A2,2,0,0,0,175,153.05ZM60.24,100.42a2.89,2.89,0,0,1-1.93-2.73,3,3,0,0,1,1.93-2.61Zm92.78,22-3.94,7.9-4.44-3.15,4.92-6.08Zm-11.28,2-5.2-6.41v-1.93a16.32,16.32,0,0,0,5.22.86h0a15.15,15.15,0,0,0,5.16-.94v2Zm2.35,7.33-.74,1.11h-3.23l-.74-1.11,2.36-1.67Zm-35.61-31.53-5.19-6.41V91.86a16.22,16.22,0,0,0,5.22.85h0a14.84,14.84,0,0,0,5.15-.93v2Zm2.36,7.33-.74,1.11h-3.23l-.74-1.11,2.35-1.67ZM92.68,80.18a6.91,6.91,0,0,0,1,.19,14.81,14.81,0,0,0,5.59,9.34v3.42l-4.1,1.59a7,7,0,0,0-.88-1.4V87.9A19.16,19.16,0,0,0,92.68,80.18Zm26.47-2.12a10.82,10.82,0,0,1-21.64,0v-9.4a32.94,32.94,0,0,0,18.3-5c1.81,1.94,2.88,3.07,3.34,3.6ZM123,80.37a8.4,8.4,0,0,0,1-.19,19,19,0,0,0-1.62,7.72v5.56a6.72,6.72,0,0,0-.8,1.17l-3.88-1.5V89.47A14.61,14.61,0,0,0,123,80.37ZM100.65,96.91l4.93,6.08-3.36,2.39h0l-1.07.75-3.94-7.9Zm12.45,4,3.21-4,3.45,1.34-3.94,7.9-1.06-.76h0L111.39,103Zm1,9,.21.16a3.14,3.14,0,0,0,4.38-.75,2.5,2.5,0,0,0,.25-.41h0l3.39-6.79a7,7,0,0,0,4.58,2.52,14.56,14.56,0,0,0,5.6,9.33v3.42l-17.06,6.62-2.18-12.85ZM133.9,121.1l4.93,6.09-4.43,3.14-3.94-7.9Zm18.5-18.85a10.82,10.82,0,0,1-21.64,0v-9.4a32.85,32.85,0,0,0,18.3-5c1.81,1.94,2.88,3.07,3.34,3.59v10.78Zm5.95-4.56a2.9,2.9,0,0,1-1.93,2.73V95a2.88,2.88,0,0,1,1.92,2.73Zm-32-9.79a15.21,15.21,0,1,1,30.42,0v3l-.38-.07a2.29,2.29,0,0,0-.48-1.35c-.53-.76-1.44-1.66-4.4-4.85a3.17,3.17,0,0,0-4.07-.5,28.71,28.71,0,0,1-17.14,4.67,3.16,3.16,0,0,0-3.38,2.06l-.57.11V87.89Zm.37,7.18v5.34a2.9,2.9,0,0,1-1.93-2.73,3,3,0,0,1,1.93-2.61Zm-1.65-21.59a2.85,2.85,0,0,1-1,2.19,2.76,2.76,0,0,1-.92.54V70.76A2.9,2.9,0,0,1,125.09,73.49Zm-16.76-25A15.23,15.23,0,0,1,123.54,63.7v3l-.38-.06a2.41,2.41,0,0,0-.57-1.48c-.54-.73-1.53-1.73-4.31-4.73a3.18,3.18,0,0,0-4.07-.5,28.64,28.64,0,0,1-17.3,4.66,3.19,3.19,0,0,0-3.22,2.07l-.57.12V63.7h0a15.22,15.22,0,0,1,15.21-15.2ZM93.49,70.88v5.34a2.89,2.89,0,0,1-1.93-2.73A3,3,0,0,1,93.49,70.88ZM89.91,95a2.9,2.9,0,0,1,0,5.46Zm-.18,9.61a7.08,7.08,0,0,0,4.77-2.77l3.51,7h0a3.13,3.13,0,0,0,4.21,1.4,2.86,2.86,0,0,0,.42-.24l.21-.16.83,1.24-2.18,12.86-17.07-6.61v-3.66h0a14.66,14.66,0,0,0,5.3-9.1Zm-14.5,19.82L70,118v-1.93a16.28,16.28,0,0,0,5.22.86h0a15,15,0,0,0,5.15-.94v2Zm2.36,7.33-.74,1.11H73.62l-.74-1.11,2.35-1.67Zm5.47-10.62,3.45,1.34-3.94,7.9-1.07-.76h0l-3.36-2.39ZM64.25,102.25v-9.4a33,33,0,0,0,18.3-5c1.8,1.92,2.89,3.06,3.34,3.59v10.78a10.82,10.82,0,0,1-21.64,0ZM67.4,121.1l4.93,6.09L69,129.57h0l-1.06.76L64,122.43ZM56,168.8V139.48a2,2,0,1,0-4,0V168.8H44.33a.34.34,0,0,1-.33-.34V137a10,10,0,0,1,5.78-9.06l10.42-4L64.76,133h0A3.15,3.15,0,0,0,69,134.45c.14-.08.28-.16.41-.25l.22-.16.82,1.25L66,161.78s0,0,0,.06a3.21,3.21,0,0,0,.78,2.58l4,4.38ZM70,162l4.27-25.18h2L80.5,162l-5.26,5.79Zm36.51,6.43a.34.34,0,0,1-.34.34H98.52V139.48a2,2,0,0,0-4,0V168.8H79.77l4-4.39a3.21,3.21,0,0,0,.77-2.57.13.13,0,0,0,0-.06L80,135.29l.83-1.25.21.16a3.15,3.15,0,0,0,4.38-.74,3.09,3.09,0,0,0,.25-.42h0l4.56-9.14,10.43,4a10,10,0,0,1,5.78,9.06v31.47Zm2-38.77a14.15,14.15,0,0,0-3.27-3.63l2.27-13.41h2l2.27,13.42a14.28,14.28,0,0,0-3.27,3.62Zm14,39.11h0V139.48a2,2,0,1,0-4,0h0V168.8h-7.62a.34.34,0,0,1-.34-.34V137a9.59,9.59,0,0,1,2.34-6.43,10.92,10.92,0,0,1,3.44-2.63l10.42-4,4.56,9.15h0a3.15,3.15,0,0,0,4.22,1.41c.14-.08.28-.16.41-.25l.22-.16.82,1.25-4.48,26.49s0,0,0,.06a3.21,3.21,0,0,0,.78,2.58l4,4.38H122.47Zm14-6.77,4.27-25.19h2L147,162l-5.26,5.79Z"/></g></g></g></g></g></svg>