
<svg xmlns="http://www.w3.org/2000/svg" viewBox="0 0 218 218"><defs><style>.cls-1,.cls-2{fill:#2f80ff;}.cls-1{opacity:0.05;isolation:isolate;}</style></defs><title>Grupo 920</title><g id="Layer_2" data-name="Layer 2"><g id="Capa_1" data-name="Capa 1"><g id="Grupo_920" data-name="Grupo 920"><circle id="Elipse_158" data-name="Elipse 158" class="cls-1" cx="109" cy="109" r="109"/><g id="social-media"><g id="Grupo_903" data-name="Grupo 903"><g id="Grupo_902" data-name="Grupo 902"><rect id="Rect치ngulo_451" data-name="Rect치ngulo 451" class="cls-2" x="86.33" y="54.35" width="44.3" height="4.43"/></g></g><g id="Grupo_905" data-name="Grupo 905"><g id="Grupo_904" data-name="Grupo 904"><path id="Trazado_4521" data-name="Trazado 4521" class="cls-2" d="M151.67,126.33a7.76,7.76,0,0,0-7.75-7.75h-4.43v-31h-4.43v31h-5.54a7.74,7.74,0,0,0-5.4,13.29,7.66,7.66,0,0,0-1.17,9.6,7.74,7.74,0,0,0-4.5,7,7.64,7.64,0,0,0,.78,3.32H101.84a19.93,19.93,0,0,0-8.57-16.37A13.31,13.31,0,0,0,101.84,123a2.22,2.22,0,0,0-2.21-2.22H81.9V98.64H77.47v22.15a6.67,6.67,0,0,0-6.65,6.65v48.73h4.43V127.44a2.23,2.23,0,0,1,2.22-2.22H97.12a8.88,8.88,0,0,1-8.57,6.65H81.9a2.22,2.22,0,1,0,0,4.43h0a15.51,15.51,0,0,1,15.5,15.5V154a2.21,2.21,0,0,0,2.21,2.22h13a7.5,7.5,0,0,0-.78,3.32,7.75,7.75,0,0,0,7.75,7.75v8.86H124V167.3h10a7.76,7.76,0,0,0,7.75-7.75,7.65,7.65,0,0,0-.8-3.35,7.69,7.69,0,0,0,6.26-11.79,7.7,7.7,0,0,0,3.8-10.22,7.58,7.58,0,0,0-1.64-2.32A7.71,7.71,0,0,0,151.67,126.33ZM134,162.88h-14.4a3.33,3.33,0,0,1,0-6.65H134a3.33,3.33,0,0,1,0,6.65Zm6.65-11.08H126.2a3.32,3.32,0,1,1,0-6.64h14.4a3.32,3.32,0,1,1,0,6.64Zm3.32-11.07h-14.4a3.33,3.33,0,0,1,0-6.65h14.4a3.33,3.33,0,1,1,0,6.65Zm0-11.08h-14.4a3.32,3.32,0,0,1,0-6.64h14.4a3.32,3.32,0,1,1,0,6.64Z"/></g></g><g id="Grupo_907" data-name="Grupo 907"><g id="Grupo_906" data-name="Grupo 906"><path id="Trazado_4522" data-name="Trazado 4522" class="cls-2" d="M75.25,71.46a2.21,2.21,0,0,0-.87-1.6l-2.31-1.75a6,6,0,0,0-12,1.11,12.94,12.94,0,0,1-5-2l-.78-.53a2.22,2.22,0,0,0-3.45,1.84v1.82a12.8,12.8,0,0,0,2.3,7.35l-1.66,1.68a2.22,2.22,0,0,0,1.57,3.77H63.84a8.4,8.4,0,0,0,8.3-7.45l2.48-2.51A2.28,2.28,0,0,0,75.25,71.46Zm-6.85,1.7a2.24,2.24,0,0,0-.64,1.56,4,4,0,0,1-3.92,4H58.2a2.24,2.24,0,0,0-.45-2.45,8.38,8.38,0,0,1-2.15-3.78,17.33,17.33,0,0,0,6.71,1.35,2.21,2.21,0,0,0,2.21-2.21h0V69.3a1.62,1.62,0,0,1,3.24-.12v.12a2.21,2.21,0,0,0,.87,1.76l1.06.8Z"/></g></g><g id="Grupo_909" data-name="Grupo 909"><g id="Grupo_908" data-name="Grupo 908"><path id="Trazado_4523" data-name="Trazado 4523" class="cls-2" d="M115.12,80.92V76.49h-6.64a2.22,2.22,0,0,0-2.22,2.22h0v6.64h-4.43v4.43h4.43v8.86h4.43V89.78h4.43V85.35h-4.43V80.92Z"/></g></g><g id="Grupo_911" data-name="Grupo 911"><g id="Grupo_910" data-name="Grupo 910"><path id="Trazado_4524" data-name="Trazado 4524" class="cls-2" d="M121.77,67.64H95.19a6.65,6.65,0,0,0-6.65,6.64v26.58a6.67,6.67,0,0,0,6.65,6.65h26.58a6.65,6.65,0,0,0,6.64-6.65V74.28A6.64,6.64,0,0,0,121.77,67.64ZM124,100.86a2.21,2.21,0,0,1-2.21,2.21H95.19A2.21,2.21,0,0,1,93,100.86V74.28a2.21,2.21,0,0,1,2.22-2.21h26.58A2.21,2.21,0,0,1,124,74.28Z"/></g></g><g id="Grupo_913" data-name="Grupo 913"><g id="Grupo_912" data-name="Grupo 912"><path id="Trazado_4525" data-name="Trazado 4525" class="cls-2" d="M75.25,54.35H48.67A6.64,6.64,0,0,0,42,61V87.57a6.66,6.66,0,0,0,6.64,6.65H75.25a6.66,6.66,0,0,0,6.65-6.65V61A6.64,6.64,0,0,0,75.25,54.35Zm2.22,33.22a2.21,2.21,0,0,1-2.22,2.21H48.67a2.21,2.21,0,0,1-2.21-2.21V61a2.21,2.21,0,0,1,2.21-2.21H75.25A2.21,2.21,0,0,1,77.47,61Z"/></g></g><g id="Grupo_915" data-name="Grupo 915"><g id="Grupo_914" data-name="Grupo 914"><path id="Trazado_4526" data-name="Trazado 4526" class="cls-2" d="M168.28,43.27H141.7a6.64,6.64,0,0,0-6.64,6.65V76.5a6.64,6.64,0,0,0,6.64,6.64h26.58a6.66,6.66,0,0,0,6.65-6.64V49.92A6.66,6.66,0,0,0,168.28,43.27Zm2.22,33.22a2.22,2.22,0,0,1-2.22,2.22H141.7a2.21,2.21,0,0,1-2.21-2.22V65.42h4.65a11.07,11.07,0,0,0,21.7,0h4.65ZM148.35,63.2A6.65,6.65,0,1,1,155,69.85h0a6.65,6.65,0,0,1-6.64-6.64ZM170.5,61h-4.66a11.07,11.07,0,0,0-21.7,0h-4.65V49.92a2.21,2.21,0,0,1,2.21-2.22h26.58a2.21,2.21,0,0,1,2.22,2.22Z"/></g></g><g id="Grupo_917" data-name="Grupo 917"><g id="Grupo_916" data-name="Grupo 916"><rect id="Rect치ngulo_452" data-name="Rect치ngulo 452" class="cls-2" x="106.26" y="134.08" width="4.43" height="4.43"/></g></g></g></g></g></g></svg>