
<svg xmlns="http://www.w3.org/2000/svg" viewBox="0 0 218 218"><defs><style>.cls-1,.cls-2{fill:#2f80ff;}.cls-1{opacity:0.05;isolation:isolate;}</style></defs><title>Grupo 921</title><g id="Layer_2" data-name="Layer 2"><g id="Capa_1" data-name="Capa 1"><g id="Grupo_921" data-name="Grupo 921"><circle id="Elipse_159" data-name="Elipse 159" class="cls-1" cx="109" cy="109" r="109"/><g id="meeting"><g id="Grupo_891" data-name="Grupo 891"><g id="Grupo_890" data-name="Grupo 890"><path id="Trazado_4513" data-name="Trazado 4513" class="cls-2" d="M162.19,90.57A14.42,14.42,0,1,0,141.81,90a15,15,0,0,0,2.64,2.2,10.32,10.32,0,0,0-4.52,8.52v14.42h-8.24v-10.3A14.43,14.43,0,0,0,119,90.52,14.42,14.42,0,1,0,98.59,90c.16.16.32.33.49.49a14.43,14.43,0,0,0-12.71,14.31v10.3H78.12V100.71a10.28,10.28,0,0,0-4.52-8.52,14.45,14.45,0,1,0-17.73-1.62,10.31,10.31,0,0,0-8.65,10.14v30.9a10.33,10.33,0,0,0,8.24,10.09v31.11h4.12v-30.9H78.12v28.85a2.06,2.06,0,0,0,2.06,2.06H92.55a2.06,2.06,0,0,0,2.06-2.06v-33H107v30.9H98.73v4.12h20.6v-4.12h-8.24v-30.9h12.36v33a2.07,2.07,0,0,0,2.06,2.06h12.36a2.07,2.07,0,0,0,2.06-2.06V141.91h18.55v30.9h4.12V141.7a10.32,10.32,0,0,0,8.24-10.09v-30.9A10.3,10.3,0,0,0,162.19,90.57ZM142,80.1a10.3,10.3,0,1,1,10.3,10.3A10.31,10.31,0,0,1,142,80.1Zm-43.26,0A10.3,10.3,0,1,1,109,90.4a10.3,10.3,0,0,1-10.3-10.3Zm13.51,14.43L109,103.08l-3.21-8.55Zm-21.75,10.3a10.3,10.3,0,0,1,10.3-10.3h.63l5.68,15.14a2.06,2.06,0,0,0,3.86,0l5.68-15.14h.63a10.3,10.3,0,0,1,10.3,10.3v10.3h-8.24a2.06,2.06,0,0,0-2.06,2.06v8.24H100.79v-8.24a2.06,2.06,0,0,0-2.06-2.06H90.49Zm-35-24.73a10.3,10.3,0,1,1,10.3,10.3A10.3,10.3,0,0,1,55.46,80.1Zm35,88.6H82.25V139.85a2.06,2.06,0,0,0-2.06-2.06H57.52a6.18,6.18,0,0,1-6.18-6.18v-30.9a6.18,6.18,0,0,1,6.18-6.18h10.3A6.18,6.18,0,0,1,74,100.71v16.48a2.06,2.06,0,0,0,2.06,2.06h20.6v6.18H67.82V106.89H63.7v20.6a2.07,2.07,0,0,0,2.06,2.06H84.31a6.19,6.19,0,0,1,6.18,6.18Zm33.2-35H94.38a10.3,10.3,0,0,0-1.84-4.12h33a10.3,10.3,0,0,0-1.84,4.12Zm43-2.06a6.18,6.18,0,0,1-6.18,6.18H137.87a2.06,2.06,0,0,0-2.06,2.06V168.7h-8.24v-33a6.19,6.19,0,0,1,6.18-6.18h18.54a2.06,2.06,0,0,0,2.06-2.06v-20.6h-4.12v18.54H121.39v-6.18H142a2.06,2.06,0,0,0,2.06-2.06V100.71a6.18,6.18,0,0,1,6.18-6.18h10.3a6.18,6.18,0,0,1,6.18,6.18Z"/></g></g><g id="Grupo_893" data-name="Grupo 893"><g id="Grupo_892" data-name="Grupo 892"><rect id="Rectángulo_447" data-name="Rectángulo 447" class="cls-2" x="106.97" y="115.13" width="4.12" height="4.12"/></g></g><g id="Grupo_895" data-name="Grupo 895"><g id="Grupo_894" data-name="Grupo 894"><path id="Trazado_4514" data-name="Trazado 4514" class="cls-2" d="M98.72,47.14H69.88a2.07,2.07,0,0,0-2.06,2.06V59.5a2.07,2.07,0,0,0,2.06,2.06h8.24v4.12a2.06,2.06,0,0,0,2.06,2.06,2,2,0,0,0,1.24-.41l7.7-5.77h9.6a2.06,2.06,0,0,0,2.06-2.06V49.2A2.06,2.06,0,0,0,98.72,47.14Zm-2.06,10.3H88.42a2,2,0,0,0-1.23.41l-5,3.71V59.5a2.06,2.06,0,0,0-2.06-2.06H72V51.26H96.67Z"/></g></g><g id="Grupo_897" data-name="Grupo 897"><g id="Grupo_896" data-name="Grupo 896"><rect id="Rectángulo_448" data-name="Rectángulo 448" class="cls-2" x="119.33" y="53.32" width="4.12" height="4.12"/></g></g><g id="Grupo_899" data-name="Grupo 899"><g id="Grupo_898" data-name="Grupo 898"><rect id="Rectángulo_449" data-name="Rectángulo 449" class="cls-2" x="127.57" y="53.32" width="4.12" height="4.12"/></g></g><g id="Grupo_901" data-name="Grupo 901"><g id="Grupo_900" data-name="Grupo 900"><rect id="Rectángulo_450" data-name="Rectángulo 450" class="cls-2" x="135.81" y="53.32" width="4.12" height="4.12"/></g></g></g></g></g></g></svg>