
<svg xmlns="http://www.w3.org/2000/svg" viewBox="0 0 218 218"><defs><style>.cls-1,.cls-2{fill:#2f80ff;}.cls-1{opacity:0.05;isolation:isolate;}</style></defs><title>Grupo 922</title><g id="Layer_2" data-name="Layer 2"><g id="Capa_1" data-name="Capa 1"><g id="Grupo_922" data-name="Grupo 922"><circle id="Elipse_160" data-name="Elipse 160" class="cls-1" cx="109" cy="109" r="109"/><g id="agreement"><g id="Grupo_918" data-name="Grupo 918"><path id="Trazado_4508" data-name="Trazado 4508" class="cls-2" d="M109,82a4.2,4.2,0,0,1,4.2,4.19h4.19a8.38,8.38,0,0,0-6.29-8.09V73.58h-4.2v4.49A8.37,8.37,0,0,0,109,94.55a4.2,4.2,0,1,1-4.19,4.2h-4.2a8.38,8.38,0,0,0,6.29,8.09v4.49h4.2v-4.49A8.37,8.37,0,0,0,109,90.36,4.2,4.2,0,1,1,109,82Z"/><path id="Trazado_4509" data-name="Trazado 4509" class="cls-2" d="M174,98.75V82H161.45V44.21H76.63l-20,22.27V82H44V98.75H56.58v7.11l-8-2.92H44v46.14H62.32l1.1-3.52,8.86,5.32,5.88,1.53a6.52,6.52,0,0,0,5.71,9.24,6.46,6.46,0,0,0,6.6,6.31,6.26,6.26,0,0,0,2.1-.4,6.48,6.48,0,0,0,8.08,4.32,6.36,6.36,0,0,0,2-1l1.56,1.55a6.22,6.22,0,0,0,4.44,1.85H109a6.29,6.29,0,0,0,5.9-4.16,6.22,6.22,0,0,0,10.65-2.63,6.16,6.16,0,0,0,8.08-3.25,6.46,6.46,0,0,0,.31-.94,6.2,6.2,0,0,0,8.13-3.29,6,6,0,0,0,.49-2.51v-.7a6.29,6.29,0,0,0-1.26-3.78l-.69-.92,7.79-6.23,1,3.24H174V102.94h-4.19l-8.39,2.37V98.75ZM77.56,49.45V65.19H63.39ZM60.78,69.38h21v-21h75.51V82H144.68V73.85l-24.76,16.5,24.76,16.5v-8.1h12.58v7.75L137.84,112l1.81,5.81-26.15,1.74a14.69,14.69,0,0,0-5.59,1.52l-4.49,2.24a14.64,14.64,0,0,0-6.4-1.5H82.25l-9.87-4.93,1.48-4.74-13.08-4.76V98.75H73.36v8.11l24.76-16.5L73.36,73.86V82H60.78ZM48.19,94.55V86.16H77.56V81.69l13,8.67L77.56,99V94.55Zm11.05,50.34H48.19V107.27l20.48,7.44Zm14.93,2.24-9.46-5.68L71.12,121,81.26,126H97a10.51,10.51,0,0,1,5.56,1.6l11.4,7.12a2.84,2.84,0,0,1,1.33,2.4v.74a2.83,2.83,0,0,1-2.83,2.82,2.76,2.76,0,0,1-1.45-.4l-7.88-4.72a8.33,8.33,0,0,0-10,1.23L81.11,148.86Zm37,20.83a2.1,2.1,0,0,1-2.1,2.1h-.36a2.13,2.13,0,0,1-1.49-.61l-1.73-1.74a2.07,2.07,0,0,1-.62-1.48v-.36a2.1,2.1,0,0,1,2.1-2.1h.36a2.09,2.09,0,0,1,1.48.61l1.74,1.73a2.09,2.09,0,0,1,.61,1.49Zm10.48-2.1a2.1,2.1,0,0,1-3.77,1.26l-4.2-5.59a2.14,2.14,0,0,1-.42-1.26v-.7a2.11,2.11,0,0,1,2.11-2.1,2.14,2.14,0,0,1,1.67.84l4.19,5.59a2.08,2.08,0,0,1,.42,1.26Zm8.39-4.19a2.1,2.1,0,0,1-3.77,1.26l-4.2-5.6a2.1,2.1,0,0,1-.42-1.26v-.7a2.11,2.11,0,0,1,3.78-1.26l4.19,5.6A2,2,0,0,1,130,161Zm8.39-4.2a2.1,2.1,0,0,1-3.77,1.26l-4.2-5.59a2.14,2.14,0,0,1-.42-1.26v-.7a2.11,2.11,0,0,1,2.11-2.1,2.14,2.14,0,0,1,1.67.84l4.19,5.59a2.08,2.08,0,0,1,.42,1.26Zm-.27-8.75-1-1.32a6.28,6.28,0,0,0-8.78-1.27,6.37,6.37,0,0,0-2.31,3.44,6.16,6.16,0,0,0-8.08,3.26,6.09,6.09,0,0,0-.31.94,6.19,6.19,0,0,0-8.62,5.8v.27a6.44,6.44,0,0,0-1.74-.27h-.36a6.29,6.29,0,0,0-6.29,6.29v.36a5.29,5.29,0,0,0,.08.79l-.26.26a2.35,2.35,0,1,1-3.33-3.33l9.19-9.18-3-3L92.06,163.08a2.35,2.35,0,1,1-3.33-3.33L100,148.47l-3-3L85.77,156.78a2.35,2.35,0,1,1-3.33-3.32l13.7-13.7a4,4,0,0,1,4.85-.6l7.88,4.72a7,7,0,0,0,10.64-6v-.73a7,7,0,0,0-3.3-6l-8.5-5.31,2.08-1a10.44,10.44,0,0,1,4-1.08l27.16-1.81,6.13,19.61Zm31.73-41.5v37.66H152.51l-9.39-30ZM140.48,94.55V99l-13-8.66,13-8.67v4.47h29.36v8.39Z"/><path id="Trazado_4510" data-name="Trazado 4510" class="cls-2" d="M86,52.6h67.12v4.2H86Z"/><path id="Trazado_4511" data-name="Trazado 4511" class="cls-2" d="M86,61h67.12v4.2H86Z"/></g></g></g></g></g></svg>