<svg xmlns="http://www.w3.org/2000/svg" viewBox="0 0 48.82 65.49"><defs><style>.cls-1{fill:#85c0f0;}.cls-2{fill:#2c3e50;}.cls-3{fill:#fff;}</style></defs><title>Recurso 139</title><g id="Capa_2" data-name="Capa 2"><g id="Capa_1-2" data-name="Capa 1"><path class="cls-1" d="M9.73,33.68S2,42.37,1.35,44.94C.63,47.81,2.63,55,4.22,58.35s4.08-.5,5.43-2.47c2.07-3,5-6.81,5-6.81Z"/><path class="cls-2" d="M5.75,60.87H5.56a3,3,0,0,1-2.42-2C1.65,55.74-.68,48.1.19,44.65c.2-.8.9-2.4,4.66-7.06,2-2.49,4-4.69,4-4.71l1.39-1.57L16,49.3l-.39.5s-2.93,3.78-5,6.75l-.15.22C9.3,58.51,7.7,60.87,5.75,60.87Zm0-2.39ZM9.24,36.06c-2.95,3.44-6.39,7.81-6.73,9.17C1.9,47.67,3.76,54.6,5.3,57.84a1.52,1.52,0,0,0,.45.63s.4-.08,1.1-.84a20.9,20.9,0,0,0,1.66-2.21l.15-.22c1.63-2.38,3.79-5.23,4.66-6.37Z"/><path class="cls-1" d="M39.08,33.68s7.75,8.69,8.39,11.26c.72,2.87-1.28,10.06-2.87,13.41s-4.08-.5-5.43-2.47c-2.08-3-5-6.81-5-6.81Z"/><path class="cls-2" d="M43.07,60.87c-2,0-3.56-2.36-4.74-4.1l-.15-.22c-2-3-4.93-6.71-5-6.75l-.39-.5,5.75-18L40,32.88s2,2.22,4,4.71c3.76,4.66,4.46,6.26,4.66,7.06.86,3.45-1.46,11.09-3,14.21a3,3,0,0,1-2.42,2Zm-7.57-12c.86,1.14,3,4,4.66,6.37l.15.22A20.78,20.78,0,0,0,42,57.63c.71.76,1,.84,1.11.84a1.46,1.46,0,0,0,.44-.63c1.54-3.24,3.41-10.17,2.8-12.61-.34-1.36-3.78-5.73-6.73-9.17Z"/><path class="cls-3" d="M24.34,1.2h0c-4.8,0-16.23,15.86-15.71,21.64,1.28,14.21,8.54,34.91,11.1,38.46s4.7,3,4.86,3,2.39.47,4.86-3,9.82-24.25,11.09-38.46C41,17.06,29.14,1.24,24.34,1.2Z"/><polygon class="cls-1" points="12.04 41.75 36.73 41.75 33.57 50.5 15.05 50.34 12.04 41.75"/><path class="cls-2" d="M33.94,51.46H15a1.2,1.2,0,1,1,0-2.39H33.12c2.34-6.17,5.55-19,6.21-26.34.14-1.59-1-4.59-3.08-8a1.2,1.2,0,1,1,2-1.24C40,16.28,42,20.2,41.72,23a127.62,127.62,0,0,1-6.67,27.76A1.18,1.18,0,0,1,33.94,51.46Z"/><path class="cls-2" d="M25,65.49l-.4,0a4.42,4.42,0,0,1-2-.27A8.37,8.37,0,0,1,18.74,62c-1.44-2-3.93-8.26-6.2-15.58C11,41.32,8.19,31.5,7.42,23c-.23-2.54,1.4-6.11,2.8-8.65A50.7,50.7,0,0,1,16.8,5.08C19.25,2.37,21.37.74,23.12.2V0h2.41V.2C28,1,30.77,3.67,32.83,6A1.19,1.19,0,1,1,31,7.59C27.67,3.77,25.32,2.4,24.33,2.4s-2.9,1.13-5.76,4.29a48.21,48.21,0,0,0-6.25,8.77c-1.73,3.13-2.65,5.78-2.52,7.27,1.28,14.19,8.54,34.62,10.88,37.87,1.95,2.71,3.52,2.5,3.63,2.49l.26-.06.25.06c.11,0,1.69.22,3.64-2.49.35-.5.81-1.23,1.3-2.11a1.2,1.2,0,0,1,2.09,1.18A25.94,25.94,0,0,1,30.4,62a8.39,8.39,0,0,1-3.87,3.2A4.56,4.56,0,0,1,25,65.49Z"/><path class="cls-2" d="M36.25,42.94H13a1.2,1.2,0,1,1,0-2.39H36.25a1.2,1.2,0,1,1,0,2.39Z"/><path class="cls-2" d="M25.33,33.92a8.58,8.58,0,1,1,8.59-8.58A8.58,8.58,0,0,1,25.33,33.92Zm0-14.76a6.19,6.19,0,1,0,6.19,6.18A6.18,6.18,0,0,0,25.33,19.16Z"/></g></g></svg>