<svg xmlns="http://www.w3.org/2000/svg" viewBox="0 0 55.19 55.43"><defs><style>.cls-1{fill:#e4e4e4;}.cls-2{fill:#2c3e50;}.cls-3{fill:#85c0f0;}.cls-4{fill:#fff;}</style></defs><title>Recurso 138</title><g id="Capa_2" data-name="Capa 2"><g id="Capa_1-2" data-name="Capa 1"><path class="cls-1" d="M20.25,34l-7.69,8L3.2,35.68a1.14,1.14,0,0,1-.49-1l0-.58a1.38,1.38,0,0,1,1.48-1.32Z"/><path class="cls-2" d="M2.57,36.07A1.81,1.81,0,0,1,2,34.67l0-.57a2.08,2.08,0,0,1,.7-1.47,2.05,2.05,0,0,1,1.54-.51l17.5,1.31L12.65,43l-9.84-6.7A1.55,1.55,0,0,1,2.57,36.07Zm16.14-1.46L4.17,33.51a.71.71,0,0,0-.5.17.67.67,0,0,0-.23.48l0,.58a.41.41,0,0,0,.19.36l8.86,6Z"/><path class="cls-2" d="M12.7,43.37,2.63,36.52a2.09,2.09,0,0,1-.28-.22h0a2.11,2.11,0,0,1-.65-1.63l0-.58A2.41,2.41,0,0,1,4.3,31.8l18.17,1.37ZM2.79,35.84A1.75,1.75,0,0,0,3,36l9.62,6.55,8.47-8.85L4.25,32.43a1.77,1.77,0,0,0-1.3.44,1.74,1.74,0,0,0-.59,1.24l0,.58a1.51,1.51,0,0,0,.46,1.15Zm9.71,5.71L3.42,35.36a.69.69,0,0,1-.32-.64l0-.57a1,1,0,0,1,.34-.71,1,1,0,0,1,.73-.25l15.22,1.15ZM4.12,33.83a.36.36,0,0,0-.24.09.32.32,0,0,0-.12.25l0,.58a.1.1,0,0,0,0,.09l8.65,5.88L18,34.87l-13.87-1Z"/><path class="cls-1" d="M22.52,36.2l-7.69,8,6.76,9.07a1.11,1.11,0,0,0,1,.44l.57-.05a1.37,1.37,0,0,0,1.25-1.54Z"/><path class="cls-2" d="M21.24,54a1.51,1.51,0,0,1-.21-.23l-7.12-9.55L23,34.64l2.07,17.43a2.05,2.05,0,0,1-.45,1.56,2.08,2.08,0,0,1-1.43.76l-.58,0A1.77,1.77,0,0,1,21.24,54Zm-5.5-9.67,6.41,8.6a.43.43,0,0,0,.38.17L23.1,53a.66.66,0,0,0,.47-.24.69.69,0,0,0,.15-.51L22,37.75Z"/><path class="cls-2" d="M22.49,54.76A2.1,2.1,0,0,1,21,54.18h0a2.91,2.91,0,0,1-.24-.27L13.5,44.14l9.78-10.2L25.42,52a2.4,2.4,0,0,1-2.17,2.68l-.57,0ZM14.33,44.19l7,9.34a1.46,1.46,0,0,0,.16.19h0a1.52,1.52,0,0,0,1.17.4l.58,0a1.75,1.75,0,0,0,1.59-2l-2-16.76Zm8.16,9.18a.73.73,0,0,1-.59-.3l-6.57-8.81,6.9-7.21L24,52.2a1,1,0,0,1-.9,1.11l-.58,0Zm-6.33-9.06,6.25,8.38a.1.1,0,0,0,.09,0l.57,0a.38.38,0,0,0,.25-.13.32.32,0,0,0,.08-.28L21.76,38.46Z"/><path class="cls-3" d="M37.5,13.55,27.77,28.48l-7.37-10a5.62,5.62,0,0,0-2.08-1.73L1.67,8.7a1.14,1.14,0,0,1-.13-2l1.9-1.25A1.91,1.91,0,0,1,5,5.21Z"/><path class="cls-2" d="M.88,9A1.81,1.81,0,0,1,.32,7.79a1.85,1.85,0,0,1,.83-1.67l1.9-1.24a2.61,2.61,0,0,1,2.07-.35l33.49,8.59L27.81,29.71l-8-10.86A4.9,4.9,0,0,0,18,17.33l-16.64-8A1.69,1.69,0,0,1,.88,9Zm35.5,5L4.78,5.89a1.16,1.16,0,0,0-1,.16L1.92,7.29a.43.43,0,0,0-.2.41A.42.42,0,0,0,2,8.07l16.65,8A6.26,6.26,0,0,1,21,18l6.77,9.23Z"/><path class="cls-2" d="M27.82,30.27,19.58,19a4.49,4.49,0,0,0-1.7-1.42l-16.65-8a2.22,2.22,0,0,1-.57-.39h0A2.18,2.18,0,0,1,1,5.86l1.9-1.25A2.92,2.92,0,0,1,5.2,4.22l33.92,8.7ZM1.1,8.77a1.6,1.6,0,0,0,.4.28l16.65,8a5.27,5.27,0,0,1,2,1.62l7.69,10.49L38.11,13.32,5,4.84a2.26,2.26,0,0,0-1.81.3L1.33,6.39A1.49,1.49,0,0,0,.64,7.77a1.51,1.51,0,0,0,.46,1Zm26.66,19-7-9.6a6,6,0,0,0-2.23-1.85l-16.64-8a.75.75,0,0,1-.44-.64A.74.74,0,0,1,1.75,7L3.64,5.78a1.56,1.56,0,0,1,1.21-.2l32,8.21ZM4.48,6.17A1,1,0,0,0,4,6.31L2.1,7.56A.11.11,0,0,0,2,7.68a.12.12,0,0,0,.07.11l16.65,8a6.61,6.61,0,0,1,2.46,2l6.5,8.86,8.15-12.5L4.7,6.2Z"/><path class="cls-3" d="M42.37,18.22,27.87,28.57,38.22,35.5a5.64,5.64,0,0,1,1.83,2l8.7,16.28a1.15,1.15,0,0,0,2,.05l1.16-2a1.85,1.85,0,0,0,.19-1.52Z"/><path class="cls-2" d="M48.49,54.6a1.89,1.89,0,0,1-.36-.47l-8.7-16.28a4.9,4.9,0,0,0-1.59-1.76l-11.2-7.5L42.75,17.08l10,33.09a2.64,2.64,0,0,1-.25,2.09l-1.17,2a1.85,1.85,0,0,1-2.86.39Zm-9-19a6.17,6.17,0,0,1,1.2,1.58l8.71,16.28a.44.44,0,0,0,.38.24.46.46,0,0,0,.4-.22l1.16-2a1.16,1.16,0,0,0,.12-1L42,19.36,29.1,28.55l9.51,6.37A5.69,5.69,0,0,1,39.46,35.61Z"/><path class="cls-2" d="M49.77,55.43h-.06a2.2,2.2,0,0,1-1.44-.6,2.06,2.06,0,0,1-.42-.55L39.15,38a4.63,4.63,0,0,0-1.49-1.65L26.08,28.6l16.85-12L53.08,50.08a3,3,0,0,1-.29,2.34l-1.16,1.95A2.14,2.14,0,0,1,49.77,55.43ZM27.2,28.58,38,35.82a5.2,5.2,0,0,1,1.7,1.88L48.42,54a1.24,1.24,0,0,0,.29.39h0a1.55,1.55,0,0,0,2.37-.33l1.16-1.95a2.31,2.31,0,0,0,.23-1.83L42.58,17.6ZM49.77,54h0a.76.76,0,0,1-.66-.41L40.38,37.34a5.57,5.57,0,0,0-1.14-1.5h0a6.15,6.15,0,0,0-.8-.65l-9.9-6.63,13.61-9.72,9.59,31.65a1.55,1.55,0,0,1-.15,1.21l-1.17,1.95A.74.74,0,0,1,49.77,54ZM39.68,35.38A6.39,6.39,0,0,1,40.94,37l8.71,16.28a.12.12,0,0,0,.11.07.15.15,0,0,0,.12-.06L51,51.38a.88.88,0,0,0,.09-.71L41.8,19.87,29.66,28.55l9.13,6.11a5.61,5.61,0,0,1,.89.72Z"/><path class="cls-4" d="M53.56,1.56c-2.4-2.3-8.8,3.3-10.91,5.5L18,32.77c-3.83,4-5.8,7.45-6.57,9.83s0,2.94,0,2.94.59.72,2.93-.14,5.71-3,9.54-7L48.53,12.7C50.65,10.5,56,3.86,53.56,1.56Z"/><path class="cls-2" d="M11,46.07l0,0c-.31-.28-.95-1.2-.16-3.65.55-1.73,2.16-5.33,6.72-10.1L42.14,6.58A32.39,32.39,0,0,1,47.62,2,11.75,11.75,0,0,1,51,.46a3.13,3.13,0,0,1,3.07.6,3.12,3.12,0,0,1,.73,3,11.44,11.44,0,0,1-1.43,3.42A33.17,33.17,0,0,1,49,13.19L24.41,38.9c-4.57,4.76-8.1,6.53-9.8,7.15C12.25,46.92,11.3,46.37,11,46.07Zm.95-1h0c.1.05.67.26,2.19-.3s4.9-2.25,9.27-6.81L48,12.22a32.09,32.09,0,0,0,4.1-5.4c.79-1.36,2-3.78.95-4.75s-3.39.3-4.71,1.14a33,33,0,0,0-5.22,4.34L18.52,33.26c-4.37,4.56-5.89,7.94-6.4,9.55s-.27,2.1-.21,2.21Z"/><path class="cls-2" d="M12.4,46.84a2.29,2.29,0,0,1-1.64-.54l0,0c-.42-.38-1.05-1.43-.24-4,.56-1.75,2.19-5.41,6.8-10.22L41.91,6.36a33.18,33.18,0,0,1,5.54-4.59A12,12,0,0,1,50.9.15a3.41,3.41,0,0,1,3.36.68,3.41,3.41,0,0,1,.82,3.33,11.94,11.94,0,0,1-1.46,3.52,34,34,0,0,1-4.35,5.73L24.64,39.12c-4.61,4.81-8.19,6.59-9.92,7.23A6.76,6.76,0,0,1,12.4,46.84ZM52.08.64a4.33,4.33,0,0,0-1,.13A11.34,11.34,0,0,0,47.79,2.3a32.56,32.56,0,0,0-5.42,4.5L17.74,32.51c-4.52,4.72-6.11,8.27-6.65,10-.75,2.35-.13,3.14.08,3.33l0,0c.2.19,1,.75,3.3-.09,1.68-.61,5.16-2.35,9.68-7.07L48.81,13a33.26,33.26,0,0,0,4.26-5.61A11.31,11.31,0,0,0,54.46,4a2.83,2.83,0,0,0-.64-2.75A2.38,2.38,0,0,0,52.08.64ZM12.42,45.44a1.52,1.52,0,0,1-.62-.11l-.14-.1,0-.06c-.11-.21-.32-.87.19-2.45s2.06-5.07,6.47-9.68L42.92,7.33A32.32,32.32,0,0,1,48.2,3c1.71-1.1,4-2.18,5.09-1.11s.14,3.38-.88,5.14a32.5,32.5,0,0,1-4.15,5.46L23.63,38.15c-4.42,4.61-7.78,6.29-9.39,6.89A5.47,5.47,0,0,1,12.42,45.44Zm-.26-.66A3.72,3.72,0,0,0,14,44.44c1.56-.57,4.82-2.21,9.15-6.73L47.8,12a32.19,32.19,0,0,0,4.06-5.34c1.24-2.14,1.61-3.77,1-4.36s-2.23-.15-4.32,1.18a32.11,32.11,0,0,0-5.16,4.29L18.75,33.48c-4.32,4.52-5.82,7.85-6.33,9.43A3.71,3.71,0,0,0,12.16,44.78Z"/></g></g></svg>