<svg xmlns="http://www.w3.org/2000/svg" viewBox="0 0 56.14 55.7"><defs><style>.cls-1{fill:#fff;}.cls-2{fill:#85c0f0;}.cls-3{fill:#2c3e50;}</style></defs><title>Recurso 137</title><g id="Capa_2" data-name="Capa 2"><g id="Capa_1-2" data-name="Capa 1"><path class="cls-1" d="M36.5,52.78,54.81,1.35l0-.05h0l0,0-.05.05L3,18.49c-1.46.48-2,2.33-1,3.2L10.65,29l3.76,11.86v0h0v0h0l11.78,4,7.06,8.84C34.12,54.76,36,54.23,36.5,52.78Z"/><path class="cls-2" d="M2,18.73.71,20.37s1.62,2,1.74,2.05l7,6.32,2.11-.19L53.47,2.19,32,8.73Z"/><path class="cls-2" d="M36.29,53.81l-1.67,1.24s-1.92-1.67-2-1.79-6.16-7.17-6.16-7.17l.24-2.1L54,2.71,47,24.06Z"/><path class="cls-3" d="M13.43,41.81l0,0a1.06,1.06,0,0,1-.27-.5s0-.06,0-.09L9.46,29.65.91,22.5A2.65,2.65,0,0,1,.05,20a3.33,3.33,0,0,1,2.2-2.49L54.52.16a1.05,1.05,0,0,1,1.12,0,1,1,0,0,1,.19.17.64.64,0,0,1,.16.2,1,1,0,0,1,0,1.11L37.5,53.51A3.34,3.34,0,0,1,35,55.66a2.62,2.62,0,0,1-2.52-.92L25.49,46l-.79-.26a1.06,1.06,0,0,1-.65-1.33,1,1,0,0,1,1.33-.65l1.07.37a1.07,1.07,0,0,1,.48.33l7.14,8.95a.59.59,0,0,0,.55.16,1.24,1.24,0,0,0,.91-.79L53.36,2.74,2.91,19.45a1.24,1.24,0,0,0-.81.9.56.56,0,0,0,.15.55L11,28.24a1,1,0,0,1,.33.48L15,40.25l4.43,1.51a1,1,0,1,1-.68,2L14,42.11h-.09A1.1,1.1,0,0,1,13.43,41.81Z"/><path class="cls-3" d="M25.38,45.9a1,1,0,0,1-.12-1.3L51.34,4.74,10.91,29.93a1,1,0,0,1-1.44-.33,1.06,1.06,0,0,1,.33-1.44L54.26.46a1,1,0,0,1,1.42,1.46L27,45.75a1,1,0,0,1-1.44.3A.65.65,0,0,1,25.38,45.9Z"/><path class="cls-3" d="M13.43,41.81a1,1,0,0,1,0-1.47L26.83,27.25a1.05,1.05,0,0,1,1.48,0,1,1,0,0,1,0,1.47L14.91,41.83A1,1,0,0,1,13.43,41.81Z"/></g></g></svg>