<svg xmlns="http://www.w3.org/2000/svg" xmlns:xlink="http://www.w3.org/1999/xlink" viewBox="0 0 674.97 888.93"><defs><style>.cls-1{fill:#dcdcdc;}.cls-2{fill:#fff;}.cls-3{fill:url(#Degradado_sin_nombre_13);}.cls-4{fill:url(#Degradado_sin_nombre_13-2);}.cls-5{fill:#e0bc9e;}.cls-6{fill:#cd8282;}.cls-7{fill:#2d91bb;}.cls-8{fill:#f24747;}.cls-9{fill:#7c593e;}.cls-10{fill:#1f1e1b;}.cls-11{fill:#eaeaea;}.cls-12{fill:#a2a6a9;}.cls-13{fill:#b9bfc3;}.cls-14{fill:#f7f8fa;}.cls-15{fill:url(#Degradado_sin_nombre_13-3);}.cls-16{fill:url(#Degradado_sin_nombre_13-4);}.cls-17{fill:#474747;}.cls-18{fill:#e9cd86;}.cls-19{fill:#019475;}.cls-20{fill:#c8a58b;}.cls-21{fill:#754321;}.cls-22{fill:#cdaf71;}.cls-23{fill:#ae8c76;}.cls-24{fill:#5b5b5b;}.cls-25{fill:silver;}.cls-26{fill:#ffbe9e;}.cls-27{fill:#a18274;}.cls-28{fill:#c8a27d;}.cls-29{fill:#2c3e50;}.cls-30{fill:#4c2c15;}.cls-31{fill:#131016;}.cls-32{fill:#606a72;}.cls-33{fill:#ff8484;}.cls-34{fill:#6c7a85;}.cls-35{fill:#dca48e;}.cls-36{fill:#9759b2;}.cls-37{fill:#13100c;}.cls-38{fill:#f86b6b;}</style><linearGradient id="Degradado_sin_nombre_13" x1="45.95" y1="652.78" x2="606.81" y2="652.78" gradientUnits="userSpaceOnUse"><stop offset="0" stop-color="#2f80ff"/><stop offset="1" stop-color="#49e8ee"/></linearGradient><linearGradient id="Degradado_sin_nombre_13-2" x1="42.77" y1="652.78" x2="609.98" y2="652.78" xlink:href="#Degradado_sin_nombre_13"/><linearGradient id="Degradado_sin_nombre_13-3" x1="1203.88" y1="598.16" x2="1213.79" y2="598.16" gradientTransform="matrix(1, 0, 0.09, 1, -690.25, 0)" xlink:href="#Degradado_sin_nombre_13"/><linearGradient id="Degradado_sin_nombre_13-4" x1="1203.82" y1="598.16" x2="1213.85" y2="598.16" gradientTransform="matrix(1, 0, 0.09, 1, -690.25, 0)" xlink:href="#Degradado_sin_nombre_13"/></defs><title>Recurso 112</title><g id="Capa_2" data-name="Capa 2"><g id="Capa_1-2" data-name="Capa 1"><path class="cls-1" d="M63.88,792.22C55.94,790.05,0,727.62,0,727.62V664.11H651.91v63.51l-284.18,118Z"/><ellipse class="cls-1" cx="325.95" cy="727.62" rx="325.95" ry="161.31"/><ellipse class="cls-2" cx="325.95" cy="664.11" rx="325.95" ry="161.31"/><path class="cls-3" d="M326.38,518.1a563.24,563.24,0,0,0-89,7c-7.56,1.22-11.65,5.15-9.11,8.79s10.72,5.59,18.28,4.38A504.54,504.54,0,0,1,326.38,532c138.69,0,251.53,54.19,251.53,120.8S465.07,773.59,326.38,773.59,74.85,719.39,74.85,652.78c0-26.73,6.54-46.29,39.93-67.15.4-.22,6.89-3.65,13.2-3.25,3.17.19,11.63,1.77,21.82,12.39,27.58,28.77,88.14,103.72,88.75,104.47,2.1,2.6,7.23,4.34,13,4.43H252c5.64,0,10.78-1.58,13.13-4l62.18-65.12,60.81,65.07c2.35,2.52,7.66,4.21,13.36,4.1s10.92-1.71,13.15-4.26l72.24-82.89c3.08-3.53-.39-7.6-7.75-9.08s-15.83.19-18.91,3.73l-59.37,68.12-60.21-64.43c-2.32-2.49-7.45-4.09-13.12-4.1h-.06c-5.64,0-10.78,1.58-13.13,4L253.08,679c-19.36-23.69-56.54-68.63-77-90-12-12.47-26.94-19.32-44.54-20.36C109.13,567.28,93.85,576,92.19,577l-.08.06-.11.05c-38.35,23.92-46,46.7-46,75.7,0,74.27,125.8,134.69,280.43,134.69s280.43-60.42,280.43-134.69S481,518.1,326.38,518.1Z"/><path class="cls-4" d="M326.38,789C170,789,42.77,727.89,42.77,652.78c0-29.32,7.82-52.37,46.71-76.63l.28-.16c1.73-1,18-10.32,42.14-8.9,18.76,1.11,34.58,8.26,47,21.24,19.49,20.32,53.87,61.72,74.38,86.74l58.14-60.9c2.86-3,9.15-4.94,16-4.94s13.26,2,16.08,5l57.21,61.22,56.55-64.87c1.81-2.09,5.22-3.71,9.58-4.57a35.14,35.14,0,0,1,13.48,0c4.34.87,7.71,2.5,9.5,4.59a4.56,4.56,0,0,1-.05,6.48L417.57,700c-2.7,3.11-9,5.15-16,5.19-6.8.13-13.38-1.86-16.3-5l-57.94-62L268,700.26c-2.86,3-9.15,4.94-16,4.94h-.53c-7.09-.1-13.34-2.22-15.9-5.4-.61-.75-61.1-75.62-88.68-104.38-10-10.47-17.85-11.43-19.32-11.52-4-.26-9,2-10.43,2.75C84.45,607.08,78,626.38,78,652.78c0,65.77,111.42,119.28,248.36,119.28s248.35-53.51,248.35-119.28S463.32,533.5,326.38,533.5a499,499,0,0,0-78.83,6.17c-9.22,1.48-19.23-.92-22.31-5.34s1.91-9.23,11.13-10.71a568.49,568.49,0,0,1,90-7c156.38,0,283.6,61.11,283.6,136.21S482.76,789,326.38,789Zm-232-210.9c-37.69,23.54-45.27,46-45.27,74.69,0,73.43,124.38,133.16,277.26,133.16s277.25-59.73,277.25-133.16S479.25,519.62,326.38,519.62a556.59,556.59,0,0,0-88,6.89c-5.89,1-9.08,4-7.11,6.85s8.37,4.36,14.27,3.42a511.06,511.06,0,0,1,80.84-6.33c140.44,0,254.7,54.88,254.7,122.33S466.82,775.11,326.38,775.11,71.67,720.24,71.67,652.78c0-27.06,6.64-46.87,40.59-68.08.93-.51,8.17-4.34,16.13-3.83,4.56.27,13.83,2.35,24.29,13.26,27.66,28.85,88.22,103.8,88.83,104.56,1.64,2,5.63,3.39,10.17,3.45H252c4.4,0,8.42-1.23,10.25-3.15l65.09-68.19L391,699c1.87,2,6,3.28,10.33,3.19,4.59,0,8.61-1.33,10.34-3.32L484,615.93a2.92,2.92,0,0,0,0-4.14c-1.14-1.34-3.3-2.38-6.08-2.94a22.72,22.72,0,0,0-8.62,0c-2.78.55-5,1.59-6.13,2.92L401,683.12l-63.2-67.64c-1.81-1.93-5.83-3.19-10.24-3.19s-8.46,1.24-10.29,3.15l-64.37,67.42-2.73-3.33c-20-24.49-56.65-68.74-77-89.92a61.62,61.62,0,0,0-42-19.49c-20.19-1.2-34.23,6.49-36.33,7.73Z"/><path class="cls-1" d="M338,352c-3-.82-24.21-24.48-24.21-24.48V309.61H560.86v17.94l-107.7,44.72Z"/><ellipse class="cls-1" cx="437.33" cy="330" rx="123.53" ry="61.13"/><ellipse class="cls-2" cx="437.33" cy="307.15" rx="123.53" ry="61.13"/><path class="cls-5" d="M641.2,664.27s-.89,11.24-2.49,14.29-3.28,7.62,5.31,9.22,22.32,5.58,24.69,4.1-.57-4.82-5.64-7.29-13.59-8.2-14.6-14.89S641.2,664.27,641.2,664.27Z"/><path class="cls-6" d="M664.58,685.39c0,4-13.77-.73-21.48-2.22a8.17,8.17,0,0,1-5.17-2.9c-1.09,2.84-1,6.19,6.09,7.51,8.59,1.61,22.32,5.58,24.69,4.1C670.84,690.55,668.69,687.74,664.58,685.39Z"/><path class="cls-5" d="M645.73,744.4S649,750.9,649,754s-.65,4.66,6.07,8.78,13.23,8.24,18.54,5.1-6.07-7.65-10.19-12.22S654,741.15,654,741.15Z"/><path class="cls-6" d="M673.59,767.92c2.89-1.72.82-3.84-2.32-6.15a8.57,8.57,0,0,1-3.21,1.81C660.26,766,649,754,649,754c0,3.15-.65,4.66,6.07,8.78S668.28,771.06,673.59,767.92Z"/><polygon class="cls-5" points="598.97 585.46 593.28 601.23 588 589.2 594.25 581.39 598.97 585.46"/><path class="cls-7" d="M518.06,613.8s-13.22,46.58,26.66,53.53,63.3,14.2,63.3,14.2,31,58.64,38.8,69.05l13.22-5-34.25-83.24-63.94-29.47Z"/><path class="cls-7" d="M567.92,612.07l8.45,8.88s61.56-25.57,67.2-27.53,13.22,2.39,13.43,10-3.31,73.46-3.31,73.46l-15.11-4.32-3.25-50.29L580.92,652.6l-59-30.78Z"/><path class="cls-8" d="M535,527.47l-5.12-1.65s-23.91-2.74-32,11.53-21.5,43-22.46,46.75S504,601.88,504,601.88l6.47-11.65-15.56-10.91,21-25s-2.67,18.89-5.54,34.9,1.27,23.3,1.69,33.45c0,0,33.35,10.39,52.86-.88,4.06-2.35,13.44-3.58,13.44-3.58s-9.64-19.17-10.15-31.24,7-33.19,7-33.19L589,576.3l-.73,6.7,12.72,8.76s7.23-19.65,4.49-23.76-17.74-30.1-20.76-36.14-18-6.18-18-6.18Z"/><path class="cls-9" d="M522.19,481.65s1,18.12-4.45,23.6S512,518.7,527.34,519s34.56,1.37,43.07,0,10.42-6,9.05-9.88-6.17-3.8-6.73-12.22-14.79-11.09-23.5-11.09S522.19,481.65,522.19,481.65Z"/><path class="cls-5" d="M500.78,586.43s27,13.66,30.05,15.45,7.66,2.44,11.4,6.5,1.95,8.13,1.95,8.13l-1.62,1.34s-7.64-3.94-10.41-6.87-25.52-8.13-31.37-13.49S500.78,586.43,500.78,586.43Z"/><path class="cls-5" d="M547.24,454.67c21.26-.74,19.23,17.93,18.12,35.68S547.24,507,547.24,507s-17,1.07-18.12-16.68S526,453.93,547.24,454.67Z"/><ellipse class="cls-10" cx="555.19" cy="481.25" rx="1.52" ry="2.59"/><ellipse class="cls-10" cx="538.54" cy="481.25" rx="1.52" ry="2.59"/><path class="cls-9" d="M542,459.85s6.57,2.21,10.7,3.46,10.79,7.77,12,16.71.62,24.68.62,24.68l7.49-7.83s1.56-29-2.74-38.93-21.94-13.21-25.48-10.51c0,0-9.6-1.33-14.25,2.69s-7.1,9.17-8.07,31.53-.35,23.05-.35,23.05l9.15.55s-3.26-20.95-.76-28.6S539.17,464.35,542,459.85Z"/><path class="cls-5" d="M570.58,525.68c-4.39-.63-12-1.24-12.92-1.68-2.32-1.11-3.48-28.59-3.48-28.59l-7.34,1.47-7.34-1.47S538.34,522.89,536,524c-1,.47-1.31,1.14-6.12,1.82C534.84,532.69,555.09,557.43,570.58,525.68Z"/><path class="cls-11" d="M513.32,621a2.55,2.55,0,0,0,.47,2.16c.79.75,18.41,6.62,19.82,6.62s73-10.46,73-10.46v-1.9l-63.32,2Z"/><polygon class="cls-12" points="543.32 619.39 513.32 621.01 533.39 627.28 606.64 617.43 543.32 619.39"/><path class="cls-8" d="M566,576.73l2.89,1.1s12.7-7.8,6.26-24c-7.3-18.39-26.94,0-26.94,0Z"/><path class="cls-13" d="M533,627.28l-3.65-43.64s-1.41-4,4.7-5.94,68-7.3,68-7.3a4,4,0,0,1,2.71,3c.54,2.43,1.89,44.06,1.89,44.06Z"/><path class="cls-14" d="M551.78,497.38h-8.52s-1.65-.11-1.25.62,3.55,3.32,5.29,3.32,4.67-2.81,5.17-3.21S552.37,497.38,551.78,497.38Z"/><polygon class="cls-8" points="495.41 592.96 503.98 601.88 510.45 590.23 499.31 585.3 495.41 592.96"/><ellipse class="cls-2" cx="570.96" cy="598.24" rx="5.42" ry="5.91" transform="translate(-256.01 597.02) rotate(-46.25)"/><path class="cls-15" d="M570.48,593.2a4.76,4.76,0,0,0-1.55.26.23.23,0,0,0-.13.32.27.27,0,0,0,.34.16,4.31,4.31,0,0,1,1.39-.23,5,5,0,0,1,4.83,4.45,4,4,0,0,1-4.06,4.45,5,5,0,0,1-4.83-4.45,3.42,3.42,0,0,1,.49-2.47s.11-.14.22-.12.21.06.43.45c.58,1.06,1.89,3.82,1.9,3.85a.27.27,0,0,0,.25.16h0a.22.22,0,0,0,.22-.15l.89-2.39,1.29,2.39a.26.26,0,0,0,.25.15.23.23,0,0,0,.22-.15l1-3a.3.3,0,0,0-.17-.34.24.24,0,0,0-.32.14l-.83,2.51-1.27-2.38a.29.29,0,0,0-.25-.15h0a.23.23,0,0,0-.22.15l-.88,2.36c-.41-.87-1.22-2.52-1.65-3.31a1.25,1.25,0,0,0-.85-.75.75.75,0,0,0-.67.31h0a3.87,3.87,0,0,0-.57,2.79,5.53,5.53,0,0,0,5.39,5,4.48,4.48,0,0,0,4.52-5A5.53,5.53,0,0,0,570.48,593.2Z"/><path class="cls-16" d="M571.35,603.17a5.59,5.59,0,0,1-5.45-5,4,4,0,0,1,.58-2.82h0a.82.82,0,0,1,.72-.32,1.28,1.28,0,0,1,.9.78c.41.75,1.15,2.27,1.6,3.19l.83-2.24a.27.27,0,0,1,.26-.18.33.33,0,0,1,.3.18L572.3,599l.79-2.38a.27.27,0,0,1,.16-.17.33.33,0,0,1,.42.17.29.29,0,0,1,0,.24l-1,3a.28.28,0,0,1-.27.19.35.35,0,0,1-.3-.18l-1.23-2.29-.84,2.29a.28.28,0,0,1-.27.18h0a.34.34,0,0,1-.3-.2s-1.32-2.78-1.9-3.84c-.21-.39-.35-.42-.38-.43s-.15.08-.18.11a3.4,3.4,0,0,0-.48,2.43,4.91,4.91,0,0,0,4.78,4.39,4,4,0,0,0,4-4.39,4.91,4.91,0,0,0-4.78-4.39,4.19,4.19,0,0,0-1.37.23.34.34,0,0,1-.41-.2.28.28,0,0,1,.16-.39,4.62,4.62,0,0,1,1.57-.26,5.59,5.59,0,0,1,5.45,5A4.53,4.53,0,0,1,571.35,603.17Zm-4.78-7.76a3.87,3.87,0,0,0-.56,2.75,5.47,5.47,0,0,0,5.33,4.9,4.43,4.43,0,0,0,4.48-4.9,5.47,5.47,0,0,0-5.33-4.9,4.69,4.69,0,0,0-1.54.25.19.19,0,0,0-.1.25.21.21,0,0,0,.26.13,4.48,4.48,0,0,1,1.41-.23,5,5,0,0,1,4.9,4.5,4.06,4.06,0,0,1-4.11,4.5,5,5,0,0,1-4.9-4.5,3.52,3.52,0,0,1,.5-2.51s.13-.16.27-.14.26.09.48.49c.58,1.06,1.89,3.82,1.9,3.85a.26.26,0,0,0,.19.13h0a.18.18,0,0,0,.17-.12l.93-2.51,1.35,2.51a.22.22,0,0,0,.19.12.17.17,0,0,0,.17-.13l1-3.05a.2.2,0,0,0,0-.15.22.22,0,0,0-.12-.11.2.2,0,0,0-.15,0,.18.18,0,0,0-.1.11l-.87,2.63L571,596.79a.24.24,0,0,0-.19-.12.2.2,0,0,0-.18.12l-.92,2.48-.06-.13c-.43-.9-1.22-2.53-1.65-3.31-.24-.44-.51-.68-.8-.71a.7.7,0,0,0-.62.28Z"/><path class="cls-17" d="M82,621.17s17.25-3.86,21.31-2.57,6,9.54.75,20.22-9.92-5.33-19.48-5.88S82,621.17,82,621.17Z"/><path class="cls-5" d="M88.55,504.43l-4.39-26.59,13.72,3.29,4.59-7.53,11.75,26.59,6.67,5.08c-13.84,39.41,14.69,88.15,14.69,88.15l-11.28,1.86-.24,0-11.28,1.86c-14.41-74.32-31.41-82.11-31.41-82.11Z"/><path class="cls-5" d="M88.55,504.43l-4.39-26.59,13.72,3.29L104,473.6l10.27,26.59s-4.17,10.38-12.47,13.73c-4.64,1.88-10.48-2.77-14.72-7.24Z"/><path class="cls-18" d="M135,585.81l4.27,4.41s63.51,8.58,70.13,22.31-33.1,31.62-88.75,30.15c0,0-4.9-10.54,0-19.85l11.53-4.42s-22.07,2.94-40.7,0a24.67,24.67,0,0,0-1.61,19.12s-43.74-4.16-63.6-16.91-11.77-25.25,4.17-27.7,47.07-2,47.07-2Z"/><path class="cls-5" d="M157.3,525s18.61,15.37,20.09,26.43c0,0-1.2,45.93-3,47.21-4.49,3.27-3.91,1.37-12.25,4.29-2.53.89-3.61,1.23-7.16-1-3.88-2.4-3.67-3.83,2.46-6.38,1.18-.5,10.3.51,9.29-7.25-2-15.23-4.08-33.23-4.08-33.23l-20.21-18.85Z"/><path class="cls-19" d="M119.1,503.53s-1.34,17.07-24.71,15.35c-11.38-.83-4.52-15.06-4.52-15.06S73.34,505.89,67.21,511s-11.77,32.11-11.77,32.11l17.9,1.72s6.13,32.11-1,57.61c0,0,7.06,4.17,33,4.9S143.94,601,143.94,601a510.71,510.71,0,0,0-3.67-58.1s20.34-17.41,18.14-21.82C155.76,515.79,138.56,498.74,119.1,503.53Z"/><path class="cls-20" d="M61.1,468s-6-3-4.51,2.79,7.25,16.27,11.32,10S61.1,468,61.1,468Z"/><path class="cls-20" d="M103.58,466.36s3.53-5.64,5.3.05,2.26,17.66-4.48,14.43S103.58,466.36,103.58,466.36Z"/><path class="cls-5" d="M74.64,444.91c33.63-8.66,30.59,24,32.12,39.76S95,505.37,91.85,506.37c-3.2.77-17.16,3.43-24-10.8S41.4,455,74.64,444.91Z"/><ellipse class="cls-10" cx="91.78" cy="475.2" rx="1.51" ry="2.82" transform="translate(-124.73 42.35) rotate(-15.64)"/><ellipse class="cls-10" cx="71.87" cy="481.18" rx="1.51" ry="2.82" transform="translate(-127.09 37.2) rotate(-15.64)"/><path class="cls-14" d="M96.88,491.65S85,495.23,84.35,495.16s-2.28,1.27-1.11,1.92,7.36,2.61,8.92,2.08,5.22-6,5.75-6.36S97.78,491.38,96.88,491.65Z"/><path class="cls-21" d="M105.9,476.36c-.09.45-2.39-3.1-2.39-3.1s-1.26-14.89-8.34-20.62c0,0-12.92,10.84-26.76,12.24,0,0,3.87-3.95,3.29-3.79s-5.33,6.25-10.54,7.53a18.72,18.72,0,0,0,2.38,14.85l-.91,5.46s-6.72-10.23-9.12-19.78-3.17-16.34,1.7-17.88c0,0,.95-6.91,11-9.81s28.57-9.52,31-.87C97.19,440.59,108.2,464.87,105.9,476.36Z"/><path class="cls-17" d="M105.59,616.12c4.92,1.55,7.22,11.54.91,24.47-4.27,8.76-8.27,2.68-14-2.36-.34-7.48-.22-15.53,1.1-21.57C98.59,615.92,103.52,615.46,105.59,616.12Z"/><path class="cls-22" d="M71.32,607s-14.53-1.1,4.78-3.12,78.51,4.78,78.51,4.78c-10.12,2.39-22.43,9.74-22.43,9.74s-22.07,2.94-40.7,0l1.89-4.12Z"/><path class="cls-23" d="M67.53,593a270.88,270.88,0,0,1-2.45,32c-2.3,15.89-4.32,14.78-4.32,14.78s-2.25.49.05-15.4A272,272,0,0,1,67.53,593Z"/><path class="cls-24" d="M60.16,643.91l.63,1.9a2,2,0,0,1,.92,2.51c-.59,1.73-1.11,1.68-1.08,2.51l-.28-.5s-.12,3.63-3.72,1.3c0,0,1.43.72,1.43-.74s-2.17-3.51.93-5.34Z"/><polygon class="cls-25" points="58.99 645.55 60.79 645.81 62.67 636.78 59.86 636.37 58.99 645.55"/><path class="cls-5" d="M75.06,535.31l-1.72,6.62s-2,15.44-5.64,20.83c0,0-.34,16.43-7.64,43.08,0,0,7.82,2,4.54,12.08s-5.23,4.66-7.2,5.4-6.86-6.62-7.84-10.55-2.21-4-1.72-12.65a351.36,351.36,0,0,1,4.66-38.34s5.4-23,9.32-27.94S75.06,535.31,75.06,535.31Z"/><path class="cls-5" d="M66.45,619.83s-1.89,1-.92-3.08a45.6,45.6,0,0,0,1.06-5.24S71.34,615.09,66.45,619.83Z"/><polygon class="cls-19" points="82.82 545.85 73.34 544.87 55.44 543.15 63.65 527.58 80.32 528.44 82.82 545.85"/><path class="cls-5" d="M168.14,594.75s-4.8-1.38-6.33-1a10.69,10.69,0,0,1-4,.45c-.71-.2-2.4,1.13,0,1.69S168.14,594.75,168.14,594.75Z"/><path class="cls-24" d="M120.19,623.84c-3.68-.62-9.21-1.36-11-.65-2.76,1.11-16.54,8.45-21,19.58s3.68,8.19,12.87,4.33c5.72-2.4,13.41-5.58,18.43-7.65C118.51,635.83,117.56,629.69,120.19,623.84Z"/><path class="cls-26" d="M532.66,4.48c-5-6.85-6.4-5-12.11,0-.92.81-1.75,1.58-2.5,2.33v0c-6.51,5.71-5.94-4.05-13.94-3.72-7.8.33-.91,5.94,1.83,9.14a101.17,101.17,0,0,1,6.8,9.83c-.64,7.45-6.58,17.4-6.64,18,0,0,19,.68,19,0s5.48-5.72,11-12.8S537.68,11.33,532.66,4.48Z"/><path class="cls-21" d="M233.39,283.94s15,14.36,3.92,30.06-8.64-4.87-8.68-5.38-4.95-17-4.95-17Z"/><path class="cls-21" d="M179.08,309.82s-2.4,32.44,19.36,38.07,10.9-26.5,9.22-27.32S179.08,309.82,179.08,309.82Z"/><path class="cls-27" d="M187.59,686s-1.55,9.6-14.25,12.79S146.8,702,149.26,713c0,0,43.81,1.82,61.4-8.68,0,0,.92-11.42-6.85-18.28S187.59,686,187.59,686Z"/><path class="cls-27" d="M271.65,688.78a29.85,29.85,0,0,0,0,11.88c1.37,5.94,6.17,6.4,7.77,9.37s5.71,9.14,16.9,5.71,8.91-7.31,2.29-14.16S286,686.8,286,683,271.65,688.78,271.65,688.78Z"/><path class="cls-28" d="M192.31,481.65s-33,68.83-42.44,89.26-11.23,13.52,0,43.54,32.22,77.75,32.22,77.75,14.18,6.11,27-6l-27-87.69s34-65.3,45.57-65.2c0,0,27.09,70.32,29.37,79.53s13.71,79.32,13.71,79.32,13.71,5.26,21.93-2.05L288.56,593,266.17,480.85Z"/><path class="cls-26" d="M183.79,316s5.74,18.5,10.2,26.72,21.12,16.29,33.92,9.6c15.08-7.88,12-29.47,10.62-34.95s-3.08-41.12-27.41-39.41S178.05,294.4,183.79,316Z"/><path class="cls-29" d="M161.32,450.53s-8.68-38.6-6-63.5c0,0,38.66-24.8,55.65-29.76,0,0,38.35-3.82,50-1.08,0,0,40.43,35.48,41.57,38.6l-20.1,22.62L272.11,411a61.21,61.21,0,0,0-2.74,28.42c2.28,15.67,9.14,45.87,9.14,45.87s-37.69,21.88-55.74,19.83-37.06-14.85-37.06-14.85l.74-49.8Z"/><path class="cls-26" d="M301.12,397.16s13.14,15.15,18.28,24.38a106.79,106.79,0,0,1-10.11,23.51c-6.68,11.08-35.47,33.69-35.47,33.69s-14.39,6.83-28.09,7-6.51-6.44,0-9.81,21.24-10,21.24-10,12.68-24.46,24.67-37.87c0,0-10.25-7.16-13-13Z"/><path class="cls-26" d="M197.19,341.11s5.48,11.88,2.74,24.22,19.18,14.16,27.41,6.85,3.2-16-2.74-27.87S197.19,341.11,197.19,341.11Z"/><path class="cls-26" d="M166.18,448.34s4.44,22.44,6.87,30c0,0,17.85,10.24,68.57,10.62,0,0,21.58,7,33.57-1.26s-.34-8.82-9.25-9.76-17.47-7.08-28.44-4.86-36-10.27-42.83-10c0,0-1.71-15.18-5.14-24.08Z"/><path class="cls-21" d="M197.19,309.3l3.65-11.13s27.58-3.09,31.87-7.54,9.32-16.45-4.08-16.1c0,0-14.69-8-24.71,0,0,0-26.36-2-21.83,17.65,0,0-9.69,19.8,2.3,34.1,5,6,12,5.82,11.48-2.75A42.33,42.33,0,0,1,197.19,309.3Z"/><path class="cls-26" d="M195.57,319.76s-10.38-8.91-10.83,0,7.2,15.07,10.83,13.7S195.57,319.76,195.57,319.76Z"/><ellipse class="cls-30" cx="213.47" cy="316.34" rx="1.54" ry="3.98" transform="translate(-42.26 33.07) rotate(-8.06)"/><ellipse class="cls-30" cx="233.27" cy="310.8" rx="1.54" ry="3.98" transform="translate(-41.29 35.79) rotate(-8.06)"/><path class="cls-2" d="M223.68,337.49s7.91-2,8.51-2.23,2.14-.43,1.54,1.11-2.65,5.66-3.85,6.43-6.89-2.66-7.57-3.09S220.63,338.05,223.68,337.49Z"/><path class="cls-31" d="M438.64,52S434.07,74.31,426,80.7s4.28-32.43,4.28-32.43Z"/><path class="cls-27" d="M423.13,316.89a74.49,74.49,0,0,0,2.37,14c2.08,7.86,10.72,10.29,17.94,2.64a115,115,0,0,0,16.48-22c3.24-5.95,3.94-15.58-2.71-18s-11.28.42-16.63,11.51S423.13,316.89,423.13,316.89Z"/><path class="cls-32" d="M331.13,233.4l12-12.17s63-23.59,71.18-24.29,24.32,35.26,30,119c0,0-7.73,10.43-20,14.29,0,0-24.54-64.85-21.54-87.35,0,0-22.8,12.14-40.61,23.68S313.29,264.89,331.13,233.4Z"/><path class="cls-33" d="M407.11,136.78s0,40.79,18.85,49.52,14.73,20,14.73,20-11.65,6.85-24.33,0-26.72-28.5-20.9-53.48S407.11,136.78,407.11,136.78Z"/><path class="cls-26" d="M358.91,107s5-28.55,10.74-33.58S383.81,88.7,383.81,88.7v16.67Z"/><path class="cls-26" d="M386.27,101.44c-7-2.12-22.54-14.89-16.75-34.13s14.89-41.15,32.06-44.46,42.6,11.78,36,27.3-9.31,28.95-14.06,36.6S407.37,107.85,386.27,101.44Z"/><path class="cls-26" d="M248.1,232.38s-5.34,10.28-8,12.34-3.54,12.67,0,16.1,24.1,3.77,23.76-3.08-5.14-10.34-4.46-20.76S248.1,232.38,248.1,232.38Z"/><path class="cls-27" d="M238.26,431.46s-9.24,6.39-14.63,13.65c0,0,13.39,25.86,24.56,30.88s18.23,3.79,22.88,2.46-6-11.76-15.55-12.88c0,0-3.24-15.25-2.87-18.23S238.26,431.46,238.26,431.46Z"/><path class="cls-34" d="M234.31,432.49l21.43,21.95s71.65-64.9,78.05-80c0,0,18.73-80.75,20.56-88.34s14.61-38.66,8.22-46.89-63.24,8.68-63.24,8.68-7.51,28.79,0,42.49c0,0,6.13,53.45,4.3,62.59S234.31,432.49,234.31,432.49Z"/><path class="cls-2" d="M329.67,117.71c16.95-21,60.31-29.7,77.67-17.82s14.81,29.7,2.61,49.8-32.08,46.14-27.74,81.06c-8.45,11-82.88,17.16-82.88,17.16S281.7,177.1,329.67,117.71Z"/><path class="cls-2" d="M390.44,131.87c-10.81-10,7.31-30.15,27.41-32.89s50.71-10.51,50.71-10.51l39.22-61.22s21.54-6.4,23.83,8.68-42.95,71.73-42.95,71.73S414.19,153.8,390.44,131.87Z"/><path class="cls-2" d="M350.69,105.37s-23.3-.45-34.26,9.6-53,43.86-57.57,49.8-18.73,75.38-18.73,75.38S257.49,245.63,263,242c0,0,18.28-56.76,18.28-67.67,0,0,38.83-20,44.31-27.81S350.69,105.37,350.69,105.37Z"/><path class="cls-31" d="M401.86,39.59c.35-.73,23.18,18.61,38.72,17,0,0,5.33-39.63-34.74-34.83,0,0-21.91-5-33.33,17S360.23,70.61,364,85c0,0,8.48-2.89,11.22-10.31s5.48-8.68,6.85-11.76c0,0-10.51-2.52-3.77-13.71s13.71-7,12.11.23C390.44,49.41,399.57,44.38,401.86,39.59Z"/><ellipse class="cls-31" cx="405.68" cy="59.01" rx="4.22" ry="1.66" transform="translate(151.74 380.84) rotate(-60)"/><ellipse class="cls-31" cx="426.02" cy="68.85" rx="4.22" ry="1.66" transform="translate(153.38 403.36) rotate(-60)"/><path class="cls-2" d="M400.83,81.84c.91.8,12.22,6.25,13.25,6.74,1.47.7-1.14,3.09-7.2,3.09s-6.39-5.9-6.85-8C399.45,81,400.83,81.84,400.83,81.84Z"/><path class="cls-26" d="M354.56,647s-1.6,17.66,5.52,27.28l-27.38,6.41s11.84,9,14.94,13.75,9.48,8.29,9.48,8.29,15.57-.23,19.39,2.15,7.63,4.53,7.39,8.35-7.63,1.67-19.56,1.67-18.84-4.53-18.84-4.53-42.22-17.89-44.61-30.53C300.89,679.87,334.29,650.93,354.56,647Z"/><path class="cls-35" d="M461.19,521.18s4.29-9.3,10.55-6.8,12.85,13.06,13.31,18.79S473,531,469.24,527.62A100.12,100.12,0,0,0,461.19,521.18Z"/><path class="cls-26" d="M442.16,499.9a14.19,14.19,0,0,1-5-8.77c-.7-5.55,21.24-11.87,30-14s-1.43,10-5.19,14.67-6.44,5.37-6.26,5.91S442.16,499.9,442.16,499.9Z"/><path class="cls-35" d="M393.56,617.61s58-96,70.87-98.29c0,0,6.77-2.76,6.77,5.72l-28.92,77.61-28.57,30.7Z"/><path class="cls-26" d="M421.11,623.24s-7.87-14.19,1.43-28.69,29-30.92,29-30.92l-9.36-63.82L455.31,497,468,564.51l-19.32,71.7Z"/><path class="cls-36" d="M387,688.25s-34.76,8.34-36.4-18.91c-1.33-22,7.72-29.19,19.83-40.27,12.82-11.74,8.62-22.45,40.51-22.85S450,616.9,451.59,626.56s-11,17.58-9.11,24.18,12.8,24.76,1.54,38.75S428.89,694.48,387,688.25Z"/><path class="cls-26" d="M437.65,684.24c-8.69-2.3-14-8.16-11.06-19.17s13.51-10.19,16.36-9.48S489,673,498.81,689.13,463.34,712,452.33,716.65s-20,4.33-28.54-.89-7-10.93,6.47-10.73,16.77.82,16.77.82,26.05-17.94,21.61-16.3C467.17,690.09,448.46,687.09,437.65,684.24Z"/><path class="cls-36" d="M378.84,691.14s-12.57-5.93-6.38-24.46,21.46-25.77,41.26-22.51,22.06,42.37,5.07,52.51C418.79,696.68,383.18,694.79,378.84,691.14Z"/><path class="cls-36" d="M366.37,629.06s20.24-20.63,20.77-23.59-1.27-7.18,5-15.41,32.54-25.38,36-32,32.38-14.54,41.5,12.29c0,0-2.45,24.33-3.93,30.23-2.49,9.92-4.47,15-12.41,28.27a183.87,183.87,0,0,1-11.18,16.19Z"/><path class="cls-36" d="M418.47,637.82s-5.56,29.88,2,40.26,12.24,9.5,12.24,9.5-5.29-16.83,6.52-36c11.63-18.89-9.92-17.12-9.92-17.12Z"/><path class="cls-37" d="M357.59,638.47s5.56,34.43-3.52,38.31-23.2,9.77-2.52,17.16,19.83-8.31,23.36-14.49,24.91-4.7,27.57-3.49S401,690.61,408.7,694s29,1.87,32.61-3.63-3-12.77-12.94-17.48S417.33,656.85,416,649s-19.27-21.46-19.27-21.46l-21,1Z"/><path class="cls-26" d="M388.24,685.54c-12.39.68-20.67-7.9-24.42-22.37s-2.45-43.68,24.42-43.35S412.51,643.3,413,652.67,408.73,684.41,388.24,685.54Z"/><path class="cls-37" d="M359.34,651c.69,2.59,17.93-7.33,22.19-16.74,0,0,17.25,20.62,34.51,14.79,0,0,4.93-40.2-31.6-33.66C384.44,615.35,349.48,614.14,359.34,651Z"/><ellipse class="cls-37" cx="375.93" cy="658.87" rx="1.34" ry="3.31"/><ellipse class="cls-37" cx="394" cy="657.44" rx="1.34" ry="3.31"/><path class="cls-2" d="M382.56,675.3s8.41-.18,9.48,0-1.52,2.78-3.58,3.85-5.1-1.88-5.9-2.42S381.85,675.32,382.56,675.3Z"/><path class="cls-13" d="M346.33,717.24s75.22,4.13,79.3,4.13,4.43,8.58,4.79,8.58S437,784.7,437,784.7s-1.68,5.19-9.3,4.48-97.42-8.37-97.42-8.37-4.65,1.74-3.22-3.27,16.82-58.37,16.82-58.37S344.58,716.75,346.33,717.24Z"/><path class="cls-11" d="M437.34,787.33s-.91-5.61-2.07-16.08c1,8.89,1.18,12.36-1.09,13.82-2.44,1.56-75.38-4.63-97.51-5.66a29.31,29.31,0,0,1-9.69-1.72c-1.3,4.91,3.25,4.49,3.25,4.49s89.81,7.65,97.42,8.37S437.34,787.33,437.34,787.33Z"/><polygon class="cls-2" points="349.39 721.01 336.67 771.1 427 778.2 422.89 724.95 349.39 721.01"/><polygon class="cls-38" points="351.08 761.24 349.39 759.08 374.46 739.51 383.14 744.29 393.87 732.83 401.99 739.39 412.15 731.41 413.84 733.57 401.96 742.9 394.13 736.57 383.68 747.72 374.72 742.78 351.08 761.24"/><polygon class="cls-38" points="348.29 756.06 354.57 764.05 343.61 765.88 348.29 756.06"/><path class="cls-37" d="M467.21,477.11c-8.77,2.15-30.71,8.47-30,14,.12.89.29,1.83.5,2.77,3.33-2.4,7.78-4.3,11.68-6.27,10.55-5.33,13.31-4.17,14.12,2.33C467.83,484.57,475,475.2,467.21,477.11Z"/><path class="cls-37" d="M471.74,514.38a6,6,0,0,0-6.06,1c6.11,2.18,15,12.31,14.47,14.89-.7,3.14-7.07.16-7.39,0,5.12,3.51,12.65,7.32,12.29,2.85C484.59,527.44,478,516.89,471.74,514.38Z"/></g></g></svg>