
<svg xmlns="http://www.w3.org/2000/svg" width="85.205" height="85.208" viewBox="0 0 85.205 85.208"><defs><style>.a{fill:#635ffc;}</style></defs><path class="a" d="M1458.6,518.679H1385.55a6.112,6.112,0,0,0-6.067,6.143v72.921a6.112,6.112,0,0,0,6.067,6.144H1458.6a6.128,6.128,0,0,0,6.086-6.144V524.82A6.128,6.128,0,0,0,1458.6,518.679Zm-53.367,73.034h-12.629V551.044h12.648v40.663ZM1398.92,545.5a7.322,7.322,0,1,1,7.322-7.323,7.322,7.322,0,0,1-7.322,7.323Zm53.652,46.216h-12.628v-19.78c0-4.717-.095-10.784-6.562-10.784-6.58,0-7.589,5.135-7.589,10.442v20.122h-12.627V551.044h12.115V556.6h.17a13.3,13.3,0,0,1,11.964-6.562c12.78,0,15.157,8.426,15.157,19.381Z" transform="translate(-1379.482 -518.679)"/></svg>