<svg xmlns="http://www.w3.org/2000/svg" width="17" height="12.75" viewBox="0 0 17 12.75"><defs><style>.a{fill:#6c68fd;}</style></defs><path class="a" d="M16.678,68.21a.2.2,0,0,1,.322.156v6.79a1.594,1.594,0,0,1-1.594,1.594H1.594A1.594,1.594,0,0,1,0,75.156V68.369a.2.2,0,0,1,.322-.156c.744.578,1.73,1.312,5.116,3.772.7.511,1.883,1.587,3.061,1.58,1.185.01,2.391-1.089,3.065-1.58C14.951,69.525,15.934,68.788,16.678,68.21ZM8.5,72.5c.77.013,1.879-.97,2.437-1.375,4.406-3.2,4.741-3.476,5.757-4.273A.8.8,0,0,0,17,66.225v-.631A1.594,1.594,0,0,0,15.406,64H1.594A1.594,1.594,0,0,0,0,65.594v.631a.8.8,0,0,0,.305.628c1.016.794,1.351,1.076,5.757,4.273C6.621,71.53,7.73,72.513,8.5,72.5Z" transform="translate(0 -64)"/></svg>